<svg xmlns="http://www.w3.org/2000/svg" width="21.947" height="28.812" viewBox="0 0 21.947 28.812">
  <g id="alarm-bell" transform="translate(5 -1.865)">
    <path id="Path_2981" data-name="Path 2981" d="M82.1,23.185h-.627a16.269,16.269,0,0,1-1.905-7.632v-3.9a7.609,7.609,0,0,0-4.783-7.057V2.814a2.814,2.814,0,0,0-5.627,0V4.592a7.609,7.609,0,0,0-4.783,7.057v3.9a16.269,16.269,0,0,1-1.905,7.632h-.627a.844.844,0,1,0,0,1.688h5.422a4.782,4.782,0,0,0,9.414,0H82.1a.844.844,0,0,0,0-1.688ZM70.848,2.814a1.125,1.125,0,0,1,2.251,0V4.135a7.626,7.626,0,0,0-2.251,0Zm-4.783,8.835a5.909,5.909,0,0,1,11.818,0v3.9a17.919,17.919,0,0,0,.385,3.693H65.679a17.918,17.918,0,0,0,.385-3.693Zm-.828,9.285H78.71a17.949,17.949,0,0,0,.878,2.251H64.359A17.942,17.942,0,0,0,65.237,20.934Zm6.737,6.19A3.1,3.1,0,0,1,69,24.873H74.95A3.1,3.1,0,0,1,71.973,27.124Z" transform="translate(-66 1.865)" fill="#181c2b"/>
  </g>
</svg>
