<svg xmlns="http://www.w3.org/2000/svg" width="531.22" height="447.382" viewBox="0 0 531.22 447.382"><g transform="translate(3.913)"><g opacity="0.5"><ellipse cx="8.75" cy="9.42" rx="8.75" ry="9.42" transform="translate(16.93 106.73)" fill="#ccd3e6"/></g><path d="M373.82,380.41a11.514,11.514,0,1,1-15.43-5.2A11.5,11.5,0,0,1,373.82,380.41Z" fill="#d3e8ee"/><path d="M523.93,429.83c0,6.87-106.16,12.44-237.11,12.44S49.71,436.7,49.71,429.83s106.16-12.44,237.11-12.44S523.93,422.96,523.93,429.83Z" fill="#d3e8ee"/><path d="M239.17,99.67C221.42,35.26,141.4,14.51,95.54,62.65c-.66.69-1.32,1.39-1.97,2.11C27.82,136.23,58.88,312.35,196.09,356.99s279.93-36.88,287.94-109.74-55.28-95.76-153.52-75.39C275.01,183.36,250.23,139.78,239.17,99.67Z" fill="#d3e8ee"/><path d="M396.33,349.84c-16.18,9.18-15.3,26.2,2,32.09,5.72,1.95,13.09,2.6,22.58.77,36.14-6.96,48.63-28.72,27.75-43.2C435.77,330.57,412.37,340.75,396.33,349.84Z" fill="#d3e8ee"/><path d="M451.34,318.95c-5.21,7.35-1.16,16.09,7.79,16.42a17.5,17.5,0,0,0,10.19-3.18c14.55-9.37,15.42-22.7,3.03-26.93C464.71,302.64,456.5,311.66,451.34,318.95Z" fill="#d3e8ee"/><path d="M344.87,49.57l1.37-6.96-6.52-1.28a16.059,16.059,0,0,0-.86-5.1l5.38-3.61-3.96-5.89-5.15,3.46a15.76,15.76,0,0,0-5.28-3.55l1.28-6.53-6.96-1.37-1.32,6.73a15.992,15.992,0,0,0-4.24.82L315,20.91l-5.89,3.96,3.46,5.15a15.76,15.76,0,0,0-3.55,5.28l-5.7-1.12-1.37,6.96,5.9,1.16a15.861,15.861,0,0,0,1.25,5.37l-5.15,3.46,3.96,5.89,5.38-3.61a15.852,15.852,0,0,0,5.19,3.01l-1.29,6.56,6.96,1.37,1.4-7.12a15.762,15.762,0,0,0,4.51-1.19l3.46,5.15,5.89-3.96-3.61-5.38a16.074,16.074,0,0,0,2.37-3.61Zm-17.49-2.79a6.507,6.507,0,1,1,1.77-9.03A6.513,6.513,0,0,1,327.38,46.78Z" fill="#d3e8ee"/><path d="M295.48,16.85l.75-3.81-3.57-.7a8.647,8.647,0,0,0-.47-2.79l2.94-1.97-2.16-3.22-2.81,1.89a8.706,8.706,0,0,0-2.89-1.94l.7-3.57L284.16,0l-.72,3.68a8.511,8.511,0,0,0-2.32.45l-1.97-2.94-3.22,2.16,1.89,2.81a8.706,8.706,0,0,0-1.94,2.89l-3.12-.61-.75,3.81,3.23.63a8.7,8.7,0,0,0,.69,2.94l-2.81,1.89,2.16,3.22,2.94-1.97a8.8,8.8,0,0,0,2.83,1.65l-.7,3.59,3.81.75.76-3.89a8.528,8.528,0,0,0,2.46-.65l1.89,2.81,3.22-2.16-1.97-2.94a8.364,8.364,0,0,0,1.29-1.97Zm-9.55-1.53a3.553,3.553,0,1,1,.97-4.93A3.555,3.555,0,0,1,285.93,15.32Z" fill="#d3e8ee"/><path d="M101.01,365.15l-.25-7.49-7.02.23a16.8,16.8,0,0,0-2.1-5.04l4.67-4.99-5.47-5.12-4.47,4.78a16.7,16.7,0,0,0-6.28-2.4l-.23-7.02-7.49.25.24,7.23a16.47,16.47,0,0,0-4.16,1.86l-4.99-4.67-5.12,5.47,4.78,4.47a16.7,16.7,0,0,0-2.4,6.28l-6.13.2.25,7.49,6.35-.21a16.767,16.767,0,0,0,2.57,5.23l-4.47,4.78,5.47,5.12,4.67-4.99a16.7,16.7,0,0,0,6.05,1.87l.23,7.06,7.49-.25-.25-7.65a16.8,16.8,0,0,0,4.35-2.29l4.78,4.47,5.12-5.47-4.99-4.67a16.724,16.724,0,0,0,1.58-4.28Zm-18.66,1.28a6.87,6.87,0,1,1-.32-9.71A6.881,6.881,0,0,1,82.35,366.43Z" fill="#d3e8ee"/><path d="M191.51,381.82l-.14-4.09-3.83.13a8.935,8.935,0,0,0-1.15-2.75l2.55-2.73-2.99-2.8-2.44,2.61a9.11,9.11,0,0,0-3.43-1.31l-.13-3.84-4.09.14.13,3.95a9.448,9.448,0,0,0-2.28,1.01l-2.73-2.55-2.8,2.99,2.61,2.44a9.11,9.11,0,0,0-1.31,3.43l-3.35.11.13,4.09,3.47-.12a9.166,9.166,0,0,0,1.4,2.86L168.69,388l2.99,2.8,2.55-2.73a9.1,9.1,0,0,0,3.31,1.02l.13,3.86,4.09-.14-.14-4.18a9.044,9.044,0,0,0,2.38-1.25l2.61,2.44,2.8-2.99-2.73-2.55a9.162,9.162,0,0,0,.86-2.34Zm-10.19.7a3.753,3.753,0,1,1-.19-5.3A3.768,3.768,0,0,1,181.32,382.52Z" fill="#d3e8ee"/><path d="M226.63,24.65a.99.99,0,0,1-.42,0c-1.5-.39-2.36-.55-2.37-.55a.834.834,0,0,1,.3-1.64c.04.01.93.17,2.5.58a.828.828,0,0,1-.01,1.61Z" fill="#d3e8ee"/><path d="M275.1,62.88c.78,1.42,1.53,2.89,2.23,4.37a.824.824,0,0,0,.96.45.88.88,0,0,0,.15-.05.837.837,0,0,0,.4-1.11c-.71-1.51-1.48-3.01-2.27-4.46a.837.837,0,0,0-1.47.8Z" fill="#d3e8ee"/><path d="M279.29,71.75c.6,1.5,1.17,3.05,1.7,4.6a.824.824,0,0,0,.99.54c.02-.01.04-.01.06-.02a.83.83,0,0,0,.52-1.06c-.54-1.59-1.12-3.16-1.73-4.69a.832.832,0,1,0-1.54.63Z" fill="#d3e8ee"/><path d="M286.36,96.18a.826.826,0,0,0,.62-.91c-.21-1.66-.46-3.32-.75-4.94a.838.838,0,1,0-1.65.29c.28,1.59.53,3.23.74,4.86a.831.831,0,0,0,.93.72A.359.359,0,0,0,286.36,96.18Z" fill="#d3e8ee"/><path d="M283.01,80.01a.838.838,0,0,0-.58,1.03c.2.73.4,1.47.59,2.2.21.84.42,1.7.61,2.56a.836.836,0,0,0,1,.63c.01,0,.01,0,.02-.01a.831.831,0,0,0,.61-.99c-.2-.87-.41-1.75-.62-2.6-.19-.74-.39-1.5-.6-2.24a.822.822,0,0,0-1.01-.58C283.02,80,283.02,80.01,283.01,80.01Z" fill="#d3e8ee"/><path d="M272.61,58.66a.833.833,0,0,0,.91.36,1.224,1.224,0,0,0,.24-.1.83.83,0,0,0,.26-1.15c-.89-1.41-1.83-2.8-2.81-4.14a.838.838,0,0,0-1.36.98C270.82,55.92,271.74,57.28,272.61,58.66Z" fill="#d3e8ee"/><path d="M230.9,26.07c1.52.52,3.07,1.1,4.59,1.73a.833.833,0,0,0,1.09-.45.835.835,0,0,0-.45-1.09c-1.56-.64-3.13-1.24-4.69-1.77a.835.835,0,0,0-.54,1.58Z" fill="#d3e8ee"/><path d="M244.33,32.07a.819.819,0,0,0,.61.08.8.8,0,0,0,.52-.4.847.847,0,0,0-.32-1.14c-1.45-.81-2.95-1.59-4.44-2.31a.832.832,0,1,0-.72,1.5C241.44,30.51,242.9,31.28,244.33,32.07Z" fill="#d3e8ee"/><path d="M260.15,43.59a.84.84,0,0,0,.78.2.838.838,0,0,0,.36-1.42c-1.21-1.13-2.48-2.25-3.76-3.31a.831.831,0,0,0-1.06,1.28C257.73,41.39,258.96,42.48,260.15,43.59Z" fill="#d3e8ee"/><path d="M252.59,37.35a.841.841,0,0,0,.99-1.36c-1.34-.97-2.73-1.92-4.14-2.82a.832.832,0,0,0-.9,1.4C249.92,35.47,251.28,36.4,252.59,37.35Z" fill="#d3e8ee"/><path d="M266.86,50.73a.845.845,0,0,0,.85.28.746.746,0,0,0,.33-.17.828.828,0,0,0,.11-1.17c-1.06-1.28-2.17-2.54-3.31-3.75a.835.835,0,0,0-1.22,1.14C264.74,48.24,265.83,49.48,266.86,50.73Z" fill="#d3e8ee"/><path d="M225.8,19l1.69-13.91-44.23,6.76Z" fill="#30b9ef"/><path d="M183.26,11.85l40.86,10.69.11.03,2.05,2.51L225.8,19Z" fill="#1295c9"/><path d="M226.28,25.08l-3.67-.05,1.62-2.46Z" fill="#0036af"/><path d="M219.09,21.22l5.14,1.35-8.37,12.69-32.6-23.41Z" fill="#30b9ef"/><rect width="39.42" height="27.23" transform="translate(388.13 37.3)" fill="#fc5f2d"/><path d="M388.12,37.3l19.72,13.62L427.55,37.3Z" fill="#ff8b54"/><path d="M381.74,43.55H369.03a.84.84,0,0,1,0-1.68h12.71a.84.84,0,0,1,0,1.68Z" fill="#d3e8ee"/><path d="M381.74,51.76H369.03a.84.84,0,0,1,0-1.68h12.71a.84.84,0,0,1,0,1.68Z" fill="#d3e8ee"/><path d="M381.74,59.96H369.03a.84.84,0,0,1,0-1.68h12.71a.84.84,0,0,1,0,1.68Z" fill="#d3e8ee"/><path d="M516.83,192.18c-14.32,9.12-26.26-1.91-34.65,8.3s-21.23,12.34-28.26,3.04-11.69-16.55-24.23-10.03-29.38.61-27.54-11.53c.45-3.02.95-6.29,1.44-9.5.14-.88.27-1.75.4-2.61l.09-.6a25.606,25.606,0,0,1,26.33-21.83c5.28.25,10.23,2.12,13.4,7.06,9.92,15.47,16.74-2.09,29.59-.88,14.8,1.4,16.23,15.59,27.32,15.45C516.15,168.88,531.15,183.06,516.83,192.18Z" fill="#007d55"/><path d="M496.33,183.72l-92.74-11.26c.14-.88.27-1.75.4-2.61l92.66,11.25a1.32,1.32,0,0,1-.32,2.62Z" fill="#04593a"/><path d="M8.67,318.13c12.42,8.38,23.21-1.07,30.38,8.13s18.44,11.38,24.86,3.34,10.7-14.33,21.61-8.29,25.9,1.22,24.57-9.53c-.33-2.68-.69-5.57-1.05-8.41-.1-.78-.2-1.55-.29-2.31-.02-.18-.04-.35-.07-.53a22.609,22.609,0,0,0-22.73-19.87c-4.66.1-9.07,1.63-11.98,5.92-9.11,13.42-14.72-2.23-26.09-1.46-13.09.89-14.68,13.37-24.46,13C9.81,297.59-3.75,309.76,8.67,318.13Z" fill="#007d55"/><path d="M26.95,311.14l82.08-7.78c-.1-.78-.2-1.55-.29-2.31l-82.01,7.77a1.166,1.166,0,0,0-1.05,1.27A1.178,1.178,0,0,0,26.95,311.14Z" fill="#0036af"/><path d="M86.9,107.37l-2.69.05-1.43.03-4.04.08S37.69,46.48,59.8,24.45c6.81-6.78,19.69-2.27,18.66,27.1C77.51,78.77,86.9,107.37,86.9,107.37Z" fill="#007d55"/><path d="M84.21,107.42l-1.43.03C75.36,92.51,71.09,76.23,68.77,64.77A201.058,201.058,0,0,1,65.32,41.1a.647.647,0,0,1,1.29-.09,200.911,200.911,0,0,0,3.43,23.52C72.38,76.06,76.69,92.46,84.21,107.42Z" fill="#04593a"/><path d="M100.01,110.65l-3.24,2.16-1.72,1.15-4.87,3.25S-7.49,74.72,2.33,30.61C5.35,17.03,24.59,12.5,46.21,49.13,66.25,83.07,100.01,110.65,100.01,110.65Z" fill="#00b570"/><path d="M96.77,112.81l-1.72,1.15c-20.7-12.45-38.59-28.97-50.36-41.15a288.347,288.347,0,0,1-22.65-26.2.92.92,0,0,1,.2-1.3.933.933,0,0,1,1.31.2A289.07,289.07,0,0,0,46.07,71.54C57.88,83.76,75.93,100.42,96.77,112.81Z" fill="#007d55"/><path d="M-3.19,240.24C1.65,256.51,17.9,256,17.55,269.21s7.95,23.23,19.36,20.81,19.67-4.84,24.88,8.3,21.8,19.71,28.36,9.33c1.64-2.58,3.4-5.38,5.13-8.12.47-.75.94-1.5,1.41-2.23.11-.17.22-.34.32-.51a25.6,25.6,0,0,0-5.6-33.74c-4.15-3.27-9.12-5.1-14.75-3.44-17.63,5.18-11.28-12.55-21.78-20.05-12.1-8.64-22.48,1.14-30.77-6.22C12.59,223.08-8.03,223.97-3.19,240.24Z" fill="#00b570"/><path d="M17.85,247.27l77.44,52.26c.47-.75.94-1.5,1.41-2.23L19.33,245.09a1.319,1.319,0,0,0-1.83.35A1.3,1.3,0,0,0,17.85,247.27Z" fill="#0056c7"/><path d="M523.57,103.64c-3.67,16.57-19.91,17.22-18.63,30.37s-6.28,23.74-17.83,22.14-19.97-3.43-24.22,10.05-20.34,21.21-27.63,11.33c-1.82-2.46-3.78-5.12-5.7-7.74-.52-.71-1.05-1.43-1.56-2.13-.12-.16-.24-.32-.36-.49a25.618,25.618,0,0,1,3.18-34.06c3.91-3.55,8.73-5.74,14.46-4.49,17.96,3.92,10.36-13.32,20.3-21.55,11.45-9.48,22.5-.46,30.24-8.4C506.6,87.65,527.23,87.07,523.57,103.64Z" fill="#00b570"/><path d="M503.08,112.16,429.56,169.8c-.52-.71-1.05-1.43-1.56-2.13l73.45-57.59a1.321,1.321,0,0,1,1.63,2.08Z" fill="#007d55"/><path d="M123.79,131.41s1.48,4.53,6.1,4.62,0-5.73,0-5.73,3.38,4.14,5.4,3.51-4.15-6.24-7.02-6.33S123.79,131.41,123.79,131.41Z" fill="#fc5f2d"/><path d="M457.79,74.46v245.2a7.428,7.428,0,0,1-7.43,7.43H78.15a7.428,7.428,0,0,1-7.43-7.43V74.46a7.428,7.428,0,0,1,7.43-7.43H450.37A7.42,7.42,0,0,1,457.79,74.46Z" fill="#0c375a"/><path d="M447.53,84.97V309.15a7.533,7.533,0,0,1-7.54,7.54H88.52a7.168,7.168,0,0,1-2.62-.48,7.519,7.519,0,0,1-4.92-7.06V84.97a7.53,7.53,0,0,1,7.53-7.54H439.97a7.567,7.567,0,0,1,7.56,7.54Z" fill="#fff"/><path d="M447.53,84.96V96.12H80.99V84.96a7.539,7.539,0,0,1,7.54-7.54H440A7.543,7.543,0,0,1,447.53,84.96Z" fill="#d3e8ee"/><path d="M418.77,86.77a3.66,3.66,0,1,1-3.66-3.66A3.662,3.662,0,0,1,418.77,86.77Z" fill="#ffaa95"/><path d="M405.22,86.77a3.66,3.66,0,1,1-3.66-3.66A3.662,3.662,0,0,1,405.22,86.77Z" fill="#0172d2"/><path d="M432.32,86.77a3.66,3.66,0,1,1-3.66-3.66A3.662,3.662,0,0,1,432.32,86.77Z" fill="#fc5f2d"/><path d="M141.95,298.09h-39.1a6.163,6.163,0,0,1-6.16-6.16V128.17a6.163,6.163,0,0,1,6.16-6.16h39.1a6.163,6.163,0,0,1,6.16,6.16V291.93A6.163,6.163,0,0,1,141.95,298.09Z" fill="#e4f1f4"/><rect width="57.71" height="82.2" transform="translate(237.75 326.98)" fill="#001030"/><path d="M332.65,423.98H207.43v-4.03a13.612,13.612,0,0,1,13.61-13.61h98.01a13.612,13.612,0,0,1,13.61,13.61v4.03Z" fill="#0c375a"/><path d="M385.65,331.46H369.4a3.461,3.461,0,0,1-3.46-3.46v-1.02H389.1V328A3.446,3.446,0,0,1,385.65,331.46Z" fill="#001030"/><path d="M421.16,331.46H404.92a3.461,3.461,0,0,1-3.46-3.46v-1.02h23.16V328A3.461,3.461,0,0,1,421.16,331.46Z" fill="#001030"/><path d="M350.13,331.46H333.89a3.461,3.461,0,0,1-3.46-3.46v-1.02h23.16V328A3.461,3.461,0,0,1,350.13,331.46Z" fill="#001030"/><path d="M501.31,430.77H473.57c-3.77,0-7.12-2.89-8.28-7.15L453.53,380.6c-.48-1.76.55-3.59,2.1-3.73a344.035,344.035,0,0,1,63.62-.01c1.55.15,2.58,1.97,2.1,3.73l-11.76,43.02C508.42,427.88,505.08,430.77,501.31,430.77Z" fill="#fc5f2d"/><path d="M518.89,380c0,1.14-14,2.07-31.26,2.07s-31.26-.93-31.26-2.07,14-2.07,31.26-2.07S518.89,378.85,518.89,380Z" fill="#0c375a"/><path d="M523.03,321.86c-11.25-2.96-28.44,20.39-33.66,43.15V331.84c2.62-4.65,7.63-11.65,16.71-19.05,14.13-11.5,27.13-26.27,15.86-29.24-10.56-2.78-26.36,17.63-32.57,38.97V279.93a44.918,44.918,0,0,1,9.57-10.41c8.9-7.25,17.1-16.56,9.99-18.43-6.16-1.62-15.16,9.29-19.56,21.59V258.87a65.892,65.892,0,0,1,4.58-16.61c6.55-14.45,10.08-29.34,1.45-28.23s-14.24,26.84-9.52,46.6v7.1c-3.19-14.46-14.14-29.43-21.29-27.55-7.1,1.87,1.09,11.18,9.99,18.43,6.78,5.52,9.95,10.69,11.3,13.46v33.55c-5.12-22.88-22.43-46.49-33.74-43.52-11.27,2.97,1.73,17.73,15.86,29.24,10.67,8.69,15.71,16.84,17.88,21.27v40.24c-5.47-22.46-22.34-45.13-33.43-42.21-11.27,2.97-1.6,13.76,14.27,26.81a74.8,74.8,0,0,1,19.16,23.32v18.95a5.886,5.886,0,0,0,3.48,0v-7.54c2.21-4.47,7.25-12.52,17.8-21.11C521.3,339.59,534.3,324.83,523.03,321.86Z" fill="#00b570"/><path d="M222.34,201.39H170.79a7.994,7.994,0,0,1-7.99-7.99V130.14a7.994,7.994,0,0,1,7.99-7.99h51.55a7.994,7.994,0,0,1,7.99,7.99V193.4A7.994,7.994,0,0,1,222.34,201.39Z" fill="#a9e0ed"/><path d="M216.61,194.29H174.95a5.2,5.2,0,0,1-5.2-5.2v-1.74a5.2,5.2,0,0,1,5.2-5.2h41.66a5.2,5.2,0,0,1,5.2,5.2v1.74A5.2,5.2,0,0,1,216.61,194.29Z" fill="#dd2f37"/><text transform="translate(175.722 190.503)" fill="#fff" font-size="7" font-family="GothamRounded-Medium, Gotham Rounded" font-weight="500"><tspan x="0" y="0">APPLY JOB</tspan></text><circle cx="7.95" cy="7.95" r="7.95" transform="translate(188.18 129.28)" fill="#57a6c1"/><path d="M212.78,161.83v-.2a16.652,16.652,0,0,0-33.3-.07v.28h33.3Z" fill="#57a6c1"/><path d="M222.54,171.31H170.4a1.472,1.472,0,0,1-1.47-1.47v-.49a1.472,1.472,0,0,1,1.47-1.47h52.14a1.472,1.472,0,0,1,1.47,1.47v.49A1.472,1.472,0,0,1,222.54,171.31Z" fill="#fff"/><path d="M196.76,178.03H170.49a1.472,1.472,0,0,1-1.47-1.47v-.49a1.472,1.472,0,0,1,1.47-1.47h26.27a1.472,1.472,0,0,1,1.47,1.47v.49A1.46,1.46,0,0,1,196.76,178.03Z" fill="#fff"/><path d="M316.09,202.11H264.54a7.994,7.994,0,0,1-7.99-7.99V130.86a7.994,7.994,0,0,1,7.99-7.99h51.55a7.994,7.994,0,0,1,7.99,7.99v63.26A7.987,7.987,0,0,1,316.09,202.11Z" fill="#d3e8ee"/><path d="M310.36,195.01H268.7a5.2,5.2,0,0,1-5.2-5.2v-1.74a5.2,5.2,0,0,1,5.2-5.2h41.66a5.2,5.2,0,0,1,5.2,5.2v1.74A5.2,5.2,0,0,1,310.36,195.01Z" fill="#ed4559"/><text transform="translate(269.472 191.226)" fill="#fff" font-size="7" font-family="GothamRounded-Medium, Gotham Rounded" font-weight="500"><tspan x="0" y="0">APPLY JOB</tspan></text><circle cx="7.95" cy="7.95" r="7.95" transform="translate(281.93 130)" fill="#a4b6ba"/><path d="M306.53,162.55v-.2a16.652,16.652,0,0,0-33.3-.07v.28h33.3Z" fill="#a4b6ba"/><path d="M316.29,172.03H264.15a1.472,1.472,0,0,1-1.47-1.47v-.49a1.472,1.472,0,0,1,1.47-1.47h52.14a1.472,1.472,0,0,1,1.47,1.47v.49A1.472,1.472,0,0,1,316.29,172.03Z" fill="#bfd4d6"/><path d="M290.51,178.76H264.24a1.472,1.472,0,0,1-1.47-1.47v-.49a1.472,1.472,0,0,1,1.47-1.47h26.27a1.472,1.472,0,0,1,1.47,1.47v.49A1.466,1.466,0,0,1,290.51,178.76Z" fill="#bfd4d6"/><path d="M411.88,202.67H360.33a7.994,7.994,0,0,1-7.99-7.99V131.42a7.994,7.994,0,0,1,7.99-7.99h51.55a7.994,7.994,0,0,1,7.99,7.99v63.26A7.994,7.994,0,0,1,411.88,202.67Z" fill="#d3e8ee"/><path d="M406.15,195.57H364.49a5.2,5.2,0,0,1-5.2-5.2v-1.74a5.2,5.2,0,0,1,5.2-5.2h41.66a5.2,5.2,0,0,1,5.2,5.2v1.74A5.2,5.2,0,0,1,406.15,195.57Z" fill="#ed4559"/><text transform="translate(365.264 191.78)" fill="#fff" font-size="7" font-family="GothamRounded-Medium, Gotham Rounded" font-weight="500"><tspan x="0" y="0">APPLY JOB</tspan></text><circle cx="7.95" cy="7.95" r="7.95" transform="translate(377.72 130.56)" fill="#a4b6ba"/><path d="M402.32,163.11v-.2a16.652,16.652,0,0,0-33.3-.07v.28h33.3Z" fill="#a4b6ba"/><path d="M412.08,172.59H359.94a1.472,1.472,0,0,1-1.47-1.47v-.49a1.472,1.472,0,0,1,1.47-1.47h52.14a1.472,1.472,0,0,1,1.47,1.47v.49A1.472,1.472,0,0,1,412.08,172.59Z" fill="#bfd4d6"/><path d="M386.31,179.31H360.04a1.472,1.472,0,0,1-1.47-1.47v-.49a1.472,1.472,0,0,1,1.47-1.47h26.27a1.472,1.472,0,0,1,1.47,1.47v.49A1.472,1.472,0,0,1,386.31,179.31Z" fill="#bfd4d6"/><path d="M221.22,294.47H169.67a7.994,7.994,0,0,1-7.99-7.99V223.22a7.994,7.994,0,0,1,7.99-7.99h51.55a7.994,7.994,0,0,1,7.99,7.99v63.26A7.987,7.987,0,0,1,221.22,294.47Z" fill="#d3e8ee"/><path d="M215.49,287.37H173.83a5.2,5.2,0,0,1-5.2-5.2v-1.74a5.2,5.2,0,0,1,5.2-5.2h41.66a5.2,5.2,0,0,1,5.2,5.2v1.74A5.2,5.2,0,0,1,215.49,287.37Z" fill="#ed4559"/><text transform="translate(174.599 283.589)" fill="#fff" font-size="7" font-family="GothamRounded-Medium, Gotham Rounded" font-weight="500"><tspan x="0" y="0">APPLY JOB</tspan></text><circle cx="7.95" cy="7.95" r="7.95" transform="translate(187.06 222.36)" fill="#a4b6ba"/><path d="M211.66,254.92v-.2a16.652,16.652,0,0,0-33.3-.07v.28h33.3Z" fill="#a4b6ba"/><path d="M221.41,264.4H169.27a1.472,1.472,0,0,1-1.47-1.47v-.49a1.472,1.472,0,0,1,1.47-1.47h52.14a1.472,1.472,0,0,1,1.47,1.47v.49A1.466,1.466,0,0,1,221.41,264.4Z" fill="#bfd4d6"/><path d="M195.64,271.12H169.37a1.472,1.472,0,0,1-1.47-1.47v-.49a1.472,1.472,0,0,1,1.47-1.47h26.27a1.472,1.472,0,0,1,1.47,1.47v.49A1.472,1.472,0,0,1,195.64,271.12Z" fill="#bfd4d6"/><path d="M314.97,295.2H263.42a7.994,7.994,0,0,1-7.99-7.99V223.95a7.994,7.994,0,0,1,7.99-7.99h51.55a7.994,7.994,0,0,1,7.99,7.99v63.26A8,8,0,0,1,314.97,295.2Z" fill="#d3e8ee"/><path d="M309.24,288.1H267.58a5.2,5.2,0,0,1-5.2-5.2v-1.74a5.2,5.2,0,0,1,5.2-5.2h41.66a5.2,5.2,0,0,1,5.2,5.2v1.74A5.2,5.2,0,0,1,309.24,288.1Z" fill="#ed4559"/><text transform="translate(268.35 284.31)" fill="#fff" font-size="7" font-family="GothamRounded-Medium, Gotham Rounded" font-weight="500"><tspan x="0" y="0">APPLY JOB</tspan></text><circle cx="7.95" cy="7.95" r="7.95" transform="translate(280.81 223.09)" fill="#a4b6ba"/><path d="M305.4,255.64v-.2a16.652,16.652,0,0,0-33.3-.07v.28h33.3Z" fill="#a4b6ba"/><path d="M315.16,265.12H263.02a1.472,1.472,0,0,1-1.47-1.47v-.49a1.472,1.472,0,0,1,1.47-1.47h52.14a1.472,1.472,0,0,1,1.47,1.47v.49A1.466,1.466,0,0,1,315.16,265.12Z" fill="#bfd4d6"/><path d="M289.39,271.84H263.12a1.472,1.472,0,0,1-1.47-1.47v-.49a1.472,1.472,0,0,1,1.47-1.47h26.27a1.472,1.472,0,0,1,1.47,1.47v.49A1.472,1.472,0,0,1,289.39,271.84Z" fill="#bfd4d6"/><path d="M410.76,295.75H359.21a7.994,7.994,0,0,1-7.99-7.99V224.5a7.994,7.994,0,0,1,7.99-7.99h51.55a7.994,7.994,0,0,1,7.99,7.99v63.26A7.987,7.987,0,0,1,410.76,295.75Z" fill="#d3e8ee"/><path d="M405.03,288.65H363.37a5.2,5.2,0,0,1-5.2-5.2v-1.74a5.2,5.2,0,0,1,5.2-5.2h41.66a5.2,5.2,0,0,1,5.2,5.2v1.74A5.2,5.2,0,0,1,405.03,288.65Z" fill="#ed4559"/><text transform="translate(364.142 284.864)" fill="#fff" font-size="7" font-family="GothamRounded-Medium, Gotham Rounded" font-weight="500"><tspan x="0" y="0">APPLY JOB</tspan></text><circle cx="7.95" cy="7.95" r="7.95" transform="translate(376.6 223.64)" fill="#a4b6ba"/><path d="M401.2,256.19v-.2a16.652,16.652,0,0,0-33.3-.07v.28h33.3Z" fill="#a4b6ba"/><path d="M410.96,265.67H358.82a1.472,1.472,0,0,1-1.47-1.47v-.49a1.472,1.472,0,0,1,1.47-1.47h52.14a1.472,1.472,0,0,1,1.47,1.47v.49A1.472,1.472,0,0,1,410.96,265.67Z" fill="#bfd4d6"/><path d="M385.18,272.4H358.91a1.472,1.472,0,0,1-1.47-1.47v-.49a1.472,1.472,0,0,1,1.47-1.47h26.27a1.472,1.472,0,0,1,1.47,1.47v.49A1.472,1.472,0,0,1,385.18,272.4Z" fill="#bfd4d6"/><path d="M174.69,169.72l2.35,7.2c-7.43,4.35-26.17,14.6-34.52,17.67-2.48.91-5.95,2.04-9.9,3.27q-2.265.705-4.7,1.44c-1.39.42-2.81.84-4.25,1.26-.06.02-.13.04-.19.06-1.9.22-4.31.49-7.05.77l.02-11.48,4.51-1.25,2.66-.73,3.75-1.04,8.2-2.27C141.72,180.84,168.44,173.01,174.69,169.72Z" fill="#ffaa95"/><path d="M185.25,165.34c.2-.08,2.66-.98,3.38.04a1.853,1.853,0,0,1-.11,2.14s1.8,1.02,1.85,2.06a2.434,2.434,0,0,1-.81,1.77s1.16.57,1.12,1.56-1.4,2.44-3.42,2.98a4.14,4.14,0,0,1-2.86,0,.123.123,0,0,1-.03-.02s-.33.12-.92.32c-.97.32-2.64.84-4.59,1.28-3.12.7-6.98-3.59-7.26-6.37a32.2,32.2,0,0,1,2.45-5.85c1.31-2.14,2.26-2.64,3.85-2.43s3.15.74,3.49.68,8.44-4.27,10.3-3.72C193.5,160.3,185.6,165.13,185.25,165.34Z" fill="#ffaa95"/><path d="M176.47,169.07a.537.537,0,0,1-.21-.05.453.453,0,0,1-.18-.6l.98-1.82a.442.442,0,0,1,.28-.22.431.431,0,0,1,.35.06,5.734,5.734,0,0,0,3.87.85,1.642,1.642,0,0,0,1.1-.68.975.975,0,0,0,.03-.71.446.446,0,0,1,.82-.35,1.827,1.827,0,0,1-.04,1.44,2.384,2.384,0,0,1-1.68,1.15,6.167,6.167,0,0,1-4.16-.73l-.77,1.42A.425.425,0,0,1,176.47,169.07Z" fill="#ff8b6b"/><path d="M184.4,175.89a.123.123,0,0,1-.03-.02s-.33.12-.92.32a4.615,4.615,0,0,1-.88-2.92,3.244,3.244,0,0,0-.5-1.99,2.774,2.774,0,0,1-.65-1.64,3.842,3.842,0,0,1,.19-1.44q.075-.225.15-.42a3.7,3.7,0,0,1,.27-.55.442.442,0,0,1,.61-.15.428.428,0,0,1,.15.6s-.02.04-.05.09a3.78,3.78,0,0,0-.43,1.64,1.945,1.945,0,0,0,.44,1.29,4.021,4.021,0,0,1,.71,2.51A3.377,3.377,0,0,0,184.4,175.89Z" fill="#ff8b6b"/><path d="M178.25,172.61a.439.439,0,0,1-.4-.25.45.45,0,0,1,.21-.59h0c.03-.01,2.65-1.28,2.91-3.78a.446.446,0,0,1,.49-.39.441.441,0,0,1,.39.49c-.32,3-3.29,4.43-3.41,4.48A.406.406,0,0,1,178.25,172.61Z" fill="#ff8b6b"/><path d="M123.68,200.56c3.1-.92,6.15-1.83,8.95-2.7a18.084,18.084,0,0,0-5.26-10.97l-6.4,1.77Z" fill="#ff8b6b"/><path d="M125.27,202.6a72.771,72.771,0,0,1-17.68,4.49,24.429,24.429,0,0,1-8.54-.46l-1.55-2.84-8.7-15.98s20.45,4.09,33.73-.62C122.55,187.19,125.47,195.43,125.27,202.6Z" fill="#f88800"/><path d="M107.6,207.08a24.429,24.429,0,0,1-8.54-.46l-1.55-2.84a4.272,4.272,0,0,1,2.76-3.22A15.566,15.566,0,0,0,107.6,207.08Z" fill="#f88800"/><path d="M39.89,406.62,33.1,415.7s1.24,4.06,6.26,7.18l8.12-10.44Z" fill="#ffaa95"/><path d="M38.24,420.07s3.17-.68,4.26.41,3.81,16.03,6.36,19.3-.02,5-1.59,5.66-24.06-21.81-24.06-21.81,5.56-7.68,8.24-9.17S35.39,418.48,38.24,420.07Z" fill="#fc5f2d"/><path d="M38.84,429.35a.545.545,0,0,1-.3-.33.576.576,0,0,1,.35-.73,8.825,8.825,0,0,1,4.27-.37,3.917,3.917,0,0,1,2.91,2.8.573.573,0,0,1-1.12.24,2.774,2.774,0,0,0-2.08-1.93,7.7,7.7,0,0,0-3.61.35A.607.607,0,0,1,38.84,429.35Z" fill="#fff"/><path d="M38.62,427.02a.545.545,0,0,1-.3-.33.576.576,0,0,1,.35-.73,8.911,8.911,0,0,1,4.27-.38,3.917,3.917,0,0,1,2.91,2.8.573.573,0,0,1-1.12.24,2.774,2.774,0,0,0-2.08-1.93,7.672,7.672,0,0,0-3.61.35A.555.555,0,0,1,38.62,427.02Z" fill="#fff"/><path d="M39.72,431.85a.545.545,0,0,1-.3-.33.576.576,0,0,1,.35-.73,8.911,8.911,0,0,1,4.27-.38,3.917,3.917,0,0,1,2.91,2.8.573.573,0,0,1-1.12.24,2.8,2.8,0,0,0-2.08-1.93,7.672,7.672,0,0,0-3.61.35A.555.555,0,0,1,39.72,431.85Z" fill="#fff"/><path d="M81.51,422.2l1.03,11.29s3.64,2.19,9.46,1.15l-.95-13.19Z" fill="#ffaa95"/><path d="M89.95,433.05s1.99-2.75,3.59-2.65,14.15,9.77,18.41,10.53,3.48,3.89,2.72,5.5-33.74.69-33.74.69-1.22-10.65-.18-13.68S86.64,433.81,89.95,433.05Z" fill="#fc5f2d"/><path d="M96.9,439.83a.561.561,0,0,1-.47-.05.592.592,0,0,1-.23-.81,9.089,9.089,0,0,1,3.05-3.27,4.065,4.065,0,0,1,4.21.14.594.594,0,0,1-.7.96,2.954,2.954,0,0,0-2.97-.05,8.143,8.143,0,0,0-2.56,2.79A.5.5,0,0,1,96.9,439.83Z" fill="#fff"/><path d="M95.1,438.18a.561.561,0,0,1-.47-.05.592.592,0,0,1-.23-.81,9.089,9.089,0,0,1,3.05-3.27,4.065,4.065,0,0,1,4.21.14.594.594,0,0,1-.7.96,2.961,2.961,0,0,0-2.97-.05,8.031,8.031,0,0,0-2.56,2.79A.479.479,0,0,1,95.1,438.18Z" fill="#fff"/><path d="M99.33,441.16a.561.561,0,0,1-.47-.05.592.592,0,0,1-.23-.81,9.089,9.089,0,0,1,3.05-3.27,4.065,4.065,0,0,1,4.21.14.594.594,0,0,1-.7.96,2.961,2.961,0,0,0-2.97-.05,8.031,8.031,0,0,0-2.56,2.79A.553.553,0,0,1,99.33,441.16Z" fill="#fff"/><path d="M75.19,299.69l-6.85,56.73a188.808,188.808,0,0,0-12.01,19.02c-4.92,8.96-18.03,32.21-18.03,32.21l7.93,6.04,43.43-45,11.56-69.55Z" fill="#001030"/><path d="M48.18,413.55a8.7,8.7,0,0,1-3.6,4.03l-9.21-7.78a13.9,13.9,0,0,1,3.14-4.26Z" fill="#0c375a"/><path d="M40.12,302.04s12.23,30.07,28.12,53.51c0,0,2.37,22.82,6.43,34.97,1.78,5.32,5.22,30.52,5.22,30.52l12.06-.55-3.11-70.07L76.08,299.67Z" fill="#0c375a"/><path d="M93.07,420.07a10.143,10.143,0,0,1,0,6.26l-13.95.39a16.167,16.167,0,0,1-.58-6.1Z" fill="#00607f"/><path d="M103.03,298.13c0,2.47-.01,4.42-.02,5.74a124.506,124.506,0,0,1-17.52,3.41l-.47.06-.78.09c-.06.01-.13.01-.19.02-1.01.11-2.02.21-3.04.29a118.3,118.3,0,0,1-15.06.27c-.44-.02-.88-.04-1.32-.07-.39-.02-.79-.04-1.19-.07-.18-.01-.36-.02-.54-.04-.34-.02-.67-.05-1-.07a122.044,122.044,0,0,1-22.12-3.89c-.04-2.9-.07-8.82-.09-16.45v-1.27c-.01-8.42.02-18.75.12-29.39.01-.84.02-1.68.03-2.53.01-.97.02-1.96.03-2.94,0-.16,0-.33.01-.5.01-.23.01-.46.01-.69,0-.46.01-.93.02-1.39.01-.67.02-1.35.03-2.01.01-.51.01-1.02.02-1.53.01-1.01.03-2.03.05-3.03.36-21.12,1.07-40.53,2.43-45.47a3.864,3.864,0,0,1,.39-.99,5.808,5.808,0,0,1,.52-.67,10.469,10.469,0,0,1,.88-.89c2.26-2.08,6.19-4.5,10.16-6.8.46-.27.93-.53,1.39-.8.07-.04,10.81-3.66,10.88-3.7l11.24.79c1.35.79,11.98,4.41,13.28,5.22q.585.36,1.14.72c3.06,1.97,5.66,3.93,6.79,5.59,1.63,2.4,2.62,23.97,3.2,47.43.01.54.03,1.08.04,1.62.06,2.48.11,4.98.16,7.47.05,2.46.09,4.92.14,7.36.06,3.99.12,7.92.17,11.71.01.43.01.86.01,1.28.04,3.69.08,7.23.11,10.53,0,.43.01.86.01,1.28.04,4.96.06,9.35.06,12.88h0C103.03,297.2,103.03,297.67,103.03,298.13Z" fill="#ffb028"/><path d="M50.95,224.16a.587.587,0,0,0-1.05-.36,57.883,57.883,0,0,0-8.85,17.56q-.615,1.98-1.08,3.81c-.01.51-.01,1.02-.02,1.53l-.03,2.01c-.01.46-.01.92-.02,1.39,0,.23-.01.46-.01.69,0,.16,0,.33-.01.5a70.127,70.127,0,0,1,2.29-9.61,56.852,56.852,0,0,1,8.66-17.17.55.55,0,0,0,.12-.35Z" fill="#f88800"/><path d="M53.23,276.89h0c12.14-.05,22.49-5.57,29.05-10.2A66.039,66.039,0,0,0,93.7,256.57a.582.582,0,1,0-.89-.75,65.159,65.159,0,0,1-11.23,9.93c-6.41,4.52-16.53,9.91-28.35,9.97a.585.585,0,0,0,0,1.17Z" fill="#f88800"/><path d="M65.88,281.02c10.53,0,21.03-6,21.51-6.28a.585.585,0,1,0-.59-1.01c-.12.07-12.48,7.13-23.43,5.99a.577.577,0,0,0-.64.52.584.584,0,0,0,.52.64A25.594,25.594,0,0,0,65.88,281.02Z" fill="#f88800"/><path d="M75.2,207.25a.586.586,0,0,0,.11-1.16c-14.79-2.81-19.25-12.32-19.3-12.42a.582.582,0,0,0-1.06.48c.19.41,4.76,10.17,20.14,13.09A.449.449,0,0,0,75.2,207.25Z" fill="#f88800"/><path d="M19.61,316.31c-.28,3,3.38,1.37,2.34-4.7s1.9-11.58,3.16-11.4-1.05,6.64.08,8.96,2.57-2.2,4.02-4.94c1.5-2.85,1.41-9.06.73-13.5s7.36-31.38,7.4-39.18l.98-3.31,3.59-12.12,5.61-18.98s-3.36-14.36-9.03-13.13c0,0-3,10-6.21,21.29-.54,1.92-1.09,3.87-1.64,5.82-2.29,8.18-4.43,16.26-5.43,21.05-2.64,12.65-2.84,38.95-2.84,38.95s-4.65,9.66-4.76,13.96C17.48,309.67,19.89,313.31,19.61,316.31Z" fill="#ffaa95"/><path d="M30.63,231.12l7.68,17.12,3.59-12.12L32.27,225.3C31.73,227.22,31.18,229.17,30.63,231.12Z" fill="#ff8b6b"/><path d="M30.25,226.02c3.37,5.78,6.8,11.52,10.21,17.28,1.12-3.77,2.29-7.38,3.38-10.7,0-.01.01-.02.01-.03.44-1.33.86-2.61,1.27-3.83.01-.02.01-.04.02-.06.14-.43.28-.85.42-1.27h0a90.362,90.362,0,0,0,3.25-11.13c.97-6.15-1.68-18.19-5.42-20.56h0c-.1.22-.39-.45-.57-.04-.66,1.52-3.57,5.26-5.01,8.91-.19.46-.37.95-.57,1.44C35.17,211.4,32.61,218.38,30.25,226.02Z" fill="#f88800"/><path d="M21.66,281.14s7.29-.54,10.38,1.67l-.65,4.27s-8.52-.95-10.51-.84C20.89,286.23,20.69,282.02,21.66,281.14Z" fill="#001030"/><path d="M25.33,284.02a3.282,3.282,0,0,1-2.94,3.54c-1.62,0-2.94-1.59-2.94-3.54a3.282,3.282,0,0,1,2.94-3.54C24.02,280.48,25.33,282.06,25.33,284.02Z" fill="#0c375a"/><path d="M24.04,283.89a2.4,2.4,0,0,1-2.15,2.59,2.635,2.635,0,0,1,0-5.18A2.4,2.4,0,0,1,24.04,283.89Z" fill="#00607f"/><path d="M53.44,153.76c0,10.14,6.25,17.14,16.39,17.14s17.21-7.52,17.21-17.66-6.01-17.83-16.15-17.83C58.72,135.4,53.44,143.61,53.44,153.76Z" fill="#2e3062"/><path d="M53.67,156.45s-3.55-5.36-1.67-9.49c1.94-4.28.96-3.34,1.44-6.55s2.82-4.54,5.63-5,.88-3.69,4.77-4.85,7,2.9,9.49,1.08,8.63-2.71,10.36,0,3.26,2.69,5.09,2.61c2.21-.11,5.17,3.38,3.17,6.59s-5.37,1.94-4.9,4.15,3.31,6.11-.5,11.06C85.38,157.54,53.67,156.45,53.67,156.45Z" fill="#001030"/><path d="M55.72,158.13s-2.82-3.76-4.91-.65.87,12.29,6,10.05Z" fill="#fb876b"/><path d="M55.68,164.68a.447.447,0,0,1-.42-.32,6.713,6.713,0,0,0-3.76-3.99.436.436,0,0,1-.25-.56.429.429,0,0,1,.56-.25,7.475,7.475,0,0,1,4.29,4.57.431.431,0,0,1-.3.53A.254.254,0,0,1,55.68,164.68Z" fill="#d45c48"/><path d="M52.72,163.26a.389.389,0,0,1-.23-.07.436.436,0,0,1-.13-.6,3.913,3.913,0,0,1,1.63-1.31.432.432,0,0,1,.35.79,3.084,3.084,0,0,0-1.25.99A.452.452,0,0,1,52.72,163.26Z" fill="#d45c48"/><path d="M84.76,158.13s2.82-3.76,4.91-.65-.87,12.29-6,10.05Z" fill="#fb876b"/><path d="M84.8,164.68a.447.447,0,0,0,.42-.32,6.713,6.713,0,0,1,3.76-3.99.434.434,0,1,0-.31-.81,7.475,7.475,0,0,0-4.29,4.57.431.431,0,0,0,.3.53A.254.254,0,0,0,84.8,164.68Z" fill="#d45c48"/><path d="M87.76,163.26a.389.389,0,0,0,.23-.07.436.436,0,0,0,.13-.6,3.913,3.913,0,0,0-1.63-1.31.432.432,0,0,0-.35.79,3.084,3.084,0,0,1,1.25.99A.452.452,0,0,0,87.76,163.26Z" fill="#d45c48"/><path d="M77.18,175.31v9.66a6.7,6.7,0,0,1-4.53,2.61c-4.23.5-8.82-3.97-8.82-3.97v-7.65Z" fill="#fba691"/><path d="M77.18,175.31v4.05c-2.47,2.74-6.86,3.43-13.35,2.47v-5.88Z" fill="#fb876b"/><path d="M54.22,157.95c.04.53.08,1.06.13,1.6.14,1.36.32,2.76.57,4.15a.785.785,0,0,1,.02.14c1.23,6.73,3.98,13.35,9.92,15.47,13.45,4.8,18.25-6.73,20.18-13.46.21-.75.4-1.58.57-2.46.01-.03.01-.07.02-.11.19-1,.35-2.06.49-3.15q.15-1.215.27-2.46c.2-2.01.32-4.02.41-5.81a9.488,9.488,0,0,0-6.08-9.32c-5.52-2.12-13.89-3.8-21.83.7a9.548,9.548,0,0,0-4.84,8.11C54.01,153.22,54.04,155.5,54.22,157.95Z" fill="#fba691"/><path d="M54.22,157.95c.04.53.08,1.06.13,1.6.14,1.36.32,2.76.57,4.15a.785.785,0,0,1,.02.14c1.23,6.73,3.98,13.35,9.92,15.47,13.45,4.8,18.25-6.73,20.18-13.46.21-.75.4-1.58.57-2.46.01-.03.01-.07.02-.11.19-1,.35-2.06.49-3.15q.15-1.215.27-2.46l-2.02.53c-.58,3.04-1.44,7.48-2.57,9.55-1.76-4.3-11.57-.75-11.57-.75s-8.74-3.11-11.7-.02a81.3,81.3,0,0,1-2.66-8.78Zm15.74,10.64c7.06-.97,8.81.84,9.14,2.93a12.126,12.126,0,0,1-6.01,3.61,13.957,13.957,0,0,1-10.91-2.32C61.82,171.19,61.41,166.44,69.96,168.59Z" fill="#001030"/><path d="M65.67,158.66c0,.97-.5,1.76-1.12,1.76s-1.12-.79-1.12-1.76.5-1.76,1.12-1.76S65.67,157.69,65.67,158.66Z" fill="#2e3062"/><path d="M78.68,158.66c0,.97-.5,1.76-1.12,1.76s-1.12-.79-1.12-1.76.5-1.76,1.12-1.76S78.68,157.69,78.68,158.66Z" fill="#2e3062"/><path d="M80.73,152.61s-3.54-1.4-6.26-.22l.27,1.52s4-.34,6.01.48A2.654,2.654,0,0,0,80.73,152.61Z" fill="#2e3062"/><path d="M60.11,152.61s3.54-1.4,6.26-.22l-.27,1.52s-4-.34-6.01.48A2.654,2.654,0,0,1,60.11,152.61Z" fill="#2e3062"/><path d="M70.68,166.31a4.629,4.629,0,0,1-1.6-.14.431.431,0,1,1,.23-.83,2.625,2.625,0,0,0,1.75-.05.469.469,0,0,0,.16-.43,66.106,66.106,0,0,0-1.07-6.56.431.431,0,0,1,.34-.51.426.426,0,0,1,.51.34,65.526,65.526,0,0,1,1.08,6.72,1.318,1.318,0,0,1-.5,1.13A1.85,1.85,0,0,1,70.68,166.31Z" fill="#fb876b"/><path d="M64.75,168.91c.35,1.78,1.53,5.06,5.5,5.06s5.09-3,5.48-5.06Z" fill="#fff"/><path d="M86.34,158.2H84.38a14.248,14.248,0,0,0-1.09-5.95c-1.34-3.6,1.51-5.19-.8-6.99s-8.06-1.03-12.06-1.16c-4.02-.13-10.49-.07-12.06.29s-.71,2.97-.13,5-1.93,4.26-2.35,6.35a9.1,9.1,0,0,0,0,2.46H54.25c-.19-2.55-.22-4.92-.19-6.85a9.538,9.538,0,0,1,4.83-8.11c7.94-4.5,16.32-2.82,21.83-.7a9.488,9.488,0,0,1,6.08,9.32C86.71,153.81,86.56,156.02,86.34,158.2Z" fill="#001030"/><path d="M72.38,159.54a5.17,5.17,0,1,1,5.17,5.17A5.177,5.177,0,0,1,72.38,159.54Zm.8,0a4.36,4.36,0,1,0,4.36-4.36A4.37,4.37,0,0,0,73.18,159.54Z" fill="#fff"/><path d="M58.26,159.54a5.17,5.17,0,1,1,5.17,5.17A5.177,5.177,0,0,1,58.26,159.54Zm.8,0a4.36,4.36,0,1,0,4.36-4.36A4.37,4.37,0,0,0,59.06,159.54Z" fill="#fff"/><path d="M81.84,157.87a.4.4,0,0,0,.28-.12h0a6.348,6.348,0,0,1,5.45-1.58.4.4,0,1,0,.18-.78,7.085,7.085,0,0,0-6.2,1.79.405.405,0,0,0,.29.69Z" fill="#fff"/><path d="M59.03,157.87a.4.4,0,0,0,.22-.74c-.15-.1-3.81-2.46-6.92-1.95a.4.4,0,0,0,.13.79c2.8-.46,6.31,1.8,6.35,1.83A.381.381,0,0,0,59.03,157.87Z" fill="#fff"/><path d="M68.3,158.38a3.28,3.28,0,0,1,2.22-1.31,2.972,2.972,0,0,1,2.12,1.3l.67-.44a3.72,3.72,0,0,0-2.79-1.67,4.03,4.03,0,0,0-2.88,1.64Z" fill="#fff"/><path d="M99.1,86.77h0a3.2,3.2,0,0,0,3.2,3.2H382.92a3.2,3.2,0,0,0,3.2-3.2h0a3.2,3.2,0,0,0-3.2-3.2H102.3A3.2,3.2,0,0,0,99.1,86.77Z" fill="#fff"/></g></svg>