<svg xmlns="http://www.w3.org/2000/svg" xmlns:xlink="http://www.w3.org/1999/xlink" width="196" height="377" viewBox="0 0 196 377">
  <defs>
    <clipPath id="clip-path">
      <rect id="Rectangle_2219" data-name="Rectangle 2219" width="196" height="377" transform="translate(166 3718)" fill="#fff" stroke="#707070" stroke-width="1"/>
    </clipPath>
  </defs>
  <g id="Mask_Group_7420" data-name="Mask Group 7420" transform="translate(-166 -3718)" clip-path="url(#clip-path)">
    <g id="Group_72" data-name="Group 72" transform="translate(-15.755 3717.593)">
      <ellipse id="Ellipse_10" data-name="Ellipse 10" cx="189" cy="188.5" rx="189" ry="188.5" transform="translate(-0.245 0.407)" fill="#22aeed" opacity="0.1"/>
      <ellipse id="Ellipse_11" data-name="Ellipse 11" cx="152" cy="151.5" rx="152" ry="151.5" transform="translate(36.755 37.407)" fill="#22aeed" opacity="0.1"/>
      <circle id="Ellipse_12" data-name="Ellipse 12" cx="118" cy="118" r="118" transform="translate(71.755 71.407)" fill="#22aeed" opacity="0.1"/>
      <ellipse id="Ellipse_13" data-name="Ellipse 13" cx="89.5" cy="89" rx="89.5" ry="89" transform="translate(99.755 100.407)" fill="#22aeed" opacity="0.1"/>
      <ellipse id="Ellipse_14" data-name="Ellipse 14" cx="66" cy="65.5" rx="66" ry="65.5" transform="translate(122.755 123.407)" fill="#22aeed" opacity="0.1"/>
      <ellipse id="Ellipse_16" data-name="Ellipse 16" cx="47" cy="47.5" rx="47" ry="47.5" transform="translate(141.755 141.407)" fill="#22aeed" opacity="0.1"/>
      <ellipse id="Ellipse_17" data-name="Ellipse 17" cx="32.5" cy="33" rx="32.5" ry="33" transform="translate(157.755 157.407)" fill="#22aeed" opacity="0.1"/>
      <ellipse id="Ellipse_18" data-name="Ellipse 18" cx="23.5" cy="24" rx="23.5" ry="24" transform="translate(165.755 165.407)" fill="#22aeed" opacity="0.1"/>
      <circle id="Ellipse_19" data-name="Ellipse 19" cx="16.5" cy="16.5" r="16.5" transform="translate(172.755 173.407)" fill="#22aeed" opacity="0.1"/>
    </g>
  </g>
</svg>
