<svg id="success" xmlns="http://www.w3.org/2000/svg" width="37" height="37" viewBox="0 0 37 37">
  <g id="Group_17" data-name="Group 17">
    <g id="Group_16" data-name="Group 16">
      <path id="Path_134" data-name="Path 134" d="M18.5,0A18.5,18.5,0,1,0,37,18.5,18.5,18.5,0,0,0,18.5,0Zm0,34.357A15.857,15.857,0,1,1,34.357,18.5,15.857,15.857,0,0,1,18.5,34.357Z" fill="#22aeed"/>
    </g>
  </g>
  <g id="Group_19" data-name="Group 19" transform="translate(7.912 10.588)">
    <g id="Group_18" data-name="Group 18">
      <path id="Path_135" data-name="Path 135" d="M122.929,137.114a1.321,1.321,0,0,0-1.836,0h0l-12.28,12.28-4.352-4.352a1.321,1.321,0,1,0-1.9,1.836l.032.032,5.286,5.286a1.321,1.321,0,0,0,1.868,0l13.214-13.214A1.321,1.321,0,0,0,122.929,137.114Z" transform="translate(-102.19 -136.743)" fill="#22aeed"/>
    </g>
  </g>
</svg>
