<svg xmlns="http://www.w3.org/2000/svg" width="575.119" height="448.225" viewBox="0 0 575.119 448.225"><g transform="translate(0 0.005)"><path d="M537.67,63.01c-12.5,19.77,5.81,17.08-3.28,31.93-8.29,13.54-26.65,6.32-19.47,33.2,1.57,5.88-1.76,11.25-7.3,14.88a23.665,23.665,0,0,1-27.2-.74c-.61-.44-1.21-.91-1.78-1.41a24.106,24.106,0,0,1-8.03-22.36c1.21-7.4,4.56-15.16,12.56-19.76,18.77-10.78,1.54-34.98,18.33-40,20.24-6.05,19.28-13.76,31.58-27.22C546.12,17.26,554.61,36.22,537.67,63.01Z" fill="#007d55"/><path d="M528.45,55.83c-.35.57-29.06,47.58-48.04,86.45-.61-.44-1.21-.91-1.78-1.41,19.04-38.9,47.58-85.63,47.92-86.19a1.11,1.11,0,0,1,1.9,1.15Z" fill="#04593a"/><path d="M553.95,115.92c-21.92,20.58,1.73,23.13-14.37,38.69-14.68,14.18-35.21-.71-34.93,35.05.06,7.82-5.81,13.44-13.88,16.16a30.415,30.415,0,0,1-33.61-9.68,29.013,29.013,0,0,1-1.76-2.33,30.958,30.958,0,0,1-2.79-30.42c3.89-8.82,10.56-17.4,22-20.55,26.83-7.38,13.19-43.04,35.7-43.88,27.15-1.02,28.43-10.92,48.08-23.71C579.21,61.7,583.66,88.03,553.95,115.92Z" fill="#00b570"/><path d="M544.79,104.01c-.61.59-51.49,49.86-87.63,92.14a29.013,29.013,0,0,1-1.76-2.33c36.23-42.29,86.79-91.26,87.41-91.86a1.425,1.425,0,0,1,1.98,2.05Z" fill="#007d55"/><path d="M60.76,42.36c8.89,21.63-8.67,15.82-2.29,32.01,5.82,14.77,25.15,10.83,13.44,36.07-2.56,5.52-.22,11.39,4.62,15.91a23.674,23.674,0,0,0,26.91,3.98c.68-.33,1.35-.69,1.99-1.08a24.1,24.1,0,0,0,11.78-20.64c.09-7.49-1.87-15.72-8.95-21.63-16.62-13.87,4.53-34.72-11.14-42.56-18.89-9.46-16.61-16.89-26.4-32.27C60.35-4.16,48.71,13.04,60.76,42.36Z" fill="#007d55"/><path d="M71.08,36.88c.24.62,20.4,51.89,32.36,93.45.68-.33,1.35-.69,1.99-1.08C93.4,87.64,73.38,36.69,73.13,36.07a1.1,1.1,0,1,0-2.05.81Z" fill="#04593a"/><path d="M35.44,98.86c18.75,23.51-5.02,22.64,8.68,40.34,12.5,16.14,34.95,4.33,29.56,39.69-1.18,7.74,3.83,14.14,11.42,17.98a30.414,30.414,0,0,0,34.65-4.77c.72-.65,1.41-1.33,2.07-2.05a30.979,30.979,0,0,0,7.12-29.71c-2.59-9.28-7.96-18.73-18.83-23.48-25.5-11.15-6.89-44.49-29.05-48.54C54.34,83.43,54.48,73.44,36.87,57.97,18.21,41.58,10.03,67,35.44,98.86Z" fill="#00b570"/><path d="M46.22,88.39c.52.68,43.83,56.72,73.54,103.73.72-.65,1.41-1.33,2.07-2.05C92.03,143.02,48.99,87.32,48.47,86.64a1.425,1.425,0,0,0-2.25,1.75Z" fill="#007d55"/><path d="M292.31,106.87c-9.25-6.33-32.41,9.29-44.52,28.25l10.74-30.1c3.89-3.37,10.69-8.1,21.33-11.87,16.54-5.86,33.12-15.05,23.86-21.39-8.68-5.94-29.62,7.46-42.17,24.81l13.8-38.65a43.666,43.666,0,0,1,12.05-6.35c10.43-3.7,20.87-9.48,15.04-13.48-5.07-3.47-16.76,3.52-24.74,13.26l4.47-12.53a62.689,62.689,0,0,1,9.54-13.58C302.32,14.26,310.35,1.9,302.16.1s-21.62,19.74-23.73,39.2l-2.3,6.45c1.79-14.15-3.3-31.28-10.4-31.89-7.05-.6-2.63,10.49,3.1,19.96,4.36,7.2,5.57,12.92,5.89,15.87L263.85,80.14c2.77-22.42-5.29-49.45-16.52-50.41-11.19-.96-4.17,16.65,4.92,31.66,6.87,11.35,8.8,20.37,9.33,25.09l-13.03,36.51c2.31-22.15-5.61-49.04-16.66-49.12-8.52-.07-5.91,11.96,4.26,28.95a72.228,72.228,0,0,1,9.84,27.36l-6.14,17.2a5.647,5.647,0,0,0,3.16,1.13l2.44-6.84c3.45-3.34,10.64-9.01,22.99-13.39C284.99,122.4,301.57,113.22,292.31,106.87Z" fill="#00b570"/><g opacity="0.8"><g opacity="0.5"><path d="M271.07,157.77a132.987,132.987,0,0,1-60.64-25.7c-26.78-20.22-82.83-54.62-136.3-37.48C.38,118.22.05,186.6,19.26,223.74s155.43,145.9,332.04,128.6c158.03-15.49,188.83-192.75,104.55-224.82C382.74,99.69,357.8,170.57,271.07,157.77Z" fill="#ccd3e6"/></g><g opacity="0.5"><ellipse cx="6.85" cy="7.38" rx="6.85" ry="7.38" transform="translate(491.73 124.15)" fill="#ccd3e6"/></g><path d="M51.2,82.95a4.447,4.447,0,0,1,4.97,2.78c1.26,3.42-2.04,7.25-6.49,5.54h0C45.83,88.42,47.51,83.63,51.2,82.95Z" fill="#ccd3e6"/><circle cx="8.93" cy="8.93" r="8.93" transform="translate(467.239 65.613) rotate(-45)" fill="#ccd3e6"/><g opacity="0.8"><path d="M78.26,75.91a9.02,9.02,0,1,1-11.12-6.25A9.022,9.022,0,0,1,78.26,75.91Z" fill="#ccd3e6"/></g><path d="M435.04,344.56a4.45,4.45,0,0,1,5.4,1.81c1.88,3.13-.66,7.51-5.35,6.65h0C430.79,350.94,431.54,345.91,435.04,344.56Z" fill="#ccd3e6"/><path d="M460.32,332.61a9.02,9.02,0,1,1-12.09-4.07A9.029,9.029,0,0,1,460.32,332.61Z" fill="#ccd3e6"/><path d="M468.54,51.95a5.49,5.49,0,1,1-5.49-5.49A5.493,5.493,0,0,1,468.54,51.95Z" fill="#ccd3e6"/></g><g opacity="0.8"><path d="M483.17,151.43c-.01-49.06-40.85-102.81-91.69-106.06-.89-.06-1.8-.11-2.71-.15-72.88-3.4-78.43,85.49-144.37,95.52s-116.29-40.58-195.19-7.56c-70.86,29.66-90.05,196.3,118.15,202.98C333.94,341.5,483.19,297.79,483.17,151.43Z" fill="#ccd3e6"/></g><ellipse cx="185.87" cy="9.59" rx="185.87" ry="9.59" transform="translate(127.07 390.5)" fill="#ccd3e6"/><path d="M433.83,400.04H187.17V389.17a15.923,15.923,0,0,1,15.92-15.92H417.91a15.923,15.923,0,0,1,15.92,15.92v10.87Z" fill="#fff"/><rect width="89.41" height="57.4" transform="translate(265.1 315.85)" fill="#fff"/><path d="M265.1,333.47l89.41-7.15.01-10.47-89.41.1Z" fill="#ccd3e6"/><path d="M501.11,78.82v225.1a11.95,11.95,0,0,1-11.95,11.95H122.59a11.95,11.95,0,0,1-11.95-11.95V78.82a11.95,11.95,0,0,1,11.95-11.95H489.16c.18,0,.35,0,.53.01.13.01.26.01.39.02h.01c.09.01.18.01.28.03.15.01.31.03.46.05.1.01.2.03.3.05.05.01.1.01.14.02a1.5,1.5,0,0,1,.29.06A11.969,11.969,0,0,1,501.11,78.82Z" fill="#fff"/><circle cx="8.26" cy="8.26" r="8.26" transform="matrix(0.757, -0.653, 0.653, 0.757, 298.089, 298.832)" fill="#ccd3e6"/><path d="M491.57,67.12l-.29-.06a.784.784,0,0,0-.14-.02c-.1-.02-.2-.04-.3-.05-.15-.02-.31-.04-.46-.05l-.28-.03h-.01c-.13-.01-.26-.02-.39-.02-.18-.01-.35-.01-.53-.01H122.59a11.95,11.95,0,0,0-11.95,11.95V287.28H501.1V78.82A11.932,11.932,0,0,0,491.57,67.12Zm-5.95,199.33a3.244,3.244,0,0,1-3.25,3.25H129.38a3.244,3.244,0,0,1-3.25-3.25V85.61a3.244,3.244,0,0,1,3.25-3.25H482.37a3.244,3.244,0,0,1,3.25,3.25Z" fill="#0c375a"/><path d="M485.62,85.61V266.45a3.244,3.244,0,0,1-3.25,3.25H129.38a3.244,3.244,0,0,1-3.25-3.25V85.61a3.244,3.244,0,0,1,3.25-3.25H482.37A3.244,3.244,0,0,1,485.62,85.61Z" fill="#fff"/><path d="M485.62,85.61v17.07H126.13V85.61a3.244,3.244,0,0,1,3.25-3.25H482.37A3.244,3.244,0,0,1,485.62,85.61Z" fill="#d3e8ee"/><path d="M457.78,92.25a2.76,2.76,0,1,1-2.76-2.76A2.766,2.766,0,0,1,457.78,92.25Z" fill="#fd615b"/><path d="M466.72,92.25a2.76,2.76,0,1,1-2.76-2.76A2.766,2.766,0,0,1,466.72,92.25Z" fill="#00b570"/><path d="M441.05,95.17H159.99a2.471,2.471,0,0,1-2.46-2.46v-.92a2.471,2.471,0,0,1,2.46-2.46H441.05a2.471,2.471,0,0,1,2.46,2.46v.92A2.471,2.471,0,0,1,441.05,95.17Z" fill="#fff"/><path d="M139.11,92.25v2.7a.494.494,0,0,1-.74.43l-2.34-1.35-2.34-1.35a.5.5,0,0,1,0-.86l2.34-1.35,2.34-1.35a.494.494,0,0,1,.74.43Z"/><path d="M143.22,92.25v2.7a.494.494,0,0,0,.74.43l2.34-1.35,2.34-1.35a.5.5,0,0,0,0-.86l-2.34-1.35-2.34-1.35a.494.494,0,0,0-.74.43Z"/><path d="M470.46,94.57l-.17-.17a.664.664,0,0,1,0-.94l3.75-3.75a.664.664,0,0,1,.94,0l.17.17a.664.664,0,0,1,0,.94l-3.75,3.75A.664.664,0,0,1,470.46,94.57Z" fill="#363638"/><path d="M474.98,94.57l.17-.17a.664.664,0,0,0,0-.94l-3.75-3.75a.664.664,0,0,0-.94,0l-.17.17a.664.664,0,0,0,0,.94l3.75,3.75A.664.664,0,0,0,474.98,94.57Z" fill="#363638"/><ellipse cx="27.24" cy="26.91" rx="27.24" ry="26.91" transform="translate(129.05 21.78)" fill="#ccd3e6"/><ellipse cx="27.24" cy="26.91" rx="27.24" ry="26.91" transform="translate(129.05 18.27)" fill="#00b570"/><ellipse cx="22.15" cy="21.87" rx="22.15" ry="21.87" transform="translate(134.14 23.31)" fill="#fff"/><path d="M178.44,45.18c0,.58-.02,1.16-.07,1.73a22.172,22.172,0,0,0-44.16,0c-.05-.57-.07-1.15-.07-1.73a22.152,22.152,0,0,1,44.3,0Z" fill="#ccd3e6"/><path d="M156.29,47.46a.545.545,0,0,1-.44-.22L144.98,32.79a.555.555,0,0,1,.11-.77.567.567,0,0,1,.78.11l10.6,14.1,12.05-5.22a.554.554,0,0,1,.73.28.543.543,0,0,1-.28.72l-12.45,5.4A.5.5,0,0,1,156.29,47.46Z" fill="#363638"/><path d="M500.59,140.81a33.875,33.875,0,1,0-57.91,23.85,43.962,43.962,0,0,1,12.51,23.99l.17,1.04h25.02l.21-1.85a43.394,43.394,0,0,1,11.2-24.26A33.73,33.73,0,0,0,500.59,140.81Z" fill="#fe9f07"/><path d="M481.49,194.12H454.94a1.261,1.261,0,0,1-1.26-1.26v-1.91a1.261,1.261,0,0,1,1.26-1.26h26.55a1.261,1.261,0,0,1,1.26,1.26v1.91A1.268,1.268,0,0,1,481.49,194.12Z" fill="#3a82ca"/><path d="M475.03,204.32H461.4a7.718,7.718,0,0,1-7.72-7.72h0a2.48,2.48,0,0,1,2.48-2.48h24.09a2.48,2.48,0,0,1,2.48,2.48h0A7.7,7.7,0,0,1,475.03,204.32Z" fill="#3a82ca"/><line x2="23.31" transform="translate(456.16 194.12)" stroke-width="0.887" stroke="#8acff8" stroke-linecap="round" stroke-linejoin="round" stroke-miterlimit="10" fill="none"/><path d="M438.61,137.69a36.359,36.359,0,0,0-.13,10.63" fill="none" stroke="#fefefe" stroke-linecap="round" stroke-linejoin="round" stroke-miterlimit="10" stroke-width="1.705"/><path d="M460.42,112.42s-13.67,4.61-19.58,17.85" fill="none" stroke="#fefefe" stroke-linecap="round" stroke-linejoin="round" stroke-miterlimit="10" stroke-width="1.705"/><path d="M461.95,188.54V158.95a5.339,5.339,0,0,0-5.34-5.34h0a5.339,5.339,0,0,0-5.34,5.34v.89a5.339,5.339,0,0,0,5.34,5.34h18.24" fill="none" stroke="#fefefe" stroke-linecap="round" stroke-linejoin="round" stroke-miterlimit="10" stroke-width="0.513"/><path d="M458.59,165.18h18.24a5.339,5.339,0,0,0,5.34-5.34v-.89a5.339,5.339,0,0,0-5.34-5.34h0a5.339,5.339,0,0,0-5.34,5.34v29.59" fill="none" stroke="#fefefe" stroke-linecap="round" stroke-linejoin="round" stroke-miterlimit="10" stroke-width="0.513"/><text transform="translate(228.153 129.441)" fill="#363951" font-size="15.61" font-family="GothamRounded-Bold, Gotham Rounded" font-weight="700"><tspan x="0" y="0">Create a Profile</tspan></text><path d="M199.28,256.86H152.1a6.041,6.041,0,0,1-6.04-6.04V149.33a6.041,6.041,0,0,1,6.04-6.04h47.18a6.041,6.041,0,0,1,6.04,6.04V250.82A6.041,6.041,0,0,1,199.28,256.86Z" fill="#e6f1f4"/><path d="M366.87,153.94H225.9a2.078,2.078,0,0,1-2.08-2.08v-3.28a2.078,2.078,0,0,1,2.08-2.08H366.88a2.078,2.078,0,0,1,2.08,2.08v3.28A2.093,2.093,0,0,1,366.87,153.94Z" fill="#e6f1f4"/><path d="M332.69,163.39H225.9a2.078,2.078,0,0,1-2.08-2.08v-1.25a2.078,2.078,0,0,1,2.08-2.08H332.7a2.078,2.078,0,0,1,2.08,2.08v1.25A2.093,2.093,0,0,1,332.69,163.39Z" fill="#e6f1f4"/><path d="M323.98,188.89H229.3a5.476,5.476,0,0,1-5.48-5.48v-3.3a5.476,5.476,0,0,1,5.48-5.48h94.68a5.476,5.476,0,0,1,5.48,5.48v3.3A5.488,5.488,0,0,1,323.98,188.89Z" fill="#e6f1f4"/><path d="M438.03,188.89H343.35a5.476,5.476,0,0,1-5.48-5.48v-3.3a5.476,5.476,0,0,1,5.48-5.48h94.68a5.476,5.476,0,0,1,5.48,5.48v3.3A5.476,5.476,0,0,1,438.03,188.89Z" fill="#e6f1f4"/><path d="M323.98,210.82H229.3a5.476,5.476,0,0,1-5.48-5.48v-3.3a5.476,5.476,0,0,1,5.48-5.48h94.68a5.476,5.476,0,0,1,5.48,5.48v3.3A5.488,5.488,0,0,1,323.98,210.82Z" fill="#e6f1f4"/><path d="M438.03,210.82H343.35a5.476,5.476,0,0,1-5.48-5.48v-3.3a5.476,5.476,0,0,1,5.48-5.48h94.68a5.476,5.476,0,0,1,5.48,5.48v3.3A5.476,5.476,0,0,1,438.03,210.82Z" fill="#e6f1f4"/><path d="M323.98,232.87H229.3a5.476,5.476,0,0,1-5.48-5.48v-3.3a5.476,5.476,0,0,1,5.48-5.48h94.68a5.476,5.476,0,0,1,5.48,5.48v3.3A5.5,5.5,0,0,1,323.98,232.87Z" fill="#e6f1f4"/><path d="M438.03,232.87H343.35a5.476,5.476,0,0,1-5.48-5.48v-3.3a5.476,5.476,0,0,1,5.48-5.48h94.68a5.476,5.476,0,0,1,5.48,5.48v3.3A5.482,5.482,0,0,1,438.03,232.87Z" fill="#e6f1f4"/><path d="M316.08,254.24H229.29a5.476,5.476,0,0,1-5.48-5.48v-3.3a5.476,5.476,0,0,1,5.48-5.48h86.79a5.476,5.476,0,0,1,5.48,5.48v3.3A5.482,5.482,0,0,1,316.08,254.24Z" fill="#fd615b"/><text transform="translate(237.509 249.984)" fill="#fff" font-size="8.11" font-family="GothamRounded-Bold, Gotham Rounded" font-weight="700"><tspan x="0" y="0">CREATE PROFILE</tspan></text><path d="M351.57,375.42s-7.75-12.19-26.59-23.26c-13.3-7.82-21.05-29.91-21.05-29.91s25.48,1.11,36.56,16.62S351.57,375.42,351.57,375.42Z" fill="#00b570"/><path d="M351.65,375.74a.384.384,0,0,1-.37-.28,64.641,64.641,0,0,0-17.37-29.17,63.5,63.5,0,0,0-12.16-9.53.383.383,0,1,1,.37-.67,64.5,64.5,0,0,1,12.32,9.66,65.354,65.354,0,0,1,17.57,29.52.38.38,0,0,1-.27.46A.277.277,0,0,1,351.65,375.74Z" fill="#363638"/><path d="M348.22,375.14s-2.22-4.43-12.19-3.32-15.51,6.65-33.23-3.32c0,0,13.29-11.08,27.69-8.86C344.9,361.84,346.01,367.38,348.22,375.14Z" fill="#00b570"/><path d="M348.27,375.52a.36.36,0,0,1-.32-.18c-.04-.07-4.51-7.08-11.68-8.38-12.53-2.28-21.07,1.73-21.15,1.77a.382.382,0,1,1-.33-.69c.09-.04,8.83-4.16,21.62-1.83,7.51,1.36,12,8.43,12.18,8.73a.374.374,0,0,1-.12.52A.36.36,0,0,1,348.27,375.52Z" fill="#363638"/><path d="M352.58,374.07s-.87-4.88,7.79-9.94,16.41-3.93,24.67-22.51c0,0-17.28-.95-27.51,9.43S349.72,366.52,352.58,374.07Z" fill="#00b570"/><path d="M352.54,374.47a.381.381,0,0,1-.38-.35c-.03-.35-.64-8.7,4.56-14.27,8.87-9.5,18.34-11.42,18.43-11.44a.374.374,0,0,1,.44.3.369.369,0,0,1-.3.44c-.09.02-9.33,1.9-18.02,11.21-4.98,5.34-4.37,13.61-4.36,13.7a.381.381,0,0,1-.35.41Z" fill="#363638"/><path d="M363.1,380.09H338.18a2.285,2.285,0,0,1-2.28-2.28v-1.74a2.285,2.285,0,0,1,2.28-2.28H363.1a2.285,2.285,0,0,1,2.28,2.28v1.74A2.292,2.292,0,0,1,363.1,380.09Z" fill="#fd615b"/><path d="M350.75,434.34c-19.81,0-32.41-3.15-30.39-17.11,1.29-8.86,8.19-17.53,13.07-22.69.68-.73,1.33-1.38,1.91-1.96,1.81-1.79,3.03-2.81,3.03-2.81l.06-.32.34-1.96.4-2.25.91-5.15.32-1.8,10.35-.45,10.8.45.25,1.8.39,2.83.63,4.58.27,1.96.04.32s1.22,1.03,3.03,2.81c.59.58,1.23,1.23,1.92,1.96,4.87,5.16,11.78,13.83,13.07,22.69C383.16,431.18,370.56,434.34,350.75,434.34Z" fill="#fd615b"/><path d="M363.09,389.45H338.42l.35-1.96h24.05Z" fill="#c42b4b"/><path d="M368.07,394.54H333.43c.68-.73,1.33-1.38,1.91-1.96h30.81C366.74,393.16,367.38,393.82,368.07,394.54Z" fill="#c42b4b"/><path d="M362.19,382.91l-23.02,2.33.91-5.15H361.8Z" fill="#c42b4b"/><path d="M478.03,393.47c1.82-4.32,4.83-8.17,5.93-12.73,1.61-6.66-1.09-13.81.59-20.45.77-3.03,3.3-6.24,6.36-5.6,2.21.47,3.53,2.72,5.42,3.97,3.58,2.37,8.58.63,11.68-2.34s5.02-6.95,7.81-10.22a24.789,24.789,0,0,1,15.91-8.45c2.62-.3,5.48-.09,7.53,1.56,2.4,1.95,3.03,5.52,2.14,8.48a16.588,16.588,0,0,1-5.36,7.43,35.767,35.767,0,0,1-12.89,7.14,8.279,8.279,0,0,0-3.63,1.73c-.95.97-1.17,2.79-.06,3.57,1.35.95,3.15-.32,4.8-.28a3.757,3.757,0,0,1,3.14,2.3,7.429,7.429,0,0,1,.43,4.02,14.918,14.918,0,0,1-6.82,10.65c-.85.53-1.84,1.08-2.05,2.05a2.585,2.585,0,0,0,1.28,2.48c.82.56,1.78.86,2.61,1.4,2.81,1.86,3.08,6.19,1.25,9.02s-5.13,4.37-8.4,5.15c-8.79,2.11-17.82-.09-26.71.39-3.06.17-8.65,2.83-10.79.46C475.57,402.26,476.68,396.67,478.03,393.47Z" fill="#00b570"/><path d="M479.79,406.05s16.14-36.06,51.73-59.25" fill="none" stroke="#0c8e5f" stroke-linecap="round" stroke-linejoin="round" stroke-miterlimit="10" stroke-width="0.79"/><path d="M486.86,381.83c1.03-2.91,2.47-5.7,3.04-8.74s.06-6.52-2.24-8.57c-3.1-2.76-8.19-2.03-11.41-4.64-5.37-4.36-1.74-14.17-6.55-19.14-2.5-2.58-6.53-2.94-10.1-2.47s-7.08,1.62-10.67,1.44c-4.28-.22-8.23-2.29-12.4-3.27-4.81-1.12-11.57-.31-11.92,5.72-.38,6.62,2.75,12.03,7.13,16.69,2.6,2.77,4.96,6.26,4.64,10.05-.25,2.95-2.05,5.48-3.46,8.08s-2.44,5.81-1.1,8.44c1.18,2.33,3.88,3.49,6.46,3.9,3.71.59,7.5.01,11.26-.04,7.36-.09,12.29,3.65,17.17,8.68,3.07,3.16,8.45,9.89,13.61,7.55,3.25-1.48,4.31-6.06,4.58-9.24C485.31,391.26,485.14,386.66,486.86,381.83Z" fill="#00b570"/><path d="M480.31,405.5s0-30.27-42.12-58.56" fill="none" stroke="#0c8e5f" stroke-linecap="round" stroke-linejoin="round" stroke-miterlimit="10" stroke-width="0.79"/><path d="M480.87,406.07s14.14-50.97,40.35-85.7c.39-.51,2.55-2.99,2.94-3.5" fill="#007d55"/><path d="M482.98,397.91s24.12-9.08,26.91-5.58C515.79,399.74,484.57,398.72,482.98,397.91Z" fill="#007d55"/><path d="M489.93,378.88s23.63-10.13,26.61-6.8C522.85,379.14,491.57,379.6,489.93,378.88Z" fill="#007d55"/><path d="M495.76,365.02s22.58-10.39,25.56-7.06C527.63,365.02,497.39,365.74,495.76,365.02Z" fill="#007d55"/><path d="M502.35,351.35s22.76-10.37,25.75-7.04C534.41,351.37,503.99,352.07,502.35,351.35Z" fill="#007d55"/><path d="M511.43,334.88s21.63-12.13,24.92-9.09C543.31,332.2,513.13,335.44,511.43,334.88Z" fill="#007d55"/><path d="M511.35,335.11s2.65-24.65-1.43-26.48C501.28,304.75,510.17,333.77,511.35,335.11Z" fill="#007d55"/><path d="M503.92,348.94s2.65-24.65-1.43-26.48C493.85,318.58,502.74,347.6,503.92,348.94Z" fill="#007d55"/><path d="M495.82,365.89s1.21-24.76-2.97-26.36C483.99,336.16,494.56,364.62,495.82,365.89Z" fill="#007d55"/><path d="M490.3,379.34s-2.07-24.71-6.43-25.73C474.65,351.44,488.88,378.24,490.3,379.34Z" fill="#007d55"/><path d="M483.31,397.71s-2.07-24.71-6.43-25.73C467.66,369.8,481.9,396.61,483.31,397.71Z" fill="#007d55"/><path d="M522.38,318.84s10.47-23.25,14.91-22.77C546.71,297.09,524.08,318.28,522.38,318.84Z" fill="#007d55"/><path d="M180.89,177.08h6.82a1.186,1.186,0,0,0,1.19-1.19V139.04a1.186,1.186,0,0,0-1.19-1.19h-6.82a1.186,1.186,0,0,0-1.19,1.19v36.85A1.193,1.193,0,0,0,180.89,177.08Z" fill="#0076fa"/><path d="M182.13,158.81h4.34a1.029,1.029,0,0,0,1.03-1.03v-.62a1.029,1.029,0,0,0-1.03-1.03h-4.34a1.029,1.029,0,0,0-1.03,1.03v.62A1.029,1.029,0,0,0,182.13,158.81Z" fill="#004ecb"/><rect width="9.2" height="1.52" transform="translate(188.903 142.532) rotate(180)" fill="#004ecb"/><rect width="9.2" height="1.52" transform="translate(188.903 145.698) rotate(180)" fill="#004ecb"/><rect width="9.2" height="1.52" transform="translate(188.903 169.079) rotate(180)" fill="#004ecb"/><rect width="9.2" height="1.52" transform="translate(188.903 172.255) rotate(180)" fill="#004ecb"/><path d="M198.38,177.08h8.63a.28.28,0,0,0,.28-.28V138.13a.28.28,0,0,0-.28-.28h-8.63a.28.28,0,0,0-.28.28V176.8A.279.279,0,0,0,198.38,177.08Z" fill="#00b570"/><path d="M200.53,158.81h4.34a1.029,1.029,0,0,0,1.03-1.03v-.62a1.029,1.029,0,0,0-1.03-1.03h-4.34a1.029,1.029,0,0,0-1.03,1.03v.62A1.029,1.029,0,0,0,200.53,158.81Z" fill="#007d55"/><rect width="9.2" height="1.52" transform="translate(207.297 142.532) rotate(180)" fill="#007d55"/><rect width="9.2" height="1.52" transform="translate(207.297 145.698) rotate(180)" fill="#007d55"/><rect width="9.2" height="1.52" transform="translate(207.297 169.079) rotate(180)" fill="#007d55"/><rect width="9.2" height="1.52" transform="translate(207.297 172.255) rotate(180)" fill="#007d55"/><path d="M190.09,177.08h6.82a1.186,1.186,0,0,0,1.19-1.19V139.04a1.186,1.186,0,0,0-1.19-1.19h-6.82a1.186,1.186,0,0,0-1.19,1.19v36.85A1.186,1.186,0,0,0,190.09,177.08Z" fill="#fd615b"/><path d="M191.33,158.81h4.34a1.029,1.029,0,0,0,1.03-1.03v-.62a1.029,1.029,0,0,0-1.03-1.03h-4.34a1.029,1.029,0,0,0-1.03,1.03v.62A1.029,1.029,0,0,0,191.33,158.81Z" fill="#c42b4b"/><rect width="9.2" height="1.52" transform="translate(198.1 142.532) rotate(180)" fill="#c42b4b"/><rect width="9.2" height="1.52" transform="translate(198.1 145.698) rotate(180)" fill="#c42b4b"/><rect width="9.2" height="1.52" transform="translate(198.1 169.079) rotate(180)" fill="#c42b4b"/><rect width="9.2" height="1.52" transform="translate(198.1 172.255) rotate(180)" fill="#c42b4b"/><path d="M164.76,175.7l8.52,1.37a.282.282,0,0,0,.32-.23l6.15-38.17a.282.282,0,0,0-.23-.32L171,136.98a.282.282,0,0,0-.32.23l-6.15,38.17A.28.28,0,0,0,164.76,175.7Z" fill="#ffb028"/><path d="M169.01,157.87l5.84.94a.247.247,0,0,0,.28-.2l.35-2.16a.247.247,0,0,0-.2-.28l-5.84-.94a.247.247,0,0,0-.28.2l-.35,2.16A.242.242,0,0,0,169.01,157.87Z" fill="#dc7f21"/><rect width="1.52" height="9.2" transform="translate(169.998 141.537) rotate(-80.84)" fill="#dc7f21"/><rect width="1.52" height="9.2" transform="translate(169.496 144.671) rotate(-80.84)" fill="#dc7f21"/><rect width="1.52" height="9.2" transform="translate(165.772 167.751) rotate(-80.84)" fill="#dc7f21"/><rect width="1.52" height="9.2" transform="translate(165.273 170.879) rotate(-80.84)" fill="#dc7f21"/><g opacity="0.8"><path d="M141.1,187.6h83.32l1.82-4.85H139.02Z" fill="#ccd3e6"/></g><rect width="87.22" height="5.76" transform="translate(139.02 177)" fill="#182335"/><path d="M217.36,182.75l-2.33,4.89h-5.5l-1.56-4.89Z" fill="#182335"/><path d="M147.91,182.75l2.33,4.89h5.5l1.56-4.89Z" fill="#182335"/><ellipse cx="121.17" cy="7.39" rx="121.17" ry="7.39" transform="translate(0 433.44)" fill="#ccd3e6"/><path d="M103.48,209.77l-.15.72-.11.58-.2,1.09c-.12.71-.24,1.41-.34,2.1-.2,1.39-.37,2.75-.52,4.11q-.45,4.08-.64,8.11-.18,4.05-.13,8.08t.33,8.06q.285,4.02.8,8.04c.19,1.33.36,2.67.58,4,.11.67.21,1.33.33,2l.37,1.99c.12.66.26,1.32.4,1.99s.27,1.32.42,1.98c.31,1.32.6,2.64.95,3.94.17.65.33,1.31.51,1.96l.55,1.96.14.49.07.24.15.5c.14.46.29.87.44,1.28.15.38.32.77.48,1.11.17.36.33.67.5,1l.25.45c.09.15.17.3.25.43l.25.41.25.39c.17.26.33.49.5.73a28.041,28.041,0,0,0,1.96,2.42c.64.71,1.26,1.34,1.87,1.93,1.23,1.18,2.42,2.18,3.59,3.12a82.932,82.932,0,0,0,6.93,4.9c4.57,2.92,9.1,5.44,13.67,7.81s9.14,4.56,13.75,6.65c2.31,1.04,4.62,2.05,6.94,3.05,1.16.5,2.32.99,3.5,1.47l1.77.72,1.82.73,7.97-18.02-1.55-.79-1.59-.82-3.19-1.66c-2.12-1.12-4.24-2.26-6.34-3.41-4.21-2.3-8.36-4.66-12.4-7.08-2.02-1.21-4-2.45-5.95-3.7s-3.83-2.52-5.62-3.82-3.49-2.61-4.94-3.88a26.218,26.218,0,0,1-1.9-1.82,7.133,7.133,0,0,1-.98-1.23c0-.01-.02-.04-.01-.03h0l.02.02.02.03c.01.02.02.03.03.05.03.05.05.09.1.17.03.06.08.17.12.26.05.12.09.24.15.4l.04.12c.01.04,0,0,0-.01l-.01-.05-.05-.2-.09-.41-.37-1.62c-.12-.54-.22-1.09-.34-1.63-.23-1.08-.42-2.18-.62-3.27-.1-.55-.18-1.1-.27-1.65s-.18-1.1-.25-1.65c-.32-2.2-.57-4.42-.77-6.64s-.32-4.45-.41-6.68-.1-4.47-.06-6.7.12-4.46.27-6.68.35-4.43.61-6.6c.13-1.08.28-2.16.45-3.21.08-.52.16-1.04.25-1.54l.13-.72.1-.51Z" fill="#ff9b79"/><path d="M129.99,215.91l4.53,34.35c-6.76,3.79-13.18,6.5-19.07,7.57Z" fill="#f88800"/><path d="M120.38,269a.592.592,0,0,0,.29-.07,61.456,61.456,0,0,1,8.41-3.54.6.6,0,0,0-.38-1.14,62.533,62.533,0,0,0-8.61,3.62.607.607,0,0,0-.24.82A.613.613,0,0,0,120.38,269Z" fill="#ef6a3f"/><path d="M128.55,265.53a.613.613,0,0,0,.6-.54.606.606,0,0,0-.53-.67c-2.5-.28-5.78-.3-5.92-.3h0a.6.6,0,0,0-.6.6.617.617,0,0,0,.6.61c.03,0,3.36.02,5.79.29A.127.127,0,0,0,128.55,265.53Z" fill="#ef6a3f"/><path d="M193.69,406.53l6.25,10.2,11.9-5.26-5.4-10.97Z" fill="#ff9b79"/><path d="M249.52,417.26l-45.01,19.92a6.9,6.9,0,0,1-1.7-2.24c-1.97-3.68-3.44-10.3-4.54-14.39-.13-.48-.25-.92-.37-1.32a14.535,14.535,0,0,0-.56-1.62c-1.38-3.13,1.62-3.82,1.62-3.82,6.53,2.45,8.72-6.53,12.71-5.67,0,0,1.71.36,6.71,1.99s12.01,1.07,18.14.94c7.91-.16,11.04,1.79,12.26,3.54A3.851,3.851,0,0,1,249.52,417.26Z" fill="#54b2e0"/><path d="M249.52,417.26l-45.01,19.92a6.9,6.9,0,0,1-1.7-2.24l45.97-20.35A3.85,3.85,0,0,1,249.52,417.26Z" fill="#0b88b1"/><path d="M209.11,435.15l-1.34.59a10.821,10.821,0,0,0-.77-8.28,13.886,13.886,0,0,0-8.73-6.91c-.13-.48-.25-.92-.37-1.32a15.088,15.088,0,0,1,10.14,7.71A11.916,11.916,0,0,1,209.11,435.15Z" fill="#0b88b1"/><path d="M218.79,413.11a.8.8,0,0,1-.97-.25.822.822,0,0,1,.14-1.14l2.5-1.94a.813.813,0,0,1,1.14.14.822.822,0,0,1-.14,1.14l-2.5,1.94A.619.619,0,0,1,218.79,413.11Z" fill="#fff"/><path d="M214.96,412.01a.809.809,0,0,1-.97-.24.822.822,0,0,1,.14-1.14l2.5-1.94a.813.813,0,0,1,1.14.14.822.822,0,0,1-.14,1.14l-2.5,1.94A.951.951,0,0,1,214.96,412.01Z" fill="#fff"/><path d="M222.33,413.5a.809.809,0,0,1-.97-.24.822.822,0,0,1,.14-1.14l2.5-1.94a.813.813,0,0,1,1.14.14.822.822,0,0,1-.14,1.14l-2.5,1.94A1.508,1.508,0,0,1,222.33,413.5Z" fill="#fff"/><path d="M225.83,413.83a.809.809,0,0,1-.97-.24.822.822,0,0,1,.14-1.14l2.5-1.94a.813.813,0,0,1,1.14.14.822.822,0,0,1-.14,1.14l-2.5,1.94A.951.951,0,0,1,225.83,413.83Z" fill="#fff"/><path d="M229.54,413.92a.809.809,0,0,1-.97-.24.822.822,0,0,1,.14-1.14l2.5-1.94a.812.812,0,0,1,1,1.28l-2.5,1.94A.587.587,0,0,1,229.54,413.92Z" fill="#fff"/><path d="M233.42,413.69a.809.809,0,0,1-.97-.24.822.822,0,0,1,.14-1.14l2.5-1.94a.813.813,0,0,1,1.14.14.822.822,0,0,1-.14,1.14l-2.5,1.94C233.53,413.63,233.47,413.66,233.42,413.69Z" fill="#fff"/><path d="M165.75,308.09c-4.18-4.11-37.13-13.3-59.01-7.19a28.419,28.419,0,0,0,2.14,28.36c28.76,4.7,44.81,14.38,44.81,14.38s10.2,23.57,16.26,32.22,19.96,36.12,19.96,36.12l20.94-8.95C210.84,403.02,177.12,319.29,165.75,308.09Z" fill="#182335"/><path d="M140.85,408.33l1.58,11.86h13.01l-.5-12.21Z" fill="#ff9b79"/><path d="M187.56,440.74H138.34a6.8,6.8,0,0,1-.65-2.73c-.31-4.16,1.02-10.81,1.67-15,.08-.49.15-.95.2-1.36a14.664,14.664,0,0,0,.15-1.71c0-3.42,3.03-2.83,3.03-2.83,4.98,4.88,10.62-2.44,13.91-.04,0,0,1.42,1.02,5.33,4.53s10.55,5.84,16.21,8.2c7.3,3.05,9.38,6.1,9.78,8.2A3.9,3.9,0,0,1,187.56,440.74Z" fill="#54b2e0"/><path d="M187.56,440.74H138.34a6.8,6.8,0,0,1-.65-2.73h50.27A3.848,3.848,0,0,1,187.56,440.74Z" fill="#0b88b1"/><path d="M143.36,440.74H141.9a10.832,10.832,0,0,0,2.65-7.88,13.927,13.927,0,0,0-5.18-9.85c.08-.49.15-.95.2-1.36a15.085,15.085,0,0,1,6.16,11.15A12.054,12.054,0,0,1,143.36,440.74Z" fill="#0b88b1"/><path d="M161.14,424.5a.829.829,0,0,1-.79-.62.813.813,0,0,1,.59-.98l3.07-.76a.809.809,0,0,1,.39,1.57l-3.07.76A.422.422,0,0,1,161.14,424.5Z" fill="#fff"/><path d="M158.08,421.94a.812.812,0,0,1-.2-1.6l3.07-.76a.809.809,0,0,1,.39,1.57l-3.07.76A.422.422,0,0,1,158.08,421.94Z" fill="#fff"/><path d="M164.21,426.29a.829.829,0,0,1-.79-.62.813.813,0,0,1,.59-.98l3.07-.76a.809.809,0,0,1,.39,1.57l-3.07.76A.628.628,0,0,1,164.21,426.29Z" fill="#fff"/><path d="M167.28,428.01a.829.829,0,0,1-.79-.62.813.813,0,0,1,.59-.98l3.07-.76a.809.809,0,0,1,.39,1.57l-3.07.76A.582.582,0,0,1,167.28,428.01Z" fill="#fff"/><path d="M170.64,429.6a.829.829,0,0,1-.79-.62.813.813,0,0,1,.59-.98l3.07-.76a.809.809,0,0,1,.39,1.57l-3.07.76A.628.628,0,0,1,170.64,429.6Z" fill="#fff"/><path d="M174.27,430.95a.829.829,0,0,1-.79-.62.813.813,0,0,1,.59-.98l3.07-.76a.809.809,0,0,1,.39,1.57l-3.07.76A.583.583,0,0,1,174.27,430.95Z" fill="#fff"/><path d="M42.24,310.24c.02.2.05.39.07.57.1.08.2.15.29.22a68.925,68.925,0,0,0,25.66,11.98c.32.08.64.15.96.23,1.56.36,3.13.67,4.7.93,2.12.35,4.25.62,6.35.81,1.86.16,3.72.26,5.55.3a68.115,68.115,0,0,0,21.66-2.9l.72-.24a45.423,45.423,0,0,0,4.74-1.88c.23-.1.46-.21.67-.32.92-.45,1.81-.93,2.65-1.44-.13-3.04-.17-6.67-.14-10.55,0-.32,0-.64.01-.97.05-5.4.22-11.23.43-16.57l.03-.75c.12-2.79.24-5.43.36-7.79.02-.25.03-.5.04-.74.1-1.99.21-3.76.31-5.22.02-.37.05-.74.08-1.1.02-.29.04-.57.05-.85h0c.08-1.03.16-2.03.25-3.02.13-1.58.28-3.11.45-4.6.19-1.7.39-3.35.6-4.94.23-1.71.48-3.36.73-4.96.28-1.7.57-3.34.86-4.91,1.06-5.54,2.25-10.29,3.44-14.4.09-.28.16-.56.25-.83.48-1.63.96-3.15,1.43-4.57.1-.31.21-.62.31-.93,2.64-7.85,4.83-12.59,4.87-15.77.08-6.61-4.76-8.73-9.8-11.4-.24-.13-.48-.25-.71-.38-.85-.46-1.7-.94-2.53-1.46-.35-.22-.69-.45-1.03-.69-.23-.16-.46-.33-.68-.49a14.994,14.994,0,0,1-4.89-6.21l-19.06-4.02a27.081,27.081,0,0,1-4.88,1.76c-.29.08-.58.15-.89.23-.36.08-.73.17-1.12.24-.24.05-.49.1-.75.14-.19.04-.39.07-.59.1a35.508,35.508,0,0,1-6.33.42c-.24,0-.48-.01-.73-.02-.17-.01-.34-.01-.52-.02a12.832,12.832,0,0,0-4.64.6h0c-.28.09-.57.19-.84.3-6.19,2.48-11.06,9.87-14.22,21.24q-1.32,4.74-2.58,9.25c-.09.33-.18.66-.27.98-.18.66-.36,1.31-.54,1.97h0c-.07.24-.13.47-.2.71-.65,2.33-1.27,4.63-1.88,6.91h0c-.06.24-.13.48-.19.73h0c-.04.13-.07.26-.1.38l-.35,1.33a217.683,217.683,0,0,0-5,23.88c-.23,1.64-.44,3.29-.62,4.95-.05.4-.09.85-.14,1.35-.01.09-.02.18-.03.28-.02.17-.04.35-.05.53l-.03.27c-.31,2.99-.7,7.15-1.08,11.72-.02.24-.05.49-.06.73C42.4,291.99,41.61,304.66,42.24,310.24Z" fill="#ffb028"/><path d="M100.23,205.6c-7.62-1.6-11.72-11.13-11.9-11.54a.542.542,0,0,1,1-.42c.04.1,4.22,9.79,11.56,10.98,7.22,1.17,10.1-4.14,10.21-4.37a.541.541,0,0,1,.96.5,10.728,10.728,0,0,1-11.36,4.94A4.3,4.3,0,0,1,100.23,205.6Z" fill="#f88800"/><path d="M92.51,306.86c-7.16-1.51-14.55-5.18-21.94-10.96A96.5,96.5,0,0,1,53.7,278.69a.544.544,0,0,1,.88-.64,95.2,95.2,0,0,0,16.67,17c9.19,7.18,23.25,14.75,38.02,10.03a.541.541,0,0,1,.33,1.03A32.674,32.674,0,0,1,92.51,306.86Z" fill="#f88800"/><path d="M106.02,316.72c-1.55-1.51-3.82-2.11-6.75-1.79a11.153,11.153,0,0,0-7.06,3.39c-2.09,1.92-3.35,3.07-9.47-.93-6.59-4.31-12-3.8-14.23-1.5-1.67,1.72-1.74,4.32-.25,7.11.32.08.64.16.96.23-1.65-2.73-1.73-5.24-.19-6.83,1.26-1.29,3.66-1.94,6.78-1.28A19.628,19.628,0,0,1,82.35,318c6.28,4.11,7.95,3.06,10.36.85a10.372,10.372,0,0,1,6.64-3.2c2.7-.3,4.77.23,6.16,1.58a7.593,7.593,0,0,1,1.96,5.14c.24-.08.48-.15.72-.24A8.156,8.156,0,0,0,106.02,316.72Z" fill="#c42b4b"/><path d="M113.54,319.86a6.459,6.459,0,0,1-1.75-5.25c.4-2.76,2.62-5.18,4.32-6.67,0-.32,0-.65.01-.97-1.81,1.49-4.57,4.24-5.04,7.53a7.052,7.052,0,0,0,1.85,5.75c.23-.1.45-.21.67-.32C113.58,319.91,113.56,319.88,113.54,319.86Z" fill="#c42b4b"/><path d="M46.93,301.23s-10.16,40.08,42.52,40.08c28.14,0,41.51-2.72,41.51-2.72s.68,24.84,1.98,35.32,5.95,36.59,5.95,36.59l22.16,1.72s3.54-90.95-10.04-99.32-33.11-8.62-66.63-11.84C84.37,301.07,54.27,295.97,46.93,301.23Z" fill="#0c375a"/><path d="M99.84,312.7h66.38a.269.269,0,0,0,.27-.27v-8.17a.269.269,0,0,0-.27-.27H99.84a.269.269,0,0,0-.27.27v8.17A.269.269,0,0,0,99.84,312.7Z" fill="#ccd3e6"/><path d="M173.48,312.7a5.553,5.553,0,0,0,5.37-4.13l12.52-46.87a4.517,4.517,0,0,0-4.36-5.68H157.05a4.5,4.5,0,0,0-4.34,3.29l-14.99,53.38h35.76Z" fill="#adb8c4"/><path d="M152.7,259.32l-14.87,52.94h-3.42l14.87-52.94a4.506,4.506,0,0,1,4.34-3.29h3.42A4.518,4.518,0,0,0,152.7,259.32Z" fill="#ccd3e6"/><path d="M161.16,285.13a4.1,4.1,0,0,0,4.1,5.33,7.119,7.119,0,0,0,6.56-5.33,4.1,4.1,0,0,0-4.1-5.33A7.116,7.116,0,0,0,161.16,285.13Z" fill="#fff"/><path d="M120.29,293.61s13.58.94,17.93,5.09l-2.64,9.4s-8.12-3.32-10.37-3-3.59,4.02-11.12,1.77Z" fill="#ff9b79"/><path d="M120.22,292.99l-1.53-.62-1.59-.67c-1.06-.45-2.13-.91-3.19-1.38-2.12-.94-4.23-1.92-6.32-2.92-4.17-2.01-8.27-4.13-12.23-6.4a117.251,117.251,0,0,1-11.26-7.23c-.87-.64-1.72-1.29-2.54-1.95s-1.61-1.33-2.37-2.01a34.719,34.719,0,0,1-3.94-4.09,18.355,18.355,0,0,1-1.36-1.93,11.856,11.856,0,0,1-.88-1.82,23.261,23.261,0,0,1-1.24-4.67,48.912,48.912,0,0,1-.22-11.68,94.355,94.355,0,0,1,2.06-12.69c.48-2.13,1.03-4.26,1.63-6.37.3-1.05.62-2.1.94-3.13.16-.52.33-1.03.5-1.53l.25-.74.12-.35.06-.16.03-.07.01-.03a12,12,0,1,0-21.64-10.38,12.266,12.266,0,0,0-.68,1.76l-.36,1.25-.1.33-.07.27-.14.51-.26.99c-.17.65-.32,1.3-.48,1.94-.3,1.28-.59,2.56-.85,3.84-.53,2.56-.99,5.12-1.38,7.71a117.648,117.648,0,0,0-1.36,15.88,80.622,80.622,0,0,0,.31,8.31,59.309,59.309,0,0,0,1.41,8.66,42.466,42.466,0,0,0,3.25,8.97,33.148,33.148,0,0,0,2.69,4.43,36.737,36.737,0,0,0,3.09,3.72,53.887,53.887,0,0,0,6.49,5.81c2.2,1.69,4.42,3.2,6.66,4.6a134.827,134.827,0,0,0,13.55,7.35c4.56,2.17,9.15,4.13,13.77,5.95,2.31.91,4.64,1.78,6.97,2.61,1.17.42,2.34.83,3.52,1.23l1.78.59,1.85.6a7.659,7.659,0,0,0,5.27-14.37Z" fill="#ff9b79"/><path d="M64.64,267.19a.677.677,0,0,0,.14-.02A33.946,33.946,0,0,1,74.64,266a.476.476,0,0,0,.05-.95,34.526,34.526,0,0,0-10.18,1.21.482.482,0,0,0-.32.59A.451.451,0,0,0,64.64,267.19Z" fill="#ef6a3f"/><path d="M73.46,265.98a.5.5,0,0,0,.36-.16.475.475,0,0,0-.05-.67,12.091,12.091,0,0,0-3.99-2.18.475.475,0,0,0-.27.91,11.5,11.5,0,0,1,3.64,1.98A.465.465,0,0,0,73.46,265.98Z" fill="#ef6a3f"/><path d="M47.7,236.9l9.85,2.7.72.2,6.8,1.86.83.23,8.75,2.4.68-3.1.15-.74,1.58-7.29.16-.73,2.98-13.75a29.028,29.028,0,0,0,.89-10.4,13.486,13.486,0,0,0-12.64-11.45,9.583,9.583,0,0,0-3.91.58,6.52,6.52,0,0,0-.73.29,15.692,15.692,0,0,0-6.14,5.55c-.14.2-.28.4-.4.61-3.33,5.06-5.6,12.14-7.13,18.76-.07.26-.12.51-.18.77-.7,3.15-1.24,6.18-1.64,8.81-.07.41-.12.81-.17,1.2C47.97,234.69,47.82,235.87,47.7,236.9Z" fill="#f88800"/><path d="M79.65,220.91a.329.329,0,0,0,.19-.06l3.71-2.38a.355.355,0,0,0-.38-.6l-3.71,2.38a.358.358,0,0,0-.11.49A.352.352,0,0,0,79.65,220.91Z" fill="#f88800"/><path d="M49.16,397.35H120.3a3.01,3.01,0,0,0,0-6.02H49.16a3.01,3.01,0,0,0,0,6.02Z" fill="#382624"/><path d="M126.85,443.37a2.694,2.694,0,0,0,.4-.03,3.018,3.018,0,0,0,2.59-3.39l-12.96-96.76a3.01,3.01,0,0,0-2.99-2.61H55.85a3.019,3.019,0,0,0-2.99,2.62L40.1,439.96a3.011,3.011,0,0,0,5.97.79l12.41-94.14h52.76l12.61,94.14A3.042,3.042,0,0,0,126.85,443.37Z" fill="#6d4b45"/><path d="M97.08,343.6H59.38c-11.94,0-24.73-6.54-26.56-18.34a223.611,223.611,0,0,1-2.37-45.09c.77-15.86,6.94-30.58,19.4-40.42h0s-5.38,61.17-.53,78.07C55.81,340.42,97.08,343.6,97.08,343.6Z" fill="#6d4b45"/><path d="M212.44,217.63v18.1a4.332,4.332,0,0,1-4.33,4.33H175.25l-9.92,3.56a1.259,1.259,0,0,1-1.6-1.64l3.75-9.69V217.64a4.332,4.332,0,0,1,4.33-4.33H208.1A4.306,4.306,0,0,1,212.44,217.63Z" fill="#0076fa"/><path d="M183.9,227.19a3.13,3.13,0,1,1-3.13-3.13A3.128,3.128,0,0,1,183.9,227.19Z" fill="#004ecb"/><path d="M193.82,227.19a3.13,3.13,0,1,1-3.13-3.13A3.128,3.128,0,0,1,193.82,227.19Z" fill="#004ecb"/><path d="M203.74,227.19a3.13,3.13,0,1,1-3.13-3.13A3.128,3.128,0,0,1,203.74,227.19Z" fill="#004ecb"/><path d="M96.42,165.22s-3.49-4.55-3.01-9.89c.42-4.7,4.14-3.57,4.14-3.57s-1.58-5.73,1.34-8.76a6.835,6.835,0,0,1,7.95-1.54s.95-7.51,12.13-3.46,17.81,6.54,18.15,12.01a4.769,4.769,0,0,1-4.73,5.49s3.74,4.19.61,6.4a5.033,5.033,0,0,1-5.67.5Z" fill="#182335"/><path d="M119.95,170.25s3.03-4.87,7.03-2.57.52,16.69-7.57,14.16Z" fill="#ed7462"/><path d="M91.59,190.13s-1.56,1.48,5.68,6.07a17.74,17.74,0,0,0,12.17,2.16,10.018,10.018,0,0,0,2.83-1.55c.54-6.39,1.87-8.98,2.45-9.82.09-.13.14-.19.14-.19L97.39,170.28Z" fill="#ff9d8a"/><path d="M97.85,179.25s.8,15.11,11.59,19.12a4.751,4.751,0,0,0,2.83-1.55c.54-6.39,1.87-8.98,2.45-9.82Z" fill="#b76c62"/><path d="M103.67,188.78c8.01,4.16,15.86,2.5,18.82-4.55.71-1.7,1.56-4.21,2.37-6.86.01-.03.02-.05.03-.08.17-.56.34-1.13.51-1.7l.36-1.23c1.39-4.73,2.51-9.05,2.51-9.05,2.23-12.1-8.11-19.9-18.73-18.18S98.3,164.2,96.27,171.18C94.25,178.18,96.8,185.22,103.67,188.78Z" fill="#ff9d8a"/><path d="M109.58,175.41s.02,4.25,3,5.84c3.39,1.82,5.58-2.45,5.58-2.45Z" fill="#fff"/><path d="M110.82,163.19c-2.56-.22-2.45-3,.12-3.68a6.663,6.663,0,0,1,3.53-.17c3.17.94,2.59,3.2.73,3.63A17.808,17.808,0,0,1,110.82,163.19Z" fill="#00312d"/><path d="M124.84,166.07c2.38.96,3.55-1.56,1.56-3.33a6.67,6.67,0,0,0-3.07-1.75c-3.25-.6-3.76,1.68-2.29,2.9A17.953,17.953,0,0,0,124.84,166.07Z" fill="#00312d"/><path d="M123.86,177.21a9.506,9.506,0,0,0,1,.17c.01-.03.02-.05.03-.08.17-.56.34-1.13.51-1.7l.36-1.23a9.785,9.785,0,0,0-1.19-.34c-2.18-.49-4.11-.17-4.3.7S121.68,176.72,123.86,177.21Z" fill="#ed7462"/><path d="M123.27,176.31a5.514,5.514,0,1,1,6.05-4.92A5.519,5.519,0,0,1,123.27,176.31Zm1.04-10.17a4.7,4.7,0,1,0,4.2,5.16A4.7,4.7,0,0,0,124.31,166.14Z" fill="#fff"/><path d="M116.49,175.75a.5.5,0,0,0,.21-.01c2.32-.73,2.89-1.32,2.99-1.43a.383.383,0,0,0,.08-.37l-1.5-5.02a.052.052,0,0,0-.02-.04c-.38-.88-.05-2.36.39-4.07a.393.393,0,0,0-.29-.48.388.388,0,0,0-.48.29c-.47,1.84-.82,3.45-.36,4.56l1.42,4.74a9.184,9.184,0,0,1-2.47,1.06.4.4,0,0,0-.26.5A.379.379,0,0,0,116.49,175.75Z" fill="#00312d"/><path d="M102.09,168.83c-.2.88,1.41,1.99,3.59,2.47s4.11.17,4.3-.71-1.41-1.99-3.59-2.47S102.28,167.95,102.09,168.83Z" fill="#ed7462"/><path d="M110.6,172.82a5.514,5.514,0,1,1,6.05-4.92A5.519,5.519,0,0,1,110.6,172.82Zm1.04-10.17a4.7,4.7,0,1,0,4.2,5.16A4.7,4.7,0,0,0,111.64,162.65Z" fill="#fff"/><path d="M118.87,169.74h0a.4.4,0,0,1-.36-.45c0-.04.11-1.05-.62-1.24a1.434,1.434,0,0,0-1.4.61.4.4,0,1,1-.66-.46,2.267,2.267,0,0,1,2.26-.93,1.873,1.873,0,0,1,1.23,2.13A.412.412,0,0,1,118.87,169.74Z" fill="#fff"/><path d="M106.64,165.26a.393.393,0,0,1-.35-.32c-.94-4.4-5.4-3.74-5.59-3.71a.4.4,0,0,1-.46-.33.392.392,0,0,1,.33-.46c.05-.01,5.41-.82,6.51,4.34a.4.4,0,0,1-.31.48Z" fill="#fff"/><path d="M128.03,166.11h0a14.79,14.79,0,0,0,.05-12.5c-3.8-8.52-15.87-11.8-22.73-6.4s-6.33,12.07-6.33,12.07,1.71,1.28,1.5,5.33l2.57.67a19.411,19.411,0,0,0,2.48-8.29c.56-5.43,11.17-7.8,16.96-4.77a11.6,11.6,0,0,1,6.04,9.22A19.6,19.6,0,0,1,128.03,166.11Z" fill="#182335"/><path d="M110.72,151.86s4.79-.37,6.61,1.07,4.49,3.42,7.24,2.49,3.87,4.67,3.87,4.67-.25-9.45-7.87-9.82S113.17,149.23,110.72,151.86Z" fill="#00312d"/><path d="M113.16,183.2a1,1,0,0,0,.3-.01.4.4,0,0,0,.36-.43.394.394,0,0,0-.43-.36,2.524,2.524,0,0,1-2.27-1.11.4.4,0,0,0-.67.43A3.286,3.286,0,0,0,113.16,183.2Z" fill="#ed7462"/><path d="M100.81,162.11s-1.27-4.64-5.84-3.92S88.53,173.6,97,174.12Z" fill="#ff9d8a"/><path d="M96.89,168.69a.277.277,0,0,0,.09.01.4.4,0,0,0,.4-.4c0-.19-.02-4.6-3.54-6.29a.4.4,0,0,0-.34.72c3.07,1.47,3.09,5.53,3.09,5.57A.379.379,0,0,0,96.89,168.69Z" fill="#00312d"/><path d="M93.84,166.41a.374.374,0,0,0,.29-.05c.01-.01.97-.59,2.07-1.14a.4.4,0,1,0-.35-.71c-1.13.56-2.09,1.15-2.13,1.17a.393.393,0,0,0-.13.55A.374.374,0,0,0,93.84,166.41Z" fill="#00312d"/><path d="M110.71,167.1c-.25.85-.06,1.65.43,1.79s1.08-.43,1.33-1.28.06-1.65-.43-1.79S110.95,166.25,110.71,167.1Z" fill="#00312d"/><path d="M120.54,170.13c-.25.85-.06,1.65.43,1.79s1.08-.43,1.33-1.28.06-1.65-.43-1.79S120.79,169.29,120.54,170.13Z" fill="#00312d"/><path d="M108.36,176.77a8.449,8.449,0,0,0,1.22,4.77s1.63,2.03,3.25,2.03,6.04-.32,5.48-3.69l-4.16-2.02s-.52-1.78,3.26,0c3.64,1.71,1.68,4.68,1.8,5.76s1.2,3.36,2.27,2.42c0,0-2.2,4.78-6.79,5.59-5.04.88-11.32.49-14.45-7.56s-.57-17.98-.57-17.98l1.84.22s-2.13,11.92,1.08,13.8,4.78-1.87,4.78-2.91c0-.41-.11-1.65.66-2.11,1.16-.7,3.58.21,4.66.72,2.93,1.39,1.16,1.91,1.16,1.91S109.14,175.85,108.36,176.77Z" fill="#182335"/></g></svg>