<svg xmlns="http://www.w3.org/2000/svg" width="47.925" height="32.762" viewBox="0 0 47.925 32.762">
  <g id="email" transform="translate(0)">
    <g id="Group_1521" data-name="Group 1521" transform="translate(7.088 6.432)">
      <g id="Group_1520" data-name="Group 1520">
        <path id="Path_280" data-name="Path 280" d="M109.14,165.4l-7.761-9.125,6.893-3.933a1.4,1.4,0,1,0-1.391-2.439L92.6,158.048,78.319,149.9a1.4,1.4,0,1,0-1.391,2.439l6.893,3.933L76.06,165.4a1.4,1.4,0,0,0,2.139,1.819l8.1-9.528,5.6,3.2a1.4,1.4,0,0,0,1.391,0l5.6-3.2,8.1,9.528a1.4,1.4,0,1,0,2.139-1.819Z" transform="translate(-75.726 -149.716)" fill="#1492e6"/>
      </g>
    </g>
    <g id="Group_1523" data-name="Group 1523" transform="translate(0 0)">
      <g id="Group_1522" data-name="Group 1522">
        <path id="Path_281" data-name="Path 281" d="M43.713,81H4.212A4.217,4.217,0,0,0,0,85.212v24.337a4.217,4.217,0,0,0,4.212,4.212h39.5a4.217,4.217,0,0,0,4.212-4.212V85.212A4.217,4.217,0,0,0,43.713,81Zm1.4,28.549a1.406,1.406,0,0,1-1.4,1.4H4.212a1.406,1.406,0,0,1-1.4-1.4V85.212a1.406,1.406,0,0,1,1.4-1.4h39.5a1.406,1.406,0,0,1,1.4,1.4Z" transform="translate(0 -81)" fill="#6e87a4"/>
      </g>
    </g>
  </g>
</svg>
