<svg xmlns="http://www.w3.org/2000/svg" width="26.4" height="19" viewBox="0 0 26.4 19"><g transform="translate(0 -74.667)"><g transform="translate(0 74.667)"><g transform="translate(0 0)"><path d="M174.267,170.667c-.88,0,.87,1.205-.748,2.767-1.451,1.339-2.852-.274-2.852.833a3.6,3.6,0,1,0,3.6-3.6Z" transform="translate(-161.067 -164.767)" fill="#939ea8"/><path d="M13.2,74.667A14.231,14.231,0,0,0,0,84.167a14.231,14.231,0,0,0,13.2,9.5,14.225,14.225,0,0,0,13.2-9.5A14.225,14.225,0,0,0,13.2,74.667Zm0,15.833a6.343,6.343,0,0,1,0-12.667,6.343,6.343,0,0,1,0,12.667Z" transform="translate(0 -74.667)" fill="#939ea8"/></g></g></g></svg>