<svg xmlns="http://www.w3.org/2000/svg" width="30.7" height="30.7" viewBox="0 0 30.7 30.7"><path d="M59.443,304.618a15.179,15.179,0,0,1-23.043-3.9l1-4.594,4.418-.82a8.152,8.152,0,0,0,7.753,5.738,7.979,7.979,0,0,0,4.749-1.547l4.245.648Z" transform="translate(-34.217 -277.593)" fill="#59c36a"/><path d="M265.876,370.327l-.881-4.479-4.245-.648A7.979,7.979,0,0,1,256,366.747V374A15.327,15.327,0,0,0,265.876,370.327Z" transform="translate(-240.65 -343.302)" fill="#00a66c"/><g transform="translate(0 7.579)"><path d="M7.255,134.171a8.383,8.383,0,0,0,.342,2.356l-5.414,5.414a14.925,14.925,0,0,1,0-15.542l4.346.748L7.6,131.814A8.382,8.382,0,0,0,7.255,134.171Z" transform="translate(0 -126.4)" fill="#ffda2d"/></g><path d="M257.25,199.6a15.326,15.326,0,0,1-5.474,11.674l-5.127-5.127a7.96,7.96,0,0,0,2.5-2.95H241.9a.891.891,0,0,1-.9-.9v-5.4a.891.891,0,0,1,.9-.9h14.2a.889.889,0,0,1,.881.737A15.254,15.254,0,0,1,257.25,199.6Z" transform="translate(-226.549 -184.248)" fill="#4086f4"/><path d="M263.249,203.2a7.96,7.96,0,0,1-2.5,2.95l5.127,5.127a15.2,15.2,0,0,0,5.2-14.535A.889.889,0,0,0,270.2,196H256v7.2Z" transform="translate(-240.65 -184.248)" fill="#4175df"/><path d="M59.695,4.287a.908.908,0,0,1-.252.666l-3.85,3.832a.881.881,0,0,1-1.169.09,8.046,8.046,0,0,0-4.857-1.619,8.152,8.152,0,0,0-7.753,5.738L36.4,7.579A15.17,15.17,0,0,1,59.371,3.622a.946.946,0,0,1,.324.666Z" transform="translate(-34.217)" fill="#ff641a"/><path d="M260.857,8.874a.881.881,0,0,0,1.169-.09l3.849-3.832a.907.907,0,0,0,.252-.666.946.946,0,0,0-.324-.666A15.3,15.3,0,0,0,256,0V7.255A8.046,8.046,0,0,1,260.857,8.874Z" transform="translate(-240.65 0)" fill="#f03800"/></svg>