<svg xmlns="http://www.w3.org/2000/svg" width="537.413" height="441.516" viewBox="0 0 537.413 441.516"><g transform="translate(0 -0.34)"><path d="M347.18,43.11l1.18-6.01-5.63-1.11a13.651,13.651,0,0,0-.75-4.4l4.64-3.12-3.42-5.08-4.44,2.98a13.745,13.745,0,0,0-4.56-3.07l1.11-5.63-6.01-1.18-1.14,5.8a13.711,13.711,0,0,0-3.66.71l-3.12-4.64-5.08,3.42,2.98,4.44a13.745,13.745,0,0,0-3.07,4.56l-4.92-.97-1.18,6.01,5.1,1a13.819,13.819,0,0,0,1.08,4.64l-4.44,2.98,3.42,5.08,4.64-3.12a13.656,13.656,0,0,0,4.48,2.6l-1.11,5.67,6.01,1.18,1.21-6.14a13.5,13.5,0,0,0,3.89-1.03l2.98,4.44,5.08-3.42-3.12-4.64a13.525,13.525,0,0,0,2.04-3.12ZM332.09,40.7a5.614,5.614,0,1,1,1.53-7.79A5.617,5.617,0,0,1,332.09,40.7Z" fill="#d3e8ee"/><path d="M304.55,14.87l.64-3.28-3.08-.6a7.337,7.337,0,0,0-.41-2.4l2.54-1.7-1.87-2.78-2.43,1.63a7.556,7.556,0,0,0-2.49-1.68l.6-3.08L294.77.34l-.62,3.17a7.783,7.783,0,0,0-2,.39l-1.7-2.54-2.78,1.87,1.63,2.43a7.556,7.556,0,0,0-1.68,2.49l-2.69-.53-.65,3.28,2.79.55a7.468,7.468,0,0,0,.59,2.53l-2.43,1.63,1.87,2.78,2.54-1.7a7.552,7.552,0,0,0,2.45,1.42l-.61,3.1,3.28.64.66-3.36a7.377,7.377,0,0,0,2.13-.56l1.63,2.43,2.78-1.87-1.7-2.54a7.578,7.578,0,0,0,1.12-1.7Zm-8.25-1.32a3.07,3.07,0,1,1,.84-4.26A3.075,3.075,0,0,1,296.3,13.55Z" fill="#d3e8ee"/><path d="M245.13,21.6a.731.731,0,0,1-.36,0c-1.29-.34-2.04-.48-2.05-.48a.722.722,0,0,1,.26-1.42c.03.01.8.15,2.16.5a.712.712,0,0,1,.51.88A.756.756,0,0,1,245.13,21.6Z" fill="#d3e8ee"/><path d="M286.96,54.6c.67,1.22,1.32,2.49,1.92,3.77a.721.721,0,0,0,.83.39.694.694,0,0,0,.13-.05.72.72,0,0,0,.34-.96c-.62-1.3-1.28-2.6-1.96-3.85a.724.724,0,0,0-.98-.29A.744.744,0,0,0,286.96,54.6Z" fill="#d3e8ee"/><path d="M290.57,62.25c.52,1.29,1.01,2.63,1.47,3.97a.723.723,0,0,0,.86.47.076.076,0,0,0,.05-.02.715.715,0,0,0,.45-.91c-.46-1.37-.97-2.73-1.5-4.05a.718.718,0,1,0-1.33.54Z" fill="#d3e8ee"/><path d="M296.68,83.34a.726.726,0,0,0,.54-.79c-.18-1.43-.4-2.87-.64-4.26a.73.73,0,0,0-.83-.59.722.722,0,0,0-.59.83c.24,1.37.45,2.78.64,4.2a.722.722,0,0,0,.81.62A.225.225,0,0,0,296.68,83.34Z" fill="#d3e8ee"/><path d="M293.79,69.38a.721.721,0,0,0-.5.89c.18.63.35,1.27.51,1.9.18.73.36,1.47.53,2.21a.713.713,0,0,0,.86.54h.02a.728.728,0,0,0,.53-.86c-.17-.75-.35-1.51-.54-2.25-.16-.64-.34-1.29-.52-1.94a.713.713,0,0,0-.87-.5A.031.031,0,0,1,293.79,69.38Z" fill="#d3e8ee"/><path d="M284.81,50.96a.713.713,0,0,0,.79.31.949.949,0,0,0,.21-.09.706.706,0,0,0,.22-.99c-.77-1.21-1.58-2.42-2.42-3.58a.723.723,0,0,0-1.17.85C283.26,48.59,284.06,49.77,284.81,50.96Z" fill="#d3e8ee"/><path d="M248.81,22.82c1.31.45,2.65.95,3.96,1.5a.727.727,0,0,0,.94-.39.717.717,0,0,0-.39-.94c-1.34-.55-2.7-1.07-4.05-1.53a.707.707,0,0,0-.91.45A.715.715,0,0,0,248.81,22.82Z" fill="#d3e8ee"/><path d="M260.4,28a.763.763,0,0,0,.53.07.723.723,0,0,0,.17-1.33c-1.25-.7-2.54-1.37-3.83-1.99a.718.718,0,0,0-.63,1.29C257.91,26.66,259.17,27.32,260.4,28Z" fill="#d3e8ee"/><path d="M274.06,37.95a.728.728,0,0,0,.67.17.676.676,0,0,0,.35-.21.725.725,0,0,0-.03-1.02c-1.04-.98-2.14-1.94-3.25-2.85a.718.718,0,1,0-.91,1.11C271.96,36.05,273.03,36.99,274.06,37.95Z" fill="#d3e8ee"/><path d="M267.53,32.56a.725.725,0,0,0,.6.12.744.744,0,0,0,.41-.27.731.731,0,0,0-.16-1.01c-1.16-.84-2.36-1.66-3.57-2.43a.717.717,0,0,0-.77,1.21C265.22,30.94,266.4,31.74,267.53,32.56Z" fill="#d3e8ee"/><path d="M279.85,44.11a.711.711,0,0,0,.73.24.739.739,0,0,0,.28-.14.716.716,0,0,0,.1-1.01c-.91-1.11-1.88-2.2-2.86-3.24a.722.722,0,1,0-1.05.99C278.01,41.96,278.96,43.03,279.85,44.11Z" fill="#d3e8ee"/><path d="M244.41,16.72l1.46-12-38.18,5.83Z" fill="#30b9ef"/><path d="M207.69,10.55l35.27,9.23.09.02,1.77,2.17-.41-5.25Z" fill="#1295c9"/><path d="M244.82,21.97l-3.17-.05,1.4-2.12Z" fill="#0036af"/><path d="M238.61,18.64l4.44,1.16-7.22,10.95-28.14-20.2Z" fill="#30b9ef"/><rect width="34.03" height="23.51" transform="translate(384.51 32.52)" fill="#f88800"/><path d="M384.51,32.52l17.02,11.75,17.01-11.75Z" fill="#ffaa01"/><path d="M379.01,37.91H368.04a.72.72,0,0,1,0-1.44h10.97a.72.72,0,0,1,0,1.44Z" fill="#d3e8ee"/><path d="M379.01,44.99H368.04a.72.72,0,1,1,0-1.44h10.97a.72.72,0,0,1,0,1.44Z" fill="#d3e8ee"/><path d="M379.01,52.08H368.04a.72.72,0,1,1,0-1.44h10.97a.72.72,0,0,1,0,1.44Z" fill="#d3e8ee"/><g opacity="0.5"><ellipse cx="8.85" cy="9.52" rx="8.85" ry="9.52" transform="translate(21.06 98.27)" fill="#ccd3e6"/></g><path d="M381.82,374.92a11.641,11.641,0,1,1-15.6-5.26A11.639,11.639,0,0,1,381.82,374.92Z" fill="#d3e8ee"/><path d="M531.55,423.02c0,6.95-107.31,12.58-239.68,12.58S52.19,429.97,52.19,423.02s107.31-12.58,239.68-12.58S531.55,416.08,531.55,423.02Z" fill="#d3e8ee"/><path d="M245.72,91.14C227.77,26.03,146.88,5.05,100.53,53.71c-.67.7-1.33,1.41-2,2.13C32.07,128.08,63.47,306.11,202.16,351.23S485.12,313.95,493.23,240.3s-55.88-96.8-155.19-76.21C281.94,175.74,256.9,131.68,245.72,91.14Z" fill="#d3e8ee"/><path d="M404.59,344.02c-16.35,9.28-15.46,26.48,2.02,32.44,5.78,1.97,13.23,2.62,22.82.78,36.53-7.04,49.16-29.03,28.05-43.67C444.45,324.54,420.79,334.83,404.59,344.02Z" fill="#d3e8ee"/><path d="M460.19,312.79c-5.27,7.43-1.17,16.27,7.88,16.6a17.68,17.68,0,0,0,10.3-3.22c14.71-9.47,15.59-22.94,3.07-27.23C473.7,296.31,465.41,305.43,460.19,312.79Z" fill="#d3e8ee"/><path d="M106.05,359.49l-.25-7.57-7.09.24a17.023,17.023,0,0,0-2.12-5.09l4.72-5.05-5.53-5.18-4.52,4.83a17.08,17.08,0,0,0-6.35-2.43l-.23-7.09-7.57.25.24,7.31a16.857,16.857,0,0,0-4.21,1.88l-5.05-4.72-5.18,5.53,4.83,4.52a17.08,17.08,0,0,0-2.43,6.35l-6.2.2.25,7.57,6.42-.21a16.9,16.9,0,0,0,2.59,5.29l-4.52,4.83,5.53,5.18,4.72-5.05a17.017,17.017,0,0,0,6.12,1.89l.23,7.14,7.57-.25-.26-7.74a16.893,16.893,0,0,0,4.4-2.32l4.83,4.52,5.18-5.53-5.05-4.72a17.164,17.164,0,0,0,1.59-4.32Zm-18.85,1.3a6.94,6.94,0,1,1-.32-9.81A6.948,6.948,0,0,1,87.2,360.79Z" fill="#d3e8ee"/><path d="M197.54,376.34l-.14-4.14-3.88.13a9.378,9.378,0,0,0-1.16-2.78l2.58-2.76-3.02-2.83-2.47,2.64a9.33,9.33,0,0,0-3.47-1.33l-.13-3.88-4.14.14.13,4a9.238,9.238,0,0,0-2.3,1.02l-2.76-2.58-2.83,3.02,2.64,2.47a9.266,9.266,0,0,0-1.33,3.47l-3.39.11.14,4.14,3.51-.12a9.374,9.374,0,0,0,1.42,2.89l-2.47,2.64,3.02,2.83,2.58-2.76a9.329,9.329,0,0,0,3.34,1.03l.13,3.9,4.14-.14-.14-4.23a9.287,9.287,0,0,0,2.41-1.27l2.64,2.47,2.83-3.02-2.76-2.58a9.325,9.325,0,0,0,.87-2.36Zm-10.3.71a3.792,3.792,0,1,1-.18-5.36A3.793,3.793,0,0,1,187.24,377.05Z" fill="#d3e8ee"/><path d="M12.72,311.97c12.55,8.47,23.46-1.08,30.71,8.21s18.64,11.5,25.13,3.37,10.81-14.48,21.84-8.38,26.19,1.23,24.83-9.64c-.33-2.71-.7-5.63-1.07-8.51-.1-.78-.2-1.57-.3-2.33-.02-.18-.04-.36-.07-.53a22.832,22.832,0,0,0-22.97-20.08c-4.71.1-9.17,1.65-12.11,5.98-9.21,13.56-14.88-2.26-26.37-1.48-13.23.9-14.84,13.52-24.73,13.14C13.87,291.21.17,303.5,12.72,311.97Z" fill="#007d55"/><path d="M31.2,304.9l82.97-7.86c-.1-.78-.2-1.57-.3-2.33l-82.9,7.85a1.17,1.17,0,0,0-1.06,1.28A1.2,1.2,0,0,0,31.2,304.9Z" fill="#04593a"/><path d="M88.66,100.11l-2.72.05-1.44.03-4.09.08S38.91,38.56,61.27,16.29C68.15,9.43,81.17,14,80.13,43.68,79.16,71.2,88.66,100.11,88.66,100.11Z" fill="#007d55"/><path d="M85.94,100.17l-1.44.03C77,85.1,72.68,68.65,70.33,57.06a199.667,199.667,0,0,1-3.48-23.93.651.651,0,0,1,1.3-.08,200.959,200.959,0,0,0,3.47,23.78C73.97,68.46,78.33,85.05,85.94,100.17Z" fill="#04593a"/><path d="M101.9,103.43l-3.28,2.19-1.74,1.16-4.92,3.28S-6.77,67.11,3.16,22.52C6.22,8.79,25.66,4.21,47.52,41.24,67.78,75.56,101.9,103.43,101.9,103.43Z" fill="#00b570"/><path d="M98.63,105.61l-1.74,1.16C75.96,94.19,57.88,77.48,45.99,65.18A291.229,291.229,0,0,1,23.09,38.7a.944.944,0,0,1,1.52-1.12A292.691,292.691,0,0,0,47.37,63.89C59.32,76.26,77.56,93.09,98.63,105.61Z" fill="#007d55"/><path d="M.73,233.23c4.89,16.45,21.32,15.93,20.97,29.28s8.04,23.48,19.57,21.04,19.88-4.89,25.15,8.39,22.03,19.92,28.67,9.43c1.66-2.61,3.44-5.44,5.19-8.21.48-.76.95-1.51,1.42-2.26.11-.17.22-.34.33-.52a25.881,25.881,0,0,0-5.66-34.11c-4.2-3.3-9.21-5.16-14.91-3.48-17.82,5.24-11.4-12.69-22.02-20.27-12.23-8.74-22.72,1.15-31.1-6.29C16.68,215.89-4.16,216.78.73,233.23Z" fill="#00b570"/><path d="M21.99,240.34l78.28,52.82c.48-.76.95-1.51,1.42-2.26L23.48,238.13a1.333,1.333,0,1,0-1.49,2.21Z" fill="#007d55"/><path d="M528.42,111.19c-14.47,9.22-26.54-1.93-35.03,8.39s-21.46,12.47-28.57,3.07-11.81-16.72-24.49-10.14-29.7.61-27.84-11.66c.46-3.06.96-6.36,1.46-9.6.14-.88.27-1.77.4-2.64l.09-.6a25.88,25.88,0,0,1,26.62-22.06c5.33.25,10.34,2.14,13.54,7.14,10.03,15.64,16.92-2.11,29.91-.89,14.96,1.41,16.41,15.76,27.62,15.62C527.74,87.64,542.89,101.97,528.42,111.19Z" fill="#007d55"/><path d="M507.7,102.63,413.95,91.25c.14-.88.27-1.77.4-2.64l93.66,11.37a1.328,1.328,0,0,1,1.16,1.48A1.308,1.308,0,0,1,507.7,102.63Z" fill="#04593a"/><path d="M535.23,21.69c-3.71,16.75-20.13,17.41-18.83,30.7s-6.35,24-18.02,22.38S478.2,71.3,473.9,84.93s-20.56,21.44-27.93,11.45c-1.84-2.48-3.82-5.18-5.76-7.82-.53-.72-1.06-1.44-1.58-2.15-.12-.16-.24-.33-.36-.49a25.881,25.881,0,0,1,3.21-34.42c3.95-3.59,8.82-5.8,14.62-4.54,18.15,3.96,10.47-13.47,20.52-21.79,11.58-9.59,22.74-.47,30.57-8.49C518.08,5.53,538.94,4.94,535.23,21.69Z" fill="#00b570"/><path d="M514.53,30.3,440.21,88.56c-.53-.72-1.06-1.44-1.58-2.15L512.88,28.2a1.335,1.335,0,0,1,1.65,2.1Z" fill="#007d55"/><path d="M129.09,123.22s1.49,4.58,6.16,4.67,0-5.79,0-5.79,3.42,4.18,5.46,3.55-4.2-6.3-7.09-6.4S129.09,123.22,129.09,123.22Z" fill="#fc5f2d"/><path d="M466.71,65.65V313.51a7.507,7.507,0,0,1-7.51,7.51H82.95a7.507,7.507,0,0,1-7.51-7.51V65.65a7.507,7.507,0,0,1,7.51-7.51H459.2A7.507,7.507,0,0,1,466.71,65.65Z" fill="#0c375a"/><path d="M456.33,76.27V302.88a7.618,7.618,0,0,1-7.62,7.62H93.43a7.451,7.451,0,0,1-2.64-.48,7.6,7.6,0,0,1-4.97-7.14V76.27a7.616,7.616,0,0,1,7.61-7.62H448.71a7.472,7.472,0,0,1,2.88.57A7.6,7.6,0,0,1,456.33,76.27Z" fill="#fff"/><path d="M456.34,76.27V87.55H85.82V76.27a7.618,7.618,0,0,1,7.62-7.62H448.72A7.624,7.624,0,0,1,456.34,76.27Z" fill="#d3e8ee"/><path d="M427.27,78.1a3.7,3.7,0,1,1-3.7-3.7A3.7,3.7,0,0,1,427.27,78.1Z" fill="#ffaa95"/><path d="M413.57,78.1a3.7,3.7,0,1,1-3.7-3.7A3.7,3.7,0,0,1,413.57,78.1Z" fill="#0172d2"/><path d="M440.96,78.1a3.7,3.7,0,1,1-3.7-3.7A3.7,3.7,0,0,1,440.96,78.1Z" fill="#fc5f2d"/><path d="M153.8,291.7H107.86a6.163,6.163,0,0,1-6.16-6.16V119.88a6.163,6.163,0,0,1,6.16-6.16H153.8a6.163,6.163,0,0,1,6.16,6.16V285.55A6.161,6.161,0,0,1,153.8,291.7Z" fill="#e4f1f4"/><rect width="58.34" height="83.09" transform="translate(244.28 320.91)" fill="#001030"/><path d="M340.21,418.96H213.63v-4.22a13.612,13.612,0,0,1,13.61-13.61h99.37a13.612,13.612,0,0,1,13.61,13.61v4.22Z" fill="#0c375a"/><path d="M393.82,325.44H377.33a3.461,3.461,0,0,1-3.46-3.46v-1.07h23.41v1.07A3.461,3.461,0,0,1,393.82,325.44Z" fill="#001030"/><path d="M429.72,325.44H413.23a3.461,3.461,0,0,1-3.46-3.46v-1.07h23.41v1.07A3.461,3.461,0,0,1,429.72,325.44Z" fill="#001030"/><path d="M357.92,325.44H341.43a3.461,3.461,0,0,1-3.46-3.46v-1.07h23.41v1.07A3.461,3.461,0,0,1,357.92,325.44Z" fill="#001030"/><path d="M411.88,291.7H187.83a7.994,7.994,0,0,1-7.99-7.99V120.82a7.994,7.994,0,0,1,7.99-7.99H411.88a7.994,7.994,0,0,1,7.99,7.99V283.71A7.994,7.994,0,0,1,411.88,291.7Z" fill="#e4f1f4"/><path d="M294.57,208.41H252.34a5.2,5.2,0,0,1-5.2-5.2v-1.87a5.2,5.2,0,0,1,5.2-5.2h42.23a5.2,5.2,0,0,1,5.2,5.2v1.87A5.2,5.2,0,0,1,294.57,208.41Z" fill="#dd2f37"/><text transform="translate(257.902 204.581)" fill="#fff" font-size="5.9" font-family="GothamRounded-Medium, Gotham Rounded" font-weight="500"><tspan x="0" y="0">Hire Tutor</tspan></text><circle cx="8.04" cy="8.04" r="8.04" transform="translate(203.41 126.88)" fill="#87aeb2"/><path d="M228.28,159.79v-.21a16.832,16.832,0,0,0-33.66-.07v.28Z" fill="#87aeb2"/><path d="M399.62,135.3H248.76a1.472,1.472,0,0,1-1.47-1.47v-2.57a1.472,1.472,0,0,1,1.47-1.47H399.62a1.472,1.472,0,0,1,1.47,1.47v2.57A1.472,1.472,0,0,1,399.62,135.3Z" fill="#fff"/><path d="M327.65,146.09H249.03a1.472,1.472,0,0,1-1.47-1.47v-2.57a1.472,1.472,0,0,1,1.47-1.47h78.62a1.472,1.472,0,0,1,1.47,1.47v2.57A1.466,1.466,0,0,1,327.65,146.09Z" fill="#fff"/><path d="M356.29,163.53H248.76a1.472,1.472,0,0,1-1.47-1.47v-2.57a1.472,1.472,0,0,1,1.47-1.47H356.3a1.472,1.472,0,0,1,1.47,1.47v2.57A1.481,1.481,0,0,1,356.29,163.53Z" fill="#fff"/><path d="M304.6,174.32H248.96a1.472,1.472,0,0,1-1.47-1.47v-2.57a1.472,1.472,0,0,1,1.47-1.47H304.6a1.472,1.472,0,0,1,1.47,1.47v2.57A1.472,1.472,0,0,1,304.6,174.32Z" fill="#fff"/><path d="M267.29,185.78H249.38a1.472,1.472,0,0,1-1.47-1.47v-2.57a1.472,1.472,0,0,1,1.47-1.47h17.91a1.472,1.472,0,0,1,1.47,1.47v2.57A1.472,1.472,0,0,1,267.29,185.78Z" fill="#fff"/><path d="M230.39,183.74H192.52a1.472,1.472,0,0,1-1.47-1.47v-.53a1.472,1.472,0,0,1,1.47-1.47h37.87a1.472,1.472,0,0,1,1.47,1.47v.53A1.472,1.472,0,0,1,230.39,183.74Z" fill="#fff"/><path d="M139.47,145.75s-3.88-9.56-17.78-10.25c-9.98-.5-19.08,5.35-19.78,17.13-.74,12.45,2.9,11.48-7.31,15.16s3.79,17.67-6.31,19.39-10.67,16.64,2.18,20.77,54.29,1.94,56.13-6.56-10.47-19.76-7.23-26.65S146.24,151.14,139.47,145.75Z" fill="#001030"/><path d="M151.65,226.8l3.81,11.88s36.06-24.72,36.78-27.11.36-13.84.49-15.12a2.575,2.575,0,0,1,2.65,2.58c.16,2.66.1,5.53.1,5.53s4.56.22,6.77-.83,11.77-6.97,13.71-7.15c0,0,1.83.78-1.14,2.86s-11.05,10.58-12.92,12.12c-2.17,1.77-37.28,37.72-41.74,43.46s-12.87,4.58-16.2-4.63-5.65-22.24-5.65-22.24Z" fill="#ffb58c"/><path d="M142.6,194.33a180.5,180.5,0,0,1,13.74,38.74s-1.35,7.34-17.87,7.51C138.47,240.58,125.36,203.25,142.6,194.33Z" fill="#e55395"/><path d="M135.5,408.83l2.24,27.33H126.09l-5.03-29.04Z" fill="#fec9cf"/><path d="M124.83,430.44s-5.06,9.2-1.26,10.65,28.8.56,34.96-.36-13.77-9.38-18.33-10.7S134.17,435.64,124.83,430.44Z" fill="#f15b9a"/><path d="M74.22,408.83l-2.24,27.33H83.63l6.05-27.33Z" fill="#fec9cf"/><path d="M84.9,430.75s2.95,7.2-.85,8.65-15.92,2.94-22.07,1.92c-8-1.33,4.86-9.66,9.42-10.98S82.15,434.4,84.9,430.75Z" fill="#f15b9a"/><path d="M138.48,259.4l5.28,163.86H119.15l-5.31-109.14L92.76,426.38l-26.8-4.47s24.2-122.47,28.31-162.52h44.21Z" fill="#39337d"/><path d="M119.39,183.52s11.02,2.41,17.21,6.02,7.92,5.85,8.43,13.94,3.89,21-1.27,24.96-6.01,13.94-4.8,21.86,2.25,12.76.98,16.81c-1.58,5.01-11.87,5.95-27.77,5.28-16.41-.69-24.16-2.35-19.51-14.57s-6.32-58.81-4.25-62.08S105.96,183,119.39,183.52Z" fill="#f15b9a"/><path d="M118.6,192.98h2.16a5.983,5.983,0,0,0,5.98-5.98V164.29H112.62V187A5.977,5.977,0,0,0,118.6,192.98Z" fill="#ffb58c"/><path d="M126.74,183.8s-5.71,1.24-14.12-3.34v-8.72l14.13,9.32S126.74,182.82,126.74,183.8Z" fill="#db926e"/><path d="M136.91,150.3s2.6,32.85-10,32.85c-13.83,0-15.93-12.69-15.93-12.69s-4.63-2.61-3.58-5.56c.74-2.09,2.99-.86,2.99-.86S104.31,144.56,136.91,150.3Z" fill="#ffb58c"/><path d="M137.52,148.1s-2.32,13.33-13.31,11.24-8.37,6.04-13.52,4.7c0,0-12.66-8.18-3.11-16.41S131.66,141.49,137.52,148.1Z" fill="#001030"/><path d="M130.23,186.68s-2.61,8.03-7.58,9.52c0,0-7.85-.76-14.1-11.28,0,0,7.07-1.95,11.88-1.42C120.43,183.5,126.38,185.11,130.23,186.68Z" fill="#ffb58c"/><path d="M94.76,208.93s5.24,21.19-.9,39.89l-2.4-45.13Z" fill="#e55395"/><path d="M112.74,243.12h10.92a2.667,2.667,0,0,0,2.57-1.95l6.09-21.86a2.664,2.664,0,0,0-2.57-3.38H118.83a2.667,2.667,0,0,0-2.57,1.95l-6.09,21.87A2.664,2.664,0,0,0,112.74,243.12Z" fill="#2f2a62"/><path d="M114.15,243.12h10.92a2.667,2.667,0,0,0,2.57-1.95l6.09-21.86a2.664,2.664,0,0,0-2.57-3.38H120.24a2.667,2.667,0,0,0-2.57,1.95l-6.09,21.87A2.655,2.655,0,0,0,114.15,243.12Z" fill="#39337d"/><path d="M118.82,223.81h1.85a.471.471,0,0,0,.45-.34l1.37-5a.469.469,0,0,0-.45-.59h-1.85a.471.471,0,0,0-.45.34l-1.37,5A.465.465,0,0,0,118.82,223.81Z" fill="#2f2a62"/><path d="M93.48,217.48s-5.47,34.41-7.3,40.91c-1.18,4.2-9.8,7.06-12.51,1.51-.6-1.23-.46-3.26-.39-5.34.41-12.83,7.48-40.2,7.48-40.2Z" fill="#ffb58c"/><path d="M83.15,247.96s18.29-7.32,21.05-11.69c3.75-5.93,5.7-5.18,8.42-7.52,4.38-3.77,4.34-2.48,4.34-2.48s1.23,3.01-2.45,5.33c-1.85,1.17-3.7,2.1-2.84,2.27,0,0,15.75-4.46,19.01-5.76s1.91,2.52-.2,4.28c0,0-.27,3.26-2.84,3.87,0,0,1.58,1.11-4.39,4.13s-13.41.72-15.75,3.64-13.33,14.44-24.45,18.22c-5.31,1.81-7.68.03-8.95-2.49C71.92,255.41,76.23,252.01,83.15,247.96Z" fill="#ffb58c"/><path d="M88.4,195.74s11.65,10.16,5.8,39.25a17.4,17.4,0,0,1-18.42-3.96C75.79,231.03,77.22,207.79,88.4,195.74Z" fill="#f15b9a"/><path d="M113.84,314.11l6.59-24.7-5.5,47.09Z" fill="#2c2b6d"/><circle cx="1.02" cy="1.02" r="1.02" transform="translate(122.61 166.46)" fill="#171d51"/><circle cx="1.02" cy="1.02" r="1.02" transform="translate(131.88 165.28)" fill="#171d51"/><path d="M119.39,163.61a6.141,6.141,0,0,1,5.27-.7" fill="none" stroke="#171d51" stroke-linecap="round" stroke-linejoin="round" stroke-miterlimit="10" stroke-width="1.152"/><path d="M130.23,163.05a4.84,4.84,0,0,1,4.38-1.45" fill="none" stroke="#171d51" stroke-linecap="round" stroke-linejoin="round" stroke-miterlimit="10" stroke-width="1.152"/><path d="M128.18,165.59a15.03,15.03,0,0,0,2.05,4.59c1.23,1.58-1.84,2.54-1.84,2.54" fill="none" stroke="#ee84aa" stroke-linecap="round" stroke-linejoin="round" stroke-miterlimit="10" stroke-width="0.864"/><path d="M123.16,176.19s3.75,2.67,6.94,0" fill="none" stroke="#ee84aa" stroke-linecap="round" stroke-linejoin="round" stroke-miterlimit="10" stroke-width="0.864"/><path d="M110.96,167.54s-.03-2.59-2.41-1.72" fill="none" stroke="#ee84aa" stroke-linecap="round" stroke-linejoin="round" stroke-miterlimit="10" stroke-width="0.864"/><path d="M145.56,419.41l-.37,3.5a1.613,1.613,0,0,1-1.6,1.44H119.46a1.6,1.6,0,0,1-1.6-1.47l-.26-2.97a1.61,1.61,0,0,1,1.57-1.75l24.76-.54A1.629,1.629,0,0,1,145.56,419.41Z" fill="#403e87"/><path d="M94.69,421.85l-.88,4.28a1.134,1.134,0,0,1-1.3.89l-26.24-4.35a1.138,1.138,0,0,1-.94-1.27l.6-4.65a1.134,1.134,0,0,1,1.33-.97l26.52,4.72A1.144,1.144,0,0,1,94.69,421.85Z" fill="#403e87"/><path d="M511.13,430.58H483.09c-3.81,0-7.19-2.92-8.37-7.23l-11.89-43.48c-.49-1.78.56-3.63,2.13-3.77a347.125,347.125,0,0,1,64.31-.01c1.57.15,2.61,1.99,2.12,3.77L519.5,423.35C518.32,427.66,514.94,430.58,511.13,430.58Z" fill="#fc5f2d"/><path d="M528.9,379.26c0,1.16-14.15,2.09-31.6,2.09s-31.6-.94-31.6-2.09,14.15-2.09,31.6-2.09S528.9,378.1,528.9,379.26Z" fill="#0c375a"/><path d="M533.09,320.49c-11.37-3-28.75,20.61-34.02,43.62V330.58c2.65-4.7,7.71-11.78,16.89-19.26,14.28-11.63,27.42-26.55,16.03-29.55-10.68-2.81-26.64,17.82-32.92,39.4V278.11a45.6,45.6,0,0,1,9.67-10.53c9-7.33,17.28-16.73,10.1-18.63-6.23-1.64-15.32,9.39-19.77,21.83V256.82a66.7,66.7,0,0,1,4.63-16.79c6.62-14.61,10.19-29.65,1.47-28.53s-14.4,27.13-9.62,47.1v7.18c-3.23-14.61-14.3-29.75-21.52-27.85-7.18,1.89,1.1,11.3,10.1,18.63,6.85,5.58,10.06,10.8,11.42,13.61v33.92c-5.17-23.13-22.67-47-34.1-43.99-11.39,3,1.75,17.92,16.03,29.55,10.79,8.79,15.89,17.02,18.07,21.5v40.67c-5.53-22.7-22.58-45.62-33.8-42.66-11.39,3-1.62,13.91,14.42,27.1a75.706,75.706,0,0,1,19.37,23.57V379a5.939,5.939,0,0,0,3.52,0v-7.62c2.23-4.51,7.33-12.65,17.99-21.34C531.34,338.42,544.48,323.49,533.09,320.49Z" fill="#00b570"/><path d="M108.74,78.1h0a3.239,3.239,0,0,0,3.24,3.24H395.65a3.239,3.239,0,0,0,3.24-3.24h0a3.239,3.239,0,0,0-3.24-3.24H111.97A3.237,3.237,0,0,0,108.74,78.1Z" fill="#fff"/><path d="M198.01,170.63l-2-.31-.9-1.91a.215.215,0,0,0-.37,0l-.9,1.91-2,.31a.2.2,0,0,0-.11.34l1.46,1.49-.34,2.11a.2.2,0,0,0,.3.21l1.79-.99,1.79.99a.2.2,0,0,0,.3-.21l-.34-2.11,1.46-1.49a.217.217,0,0,0-.14-.34Z" fill="#ffc107"/><path d="M206.27,170.63l-2-.31-.9-1.91a.215.215,0,0,0-.37,0l-.9,1.91-2,.31a.2.2,0,0,0-.11.34l1.46,1.49-.34,2.11a.2.2,0,0,0,.3.21l1.79-.99,1.79.99a.2.2,0,0,0,.3-.21l-.34-2.11,1.46-1.49a.217.217,0,0,0-.14-.34Z" fill="#ffc107"/><path d="M214.54,170.63l-2-.31-.9-1.91a.215.215,0,0,0-.37,0l-.9,1.91-2,.31a.2.2,0,0,0-.11.34l1.46,1.49-.34,2.11a.2.2,0,0,0,.3.21l1.79-.99,1.79.99a.2.2,0,0,0,.3-.21l-.34-2.11,1.46-1.49a.221.221,0,0,0-.14-.34Z" fill="#ffc107"/><path d="M222.8,170.63l-2-.31-.9-1.91a.215.215,0,0,0-.37,0l-.9,1.91-2,.31a.2.2,0,0,0-.11.34l1.46,1.49-.34,2.11a.2.2,0,0,0,.3.21l1.79-.99,1.79.99a.2.2,0,0,0,.3-.21l-.34-2.11,1.46-1.49a.221.221,0,0,0-.14-.34Z" fill="#ffc107"/><path d="M231.06,170.63l-2-.31-.9-1.91a.215.215,0,0,0-.37,0l-.9,1.91-2,.31a.2.2,0,0,0-.11.34l1.46,1.49-.34,2.11a.2.2,0,0,0,.3.21l1.79-.99,1.79.99a.2.2,0,0,0,.3-.21l-.34-2.11,1.46-1.49a.221.221,0,0,0-.14-.34Z" fill="#ffc107"/><path d="M403.01,259.75H252.49a6.764,6.764,0,0,1-6.76-6.76V231.78a6.764,6.764,0,0,1,6.76-6.76H403.01a6.764,6.764,0,0,1,6.76,6.76v21.21A6.758,6.758,0,0,1,403.01,259.75Z" fill="#dae8ea"/><path d="M448.02,206.48l1.46-7.43-6.96-1.37a17.024,17.024,0,0,0-.92-5.44l5.74-3.86-4.22-6.29-5.49,3.69a16.842,16.842,0,0,0-5.64-3.79l1.37-6.96-7.43-1.46-1.41,7.18a16.835,16.835,0,0,0-4.52.88l-3.85-5.74-6.29,4.22,3.69,5.49a16.842,16.842,0,0,0-3.79,5.64l-6.09-1.2-1.46,7.43,6.3,1.24a16.855,16.855,0,0,0,1.34,5.74l-5.49,3.69,4.22,6.29,5.74-3.85a17.186,17.186,0,0,0,5.54,3.22l-1.38,7.01,7.43,1.46,1.49-7.6a16.871,16.871,0,0,0,4.81-1.27l3.69,5.49,6.29-4.22-3.85-5.74a16.589,16.589,0,0,0,2.52-3.85Zm-18.67-2.97a6.939,6.939,0,1,1,1.89-9.63A6.946,6.946,0,0,1,429.35,203.51Z" fill="#778689"/><path d="M395.31,171.56l.8-4.06-3.81-.75a9.213,9.213,0,0,0-.5-2.97l3.14-2.11-2.31-3.44-3,2.02a9.045,9.045,0,0,0-3.08-2.07l.75-3.81-4.06-.8-.77,3.92a9.644,9.644,0,0,0-2.47.48l-2.11-3.14-3.44,2.31,2.02,3a9.045,9.045,0,0,0-2.07,3.08l-3.33-.65-.8,4.06,3.44.68a9.332,9.332,0,0,0,.73,3.13l-3,2.02,2.31,3.44,3.14-2.11a9.433,9.433,0,0,0,3.03,1.76l-.75,3.83,4.06.8.81-4.15a9.467,9.467,0,0,0,2.63-.69l2.02,3,3.44-2.31-2.11-3.14a9.136,9.136,0,0,0,1.38-2.11Zm-10.21-1.63a3.79,3.79,0,1,1,1.03-5.26A3.793,3.793,0,0,1,385.1,169.93Z" fill="#778689"/><path d="M381.11,236.11H263a1.878,1.878,0,0,1-1.88-1.88v-.68a1.878,1.878,0,0,1,1.88-1.88H381.1a1.878,1.878,0,0,1,1.88,1.88v.68A1.869,1.869,0,0,1,381.11,236.11Z" fill="#c7d7d8"/><path d="M387.68,275.12H249.67a1.878,1.878,0,0,1-1.88-1.88v-.68a1.878,1.878,0,0,1,1.88-1.88H387.68a1.878,1.878,0,0,1,1.88,1.88v.68A1.878,1.878,0,0,1,387.68,275.12Z" fill="#c7d7d8"/><g transform="translate(19 -1)"><path d="M406.69,294.1H349.85c-2.27,0-4.12-1.47-4.12-3.28v-7.58c0-1.81,1.84-3.28,4.12-3.28h57.79V294.1h-.95Z" fill="#fff"/><path d="M408.54,294.54H349.97c-2.34,0-4.24-1.56-4.24-3.49V283c0-1.93,1.9-3.49,4.24-3.49h59.55" fill="none" stroke="#3a82ca" stroke-linecap="round" stroke-linejoin="round" stroke-miterlimit="10" stroke-width="3.81"/><line x1="56.15" transform="translate(349.65 291.66)" stroke-width="0.294" stroke="#082477" stroke-linecap="round" stroke-linejoin="round" stroke-miterlimit="10" fill="none"/><line x1="56.15" transform="translate(349.55 289.41)" stroke-width="0.294" stroke="#082477" stroke-linecap="round" stroke-linejoin="round" stroke-miterlimit="10" fill="none"/><line x1="56.15" transform="translate(349.46 287.15)" stroke-width="0.294" stroke="#082477" stroke-linecap="round" stroke-linejoin="round" stroke-miterlimit="10" fill="none"/><line x1="56.15" transform="translate(349.36 284.9)" stroke-width="0.294" stroke="#082477" stroke-linecap="round" stroke-linejoin="round" stroke-miterlimit="10" fill="none"/><line x1="56.15" transform="translate(349.26 282.64)" stroke-width="0.294" stroke="#082477" stroke-linecap="round" stroke-linejoin="round" stroke-miterlimit="10" fill="none"/><path d="M418.14,310.54H356.12a5.245,5.245,0,0,1-5.24-5.24v-4.56a5.245,5.245,0,0,1,5.24-5.24h62.02a5.245,5.245,0,0,1,5.24,5.24v4.56A5.252,5.252,0,0,1,418.14,310.54Z" fill="#029544"/><rect width="1.94" height="15.03" transform="translate(360.2 295.51)" fill="#fcfcfc"/><rect width="1.94" height="15.03" transform="translate(364.73 295.51)" fill="#fcfcfc"/><rect width="1.94" height="15.03" transform="translate(407.58 295.51)" fill="#fcfcfc"/><rect width="1.94" height="15.03" transform="translate(412.11 295.51)" fill="#fcfcfc"/><path d="M420.73,277.02H363.89c-2.27,0-4.12-1.47-4.12-3.28v-7.58c0-1.81,1.84-3.28,4.12-3.28h57.79v14.14h-.95Z" fill="#fff"/><path d="M422.59,277.47H364.02c-2.34,0-4.24-1.56-4.24-3.49v-8.05c0-1.93,1.9-3.49,4.24-3.49h59.55" fill="none" stroke="#fe9f07" stroke-linecap="round" stroke-linejoin="round" stroke-miterlimit="10" stroke-width="3.81"/><line x1="56.15" transform="translate(363.69 274.58)" stroke-width="0.294" stroke="#082477" stroke-linecap="round" stroke-linejoin="round" stroke-miterlimit="10" fill="none"/><line x1="56.15" transform="translate(363.59 272.33)" stroke-width="0.294" stroke="#082477" stroke-linecap="round" stroke-linejoin="round" stroke-miterlimit="10" fill="none"/><line x1="56.15" transform="translate(363.5 270.08)" stroke-width="0.294" stroke="#082477" stroke-linecap="round" stroke-linejoin="round" stroke-miterlimit="10" fill="none"/><line x1="56.15" transform="translate(363.4 267.82)" stroke-width="0.294" stroke="#082477" stroke-linecap="round" stroke-linejoin="round" stroke-miterlimit="10" fill="none"/><line x1="56.15" transform="translate(363.31 265.57)" stroke-width="0.294" stroke="#082477" stroke-linecap="round" stroke-linejoin="round" stroke-miterlimit="10" fill="none"/><path d="M354.89,282.8h-3.01v8.45l3.01-1.67,3.02,1.67V282.8Z" fill="#f66f5b"/></g><path d="M311.86,243.88H263a1.878,1.878,0,0,1-1.88-1.88v-.68a1.878,1.878,0,0,1,1.88-1.88h48.86a1.878,1.878,0,0,1,1.88,1.88V242A1.871,1.871,0,0,1,311.86,243.88Z" fill="#c7d7d8"/><path d="M298.74,284.62H249.88a1.878,1.878,0,0,1-1.88-1.88v-.68a1.878,1.878,0,0,1,1.88-1.88h48.86a1.878,1.878,0,0,1,1.88,1.88v.68A1.884,1.884,0,0,1,298.74,284.62Z" fill="#c7d7d8"/><circle cx="22.22" cy="22.22" r="22.22" transform="translate(190.7 229.86)" fill="#ffd15c"/><path d="M194.92,265.08l-7.65,13.26,8.93-.47,4.05,7.97,7.07-12.26A22.316,22.316,0,0,1,194.92,265.08Z" fill="#40596b"/><path d="M230.97,265.01a22.208,22.208,0,0,1-12.37,8.53l7.1,12.29,4.05-7.97,8.93.47Z" fill="#40596b"/><circle cx="16.11" cy="16.11" r="16.11" transform="translate(196.81 235.97)" fill="#f8b64c"/><path d="M223.96,250.33a.839.839,0,0,0-.46-1.43l-6.36-.93a.818.818,0,0,1-.63-.46l-2.84-5.76a.839.839,0,0,0-1.51,0l-2.83,5.76a.858.858,0,0,1-.63.46l-6.36.93a.839.839,0,0,0-.46,1.43l4.59,4.48a.826.826,0,0,1,.24.74l-1.08,6.32a.839.839,0,0,0,1.22.88l5.69-2.99a.829.829,0,0,1,.78,0l5.69,2.99a.841.841,0,0,0,1.22-.88l-1.09-6.32a.836.836,0,0,1,.24-.74Z" fill="#fff"/></g></svg>