<svg xmlns="http://www.w3.org/2000/svg" width="90" height="78.758" viewBox="0 0 90 78.758">
  <g id="register_4_" data-name="register (4)" transform="translate(0 -64)">
    <path id="Path_212" data-name="Path 212" d="M53.443,64H10.319A10.3,10.3,0,0,0,0,74.319V121.2a10.3,10.3,0,0,0,10.319,10.3H37.99l.826-4.606a10.652,10.652,0,0,1,2.848-5.52l4.87-4.87H14.064a2.813,2.813,0,0,1,0-5.626H49.7a2.817,2.817,0,0,1,1.793.668L63.762,99.335V74.319A10.312,10.312,0,0,0,53.443,64ZM49.7,104.311H14.064a2.813,2.813,0,0,1,0-5.626H49.7a2.813,2.813,0,0,1,0,5.626Zm0-12.183H14.064a2.813,2.813,0,1,1,0-5.626H49.7a2.813,2.813,0,1,1,0,5.626Z" fill="#3cc1fc"/>
    <g id="Group_40" data-name="Group 40" transform="translate(11.251 86.502)">
      <path id="Path_213" data-name="Path 213" d="M105.26,194.813a2.844,2.844,0,0,1-2.813,2.813H66.813a2.813,2.813,0,1,1,0-5.626h35.634A2.844,2.844,0,0,1,105.26,194.813Z" transform="translate(-64 -192)" fill="#fff"/>
      <path id="Path_214" data-name="Path 214" d="M105.26,264.113a2.844,2.844,0,0,1-2.813,2.813H66.813a2.813,2.813,0,1,1,0-5.626h35.634A2.844,2.844,0,0,1,105.26,264.113Z" transform="translate(-64 -249.117)" fill="#fff"/>
      <path id="Path_215" data-name="Path 215" d="M104.24,331.368l-4.958,4.958H66.813a2.813,2.813,0,0,1,0-5.626h35.634A2.854,2.854,0,0,1,104.24,331.368Z" transform="translate(-64 -306.317)" fill="#fff"/>
    </g>
    <path id="Path_216" data-name="Path 216" d="M31.872,64H10.319A10.3,10.3,0,0,0,0,74.319V121.2a10.3,10.3,0,0,0,10.319,10.3H31.89v-15H14.064a2.813,2.813,0,0,1,0-5.626H31.872v-6.557H14.064a2.813,2.813,0,0,1,0-5.626H31.872V92.128H14.064a2.813,2.813,0,1,1,0-5.626H31.872V64Z" fill="#22aeed"/>
    <path id="Path_217" data-name="Path 217" d="M84.621,192H66.813a2.813,2.813,0,1,0,0,5.626H84.621Z" transform="translate(-52.749 -105.498)" fill="#dedede"/>
    <path id="Path_218" data-name="Path 218" d="M84.621,261.3H66.813a2.813,2.813,0,1,0,0,5.626H84.621Z" transform="translate(-52.749 -162.615)" fill="#dedede"/>
    <path id="Path_219" data-name="Path 219" d="M84.621,330.7H66.813a2.813,2.813,0,0,0,0,5.626H84.621Z" transform="translate(-52.749 -219.815)" fill="#dedede"/>
    <path id="Path_220" data-name="Path 220" d="M254.027,295.3a2.823,2.823,0,0,1-1.987-.826,2.754,2.754,0,0,1-.774-2.479l1.987-11.269a2.855,2.855,0,0,1,.774-1.494l27.846-27.846c3.428-3.428,6.786-2.5,8.614-.668l4.641,4.641a6.557,6.557,0,0,1,0,9.282L267.3,292.489a2.881,2.881,0,0,1-1.494.791l-11.286,1.969Zm11.269-4.8h0Z" transform="translate(-207.054 -152.544)" fill="#fbe86f"/>
    <path id="Path_221" data-name="Path 221" d="M286.7,249.1a6.811,6.811,0,0,0-4.8,2.3l-27.846,27.846a2.734,2.734,0,0,0-.773,1.494L251.3,292.012a2.8,2.8,0,0,0,.774,2.479l.088.088,41.1-41.1-2.742-2.742A5.426,5.426,0,0,0,286.7,249.1Z" transform="translate(-207.084 -152.56)" fill="#f2c55b"/>
  </g>
</svg>
