<svg xmlns="http://www.w3.org/2000/svg" width="90" height="78.776" viewBox="0 0 90 78.776">
  <g id="register_5_" data-name="register (5)" transform="translate(0 -64)">
    <path id="Path_173" data-name="Path 173" d="M286.249,263.838c-.035.035-.07.07-.105.07L283.7,261.5a2.722,2.722,0,0,1,2.549,2.338Z" transform="translate(-233.824 -162.778)" fill="#fff"/>
    <path id="Path_174" data-name="Path 174" d="M53.445,64H10.32A10.3,10.3,0,0,0,0,74.32v46.888a10.3,10.3,0,0,0,10.32,10.3H37.253a16.436,16.436,0,0,1,5.854-7.771L35.865,116.5h-21.8a2.813,2.813,0,1,1,0-5.626H31.206a10.706,10.706,0,0,1-1.09-4.764,10.276,10.276,0,0,1,.141-1.793H14.065a2.813,2.813,0,0,1,0-5.626H32.893l.527-.563a11.368,11.368,0,0,1,7.946-3.305,10.977,10.977,0,0,1,7.911,3.305l.6.6a2.721,2.721,0,0,1,2.549,2.321,10.862,10.862,0,0,1,3.534-.967l.3-.3a11.29,11.29,0,0,1,7.507-3.305V74.32A10.313,10.313,0,0,0,53.445,64ZM49.7,92.129H14.065a2.813,2.813,0,0,1,0-5.626H49.7a2.813,2.813,0,0,1,0,5.626Z" transform="translate(0 0)" fill="#eceff1"/>
    <g id="Group_34" data-name="Group 34" transform="translate(11.252 86.503)">
      <path id="Path_175" data-name="Path 175" d="M105.262,194.813a2.844,2.844,0,0,1-2.813,2.813H66.813a2.813,2.813,0,1,1,0-5.626h35.636A2.844,2.844,0,0,1,105.262,194.813Z" transform="translate(-64 -192)" fill="#607d8b"/>
      <path id="Path_176" data-name="Path 176" d="M85.642,261.3a11.457,11.457,0,0,0-2.62,5.626H66.813a2.813,2.813,0,1,1,0-5.626Z" transform="translate(-64 -249.117)" fill="#607d8b"/>
      <path id="Path_177" data-name="Path 177" d="M88.6,336.326H66.813a2.813,2.813,0,0,1,0-5.626H83.954a9.75,9.75,0,0,0,2.18,3.147Z" transform="translate(-64 -306.316)" fill="#607d8b"/>
    </g>
    <path id="Path_178" data-name="Path 178" d="M31.874,64H10.32A10.3,10.3,0,0,0,0,74.32v46.888a10.3,10.3,0,0,0,10.32,10.3H31.891v-15H14.065a2.813,2.813,0,1,1,0-5.626H31.206a10.706,10.706,0,0,1-1.09-4.764,10.276,10.276,0,0,1,.141-1.793H14.065a2.813,2.813,0,1,1,0-5.626H31.874V92.129H14.065a2.813,2.813,0,0,1,0-5.626H31.874V64Z" transform="translate(0 0)" fill="#cdd0d2"/>
    <path id="Path_179" data-name="Path 179" d="M84.622,192H66.813a2.813,2.813,0,1,0,0,5.626H84.622Z" transform="translate(-52.748 -105.497)" fill="#546d79"/>
    <path id="Path_180" data-name="Path 180" d="M84.622,261.3H66.813a2.813,2.813,0,1,0,0,5.626H83.022a11.3,11.3,0,0,1,1.617-4.255V261.3Z" transform="translate(-52.748 -162.613)" fill="#546d79"/>
    <path id="Path_181" data-name="Path 181" d="M83.954,330.7H66.813a2.813,2.813,0,0,0,0,5.626H84.622v-4.342A8.892,8.892,0,0,1,83.954,330.7Z" transform="translate(-52.748 -219.812)" fill="#546d79"/>
    <path id="Path_182" data-name="Path 182" d="M251.957,282.141l10.478,10.5.035.035c6.241,6.241,4.4,14.768-1.9,21.044l-4.43,4.448c-4.483,4.43-10.988,4.887-21.1.123-5.977-2.813-9.019-2.743-10.97-2.655-1.354.053-2.18.123-3.077-.791-.809-.809-.861-2.637,1.793-5.292,4.2-4.2,12.324-1.828,12.324-1.828L215.02,287.627a3.755,3.755,0,0,1,5.309-5.309l10.478,10.5a3.633,3.633,0,0,1-1.055-2.83,3.671,3.671,0,0,1,1.09-2.444,3.725,3.725,0,0,1,5.274-.035l1.74,1.741a3.633,3.633,0,0,1-1.055-2.831,3.591,3.591,0,0,1,1.09-2.444,3.725,3.725,0,0,1,5.274-.035l3.5,3.5a3.61,3.61,0,0,1-1.055-2.831,3.671,3.671,0,0,1,1.09-2.444,3.719,3.719,0,0,1,5.257-.018Z" transform="translate(-176.325 -178.901)" fill="#ffcc80"/>
    <path id="Path_183" data-name="Path 183" d="M393.96,301.3l8.052,8.052a1.231,1.231,0,0,1-1.758.018l-5.239-5.239A3.7,3.7,0,0,1,393.96,301.3Z" transform="translate(-324.693 -195.581)" fill="#ffa726"/>
    <path id="Path_184" data-name="Path 184" d="M343.959,311.6l9.81,9.81a1.231,1.231,0,0,1-1.758.018l-7-7A3.633,3.633,0,0,1,343.959,311.6Z" transform="translate(-283.481 -204.07)" fill="#ffa726"/>
    <path id="Path_185" data-name="Path 185" d="M303.84,331.8l9.81,9.81a1.247,1.247,0,0,1-1.758.018l-7-7a3.572,3.572,0,0,1-1.055-2.83Z" transform="translate(-250.413 -220.719)" fill="#ffa726"/>
    <path id="Path_186" data-name="Path 186" d="M217.659,282.1a3.767,3.767,0,0,0-2.672,1.108,3.725,3.725,0,0,0-.035,5.274l20.095,20.095a20.109,20.109,0,0,0-5.063-.668c-2.461,0-5.292.527-7.261,2.5-2.655,2.655-2.584,4.483-1.793,5.292a2.676,2.676,0,0,0,2.162.809c.281,0,.58-.018.9-.035.334-.018.686-.018,1.09-.018,1.969,0,4.923.334,9.88,2.672,4.887,2.3,8.931,3.393,12.324,3.393a11.992,11.992,0,0,0,8.773-3.5l3.305-3.305-27.848-27.9a4.421,4.421,0,0,0-.721.563,3.671,3.671,0,0,0-1.09,2.444l9.81,9.81a1.239,1.239,0,0,1-.879.369,1.171,1.171,0,0,1-.861-.369l-7-7a3.637,3.637,0,0,1-1.072-2.567,3.637,3.637,0,0,0,1.072,2.567l-10.478-10.5a3.908,3.908,0,0,0-2.637-1.037Z" transform="translate(-176.274 -179.757)" fill="#deb26f"/>
    <path id="Path_187" data-name="Path 187" d="M303.818,331.8c0,.088-.018.176-.018.264a3.637,3.637,0,0,0,1.072,2.567l7,7a1.21,1.21,0,0,0,1.74,0Z" transform="translate(-250.39 -220.719)" fill="#de9121"/>
  </g>
</svg>
