<svg xmlns="http://www.w3.org/2000/svg" width="90" height="78.764" viewBox="0 0 90 78.764">
  <g id="search_2_" data-name="search (2)" transform="translate(0 -64)">
    <path id="Path_161" data-name="Path 161" d="M53.435,64H10.318A10.3,10.3,0,0,0,0,74.318V121.2a10.3,10.3,0,0,0,10.318,10.3H40.85A26.664,26.664,0,0,1,35.682,116.5H14.062a2.812,2.812,0,1,1,0-5.625H36.069a23.121,23.121,0,0,1,2.021-6.556H14.062a2.812,2.812,0,1,1,0-5.625H41.518a26.624,26.624,0,0,1,7.576-6.556H14.062a2.812,2.812,0,1,1,0-5.625H49.691A2.844,2.844,0,0,1,52.5,89.329a3.112,3.112,0,0,1-.264,1.2A26.905,26.905,0,0,1,62.821,88.38l.932.035v-14.1A10.311,10.311,0,0,0,53.435,64Z" transform="translate(0 0)" fill="#eceff1"/>
    <g id="Group_33" data-name="Group 33" transform="translate(11.249 86.499)">
      <path id="Path_162" data-name="Path 162" d="M105.254,194.812a3.112,3.112,0,0,1-.264,1.2h-.035a20.133,20.133,0,0,0-3.111,1.617H66.812a2.812,2.812,0,1,1,0-5.625h35.629A2.844,2.844,0,0,1,105.254,194.812Z" transform="translate(-64 -192)" fill="#607d8b"/>
      <path id="Path_163" data-name="Path 163" d="M94.268,261.3a23.918,23.918,0,0,0-3.41,5.625H66.812a2.812,2.812,0,1,1,0-5.625Z" transform="translate(-64 -249.119)" fill="#607d8b"/>
      <path id="Path_164" data-name="Path 164" d="M88.38,335.293l.035.932h-21.6a2.812,2.812,0,1,1,0-5.625H88.819A24.281,24.281,0,0,0,88.38,335.293Z" transform="translate(-64 -306.238)" fill="#607d8b"/>
    </g>
    <path id="Path_165" data-name="Path 165" d="M31.868,64H10.318A10.3,10.3,0,0,0,0,74.318V121.2a10.3,10.3,0,0,0,10.318,10.3H31.885V116.5H14.062a2.812,2.812,0,1,1,0-5.625H31.868v-6.556H14.062a2.812,2.812,0,1,1,0-5.625H31.868V92.124H14.062a2.812,2.812,0,1,1,0-5.625H31.868V64Z" transform="translate(0 0)" fill="#cdd0d2"/>
    <path id="Path_166" data-name="Path 166" d="M84.618,192H66.812a2.812,2.812,0,1,0,0,5.625H84.618Z" transform="translate(-52.751 -105.501)" fill="#546d79"/>
    <path id="Path_167" data-name="Path 167" d="M84.618,261.3H66.812a2.812,2.812,0,1,0,0,5.625H84.618Z" transform="translate(-52.751 -162.62)" fill="#546d79"/>
    <path id="Path_168" data-name="Path 168" d="M84.618,330.7H66.812a2.812,2.812,0,1,0,0,5.625H84.618Z" transform="translate(-52.751 -219.821)" fill="#546d79"/>
    <path id="Path_169" data-name="Path 169" d="M264.987,284.673a19.687,19.687,0,1,1,19.687-19.687A19.7,19.7,0,0,1,264.987,284.673Zm0-31.868a12.181,12.181,0,1,0,12.181,12.181A12.2,12.2,0,0,0,264.987,252.805Z" transform="translate(-202.183 -149.432)" fill="#fbe86f"/>
    <path id="Path_170" data-name="Path 170" d="M416,419.666a3.726,3.726,0,0,1-2.654-1.107l-12.181-12.181a3.754,3.754,0,1,1,5.308-5.308l12.181,12.181A3.762,3.762,0,0,1,416,419.666Z" transform="translate(-329.753 -276.92)" fill="#fbe86f"/>
    <path id="Path_171" data-name="Path 171" d="M251.183,278.1a19.674,19.674,0,0,0,24.907,30.233l-2.408-2.408a3.735,3.735,0,0,1-.229-5.045,12.183,12.183,0,0,1-16.962-17.489Z" transform="translate(-202.265 -176.467)" fill="#f2c55b"/>
    <path id="Path_172" data-name="Path 172" d="M401.091,406.2h0a3.114,3.114,0,0,0-.246.281,3.754,3.754,0,0,0,.229,5.045l2.408,2.408,9.773,9.773a3.735,3.735,0,0,0,5.308,0l.018-.018Z" transform="translate(-329.674 -282.051)" fill="#f2c55b"/>
  </g>
</svg>
