<svg xmlns="http://www.w3.org/2000/svg" width="90" height="78.75" viewBox="0 0 90 78.75">
  <g id="register_7_" data-name="register (7)" transform="translate(0 -64)">
    <path id="Path_222" data-name="Path 222" d="M53.438,64H10.318A10.3,10.3,0,0,0,0,74.318V121.2a10.3,10.3,0,0,0,10.318,10.3H35.033a32.772,32.772,0,0,1-3.146-14.062l.035-.932H14.063a2.812,2.812,0,1,1,0-5.625H32.555a32.362,32.362,0,0,1,2.057-6.557H14.063a2.812,2.812,0,1,1,0-5.625h23.73a32.852,32.852,0,0,1,6.029-6.557H14.063a2.813,2.813,0,0,1,0-5.625H49.693a2.733,2.733,0,0,1,1.986.826,32.2,32.2,0,0,1,12.076-2.654V74.336A10.315,10.315,0,0,0,53.438,64Z" fill="#3cc1fc"/>
    <g id="Group_41" data-name="Group 41" transform="translate(11.25 86.5)">
      <path id="Path_223" data-name="Path 223" d="M104.43,192.826a32.814,32.814,0,0,0-7.84,4.8H66.813a2.813,2.813,0,1,1,0-5.625h35.631A2.762,2.762,0,0,1,104.43,192.826Z" transform="translate(-64 -192)" fill="#fff"/>
      <path id="Path_224" data-name="Path 224" d="M90.543,261.3a32.172,32.172,0,0,0-3.182,5.625H66.813a2.813,2.813,0,0,1,0-5.625Z" transform="translate(-64 -249.118)" fill="#fff"/>
      <path id="Path_225" data-name="Path 225" d="M85.3,330.7a31.5,31.5,0,0,0-.633,5.625H66.813a2.813,2.813,0,0,1,0-5.625Z" transform="translate(-64 -306.319)" fill="#fff"/>
    </g>
    <path id="Path_226" data-name="Path 226" d="M32.045,64H10.318A10.3,10.3,0,0,0,0,74.318V121.2a10.3,10.3,0,0,0,10.318,10.3H31.887V116.506H14.063a2.812,2.812,0,1,1,0-5.625H31.869v-6.557H14.063a2.812,2.812,0,1,1,0-5.625H31.869V92.125H14.063a2.813,2.813,0,0,1,0-5.625H31.869V77.131Z" fill="#22aeed"/>
    <path id="Path_227" data-name="Path 227" d="M84.619,192H66.813a2.812,2.812,0,1,0,0,5.625H84.619Z" transform="translate(-52.75 -105.5)" fill="#dedede"/>
    <path id="Path_228" data-name="Path 228" d="M84.619,261.3H66.813a2.813,2.813,0,0,0,0,5.625H84.619Z" transform="translate(-52.75 -162.618)" fill="#dedede"/>
    <path id="Path_229" data-name="Path 229" d="M84.619,330.7H66.813a2.813,2.813,0,0,0,0,5.625H84.619Z" transform="translate(-52.75 -219.819)" fill="#dedede"/>
    <path id="Path_230" data-name="Path 230" d="M249.312,274.625a25.313,25.313,0,1,1,25.313-25.313A25.342,25.342,0,0,1,249.312,274.625Z" transform="translate(-184.625 -131.875)" fill="#4caf50"/>
    <path id="Path_231" data-name="Path 231" d="M293.929,326.355a3.752,3.752,0,0,1-2.654-1.107l-7.506-7.506a3.754,3.754,0,1,1,5.309-5.309l4.658,4.658L304.213,305.1a3.75,3.75,0,0,1,5.643,4.939l-13.131,14.994a3.707,3.707,0,0,1-2.689,1.283h-.105Z" transform="translate(-232.986 -197.668)" fill="#fff"/>
    <path id="Path_232" data-name="Path 232" d="M249.312,224a25.313,25.313,0,0,0,0,50.625v-16.4l-.932,1.055a3.707,3.707,0,0,1-2.689,1.283h-.123a3.752,3.752,0,0,1-2.654-1.107l-7.506-7.506a3.766,3.766,0,0,1,0-5.309,3.735,3.735,0,0,1,5.309,0l4.658,4.658,3.938-4.5Z" transform="translate(-184.625 -131.875)" fill="#429846"/>
    <path id="Path_233" data-name="Path 233" d="M286.424,346.7a3.727,3.727,0,0,0-2.654,1.107,3.766,3.766,0,0,0,0,5.309l7.506,7.506a3.752,3.752,0,0,0,2.654,1.107h.123a3.677,3.677,0,0,0,2.689-1.283l.932-1.055V348l-3.937,4.5-4.658-4.658a3.624,3.624,0,0,0-2.654-1.143Z" transform="translate(-232.986 -233.007)" fill="#dedede"/>
  </g>
</svg>
