<svg xmlns="http://www.w3.org/2000/svg" width="90" height="78.765" viewBox="0 0 90 78.765">
  <g id="register_6_" data-name="register (6)" transform="translate(0 -64)">
    <path id="Path_200" data-name="Path 200" d="M53.448,64H10.32A10.3,10.3,0,0,0,0,74.32v46.89a10.3,10.3,0,0,0,10.32,10.3h27.3A13.974,13.974,0,0,1,49.07,119.171a18.855,18.855,0,0,1-1.354-2.655H14.065a2.813,2.813,0,1,1,0-5.626H46.134a21.625,21.625,0,0,1,.105-6.558H14.065a2.813,2.813,0,0,1,0-5.626H48.121a21.736,21.736,0,0,1,15.524-11.85h.105V74.32A10.287,10.287,0,0,0,53.448,64ZM49.7,92.13H14.065a2.813,2.813,0,1,1,0-5.626H49.7a2.813,2.813,0,1,1,0,5.626Z" fill="#eceff1"/>
    <g id="Group_36" data-name="Group 36" transform="translate(11.252 86.504)">
      <path id="Path_201" data-name="Path 201" d="M105.264,194.813a2.844,2.844,0,0,1-2.813,2.813H66.813a2.813,2.813,0,1,1,0-5.626h35.638A2.844,2.844,0,0,1,105.264,194.813Z" transform="translate(-64 -192)" fill="#607d8b"/>
      <path id="Path_202" data-name="Path 202" d="M100.868,261.3a20.688,20.688,0,0,0-1.846,5.468l-.035.158H66.813a2.813,2.813,0,1,1,0-5.626Z" transform="translate(-64 -249.116)" fill="#607d8b"/>
      <path id="Path_203" data-name="Path 203" d="M100.464,336.326H66.813a2.813,2.813,0,1,1,0-5.626H98.882A20.96,20.96,0,0,0,100.464,336.326Z" transform="translate(-64 -306.314)" fill="#607d8b"/>
    </g>
    <path id="Path_204" data-name="Path 204" d="M31.875,64H10.32A10.3,10.3,0,0,0,0,74.32v46.89a10.3,10.3,0,0,0,10.32,10.3H31.893v-15H14.065a2.813,2.813,0,1,1,0-5.626h17.81v-6.558H14.065a2.813,2.813,0,0,1,0-5.626h17.81V92.13H14.065a2.813,2.813,0,1,1,0-5.626h17.81V64Z" fill="#cdd0d2"/>
    <path id="Path_205" data-name="Path 205" d="M84.623,192H66.813a2.813,2.813,0,1,0,0,5.626h17.81Z" transform="translate(-52.748 -105.496)" fill="#546d79"/>
    <path id="Path_206" data-name="Path 206" d="M84.623,261.3H66.813a2.813,2.813,0,1,0,0,5.626h17.81Z" transform="translate(-52.748 -162.612)" fill="#546d79"/>
    <path id="Path_207" data-name="Path 207" d="M84.623,330.7H66.813a2.813,2.813,0,1,0,0,5.626h17.81Z" transform="translate(-52.748 -219.81)" fill="#546d79"/>
    <path id="Path_208" data-name="Path 208" d="M323.689,270.229H312.437a2.821,2.821,0,0,1-2.813-2.813v-5.468a5.353,5.353,0,0,0-1.67-3.569,13.916,13.916,0,0,1-3.727-12.289,14.067,14.067,0,0,1,22.874-8.211,14.039,14.039,0,0,1,5.028,10.777,13.882,13.882,0,0,1-4.167,9.951,4.361,4.361,0,0,0-1.459,3.024v5.784a2.81,2.81,0,0,1-2.813,2.813Z" transform="translate(-250.55 -140.597)" fill="#fbe86f"/>
    <path id="Path_209" data-name="Path 209" d="M298.2,428.593H258.813A2.821,2.821,0,0,1,256,425.779v-7a6.567,6.567,0,0,1,5.749-6.505l11.709-1.459,9.723-.018,12.061,1.477a6.584,6.584,0,0,1,5.749,6.523v6.98a2.8,2.8,0,0,1-2.8,2.813Z" transform="translate(-210.991 -285.827)" fill="#fb8a8c"/>
    <path id="Path_210" data-name="Path 210" d="M318.114,234.7a13.7,13.7,0,0,0-2.532.229A14.2,14.2,0,0,0,304.3,246.2a13.866,13.866,0,0,0,3.727,12.289,5.353,5.353,0,0,1,1.67,3.569v4.026l3.393-.422,5.046-.018-.018-30.943Z" transform="translate(-250.601 -140.688)" fill="#f2c55b"/>
    <path id="Path_211" data-name="Path 211" d="M278.5,410.7l-5.046.018-3.393.422-8.316,1.037A6.584,6.584,0,0,0,256,418.7v7a2.821,2.821,0,0,0,2.813,2.813H278.5Z" transform="translate(-210.991 -285.745)" fill="#fa5a5d"/>
  </g>
</svg>
