<svg id="instagram-sketched" xmlns="http://www.w3.org/2000/svg" width="29.793" height="29.793" viewBox="0 0 29.793 29.793">
  <path id="Path_247" data-name="Path 247" d="M212.7,209.851A2.851,2.851,0,1,1,209.851,207,2.851,2.851,0,0,1,212.7,209.851Zm0,0" transform="translate(-194.955 -194.955)" fill="#686f74"/>
  <path id="Path_248" data-name="Path 248" d="M149.166,137.456a2.833,2.833,0,0,0-1.623-1.623,4.733,4.733,0,0,0-1.588-.294c-.9-.041-1.173-.05-3.457-.05s-2.555.009-3.457.05a4.736,4.736,0,0,0-1.588.295,2.834,2.834,0,0,0-1.624,1.623,4.734,4.734,0,0,0-.294,1.588c-.041.9-.05,1.172-.05,3.457s.009,2.554.05,3.457a4.732,4.732,0,0,0,.294,1.588,2.833,2.833,0,0,0,1.623,1.623,4.727,4.727,0,0,0,1.588.295c.9.041,1.172.05,3.456.05s2.555-.009,3.457-.05a4.727,4.727,0,0,0,1.588-.295,2.833,2.833,0,0,0,1.623-1.623,4.736,4.736,0,0,0,.295-1.588c.041-.9.05-1.173.05-3.457s-.009-2.555-.05-3.457A4.727,4.727,0,0,0,149.166,137.456Zm-6.668,9.437a4.392,4.392,0,1,1,4.392-4.392A4.392,4.392,0,0,1,142.5,146.894Zm4.566-7.932a1.026,1.026,0,1,1,1.027-1.026A1.027,1.027,0,0,1,147.063,138.962Zm0,0" transform="translate(-127.601 -127.605)" fill="#686f74"/>
  <path id="Path_249" data-name="Path 249" d="M14.9,0a14.9,14.9,0,1,0,14.9,14.9A14.9,14.9,0,0,0,14.9,0Zm8.5,18.423A6.276,6.276,0,0,1,23,20.5,4.374,4.374,0,0,1,20.5,23a6.28,6.28,0,0,1-2.076.4c-.912.042-1.2.052-3.527.052s-2.614-.01-3.527-.052A6.28,6.28,0,0,1,9.294,23a4.374,4.374,0,0,1-2.5-2.5,6.274,6.274,0,0,1-.4-2.076c-.042-.912-.052-1.2-.052-3.527s.01-2.614.052-3.527a6.276,6.276,0,0,1,.4-2.076,4.377,4.377,0,0,1,2.5-2.5,6.282,6.282,0,0,1,2.076-.4c.912-.042,1.2-.052,3.527-.052s2.614.01,3.527.052a6.283,6.283,0,0,1,2.076.4,4.375,4.375,0,0,1,2.5,2.5,6.275,6.275,0,0,1,.4,2.076c.042.912.051,1.2.051,3.527S23.441,17.511,23.4,18.423Zm0,0" fill="#686f74"/>
</svg>
