<svg xmlns="http://www.w3.org/2000/svg" width="29.793" height="29.793" viewBox="0 0 29.793 29.793">
  <path id="linkedin_1_" data-name="linkedin (1)" d="M14.9,0a14.9,14.9,0,1,0,14.9,14.9A14.9,14.9,0,0,0,14.9,0ZM10.568,22.519H6.94V11.6h3.628ZM8.754,10.114H8.73a1.891,1.891,0,1,1,.048-3.771,1.892,1.892,0,1,1-.024,3.771Zm14.9,12.405H20.022V16.68c0-1.467-.525-2.468-1.838-2.468a1.986,1.986,0,0,0-1.861,1.327,2.484,2.484,0,0,0-.119.885v6.1H12.575s.048-9.891,0-10.915H16.2V13.15a3.6,3.6,0,0,1,3.27-1.8c2.387,0,4.177,1.56,4.177,4.912Zm0,0" fill="#686f74"/>
</svg>
