<svg xmlns="http://www.w3.org/2000/svg" width="33.697" height="47.925" viewBox="0 0 33.697 47.925">
  <g id="pin_2_" data-name="pin (2)" transform="translate(0)">
    <g id="Group_1517" data-name="Group 1517" transform="translate(0)">
      <g id="Group_1516" data-name="Group 1516">
        <path id="Path_278" data-name="Path 278" d="M92.849,0A16.852,16.852,0,0,0,78.515,25.709L91.89,47.262a1.4,1.4,0,0,0,1.193.664h.011a1.4,1.4,0,0,0,1.193-.683l13.034-21.762A16.852,16.852,0,0,0,92.849,0Zm12.062,24.039L93.061,43.824,80.9,24.229a14.05,14.05,0,1,1,24.009-.19Z" transform="translate(-76)" fill="#6e87a4"/>
      </g>
    </g>
    <g id="Group_1519" data-name="Group 1519" transform="translate(8.424 8.424)">
      <g id="Group_1518" data-name="Group 1518">
        <path id="Path_279" data-name="Path 279" d="M174.424,90a8.424,8.424,0,1,0,8.424,8.424A8.434,8.434,0,0,0,174.424,90Zm0,14.059a5.635,5.635,0,1,1,5.626-5.635A5.639,5.639,0,0,1,174.424,104.059Z" transform="translate(-166 -90)" fill="#1492e6"/>
      </g>
    </g>
  </g>
</svg>
