<svg xmlns="http://www.w3.org/2000/svg" width="437" height="320.604" viewBox="0 0 437 320.604">
  <g id="mail-sent" transform="translate(0.002 -0.005)">
    <g id="Group_7071" data-name="Group 7071" transform="translate(21.905 58.343)">
      <g id="Group_7069" data-name="Group 7069" transform="translate(6.434 1.029)" opacity="0.8">
        <g id="Group_7048" data-name="Group 7048" transform="translate(0 33.541)" opacity="0.5">
          <g id="Group_7047" data-name="Group 7047">
            <g id="Group_7046" data-name="Group 7046">
              <g id="Group_7045" data-name="Group 7045">
                <path id="Path_2777" data-name="Path 2777" d="M251.953,214.587a102.574,102.574,0,0,1-46.763-19.82c-20.656-15.59-63.881-42.12-105.119-28.906-56.879,18.229-57.131,70.957-42.314,99.6s119.873,112.522,256.068,99.177C435.7,352.695,459.449,215.99,394.451,191.251,338.07,169.8,318.839,224.463,251.953,214.587Z" transform="translate(-49.501 -162.285)" fill="#fff"/>
              </g>
            </g>
          </g>
        </g>
        <g id="Group_7052" data-name="Group 7052" transform="translate(372.626 59.919)" opacity="0.5">
          <g id="Group_7051" data-name="Group 7051">
            <g id="Group_7050" data-name="Group 7050">
              <g id="Group_7049" data-name="Group 7049">
                <ellipse id="Ellipse_146" data-name="Ellipse 146" cx="5.284" cy="5.691" rx="5.284" ry="5.691" fill="#ccd3e6"/>
              </g>
            </g>
          </g>
        </g>
        <g id="Group_7056" data-name="Group 7056" transform="translate(30.022 28.082)">
          <g id="Group_7055" data-name="Group 7055">
            <g id="Group_7054" data-name="Group 7054">
              <g id="Group_7053" data-name="Group 7053">
                <path id="Path_2778" data-name="Path 2778" d="M104.8,152.808a3.435,3.435,0,0,1,3.836,2.147c.973,2.639-1.574,5.593-5.009,4.271h0C100.663,157.033,101.951,153.334,104.8,152.808Z" transform="translate(-101.94 -152.751)" fill="#ccd3e6"/>
              </g>
            </g>
          </g>
        </g>
        <g id="Group_7058" data-name="Group 7058" transform="translate(353.743 5.043)">
          <g id="Group_7057" data-name="Group 7057" transform="translate(0 0)">
            <circle id="Ellipse_147" data-name="Ellipse 147" cx="6.882" cy="6.882" r="6.882" transform="translate(0 9.732) rotate(-45)" fill="#ccd3e6"/>
          </g>
        </g>
        <g id="Group_7060" data-name="Group 7060" transform="translate(40.096 17.631)" opacity="0.8">
          <g id="Group_7059" data-name="Group 7059" transform="translate(0)">
            <path id="Path_2779" data-name="Path 2779" d="M133.193,139.577a6.957,6.957,0,1,1-8.576-4.821A6.961,6.961,0,0,1,133.193,139.577Z" transform="translate(-119.536 -134.497)" fill="#ccd3e6"/>
          </g>
        </g>
        <g id="Group_7064" data-name="Group 7064" transform="translate(326.664 229.666)">
          <g id="Group_7063" data-name="Group 7063">
            <g id="Group_7062" data-name="Group 7062">
              <g id="Group_7061" data-name="Group 7061">
                <path id="Path_2780" data-name="Path 2780" d="M622.318,505.086a3.431,3.431,0,0,1,4.168,1.4c1.448,2.41-.51,5.788-4.128,5.124h0C619.044,510,619.622,506.128,622.318,505.086Z" transform="translate(-620.08 -504.854)" fill="#ccd3e6"/>
              </g>
            </g>
          </g>
        </g>
        <g id="Group_7066" data-name="Group 7066" transform="translate(335.208 216.819)">
          <g id="Group_7065" data-name="Group 7065">
            <path id="Path_2781" data-name="Path 2781" d="M648.192,486.282a6.955,6.955,0,1,1-9.321-3.143A6.956,6.956,0,0,1,648.192,486.282Z" transform="translate(-635.004 -482.414)" fill="#ccd3e6"/>
          </g>
        </g>
        <g id="Group_7068" data-name="Group 7068" transform="translate(346.273)">
          <g id="Group_7067" data-name="Group 7067">
            <path id="Path_2782" data-name="Path 2782" d="M662.8,107.937a4.237,4.237,0,1,1-4.237-4.237A4.234,4.234,0,0,1,662.8,107.937Z" transform="translate(-654.33 -103.7)" fill="#ccd3e6"/>
          </g>
        </g>
      </g>
      <g id="Group_7070" data-name="Group 7070" transform="translate(6 18)" opacity="0.8">
        <path id="Path_2783" data-name="Path 2783" d="M410.721,183.885c-.006-37.832-31.505-79.287-70.711-81.795-.687-.046-1.385-.08-2.09-.115-56.2-2.616-60.486,65.931-111.337,73.665s-89.684-31.3-150.531-5.834C21.4,192.679,6.6,321.191,167.168,326.344,295.635,330.471,410.739,296.762,410.721,183.885Z" transform="translate(-38.263 -101.903)" fill="#fff"/>
      </g>
    </g>
    <g id="Group_7076" data-name="Group 7076" transform="translate(358.596 48.329)">
      <g id="Group_7073" data-name="Group 7073" transform="translate(12.78)">
        <path id="Path_2784" data-name="Path 2784" d="M690.862,107.174c-7.821,12.372,3.635,10.689-2.055,19.981-5.187,8.473-16.677,3.956-12.189,20.782.985,3.681-1.1,7.042-4.569,9.309a14.81,14.81,0,0,1-17.021-.464c-.384-.275-.756-.573-1.111-.882a15.084,15.084,0,0,1-5.027-14c.756-4.632,2.857-9.487,7.861-12.366,11.748-6.75.968-21.893,11.473-25.036,12.67-3.79,12.069-8.611,19.769-17.038C696.152,78.542,701.465,90.411,690.862,107.174Z" transform="translate(-648.679 -84.411)" fill="#007d55"/>
        <g id="Group_7072" data-name="Group 7072" transform="translate(5.239 17.215)">
          <path id="Path_2785" data-name="Path 2785" d="M689,115.534c-.218.355-18.189,29.776-30.063,54.108-.383-.275-.756-.573-1.111-.882,11.92-24.349,29.776-53.593,29.994-53.948a.691.691,0,0,1,1.179.721Z" transform="translate(-657.83 -114.481)" fill="#04593a"/>
        </g>
      </g>
      <g id="Group_7075" data-name="Group 7075" transform="translate(0 28.131)">
        <path id="Path_2786" data-name="Path 2786" d="M691.51,161.3c-13.723,12.882,1.082,14.473-8.994,24.212-9.183,8.874-22.036-.447-21.864,21.939.04,4.9-3.635,8.416-8.691,10.116a19.041,19.041,0,0,1-21.04-6.057c-.389-.464-.756-.95-1.1-1.454a19.386,19.386,0,0,1-1.746-19.042c2.433-5.519,6.607-10.889,13.769-12.859,16.8-4.62,8.256-26.942,22.345-27.469,16.992-.635,17.794-6.836,30.091-14.84C707.318,127.36,710.106,143.842,691.51,161.3Z" transform="translate(-626.356 -133.547)" fill="#00b570"/>
        <g id="Group_7074" data-name="Group 7074" transform="translate(3.472 18.77)">
          <path id="Path_2787" data-name="Path 2787" d="M688.366,167.86c-.384.372-32.233,31.208-54.847,57.669-.389-.464-.756-.95-1.1-1.454,22.677-26.473,54.326-57.12,54.709-57.492a.889.889,0,1,1,1.237,1.277Z" transform="translate(-632.42 -166.332)" fill="#007d55"/>
        </g>
      </g>
    </g>
    <g id="Group_7081" data-name="Group 7081" transform="translate(-0.002 39.255)">
      <g id="Group_7078" data-name="Group 7078" transform="translate(22.659)">
        <path id="Path_2788" data-name="Path 2788" d="M42.784,91.416c5.565,13.54-5.427,9.9-1.431,20.038,3.647,9.24,15.744,6.779,8.41,22.574-1.6,3.452-.137,7.128,2.891,9.962A14.811,14.811,0,0,0,69.5,146.48c.424-.206.842-.429,1.248-.676a15.068,15.068,0,0,0,7.368-12.916c.052-4.689-1.168-9.836-5.6-13.54-10.4-8.679,2.834-21.733-6.973-26.639-11.822-5.92-10.4-10.569-16.523-20.2C42.527,62.3,35.239,73.067,42.784,91.416Z" transform="translate(-39.576 -68.563)" fill="#007d55"/>
        <g id="Group_7077" data-name="Group 7077" transform="translate(9.622 18.475)">
          <path id="Path_2789" data-name="Path 2789" d="M56.433,101.782c.155.389,12.767,32.473,20.256,58.488.424-.206.842-.429,1.248-.676-7.529-26.044-20.067-57.938-20.215-58.322a.693.693,0,1,0-1.288.51Z" transform="translate(-56.383 -100.833)" fill="#04593a"/>
        </g>
      </g>
      <g id="Group_7080" data-name="Group 7080" transform="translate(0 29.42)">
        <path id="Path_2790" data-name="Path 2790" d="M10.018,148.748c11.737,14.714-3.143,14.17,5.433,25.254,7.821,10.1,21.876,2.714,18.5,24.841-.739,4.843,2.393,8.851,7.151,11.256a19.035,19.035,0,0,0,21.687-2.983c.452-.406.887-.836,1.294-1.282a19.389,19.389,0,0,0,4.454-18.6c-1.62-5.811-4.981-11.725-11.782-14.7-15.962-6.973-4.311-27.847-18.183-30.383-16.729-3.063-16.632-9.309-27.658-19C-.768,112.9-5.892,128.807,10.018,148.748Z" transform="translate(0.002 -119.951)" fill="#00b570"/>
        <g id="Group_7079" data-name="Group 7079" transform="translate(16.577 20.809)">
          <path id="Path_2791" data-name="Path 2791" d="M29.14,157.73c.326.424,27.429,35.5,46.03,64.923.452-.406.887-.836,1.294-1.282-18.652-29.444-45.589-64.3-45.921-64.728a.888.888,0,1,0-1.4,1.088Z" transform="translate(-28.953 -156.298)" fill="#007d55"/>
        </g>
      </g>
    </g>
    <path id="Path_2792" data-name="Path 2792" d="M483.656,66.895c-5.788-3.962-20.284,5.811-27.864,17.685l6.721-18.836a41.192,41.192,0,0,1,13.351-7.431c10.351-3.67,20.731-9.418,14.931-13.391-5.433-3.721-18.544,4.666-26.4,15.532l8.634-24.189a27.2,27.2,0,0,1,7.546-3.973c6.527-2.313,13.065-5.937,9.412-8.439-3.172-2.17-10.488,2.2-15.487,8.3l2.8-7.838a39.712,39.712,0,0,1,5.971-8.5c6.647-6.876,11.674-14.616,6.55-15.738S476.294,12.426,474.971,24.6l-1.443,4.036c1.116-8.857-2.067-19.58-6.5-19.958-4.414-.378-1.643,6.567,1.941,12.492a24.768,24.768,0,0,1,3.687,9.933l-6.8,19.048c1.729-14.032-3.315-30.95-10.34-31.551-7-.6-2.611,10.42,3.08,19.82,4.3,7.1,5.513,12.75,5.84,15.7l-8.158,22.849c1.448-13.866-3.515-30.692-10.431-30.744-5.33-.04-3.7,7.488,2.668,18.114a45.175,45.175,0,0,1,6.155,17.124l-3.842,10.763a3.5,3.5,0,0,0,1.975.7l1.529-4.282c2.158-2.09,6.658-5.639,14.387-8.376C479.076,76.61,489.45,70.862,483.656,66.895Z" transform="translate(-189.225)" fill="#00b570"/>
    <path id="Path_2793" data-name="Path 2793" d="M96.092,148.87h313.1A11.034,11.034,0,0,1,420.221,159.9V359.475a11.034,11.034,0,0,1-11.032,11.032H96.092A11.034,11.034,0,0,1,85.06,359.475V159.9A11.034,11.034,0,0,1,96.092,148.87Z" transform="translate(-36.363 -63.638)" fill="#263238"/>
    <path id="Path_2794" data-name="Path 2794" d="M60.56,507.37H423.677v5.914A13.477,13.477,0,0,1,410.2,526.761H74A13.477,13.477,0,0,1,60.52,513.284V507.37h.04Z" transform="translate(-25.872 -216.892)" fill="#263238"/>
    <rect id="Rectangle_259" data-name="Rectangle 259" width="316.233" height="187.172" transform="translate(57.691 94.032)" fill="#455a64"/>
    <path id="Path_2795" data-name="Path 2795" d="M320.07,507.37l4.506,7.162h63.406l4.179-7.162Z" transform="translate(-136.827 -216.892)" fill="#455a64"/>
    <path id="Path_2796" data-name="Path 2796" d="M114.619,175.31h298.9A2.48,2.48,0,0,1,416,177.789V353.07a2.48,2.48,0,0,1-2.479,2.479h-298.9a2.48,2.48,0,0,1-2.479-2.479V177.789A2.484,2.484,0,0,1,114.619,175.31Z" transform="translate(-47.939 -74.94)" fill="#ebebeb"/>
    <rect id="Rectangle_260" data-name="Rectangle 260" width="303.856" height="167.031" transform="translate(64.206 113.578)" fill="#edf2f4"/>
    <path id="Path_2797" data-name="Path 2797" d="M417.347,507.208c0,.12-74.392.212-166.132.212s-166.155-.092-166.155-.212,74.381-.218,166.155-.218S417.347,507.087,417.347,507.208Z" transform="translate(-36.363 -216.729)" fill="#455a64"/>
    <g id="freepik--paper-plane--inject-2" transform="translate(21.776 23.264)">
      <path id="Path_2798" data-name="Path 2798" d="M64.89,330.377a1.436,1.436,0,0,1-.258-.149l-.756-.492-1.214-.824c-.475-.332-1.048-.7-1.637-1.191L59,326.129c-.756-.6-1.517-1.323-2.319-2.067a55.876,55.876,0,0,1-5.3-5.679,58.871,58.871,0,0,1-9.973-18.675,73.6,73.6,0,0,1-3.143-27.847,80.2,80.2,0,0,1,2.822-16.122,65.386,65.386,0,0,1,7-16.311c.8-1.317,1.689-2.588,2.622-3.853l2.971-3.681c1.053-1.179,2.153-2.347,3.24-3.538s2.319-2.273,3.481-3.406a116.547,116.547,0,0,1,16-12.246c11.6-7.506,24.71-13.712,38.2-20.181,13.454-6.59,27.641-12.91,42.183-19.305C215.015,147.711,268.3,125.99,307.126,110.91c19.4-7.574,35.238-13.351,46.2-17.313,5.485-1.952,9.767-3.406,12.664-4.408l3.3-1.128.847-.275a2.362,2.362,0,0,1,.286-.086l-.275.12-.83.321-3.28,1.2-12.607,4.546c-10.918,4.053-26.719,9.9-46.087,17.536-38.725,15.246-91.98,37.053-150.2,62.541-14.542,6.4-28.694,12.7-42.148,19.282-13.511,6.458-26.593,12.647-38.152,20.1a115.876,115.876,0,0,0-15.9,12.114c-1.156,1.134-2.353,2.221-3.458,3.372s-2.176,2.33-3.223,3.5l-2.948,3.641c-.922,1.242-1.809,2.49-2.588,3.784A64.57,64.57,0,0,0,41.755,255.9a79.513,79.513,0,0,0-2.863,16,73.582,73.582,0,0,0,3.029,27.67,59.317,59.317,0,0,0,9.744,18.681,57.012,57.012,0,0,0,5.2,5.7c.824.756,1.557,1.517,2.273,2.09l1.987,1.62c.584.5,1.145.87,1.62,1.214l1.179.853.721.521C64.724,330.285,64.81,330.325,64.89,330.377Z" transform="translate(-38.038 -60.752)" fill="#0c375a"/>
      <path id="Path_2799" data-name="Path 2799" d="M596.42,42.68,610.447,54.3l-1.294,13.311,11.485-6.384,12.24,8.7,45.6-29.3Z" transform="translate(-276.739 -40.63)" fill="#0076fa"/>
      <g id="Group_7082" data-name="Group 7082" transform="translate(332.414 0.034)" opacity="0.5">
        <path id="Path_2800" data-name="Path 2800" d="M619.954,54.327l66.8-13.637-60,18.16-8.1,8.788h0Z" transform="translate(-618.66 -40.69)"/>
      </g>
      <g id="Group_7083" data-name="Group 7083" transform="translate(332.414 18.194)" opacity="0.8">
        <path id="Path_2801" data-name="Path 2801" d="M626.755,72.41l3.389,2.4L618.66,81.2Z" transform="translate(-618.66 -72.41)"/>
      </g>
    </g>
    <g id="Group_7084" data-name="Group 7084" transform="translate(64.086 100.112)">
      <path id="Path_2802" data-name="Path 2802" d="M415.916,177.774V190.5H111.94V177.774a2.915,2.915,0,0,1,2.914-2.914H413A2.915,2.915,0,0,1,415.916,177.774Z" transform="translate(-111.94 -174.86)" fill="#d3e8ee"/>
      <path id="Path_2803" data-name="Path 2803" d="M185.87,187.678h0a2.078,2.078,0,0,0,2.078,2.078H422.959a2.078,2.078,0,0,0,2.078-2.078h0a2.078,2.078,0,0,0-2.078-2.078H187.943A2.081,2.081,0,0,0,185.87,187.678Z" transform="translate(-143.544 -179.451)" fill="#fff"/>
      <path id="Path_2804" data-name="Path 2804" d="M132.915,187.341v2.531l-2.193-1.265-2.193-1.265,2.193-1.265,2.193-1.265Z" transform="translate(-119.032 -179.114)" fill="#2e3062"/>
      <path id="Path_2805" data-name="Path 2805" d="M148.3,187.341v2.531l2.187-1.265,2.193-1.265-2.193-1.265L148.3,184.81Z" transform="translate(-127.483 -179.114)" fill="#2e3062"/>
    </g>
    <path id="Path_2806" data-name="Path 2806" d="M219.679,95.48H401.538a4.769,4.769,0,0,1,4.769,4.769V300.577a4.769,4.769,0,0,1-4.769,4.769H219.679a4.769,4.769,0,0,1-4.769-4.769V100.243A4.768,4.768,0,0,1,219.679,95.48Z" transform="translate(-91.872 -40.814)" fill="#fff"/>
    <path id="Path_2808" data-name="Path 2808" d="M231.52,109.36a1.612,1.612,0,1,1,0-.017Z" transform="translate(-97.588 -46.055)" fill="#e0e0e0"/>
    <circle id="Ellipse_148" data-name="Ellipse 148" cx="1.62" cy="1.62" r="1.62" transform="translate(136.103 61.685)" fill="#e0e0e0"/>
    <path id="Path_2809" data-name="Path 2809" d="M250.4,109.36a1.62,1.62,0,1,1-1.62-1.62,1.622,1.622,0,0,1,1.62,1.62Z" transform="translate(-105.659 -46.055)" fill="#e0e0e0"/>
    <g id="freepik--Character--inject-2" transform="translate(96.458 0.392)">
      <path id="Path_2810" data-name="Path 2810" d="M518.006,151.467l3.149-11.359s1.128-4.614,1.4-5.685c.355-1.426-.641-1.872-1.225-.9-.229.361-2.719,5.061-2.719,5.061s1.987-7.689,2.061-7.969c.641-2.508-.916-2.273-1.368-1.345s-3.281,8.49-3.281,8.49c2.645-9.882,1.815-10.752,1.071-10.912s-3.029,8.885-3.029,8.885a8.313,8.313,0,0,0-2.387-2.6c-2.387-1.643-6.366,0-6.555,1.122s1.225,1.437,1.225,1.437a3.6,3.6,0,0,1,5.748,3.258,2.238,2.238,0,0,1-4.38.429c-.99-4.46-2.519-3.029-2.519-3.029l1.517,9.847-1.626,4.935" transform="translate(-312.378 -54.615)" fill="#ffbe9d"/>
      <path id="Path_2811" data-name="Path 2811" d="M329.238,250.318l68.043-.458,1.872,46.265-70.453-.7Z" transform="translate(-236.974 -107.202)" fill="#455a64"/>
      <path id="Path_2812" data-name="Path 2812" d="M329.64,229.8,364.2,201.87l33.481,27.475" transform="translate(-237.375 -86.687)" fill="#263238"/>
      <path id="Path_2813" data-name="Path 2813" d="M328.769,309.841c-.092-.074,5.359-6.023,12.172-13.277s12.395-13.065,12.481-12.985-5.359,6.023-12.172,13.277S328.815,309.926,328.769,309.841Z" transform="translate(-237.003 -121.616)" fill="#263238"/>
      <path id="Path_2814" data-name="Path 2814" d="M434.325,311.014c-.086.074-5.382-5.754-11.834-13.025s-11.639-13.219-11.542-13.3,5.382,5.754,11.834,13.025S434.4,310.939,434.325,311.014Z" transform="translate(-272.133 -122.091)" fill="#263238"/>
      <path id="Path_2815" data-name="Path 2815" d="M397.683,249.86,363.5,277.14,329.64,250.318" transform="translate(-237.375 -107.202)" fill="#263238"/>
      <path id="Path_2816" data-name="Path 2816" d="M247.5,144.091h.229l-.91-3.029L243.9,129.429a2.136,2.136,0,0,1,1.368-2.536l2.1-.074,7.179-3.355a2.271,2.271,0,0,1,2.92,1.34,2.377,2.377,0,0,1,.109.4c.263,2.141,1.718,7.884,3.263,5.868l.115-.126c2.176-2.989,4.884-4.614,6-4.546a1.251,1.251,0,0,1,.756,2.153,1.421,1.421,0,0,1-.406.355,2.125,2.125,0,0,0-.235.16,17.609,17.609,0,0,0-2.588,2.834,9.937,9.937,0,0,0-1.58,3.029c-.384,1.214-.664,2.273-.887,3.166l.561,5.937" transform="translate(-200.696 -53.108)" fill="#ffbe9d"/>
      <path id="Path_2817" data-name="Path 2817" d="M234.458,38.965s-8.4-1.6-20.444-12.561S196,.6,194.554.715s-7.763-2.622-18.99,23.679-6.321,32.2-3.95,32.084,18.372-5.067,28.483-4.208,23.2,5.742,23.2,5.742Z" transform="translate(-168.483 -0.681)" fill="#455a64"/>
      <path id="Path_2818" data-name="Path 2818" d="M292.193,77.639l-2.7,5.49-1.2,2.462a7.078,7.078,0,0,1-9.086,3.4L261.14,83.261l9.716-24.051,18.137,9.011A7.068,7.068,0,0,1,292.193,77.639Z" transform="translate(-208.093 -25.702)" fill="#263238"/>
      <path id="Path_2819" data-name="Path 2819" d="M273.953,104.353l-5.376,11.359L265.7,115l-18.177,15.67-5.49-10.036s10.866-5.05,12.79-9.029-.452-4.809-.452-4.809l5.015-6.057Z" transform="translate(-199.923 -43.455)" fill="#263238"/>
      <path id="Path_2820" data-name="Path 2820" d="M177.687,25.309c-5.954,14.244-8.238,26.851-5.113,28.162s10.494-9.177,16.448-23.422S197.262,3.2,194.136,1.887,183.642,11.065,177.687,25.309Z" transform="translate(-169.634 -1.15)" fill="#263238"/>
      <path id="Path_2821" data-name="Path 2821" d="M314.8,99.624l-4.889-1.385,2.84-5.788,3.693,2.158Z" transform="translate(-228.941 -39.911)" fill="#455a64"/>
      <path id="Path_2822" data-name="Path 2822" d="M269.33,104.35l13.259,7.935,1.534-3.223Z" transform="translate(-211.594 -44.998)" fill="#455a64"/>
      <path id="Path_2823" data-name="Path 2823" d="M312.75,92.45l-2.84,5.788,1,.281,2.279-5.811Z" transform="translate(-228.941 -39.911)" fill="#455a64"/>
      <path id="Path_2824" data-name="Path 2824" d="M301.108,91.568c-.063.16-2.508-.756-5.462-1.952s-5.3-2.364-5.227-2.519,2.513.756,5.467,1.952S301.176,91.407,301.108,91.568Z" transform="translate(-220.608 -37.615)" fill="#455a64"/>
      <path id="Path_2825" data-name="Path 2825" d="M304.37,85.594c-.074.16-2.273-.7-4.952-1.918s-4.763-2.33-4.689-2.49,2.273.7,4.947,1.924A24.093,24.093,0,0,1,304.37,85.594Z" transform="translate(-222.45 -35.088)" fill="#455a64"/>
      <path id="Path_2826" data-name="Path 2826" d="M298.712,98.248c0,.086-.6,0-1.517-.286-.469-.126-1.013-.3-1.62-.487s-1.237-.5-1.906-.756c-2.691-1.156-4.746-2.273-4.689-2.445s2.273.756,4.929,1.872c.664.281,1.288.59,1.872.819l1.552.6C298.2,97.9,298.735,98.162,298.712,98.248Z" transform="translate(-219.993 -40.682)" fill="#455a64"/>
      <path id="Path_2827" data-name="Path 2827" d="M196.014,36.089s-7.385-4.294-11.072,5.616,3.985,11.307,3.985,11.307A65.505,65.505,0,0,0,196.014,36.089Z" transform="translate(-175.09 -15.422)" fill="#455a64"/>
      <path id="Path_2828" data-name="Path 2828" d="M203.3,16a9.9,9.9,0,0,1-.229,1.878c-.195,1.2-.469,2.954-.876,5.1-.275,1.059-.578,2.221-.9,3.458-.166.618-.332,1.265-.51,1.924l-.275,1.013c-.1.344-.229.664-.344,1.013l-1.517,4.271c-.126.372-.263.756-.4,1.122s-.321.756-.475,1.111l-1.013,2.273c-.343.756-.681,1.517-1.025,2.273-.172.361-.321.756-.515,1.088s-.378.7-.578,1.048c-.756,1.368-1.517,2.7-2.2,3.968-.183.309-.343.63-.532.922l-.578.87-1.111,1.66-1.992,2.971c-1.34,1.718-2.468,3.08-3.24,4.019a12.393,12.393,0,0,1-1.26,1.426,10.4,10.4,0,0,1,1.071-1.569l3.074-4.145L189.8,50.66c.344-.538.7-1.088,1.071-1.66l.567-.87c.183-.3.332-.613.515-.933l2.153-3.95.561-1.008c.189-.349.332-.756.51-1.088l1.008-2.273c.344-.756.681-1.517,1.008-2.273.16-.372.349-.756.487-1.1l.4-1.111c.532-1.471,1.053-2.885,1.517-4.231.115-.344.252-.664.355-1s.183-.676.281-1c.183-.653.355-1.288.532-1.9.349-1.225.676-2.376.979-3.424.441-2.107.8-3.784,1.059-5.038A12.711,12.711,0,0,1,203.3,16Z" transform="translate(-175.001 -7.23)" fill="#263238"/>
      <path id="Path_2829" data-name="Path 2829" d="M274.468,182.433,266.957,153.9l-18.767.5,5.84,39.813c.756,8.662,5.845,14.33,14.387,15.7,5.147.824,10.729-4.082,14.868-7.254,2.7-2.072,3.172-1.666,5.96-4.2h0l12.114-8.737.3,1.437h-.074l2.05,24.326,25.036,19.689,29.862-23.92-.681-10.351c.074,0,.143-.149,0-.149l-.756-11.725,15.3,17.548a17.469,17.469,0,0,0,30.7-3.572l7.878-40.133-17.3-3.716-8.1,28.9-19.305-22.214c-11.147-14.525-24.154-13.3-24.154-13.3l-23.988-.424h-.052c-.71,0-14.118.447-23.2,10.156Z" transform="translate(-202.557 -65.424)" fill="#fdb205"/>
      <path id="Path_2830" data-name="Path 2830" d="M399.806,177.128a7.179,7.179,0,0,0-.756-.281,5.989,5.989,0,0,0-2.319-.24,10.835,10.835,0,0,0-3.55,1.013c-1.323.59-2.7,1.517-4.294,2.445a11.06,11.06,0,0,1-5.731,1.815,10.129,10.129,0,0,1-3.3-.756c-1.076-.424-2.141-.945-3.263-1.391a12.871,12.871,0,0,0-7.368-.7c-2.576.492-4.935,1.941-7.351,3.338a28.343,28.343,0,0,1-3.733,1.861,15.064,15.064,0,0,1-3.939.956,15.5,15.5,0,0,1-7.574-1.048,28.871,28.871,0,0,1-5.943-3.544c-1.752-1.265-3.361-2.468-4.946-3.384a17.832,17.832,0,0,0-4.546-1.872,11.225,11.225,0,0,0-3.681-.3,9.645,9.645,0,0,0-3.029.853l.172-.109c.12-.069.3-.166.555-.286a8.46,8.46,0,0,1,2.273-.613,11.174,11.174,0,0,1,3.75.24,17.945,17.945,0,0,1,4.626,1.838c1.6.91,3.235,2.113,4.992,3.361a28.34,28.34,0,0,0,5.891,3.469,15.3,15.3,0,0,0,11.238.063,26.987,26.987,0,0,0,3.681-1.849c2.4-1.391,4.809-2.868,7.477-3.372a13.293,13.293,0,0,1,7.574.756c2.273.916,4.294,2.1,6.435,2.164a10.922,10.922,0,0,0,5.588-1.735c1.58-.87,2.983-1.826,4.34-2.4a10.7,10.7,0,0,1,3.635-.968,5.552,5.552,0,0,1,2.347.321A3.33,3.33,0,0,1,399.806,177.128Z" transform="translate(-235.17 -75.125)" fill="#fafafa"/>
      <path id="Path_2831" data-name="Path 2831" d="M404.531,200.1a4.1,4.1,0,0,1-.406,1.059,6.717,6.717,0,0,1-2.176,2.393,9.976,9.976,0,0,1-4.815,1.712,31.17,31.17,0,0,1-6.813-.3c-2.467-.252-5.3-.555-8.078.361a18.662,18.662,0,0,0-4.013,2.113,29.258,29.258,0,0,1-4.219,2.456,17.974,17.974,0,0,1-10.322,1.2,17.149,17.149,0,0,1-5.238-1.838c-1.666-.893-3.217-2-4.826-3.029a19.7,19.7,0,0,0-5.015-2.513,12.542,12.542,0,0,0-5.376-.344c-3.561.521-6.813,1.952-10.013,2.822a19.169,19.169,0,0,1-4.826.8,11.309,11.309,0,0,1-4.546-.756,22.6,22.6,0,0,1-6.681-4.815,32.828,32.828,0,0,0-5.21-4.294,10.909,10.909,0,0,0-4.769-1.62,7.718,7.718,0,0,0-3.166.378c-.687.258-1.013.475-1.031.452a4.67,4.67,0,0,1,1-.532,7.31,7.31,0,0,1,3.212-.452,10.933,10.933,0,0,1,4.872,1.58,32.3,32.3,0,0,1,5.3,4.277,22.357,22.357,0,0,0,6.613,4.718,11.12,11.12,0,0,0,4.42.756,18.746,18.746,0,0,0,4.735-.819c1.592-.447,3.206-1.008,4.861-1.517a30.689,30.689,0,0,1,5.187-1.391,12.769,12.769,0,0,1,5.542.344,20.5,20.5,0,0,1,5.118,2.559c1.615,1.048,3.16,2.153,4.786,3.029a16.826,16.826,0,0,0,5.124,1.8,17.637,17.637,0,0,0,10.111-1.156c3.029-1.317,5.376-3.607,8.267-4.546a13.325,13.325,0,0,1,4.271-.613,36.449,36.449,0,0,1,3.95.286,31.247,31.247,0,0,0,6.738.355,9.925,9.925,0,0,0,4.758-1.615,6.91,6.91,0,0,0,2.187-2.307A9.085,9.085,0,0,0,404.531,200.1Z" transform="translate(-225.983 -83.889)" fill="#fafafa"/>
      <path id="Path_2832" data-name="Path 2832" d="M494.555,236a5.589,5.589,0,0,0-1.053-.853,5.241,5.241,0,0,0-3.55-.538,11.59,11.59,0,0,0-4.792,2.559c-.824.641-1.683,1.34-2.651,1.969a8.269,8.269,0,0,1-6.859,1.317,24.493,24.493,0,0,1-3.172-.922c-.99-.332-1.924-.676-2.817-.91a13.952,13.952,0,0,0-2.519-.424,6.928,6.928,0,0,0-3.6.578c-.756.384-1.134.756-1.168.71a1.191,1.191,0,0,1,.252-.258,2.009,2.009,0,0,1,.344-.275,3.212,3.212,0,0,1,.5-.321,6.944,6.944,0,0,1,3.693-.756,14.059,14.059,0,0,1,2.582.384c.916.229,1.861.561,2.845.887,1.964.635,4.219,1.414,6.567.979a8.9,8.9,0,0,0,3.149-1.345c.945-.613,1.792-1.305,2.634-1.941A11.586,11.586,0,0,1,489.9,234.3a5.265,5.265,0,0,1,3.687.676,3.925,3.925,0,0,1,.756.687A1.353,1.353,0,0,1,494.555,236Z" transform="translate(-294.12 -100.515)" fill="#fafafa"/>
      <path id="Path_2833" data-name="Path 2833" d="M511.4,197.771a1.987,1.987,0,0,1-.653.406,5.975,5.975,0,0,1-2.038.515,9.9,9.9,0,0,1-3.1-.281,29.326,29.326,0,0,1-3.59-1.2,19.743,19.743,0,0,0-3.561-1.059,8.681,8.681,0,0,0-3.029,0,6.766,6.766,0,0,0-2.542,1.1,2.074,2.074,0,0,1,.561-.532,5.363,5.363,0,0,1,1.924-.842,8.38,8.38,0,0,1,3.115-.074,19.752,19.752,0,0,1,3.653,1.059,36.3,36.3,0,0,0,3.538,1.214,10.521,10.521,0,0,0,2.988.349A8.054,8.054,0,0,0,511.4,197.771Z" transform="translate(-307.163 -84.047)" fill="#fafafa"/>
      <path id="Path_2834" data-name="Path 2834" d="M397.993,247.907a18.1,18.1,0,0,0-1.975-.91,13.528,13.528,0,0,0-5.851-.607,25.135,25.135,0,0,0-8.33,2.651c-3.029,1.414-6.189,3.309-9.887,4.546a18.637,18.637,0,0,1-5.576.962,17.2,17.2,0,0,1-5.193-.893,45.132,45.132,0,0,1-4.414-1.758c-1.357-.6-2.611-1.179-3.784-1.637a19.83,19.83,0,0,0-5.725-1.517l-.933-.052h-.687a3.123,3.123,0,0,1-.567,0,3.2,3.2,0,0,1,.567-.074l.681-.063h.945a18.9,18.9,0,0,1,5.817,1.385c1.191.447,2.456,1.013,3.784,1.6a44.6,44.6,0,0,0,4.4,1.712,17.055,17.055,0,0,0,5.084.853,18.21,18.21,0,0,0,5.45-.956,81.183,81.183,0,0,0,9.847-4.46,24.78,24.78,0,0,1,8.479-2.6,13,13,0,0,1,5.931.756A8.39,8.39,0,0,1,397.993,247.907Z" transform="translate(-243.972 -105.558)" fill="#fafafa"/>
      <path id="Path_2835" data-name="Path 2835" d="M256.87,215.336a1.059,1.059,0,0,1,.355-.166,1.927,1.927,0,0,1,1.151.046,3.3,3.3,0,0,1,1.517,1.031,10.786,10.786,0,0,1,1.2,2.067,7.1,7.1,0,0,0,1.672,2.227,8.075,8.075,0,0,0,2.8,1.517,15.834,15.834,0,0,0,7.374.355,51.831,51.831,0,0,1,7.511-.9,10.718,10.718,0,0,1,5.937,1.643,6.769,6.769,0,0,1,2.7,3.149,4.187,4.187,0,0,1,.321,1.517,13.91,13.91,0,0,0-.464-1.431,6.76,6.76,0,0,0-2.714-2.977,10.546,10.546,0,0,0-5.788-1.517,53.582,53.582,0,0,0-7.454.933,16.007,16.007,0,0,1-7.574-.4,8.362,8.362,0,0,1-2.9-1.649,7.3,7.3,0,0,1-1.712-2.347,11.124,11.124,0,0,0-1.122-2.05,3.186,3.186,0,0,0-1.368-1.025A2.1,2.1,0,0,0,256.87,215.336Z" transform="translate(-206.267 -92.344)" fill="#fafafa"/>
      <path id="Path_2836" data-name="Path 2836" d="M271.175,173.623a7.717,7.717,0,0,0-2.645-1.368,8.64,8.64,0,0,0-3.206-.212,14.075,14.075,0,0,0-3.784,1.1c-1.305.561-2.508,1.2-3.618,1.752a26.787,26.787,0,0,1-3.029,1.322,12.911,12.911,0,0,1-2.164.555,2.623,2.623,0,0,1-.819.052,26.567,26.567,0,0,0,2.885-.87c1.013-.412,2.01-.876,2.977-1.385,1.1-.561,2.307-1.214,3.635-1.786a13.589,13.589,0,0,1,3.927-1.088,8.484,8.484,0,0,1,3.326.3,5.892,5.892,0,0,1,1.992,1.048A2.3,2.3,0,0,1,271.175,173.623Z" transform="translate(-204.147 -73.766)" fill="#fafafa"/>
      <g id="Group_7085" data-name="Group 7085" transform="translate(121.858 123.599)" opacity="0.3">
        <path id="Path_2837" data-name="Path 2837" d="M381.33,259.354c9.716-5.634,20.971-12.246,26.582-21.962,3.59-6.223,5.376-13.677,6.057-20.822l1.46,22.225-29.862,23.92Z" transform="translate(-381.33 -216.57)"/>
      </g>
      <g id="Group_7086" data-name="Group 7086" transform="translate(71.763 92.861)" opacity="0.2">
        <path id="Path_2838" data-name="Path 2838" d="M318.723,162.88a42.854,42.854,0,0,1-13.345,21.675,16.724,16.724,0,0,1-5.376,3.4,7.437,7.437,0,0,1-6.172-.4l.143-.515,15.143-14.988Z" transform="translate(-293.83 -162.88)"/>
      </g>
      <path id="Path_2839" data-name="Path 2839" d="M295.984,217.012c-.063,0,.183-.687.384-1.792a13.161,13.161,0,0,0,.04-4.368,12.883,12.883,0,0,0-1.437-4.128c-.555-.985-1-1.517-.945-1.574a5.211,5.211,0,0,1,1.191,1.431,11.522,11.522,0,0,1,1.431,8.7A5.389,5.389,0,0,1,295.984,217.012Z" transform="translate(-222.149 -88.089)" fill="#263238"/>
      <path id="Path_2840" data-name="Path 2840" d="M289.87,213.51a10.774,10.774,0,0,0,2.135-7.7,2.76,2.76,0,0,1,.3,1.191,8.046,8.046,0,0,1-1.557,5.639A3.777,3.777,0,0,1,289.87,213.51Z" transform="translate(-220.374 -88.371)" fill="#263238"/>
      <path id="Path_2841" data-name="Path 2841" d="M339.077,191.87c.109,0,.756,6.057,1.385,13.477s1.1,13.511.991,13.517-.756-6.057-1.386-13.477S338.963,191.881,339.077,191.87Z" transform="translate(-241.402 -82.412)" fill="#263238"/>
      <path id="Path_2842" data-name="Path 2842" d="M392.959,151.35a1.684,1.684,0,0,1,.166.406,8.821,8.821,0,0,1,.326,1.214,11.447,11.447,0,0,1-.069,4.626,11.952,11.952,0,0,1-3.3,5.989,11.779,11.779,0,0,1-15.572.344,12.013,12.013,0,0,1-3.561-5.84,11.642,11.642,0,0,1-.281-4.62,8.841,8.841,0,0,1,.281-1.225,1.8,1.8,0,0,1,.143-.418c.046,0-.143.59-.275,1.666a12.181,12.181,0,0,0,.4,4.546,11.842,11.842,0,0,0,3.527,5.639,11.517,11.517,0,0,0,15.086-.332,11.935,11.935,0,0,0,3.469-10.322C393.137,151.928,392.913,151.361,392.959,151.35Z" transform="translate(-254.865 -65.09)" fill="#263238"/>
      <path id="Path_2843" data-name="Path 2843" d="M486.376,223.968a18.817,18.817,0,0,1-.126-4.746,19.573,19.573,0,0,1,.664-4.712c.114,0-.126,2.13-.275,4.735S486.49,223.968,486.376,223.968Z" transform="translate(-304.284 -92.09)" fill="#263238"/>
      <path id="Path_2844" data-name="Path 2844" d="M490.107,225.154a6.1,6.1,0,0,1-.641-1.517,34.017,34.017,0,0,1-1.637-7.895,6.283,6.283,0,0,1,0-1.672c.115,0,.344,2.531.985,5.593S490.221,225.12,490.107,225.154Z" transform="translate(-304.975 -91.902)" fill="#263238"/>
      <path id="Path_2845" data-name="Path 2845" d="M437.8,219.956c-.114,0-.361-4.265-.561-9.532s-.263-9.532-.16-9.544.355,4.265.555,9.527S437.9,219.95,437.8,219.956Z" transform="translate(-283.282 -86.264)" fill="#263238"/>
      <path id="Path_2846" data-name="Path 2846" d="M375.792,131.793h0A10.747,10.747,0,0,1,365.264,121.5c-.172-4.151-.321-7.958-.321-7.958s-8.685-.922-9.206-9.532,0-28.483,0-28.483h0a29.988,29.988,0,0,1,30.292,2.324l1.323.922-.635,42.406a10.733,10.733,0,0,1-10.866,10.609A.2.2,0,0,1,375.792,131.793Z" transform="translate(-248.433 -31.374)" fill="#ffbe9d"/>
      <path id="Path_2847" data-name="Path 2847" d="M371.98,141.2a20.113,20.113,0,0,0,11.078-3.739s-2.353,6.332-11,5.977Z" transform="translate(-255.475 -59.152)" fill="#eb996e"/>
      <path id="Path_2848" data-name="Path 2848" d="M410.05,98.874c.143-.069,5.84-2.038,5.937,3.87s-5.845,4.78-5.863,4.614S410.05,98.874,410.05,98.874Z" transform="translate(-271.75 -42.5)" fill="#ffbe9d"/>
      <path id="Path_2849" data-name="Path 2849" d="M413.258,106.548a2.258,2.258,0,0,0,.281.143,1.015,1.015,0,0,0,.756,0,2.508,2.508,0,0,0,1.134-2.273,3.381,3.381,0,0,0-.309-1.46,1.183,1.183,0,0,0-.756-.756.512.512,0,0,0-.6.3c-.074.166,0,.281-.069.3s-.126-.1-.086-.349a.688.688,0,0,1,.218-.372.779.779,0,0,1,.567-.16,1.453,1.453,0,0,1,1.088.9,3.382,3.382,0,0,1,.384,1.637,2.657,2.657,0,0,1-1.46,2.576,1.092,1.092,0,0,1-.939-.143C413.276,106.685,413.247,106.554,413.258,106.548Z" transform="translate(-273.12 -43.956)" fill="#eb996e"/>
      <path id="Path_2850" data-name="Path 2850" d="M363.16,99.738a1.231,1.231,0,0,0,1.191,1.242,1.174,1.174,0,0,0,1.265-1.076v-.029a1.23,1.23,0,0,0-1.179-1.248,1.181,1.181,0,0,0-1.271,1.088C363.16,99.715,363.16,99.726,363.16,99.738Z" transform="translate(-251.705 -42.55)" fill="#263238"/>
      <path id="Path_2851" data-name="Path 2851" d="M360.5,97.444c.149.166,1.082-.532,2.41-.521s2.273.664,2.445.5-.086-.355-.51-.664a3.354,3.354,0,0,0-1.952-.607,3.305,3.305,0,0,0-1.924.618C360.568,97.083,360.436,97.375,360.5,97.444Z" transform="translate(-250.561 -41.493)" fill="#263238"/>
      <path id="Path_2852" data-name="Path 2852" d="M385.38,100a1.231,1.231,0,0,0,1.191,1.242,1.174,1.174,0,0,0,1.271-1.071v-.034a1.232,1.232,0,0,0-1.191-1.248,1.181,1.181,0,0,0-1.271,1.088Z" transform="translate(-261.204 -42.662)" fill="#263238"/>
      <path id="Path_2853" data-name="Path 2853" d="M383.276,97.924c.149.16,1.088-.532,2.416-.532s2.273.664,2.439.51-.086-.361-.51-.664a3.354,3.354,0,0,0-1.952-.607,3.305,3.305,0,0,0-1.924.618C383.345,97.534,383.2,97.826,383.276,97.924Z" transform="translate(-260.296 -41.698)" fill="#263238"/>
      <path id="Path_2854" data-name="Path 2854" d="M372.4,107.829a8.912,8.912,0,0,0-2.158-.4c-.344,0-.658-.1-.71-.332a1.743,1.743,0,0,1,.218-1c.326-.819.658-1.683,1.008-2.582a52.156,52.156,0,0,0,2.273-6.738,47.159,47.159,0,0,0-2.788,6.544c-.332.91-.658,1.775-.962,2.6a1.927,1.927,0,0,0-.172,1.323.86.86,0,0,0,.555.5,2.463,2.463,0,0,0,.578.074A8.253,8.253,0,0,0,372.4,107.829Z" transform="translate(-254.225 -41.762)" fill="#263238"/>
      <path id="Path_2855" data-name="Path 2855" d="M378.525,117.63c-.212,0-.218,1.426-1.454,2.445s-2.765.865-2.771,1.071c0,.092.344.281.99.3a3.572,3.572,0,0,0,2.319-.813,3.148,3.148,0,0,0,1.122-2.05C378.794,117.979,378.64,117.624,378.525,117.63Z" transform="translate(-256.467 -50.675)" fill="#263238"/>
      <path id="Path_2856" data-name="Path 2856" d="M382.695,89.024c.126.355,1.454.189,3.029.378s2.811.607,3.029.286c.1-.16-.12-.5-.63-.847a5.3,5.3,0,0,0-4.6-.51C382.918,88.572,382.637,88.853,382.695,89.024Z" transform="translate(-260.052 -38.02)" fill="#263238"/>
      <path id="Path_2857" data-name="Path 2857" d="M361.346,90.68c.235.3,1.151,0,2.273,0s2.027.206,2.273-.115c.092-.149-.052-.452-.464-.756a3.118,3.118,0,0,0-1.826-.492,3.08,3.08,0,0,0-1.786.607C361.369,90.251,361.249,90.537,361.346,90.68Z" transform="translate(-250.916 -38.571)" fill="#263238"/>
      <path id="Path_2858" data-name="Path 2858" d="M348.236,62.394a3.2,3.2,0,0,1,1.179-2.845,2.282,2.282,0,0,1,2.926.218,2.64,2.64,0,0,1,2.01-3.149c.086-.017.172-.034.263-.046,1.408-.092,2.611.979,3.968,1.345a6.474,6.474,0,0,0,4.019-.475c1.282-.515,2.479-1.225,3.784-1.695A11.036,11.036,0,0,1,380.5,62.222a4.9,4.9,0,0,1,5.193,1.969,8.071,8.071,0,0,1,1.237,5.662,18.385,18.385,0,0,1-.99,3.87v.332c-.092,4.74-.63,10.317-2.651,10.345-3.527.052-2.691-6.6-2.691-6.6-4.334-1.666-2.719-8.158-3.784-9.143s-3.349-3.269-12.412,1.363a17.6,17.6,0,0,1-10.763,1.156c-.074-.011-.149-.029-.218-.046H353.3a8.239,8.239,0,0,1-2.324-.985,4.572,4.572,0,0,1-1.918-2.135,2.506,2.506,0,0,1,.492-2.7A5.531,5.531,0,0,1,348.236,62.394Z" transform="translate(-245.317 -23.933)" fill="#263238"/>
    </g>
    <g id="Group_7092" data-name="Group 7092" transform="translate(280.424 151.819)">
      <g id="Group_7087" data-name="Group 7087" transform="translate(24.929 0)">
        <rect id="Rectangle_261" data-name="Rectangle 261" width="51.583" height="35.633" transform="translate(0 6.737) rotate(-7.505)" fill="#fc5f2d"/>
        <path id="Path_2859" data-name="Path 2859" d="M533.37,271.928l27.9,14.3,23.244-21.034Z" transform="translate(-533.362 -265.182)" fill="#ff8b54"/>
      </g>
      <g id="Group_7091" data-name="Group 7091" transform="translate(0 13.756)">
        <g id="Group_7088" data-name="Group 7088">
          <path id="Path_2860" data-name="Path 2860" d="M507.542,291.388l-16.488,2.17a1.1,1.1,0,0,1-.286-2.176l16.488-2.17a1.1,1.1,0,0,1,.286,2.176Z" transform="translate(-489.813 -289.203)" fill="#455a64"/>
        </g>
        <g id="Group_7089" data-name="Group 7089" transform="translate(1.403 10.649)">
          <path id="Path_2861" data-name="Path 2861" d="M509.992,309.988l-16.488,2.17a1.1,1.1,0,0,1-.286-2.176l16.488-2.17a1.1,1.1,0,1,1,.286,2.176Z" transform="translate(-492.263 -307.803)" fill="#455a64"/>
        </g>
        <g id="Group_7090" data-name="Group 7090" transform="translate(2.805 21.292)">
          <path id="Path_2862" data-name="Path 2862" d="M512.442,328.578l-16.488,2.17a1.1,1.1,0,0,1-.286-2.176l16.488-2.17a1.1,1.1,0,1,1,.286,2.176Z" transform="translate(-494.713 -326.393)" fill="#455a64"/>
        </g>
      </g>
    </g>
    <g id="Group_7098" data-name="Group 7098" transform="translate(78.008 179.003)">
      <g id="Group_7093" data-name="Group 7093" transform="translate(16.942 2.784)">
        <rect id="Rectangle_262" data-name="Rectangle 262" width="27.698" height="40.099" transform="translate(0 25.807) rotate(-68.679)" fill="#fc5f2d"/>
        <path id="Path_2863" data-name="Path 2863" d="M183.42,317.52l13.643,20.193,23.708-5.611Z" transform="translate(-173.361 -317.52)" fill="#ff8b54"/>
      </g>
      <g id="Group_7097" data-name="Group 7097">
        <g id="Group_7094" data-name="Group 7094" transform="translate(6.069)">
          <path id="Path_2864" data-name="Path 2864" d="M159.437,319l-12.04-4.7a.852.852,0,1,1,.624-1.586l12.04,4.7a.852.852,0,1,1-.624,1.586Z" transform="translate(-146.857 -312.657)" fill="#455a64"/>
        </g>
        <g id="Group_7095" data-name="Group 7095" transform="translate(3.034 7.775)">
          <path id="Path_2865" data-name="Path 2865" d="M154.137,332.582l-12.04-4.7a.852.852,0,1,1,.624-1.586l12.04,4.7a.849.849,0,0,1,.481,1.1A.858.858,0,0,1,154.137,332.582Z" transform="translate(-141.557 -326.237)" fill="#455a64"/>
        </g>
        <g id="Group_7096" data-name="Group 7096" transform="translate(0 15.549)">
          <path id="Path_2866" data-name="Path 2866" d="M148.837,346.162l-12.04-4.7a.852.852,0,1,1,.624-1.586l12.04,4.7a.849.849,0,0,1,.481,1.1A.858.858,0,0,1,148.837,346.162Z" transform="translate(-136.257 -339.817)" fill="#455a64"/>
        </g>
      </g>
    </g>
    <path id="Path_2867" data-name="Path 2867" d="M398.71,355.446H280.984a2.123,2.123,0,0,1-2.124-2.124v-1.368a2.123,2.123,0,0,1,2.124-2.124H398.71a2.123,2.123,0,0,1,2.124,2.124v1.368A2.131,2.131,0,0,1,398.71,355.446Z" transform="translate(-120.21 -152.545)" fill="#ebebeb"/>
    <path id="Path_2868" data-name="Path 2868" d="M390.313,372.856h-60a2.123,2.123,0,0,1-2.124-2.124v-1.368a2.123,2.123,0,0,1,2.124-2.124h60a2.123,2.123,0,0,1,2.124,2.124v1.368A2.127,2.127,0,0,1,390.313,372.856Z" transform="translate(-140.298 -159.988)" fill="#ebebeb"/>
    <text id="Mail_Sent" data-name="Mail Sent" transform="translate(185.113 254.762)" fill="#1492e6" font-size="15" font-family="GothamRounded-Medium, Gotham Rounded" font-weight="500"><tspan x="0" y="0">Mail Sent</tspan></text>
    <g id="Group_7100" data-name="Group 7100" transform="translate(362.378 172.864)">
      <g id="Group_7099" data-name="Group 7099">
        <path id="Path_2869" data-name="Path 2869" d="M670.642,520.691H652.654c-2.445,0-4.614-1.872-5.37-4.637l-7.632-27.9a1.855,1.855,0,0,1,1.363-2.422,222.736,222.736,0,0,1,41.261-.006,1.855,1.855,0,0,1,1.363,2.422l-7.632,27.9A5.825,5.825,0,0,1,670.642,520.691Z" transform="translate(-635.788 -380.095)" fill="#fd615b"/>
        <path id="Path_2870" data-name="Path 2870" d="M683.475,488.985c0,.744-9.074,1.345-20.273,1.345s-20.273-.6-20.273-1.345,9.08-1.345,20.273-1.345S683.475,488.241,683.475,488.985Z" transform="translate(-637.223 -381.321)" fill="#0c375a"/>
        <path id="Path_2871" data-name="Path 2871" d="M681.9,371.893c-7.294-1.924-18.441,13.219-21.83,27.984V378.368a44.355,44.355,0,0,1,10.838-12.355c9.16-7.46,17.593-17.038,10.288-18.962-6.847-1.8-17.1,11.433-21.126,25.276V344.7a29.275,29.275,0,0,1,6.206-6.756c5.771-4.7,11.09-10.735,6.481-11.948-4-1.053-9.83,6.023-12.687,14V331.05a42.592,42.592,0,0,1,2.971-10.769c4.248-9.372,6.538-19.025.939-18.309s-9.24,17.41-6.172,30.223V336.8c-2.073-9.378-9.172-19.088-13.809-17.868-4.609,1.214.71,7.248,6.481,11.948a26.582,26.582,0,0,1,7.328,8.731v21.761c-3.321-14.84-14.548-30.154-21.881-28.225-7.311,1.924,1.122,11.5,10.288,18.962,6.922,5.639,10.191,10.924,11.593,13.8v26.1c-3.55-14.565-14.49-29.267-21.681-27.372-7.311,1.924-1.042,8.925,9.257,17.387a48.655,48.655,0,0,1,12.429,15.12v12.292a3.8,3.8,0,0,0,2.261,0v-4.889c1.431-2.9,4.706-8.118,11.542-13.689C680.777,383.395,689.21,373.817,681.9,371.893Z" transform="translate(-632.961 -301.935)" fill="#00b570"/>
      </g>
    </g>
    <g id="Group_7106" data-name="Group 7106" transform="translate(48.703 249.747)">
      <g id="Group_7105" data-name="Group 7105">
        <path id="Path_2872" data-name="Path 2872" d="M173.408,547.2c0,2.834-15.853,5.135-35.4,5.135s-35.4-2.3-35.4-5.135,15.853-5.135,35.4-5.135S173.408,544.362,173.408,547.2Z" transform="translate(-92.564 -481.468)" fill="#c8d2db"/>
        <g id="Group_7104" data-name="Group 7104">
          <g id="Group_7103" data-name="Group 7103">
            <g id="Group_7102" data-name="Group 7102" transform="translate(0 17.081)">
              <g id="Group_7101" data-name="Group 7101">
                <path id="Path_2873" data-name="Path 2873" d="M104.118,504.155a19.048,19.048,0,1,1,19.048-19.047A19.069,19.069,0,0,1,104.118,504.155Zm0-30.509a11.465,11.465,0,1,0,11.462,11.462A11.474,11.474,0,0,0,104.118,473.646Z" transform="translate(-85.07 -466.06)" fill="#1797e5"/>
              </g>
            </g>
            <path id="Path_2874" data-name="Path 2874" d="M171.114,501.758V441.575c0-7.134-52.774-7.134-52.774,0v60.183C118.34,506.372,171.114,506.372,171.114,501.758Z" transform="translate(-99.292 -436.225)" fill="#30b9ef"/>
            <path id="Path_2875" data-name="Path 2875" d="M170.451,441.956c0,1.706-10.626,3.086-23.731,3.086s-23.731-1.38-23.731-3.086,10.626-3.086,23.731-3.086S170.451,440.25,170.451,441.956Z" transform="translate(-101.28 -437.356)" fill="#2e3062"/>
          </g>
        </g>
      </g>
      <text id="ViTutors" transform="translate(30.051 39.845)" fill="#fff" font-size="7" font-family="GothamRounded-Bold, Gotham Rounded" font-weight="700"><tspan x="0" y="0">Vi</tspan><tspan y="0" font-family="GothamRounded-Medium, Gotham Rounded" font-weight="500">Tutors</tspan></text>
    </g>
    <g id="Group_7111" data-name="Group 7111" transform="translate(255.887 244.724)">
      <g id="Group_7107" data-name="Group 7107" transform="translate(32.572 25.95)">
        <path id="Path_2876" data-name="Path 2876" d="M504.742,507.788c1.139-2.708,3.023-5.113,3.71-7.969,1.008-4.168-.681-8.639.366-12.8.481-1.9,2.067-3.9,3.985-3.5,1.385.292,2.21,1.7,3.389,2.485,2.244,1.483,5.37.4,7.311-1.466s3.143-4.351,4.889-6.395a15.541,15.541,0,0,1,9.962-5.29,6.333,6.333,0,0,1,4.712.979,5.046,5.046,0,0,1,1.34,5.313,10.317,10.317,0,0,1-3.355,4.649,22.359,22.359,0,0,1-8.067,4.466,5.067,5.067,0,0,0-2.267,1.082,1.543,1.543,0,0,0-.04,2.239c.842.6,1.975-.2,3.006-.172a2.368,2.368,0,0,1,1.969,1.437,4.655,4.655,0,0,1,.269,2.519,9.314,9.314,0,0,1-4.271,6.664c-.527.332-1.151.676-1.283,1.288a1.611,1.611,0,0,0,.8,1.552c.51.349,1.117.538,1.632.876,1.758,1.162,1.924,3.87.784,5.645a8.392,8.392,0,0,1-5.256,3.223c-5.5,1.322-11.153-.057-16.717.24-1.918.1-5.41,1.775-6.75.286C503.2,513.3,503.895,509.8,504.742,507.788Z" transform="translate(-503.848 -472.778)" fill="#00b570"/>
        <path id="Path_2877" data-name="Path 2877" d="M507.33,520.012s10.1-22.568,32.381-37.082" transform="translate(-505.336 -477.118)" fill="none" stroke="#0c8e5f" stroke-linecap="round" stroke-linejoin="round" stroke-miterlimit="10" stroke-width="0.79"/>
      </g>
      <g id="Group_7108" data-name="Group 7108" transform="translate(0 25.001)">
        <path id="Path_2878" data-name="Path 2878" d="M485.946,499.8a37.021,37.021,0,0,0,1.9-5.468,5.778,5.778,0,0,0-1.4-5.364c-1.935-1.729-5.13-1.271-7.145-2.9-3.361-2.731-1.088-8.874-4.105-11.983-1.569-1.614-4.088-1.843-6.321-1.546s-4.431,1.013-6.676.9c-2.679-.137-5.153-1.437-7.763-2.044-3.011-.7-7.242-.195-7.46,3.578-.24,4.145,1.723,7.529,4.466,10.448,1.632,1.735,3.1,3.916,2.9,6.286-.155,1.844-1.282,3.429-2.164,5.061s-1.523,3.635-.693,5.284a5.274,5.274,0,0,0,4.048,2.439c2.324.366,4.695.006,7.048-.023,4.609-.057,7.695,2.284,10.746,5.433,1.924,1.981,5.29,6.195,8.519,4.723,2.038-.928,2.7-3.79,2.868-5.782C484.979,505.7,484.87,502.826,485.946,499.8Z" transform="translate(-446.955 -471.12)" fill="#00b570"/>
        <path id="Path_2879" data-name="Path 2879" d="M488.219,519.722s0-18.944-26.359-36.652" transform="translate(-453.327 -476.229)" fill="none" stroke="#0c8e5f" stroke-linecap="round" stroke-linejoin="round" stroke-miterlimit="10" stroke-width="0.79"/>
      </g>
      <g id="Group_7110" data-name="Group 7110" transform="translate(30.816)">
        <path id="Path_2880" data-name="Path 2880" d="M508.51,506.026s8.845-31.9,25.254-53.639c.24-.321,1.6-1.872,1.843-2.187" transform="translate(-504.085 -437.176)" fill="#007d55"/>
        <g id="Group_7109" data-name="Group 7109">
          <path id="Path_2881" data-name="Path 2881" d="M510.82,535.818s15.1-5.679,16.843-3.492C531.356,536.958,511.816,536.322,510.82,535.818Z" transform="translate(-505.072 -472.07)" fill="#007d55"/>
          <path id="Path_2882" data-name="Path 2882" d="M518.42,514.488s14.788-6.343,16.654-4.254C539.025,514.655,519.445,514.941,518.42,514.488Z" transform="translate(-508.321 -462.66)" fill="#007d55"/>
          <path id="Path_2883" data-name="Path 2883" d="M524.79,499.232s14.13-6.5,16-4.42C544.736,499.232,525.815,499.685,524.79,499.232Z" transform="translate(-511.044 -456.072)" fill="#007d55"/>
          <path id="Path_2884" data-name="Path 2884" d="M531.99,484.293s14.25-6.492,16.116-4.4C552.057,484.31,533.021,484.746,531.99,484.293Z" transform="translate(-514.122 -449.692)" fill="#007d55"/>
          <path id="Path_2885" data-name="Path 2885" d="M541.92,465.413s13.534-7.592,15.6-5.691C561.872,463.735,542.985,465.762,541.92,465.413Z" transform="translate(-518.367 -441.116)" fill="#007d55"/>
          <path id="Path_2886" data-name="Path 2886" d="M539.418,457.6s1.66-15.429-.893-16.574C533.12,438.6,538.679,456.762,539.418,457.6Z" transform="translate(-515.916 -433.158)" fill="#007d55"/>
          <path id="Path_2887" data-name="Path 2887" d="M531.3,472.717s1.66-15.429-.893-16.574C525,453.71,530.559,471.875,531.3,472.717Z" transform="translate(-512.445 -439.621)" fill="#007d55"/>
          <path id="Path_2888" data-name="Path 2888" d="M521.826,491.344s.756-15.5-1.861-16.494C514.429,472.738,521.041,490.549,521.826,491.344Z" transform="translate(-508.045 -447.64)" fill="#007d55"/>
          <path id="Path_2889" data-name="Path 2889" d="M514.372,506.407s-1.3-15.464-4.025-16.1C504.576,488.945,513.484,505.72,514.372,506.407Z" transform="translate(-504.044 -454.286)" fill="#007d55"/>
          <path id="Path_2890" data-name="Path 2890" d="M506.734,526.487s-1.3-15.464-4.025-16.1C496.944,509.025,505.853,525.8,506.734,526.487Z" transform="translate(-500.78 -462.87)" fill="#007d55"/>
          <path id="Path_2891" data-name="Path 2891" d="M553.89,441.706s6.55-14.553,9.332-14.25C569.119,428.092,554.955,441.357,553.89,441.706Z" transform="translate(-523.484 -427.452)" fill="#007d55"/>
        </g>
      </g>
    </g>
  </g>
</svg>
