<svg xmlns="http://www.w3.org/2000/svg" width="27.394" height="20.546" viewBox="0 0 27.394 20.546">
  <path id="Message-btn" d="M24.826,59.882H2.568A2.571,2.571,0,0,0,0,62.45V77.86a2.571,2.571,0,0,0,2.568,2.568H24.826a2.571,2.571,0,0,0,2.568-2.568V62.45A2.571,2.571,0,0,0,24.826,59.882Zm0,1.712a.851.851,0,0,1,.328.066L13.7,71.59,2.24,61.66a.852.852,0,0,1,.328-.066Zm0,17.121H2.568a.857.857,0,0,1-.856-.856V63.469l11.424,9.9a.857.857,0,0,0,1.122,0l11.424-9.9V77.86A.857.857,0,0,1,24.826,78.716Z" transform="translate(0 -59.882)" fill="#181c2b"/>
</svg>
