<svg xmlns="http://www.w3.org/2000/svg" width="18" height="24" viewBox="0 0 18 24">
  <g id="password" transform="translate(-3)">
    <path id="Path_259" data-name="Path 259" d="M18.75,24H5.25A2.253,2.253,0,0,1,3,21.75V11.25A2.253,2.253,0,0,1,5.25,9h13.5A2.253,2.253,0,0,1,21,11.25v10.5A2.253,2.253,0,0,1,18.75,24ZM5.25,10.5a.751.751,0,0,0-.75.75v10.5a.751.751,0,0,0,.75.75h13.5a.751.751,0,0,0,.75-.75V11.25a.751.751,0,0,0-.75-.75Z" fill="#9297a8"/>
    <path id="Path_260" data-name="Path 260" d="M17.25,10.5a.75.75,0,0,1-.75-.75V6a4.5,4.5,0,0,0-9,0V9.75a.75.75,0,0,1-1.5,0V6A6,6,0,0,1,18,6V9.75A.75.75,0,0,1,17.25,10.5Z" fill="#9297a8"/>
    <path id="Path_261" data-name="Path 261" d="M12,17a2,2,0,1,1,2-2A2,2,0,0,1,12,17Zm0-2.5a.5.5,0,1,0,.5.5A.5.5,0,0,0,12,14.5Z" fill="#9297a8"/>
    <path id="Path_262" data-name="Path 262" d="M12,20a.75.75,0,0,1-.75-.75V16.5a.75.75,0,0,1,1.5,0v2.75A.75.75,0,0,1,12,20Z" fill="#9297a8"/>
  </g>
</svg>
