<svg id="phone" xmlns="http://www.w3.org/2000/svg" width="47.927" height="47.927" viewBox="0 0 47.927 47.927">
  <path id="Path_282" data-name="Path 282" d="M34.446,47.927a13.353,13.353,0,0,1-4.581-.818A48.85,48.85,0,0,1,12.126,35.8,48.847,48.847,0,0,1,.819,18.063a13.257,13.257,0,0,1-.676-6.516A13.594,13.594,0,0,1,7.129,1.6,13.345,13.345,0,0,1,13.519,0a1.5,1.5,0,0,1,1.464,1.184l2.351,10.97a1.5,1.5,0,0,1-.405,1.373l-4.017,4.017A39.423,39.423,0,0,0,30.384,35.016L34.4,31a1.5,1.5,0,0,1,1.373-.405l10.97,2.351a1.5,1.5,0,0,1,1.184,1.464,13.345,13.345,0,0,1-1.6,6.39,13.594,13.594,0,0,1-9.951,6.987,13.322,13.322,0,0,1-1.935.142ZM12.322,3.061a10.494,10.494,0,0,0-8.688,13.98A45.426,45.426,0,0,0,30.887,44.294a10.494,10.494,0,0,0,13.98-8.688l-8.924-1.912-4.195,4.195a1.5,1.5,0,0,1-1.7.3A42.408,42.408,0,0,1,9.743,17.876a1.5,1.5,0,0,1,.3-1.7l4.195-4.195Z" transform="translate(0 0)" fill="#6e87a4"/>
  <path id="Path_283" data-name="Path 283" d="M263.983,25.46a1.5,1.5,0,0,1-1.5-1.5A20.991,20.991,0,0,0,241.518,3a1.5,1.5,0,0,1,0-3A23.962,23.962,0,0,1,265.48,23.963,1.5,1.5,0,0,1,263.983,25.46Z" transform="translate(-217.553)" fill="#1492e6"/>
  <path id="Path_284" data-name="Path 284" d="M257.992,83.47a1.5,1.5,0,0,1-1.5-1.5A14.994,14.994,0,0,0,241.518,67a1.5,1.5,0,0,1,0-3A17.992,17.992,0,0,1,259.49,81.972,1.5,1.5,0,0,1,257.992,83.47Z" transform="translate(-217.553 -58.009)" fill="#1492e6"/>
  <path id="Path_285" data-name="Path 285" d="M252,141.479a1.5,1.5,0,0,1-1.5-1.5A9,9,0,0,0,241.518,131a1.5,1.5,0,0,1,0-3A12,12,0,0,1,253.5,139.981,1.5,1.5,0,0,1,252,141.479Z" transform="translate(-217.553 -116.019)" fill="#1492e6"/>
</svg>
