<svg xmlns="http://www.w3.org/2000/svg" width="538.357" height="447.388" viewBox="0 0 538.357 447.388"><g transform="translate(-0.002 0.008)"><path d="M499.78,39.61c-12.87,20.36,5.98,17.59-3.38,32.89-8.54,13.94-27.45,6.51-20.06,34.2,1.62,6.06-1.81,11.59-7.52,15.32a24.369,24.369,0,0,1-28.01-.76c-.63-.45-1.24-.94-1.83-1.45a24.809,24.809,0,0,1-8.27-23.03c1.25-7.62,4.7-15.61,12.94-20.35,19.33-11.11,1.59-36.03,18.88-41.2C483.38,29,482.39,21.06,495.06,7.19,508.49-7.51,517.23,12.02,499.78,39.61Z" fill="#007d55"/><path d="M490.28,32.21c-.36.58-29.93,49.01-49.48,89.04-.63-.45-1.24-.94-1.83-1.45,19.61-40.07,49-88.2,49.36-88.78a1.148,1.148,0,0,1,1.57-.38A1.133,1.133,0,0,1,490.28,32.21Z" fill="#04593a"/><path d="M516.56,94.11c-22.58,21.2,1.78,23.82-14.8,39.85-15.12,14.61-36.26-.74-35.98,36.11.06,8.06-5.98,13.85-14.3,16.65a31.315,31.315,0,0,1-34.62-9.97c-.64-.77-1.24-1.57-1.81-2.4a31.9,31.9,0,0,1-2.88-31.33c4.01-9.08,10.87-17.92,22.66-21.16,27.64-7.6,13.58-44.34,36.77-45.2,27.96-1.05,29.29-11.25,49.52-24.42C542.57,38.26,547.16,65.38,516.56,94.11Z" fill="#00b570"/><path d="M507.12,81.84c-.63.61-53.04,51.36-90.26,94.9-.64-.77-1.24-1.57-1.81-2.4,37.32-43.56,89.4-94,90.04-94.61a1.458,1.458,0,0,1,2.07.04A1.476,1.476,0,0,1,507.12,81.84Z" fill="#007d55"/><path d="M42.57,43.63c9.16,22.28-8.93,16.29-2.36,32.98,6,15.21,25.91,11.16,13.84,37.15-2.64,5.69-.22,11.73,4.76,16.39a24.362,24.362,0,0,0,27.72,4.09c.7-.34,1.39-.71,2.05-1.11a24.832,24.832,0,0,0,12.13-21.26c.09-7.72-1.93-16.19-9.22-22.28C74.37,75.31,96.15,53.83,80.02,45.75,60.56,36,62.91,28.36,52.83,12.51,42.14-4.29,30.15,13.43,42.57,43.63Z" fill="#007d55"/><path d="M53.2,37.99c.25.64,21.01,53.44,33.33,96.26.7-.34,1.39-.71,2.05-1.11C76.2,90.27,55.57,37.79,55.32,37.15a1.14,1.14,0,0,0-2.12.84Z" fill="#04593a"/><path d="M16.49,101.83c19.32,24.21-5.17,23.32,8.95,41.56,12.87,16.62,36,4.46,30.44,40.88-1.21,7.97,3.94,14.56,11.77,18.52a31.329,31.329,0,0,0,35.69-4.91c.74-.67,1.46-1.37,2.13-2.11a31.91,31.91,0,0,0,7.33-30.6c-2.67-9.56-8.2-19.3-19.39-24.19-26.27-11.48-7.1-45.82-29.92-50C35.96,85.94,36.12,75.66,17.97,59.72-1.26,42.83-9.69,69.02,16.49,101.83Z" fill="#00b570"/><path d="M27.59,91.04c.54.7,45.14,58.42,75.75,106.84.74-.67,1.46-1.37,2.13-2.11C74.77,147.32,30.44,89.94,29.9,89.25a1.461,1.461,0,1,0-2.31,1.79Z" fill="#007d55"/><path d="M281.06,110.08c-9.52-6.52-33.38,9.57-45.85,29.1l11.07-31c4-3.47,11.02-8.35,21.97-12.23,17.04-6.04,34.12-15.5,24.58-22.03-8.94-6.12-30.51,7.68-43.44,25.56L263.6,59.67a44.9,44.9,0,0,1,12.42-6.54c10.74-3.81,21.5-9.77,15.49-13.89-5.22-3.57-17.26,3.62-25.49,13.65l4.61-12.9A65.277,65.277,0,0,1,280.45,26C291.39,14.68,299.66,1.95,291.22.1s-22.27,20.33-24.44,40.37l-2.37,6.64c1.84-14.58-3.4-32.22-10.71-32.85-7.26-.62-2.71,10.81,3.19,20.55,4.49,7.42,5.73,13.3,6.06,16.35L251.76,82.52c2.85-23.09-5.45-50.94-17.01-51.92-11.52-.99-4.3,17.15,5.07,32.61,7.08,11.69,9.07,20.98,9.61,25.84l-13.42,37.6c2.38-22.82-5.78-50.51-17.17-50.6-8.78-.07-6.09,12.32,4.39,29.81a74.457,74.457,0,0,1,10.13,28.18l-6.32,17.71a5.809,5.809,0,0,0,3.25,1.16l2.52-7.05c3.55-3.44,10.96-9.28,23.68-13.79C273.53,126.08,290.61,116.62,281.06,110.08Z" fill="#00b570"/><g opacity="0.8"><g opacity="0.5"><path d="M288.45,161.01a137.013,137.013,0,0,1-62.46-26.47C198.4,113.71,140.67,78.28,85.6,95.93,9.63,120.27,9.29,190.7,29.08,228.95s160.1,150.28,342.01,132.46c162.78-15.95,194.5-198.53,107.68-231.57C403.47,101.18,377.78,174.2,288.45,161.01Z" fill="#ccd3e6"/></g><g opacity="0.5"><ellipse cx="7.06" cy="7.6" rx="7.06" ry="7.6" transform="translate(486.47 127.88)" fill="#ccd3e6"/></g><path d="M32.72,85.44a4.571,4.571,0,0,1,5.12,2.87c1.3,3.53-2.11,7.47-6.69,5.7h0C27.19,91.08,28.91,86.14,32.72,85.44Z" fill="#ccd3e6"/><circle cx="9.19" cy="9.19" r="9.19" transform="translate(461.261 67.583) rotate(-45)" fill="#ccd3e6"/><g opacity="0.8"><path d="M60.59,78.19a9.289,9.289,0,1,1-11.45-6.44A9.291,9.291,0,0,1,60.59,78.19Z" fill="#ccd3e6"/></g><path d="M428.08,354.91a4.587,4.587,0,0,1,5.56,1.86c1.93,3.22-.68,7.73-5.51,6.85h0C423.7,361.47,424.48,356.3,428.08,354.91Z" fill="#ccd3e6"/><path d="M454.12,342.6a9.289,9.289,0,1,1-12.45-4.19A9.292,9.292,0,0,1,454.12,342.6Z" fill="#ccd3e6"/><path d="M462.6,53.51a5.66,5.66,0,1,1-5.66-5.66A5.661,5.661,0,0,1,462.6,53.51Z" fill="#ccd3e6"/></g><g opacity="0.8"><path d="M506.92,154.48c-.01-50.53-42.08-105.9-94.44-109.24q-1.38-.09-2.79-.15c-75.07-3.5-80.79,88.06-148.7,98.38s-119.78-41.8-201.05-7.79c-72.99,30.55-92.76,202.19,121.7,209.07C353.21,350.25,506.94,305.23,506.92,154.48Z" fill="#ccd3e6"/></g><ellipse cx="191.45" cy="9.88" rx="191.45" ry="9.88" transform="translate(110.87 402.22)" fill="#ccd3e6"/><path d="M426.84,412.05H172.77V400.38a15.923,15.923,0,0,1,15.92-15.92H410.91a15.923,15.923,0,0,1,15.92,15.92v11.67Z" fill="#fff"/><rect width="92.09" height="59.12" transform="translate(253.04 325.33)" fill="#fff"/><path d="M253.04,343.49l92.09-7.38.02-10.78-92.1.11Z" fill="#ccd3e6"/><path d="M496.14,81.19V313.05a12.3,12.3,0,0,1-12.3,12.3H106.25a12.3,12.3,0,0,1-12.3-12.3V81.19a12.3,12.3,0,0,1,12.3-12.3H483.83c.18,0,.37,0,.55.01.13.01.27.01.4.02h.02l.29.03a3.935,3.935,0,0,1,.48.06c.1.01.21.03.31.05a.772.772,0,0,0,.15.02c.1.02.2.03.3.06A12.3,12.3,0,0,1,496.14,81.19Z" fill="#fff"/><circle cx="8.51" cy="8.51" r="8.51" transform="matrix(0.757, -0.653, 0.653, 0.757, 287.018, 307.807)" fill="#ccd3e6"/><path d="M486.31,69.13l-.3-.06a.772.772,0,0,0-.15-.02c-.1-.02-.21-.04-.31-.05l-.48-.06-.29-.03h-.02c-.13-.01-.26-.02-.4-.02-.18-.01-.36-.01-.55-.01H106.25a12.3,12.3,0,0,0-12.3,12.3V295.9H496.14V81.19A12.315,12.315,0,0,0,486.31,69.13Zm-6.13,205.32a3.35,3.35,0,0,1-3.35,3.35H113.25a3.35,3.35,0,0,1-3.35-3.35V88.18a3.35,3.35,0,0,1,3.35-3.35H476.84a3.35,3.35,0,0,1,3.35,3.35V274.45Z" fill="#363638"/><path d="M480.18,88.18V274.45a3.35,3.35,0,0,1-3.35,3.35H113.25a3.35,3.35,0,0,1-3.35-3.35V88.18a3.35,3.35,0,0,1,3.35-3.35H476.84A3.342,3.342,0,0,1,480.18,88.18Z" fill="#fff"/><path d="M480.18,88.18v17.58H109.9V88.18a3.35,3.35,0,0,1,3.35-3.35H476.84A3.342,3.342,0,0,1,480.18,88.18Z" fill="#d3e8ee"/><path d="M451.5,95.02a2.84,2.84,0,1,1-2.84-2.84A2.838,2.838,0,0,1,451.5,95.02Z" fill="#fd615b"/><path d="M460.72,95.02a2.84,2.84,0,1,1-2.84-2.84A2.838,2.838,0,0,1,460.72,95.02Z" fill="#00b570"/><path d="M434.27,98.02H144.77a2.544,2.544,0,0,1-2.54-2.54v-.94A2.544,2.544,0,0,1,144.77,92h289.5a2.544,2.544,0,0,1,2.54,2.54v.94A2.544,2.544,0,0,1,434.27,98.02Z" fill="#fff"/><path d="M123.27,95.02V97.8a.513.513,0,0,1-.77.44l-2.41-1.39-2.41-1.39a.507.507,0,0,1,0-.88l2.41-1.39,2.41-1.39a.513.513,0,0,1,.77.44Z"/><path d="M127.51,95.02V97.8a.513.513,0,0,0,.77.44l2.41-1.39,2.41-1.39a.507.507,0,0,0,0-.88l-2.41-1.39-2.41-1.39a.513.513,0,0,0-.77.44Z"/><path d="M464.57,97.41l-.17-.17a.67.67,0,0,1,0-.96l3.86-3.86a.67.67,0,0,1,.96,0l.17.17a.67.67,0,0,1,0,.96l-3.86,3.86A.67.67,0,0,1,464.57,97.41Z" fill="#363638"/><path d="M469.23,97.41l.17-.17a.67.67,0,0,0,0-.96l-3.86-3.86a.67.67,0,0,0-.96,0l-.17.17a.67.67,0,0,0,0,.96l3.86,3.86A.67.67,0,0,0,469.23,97.41Z" fill="#363638"/><ellipse cx="28.06" cy="27.71" rx="28.06" ry="27.71" transform="translate(112.9 22.44)" fill="#ccd3e6"/><ellipse cx="28.06" cy="27.71" rx="28.06" ry="27.71" transform="translate(112.9 18.83)" fill="#00b570"/><ellipse cx="22.81" cy="22.53" rx="22.81" ry="22.53" transform="translate(118.15 24.01)" fill="#fff"/><path d="M163.78,46.54c0,.6-.02,1.19-.07,1.78a22.835,22.835,0,0,0-45.48,0c-.05-.59-.07-1.18-.07-1.78a22.812,22.812,0,0,1,45.62,0Z" fill="#ccd3e6"/><path d="M140.96,48.89a.564.564,0,0,1-.46-.23L129.31,33.78a.554.554,0,0,1,.12-.79.575.575,0,0,1,.8.12l10.92,14.52,12.41-5.38a.561.561,0,0,1,.75.29.55.55,0,0,1-.29.74l-12.83,5.56A.593.593,0,0,1,140.96,48.89Z" fill="#363638"/><path d="M495.61,145.04a34.89,34.89,0,1,0-59.65,24.57,45.293,45.293,0,0,1,12.89,24.71l.17,1.07h25.77l.22-1.91a44.664,44.664,0,0,1,11.54-24.99A34.736,34.736,0,0,0,495.61,145.04Z" fill="#fe9f07"/><path d="M475.96,199.95H448.54a1.261,1.261,0,0,1-1.26-1.26v-2.05a1.261,1.261,0,0,1,1.26-1.26h27.42a1.261,1.261,0,0,1,1.26,1.26v2.05A1.255,1.255,0,0,1,475.96,199.95Z" fill="#3a82ca"/><path d="M469.27,210.46H455.23a7.951,7.951,0,0,1-7.95-7.95h0a2.565,2.565,0,0,1,2.56-2.56h24.82a2.565,2.565,0,0,1,2.56,2.56h0A7.951,7.951,0,0,1,469.27,210.46Z" fill="#3a82ca"/><line x2="24.01" transform="translate(449.84 199.95)" stroke-width="0.887" stroke="#8acff8" stroke-linecap="round" stroke-linejoin="round" stroke-miterlimit="10" fill="none"/><path d="M431.76,141.82a37.149,37.149,0,0,0-.13,10.95" fill="none" stroke="#fefefe" stroke-linecap="round" stroke-linejoin="round" stroke-miterlimit="10" stroke-width="1.705"/><path d="M454.22,115.8s-14.08,4.75-20.17,18.38" fill="none" stroke="#fefefe" stroke-linecap="round" stroke-linejoin="round" stroke-miterlimit="10" stroke-width="1.705"/><path d="M455.8,194.2V163.72a5.5,5.5,0,0,0-5.5-5.5h0a5.5,5.5,0,0,0-5.5,5.5v.92a5.5,5.5,0,0,0,5.5,5.5h18.79" fill="none" stroke="#fefefe" stroke-linecap="round" stroke-linejoin="round" stroke-miterlimit="10" stroke-width="0.513"/><path d="M452.35,170.14h18.79a5.5,5.5,0,0,0,5.5-5.5v-.92a5.5,5.5,0,0,0-5.5-5.5h0a5.5,5.5,0,0,0-5.5,5.5V194.2" fill="none" stroke="#fefefe" stroke-linecap="round" stroke-linejoin="round" stroke-miterlimit="10" stroke-width="0.513"/><text transform="translate(211.47 135.321)" fill="#363951" font-size="16.08" font-family="GothamRounded-Bold, Gotham Rounded" font-weight="700"><tspan x="0" y="0">POST A JOB</tspan></text><path d="M185.43,264.57H136.47a6.041,6.041,0,0,1-6.04-6.04V153.63a6.041,6.041,0,0,1,6.04-6.04h48.96a6.041,6.041,0,0,1,6.04,6.04v104.9A6.041,6.041,0,0,1,185.43,264.57Z" fill="#e6f1f4"/><path d="M357.93,158.56H212.6a2.078,2.078,0,0,1-2.08-2.08v-3.51a2.078,2.078,0,0,1,2.08-2.08H357.93a2.078,2.078,0,0,1,2.08,2.08v3.51A2.078,2.078,0,0,1,357.93,158.56Z" fill="#e6f1f4"/><path d="M322.73,168.3H212.6a2.078,2.078,0,0,1-2.08-2.08V164.8a2.078,2.078,0,0,1,2.08-2.08H322.73a2.078,2.078,0,0,1,2.08,2.08v1.42A2.078,2.078,0,0,1,322.73,168.3Z" fill="#e6f1f4"/><path d="M313.85,194.57H215.99a5.476,5.476,0,0,1-5.48-5.48v-3.73a5.476,5.476,0,0,1,5.48-5.48h97.86a5.476,5.476,0,0,1,5.48,5.48v3.73A5.482,5.482,0,0,1,313.85,194.57Z" fill="#e6f1f4"/><path d="M431.33,194.57H333.47a5.476,5.476,0,0,1-5.48-5.48v-3.73a5.476,5.476,0,0,1,5.48-5.48h97.86a5.476,5.476,0,0,1,5.48,5.48v3.73A5.488,5.488,0,0,1,431.33,194.57Z" fill="#e6f1f4"/><path d="M313.85,217.15H215.99a5.476,5.476,0,0,1-5.48-5.48v-3.73a5.476,5.476,0,0,1,5.48-5.48h97.86a5.476,5.476,0,0,1,5.48,5.48v3.73A5.476,5.476,0,0,1,313.85,217.15Z" fill="#e6f1f4"/><path d="M431.33,217.15H333.47a5.476,5.476,0,0,1-5.48-5.48v-3.73a5.476,5.476,0,0,1,5.48-5.48h97.86a5.476,5.476,0,0,1,5.48,5.48v3.73A5.482,5.482,0,0,1,431.33,217.15Z" fill="#e6f1f4"/><path d="M313.85,239.86H215.99a5.476,5.476,0,0,1-5.48-5.48v-3.73a5.476,5.476,0,0,1,5.48-5.48h97.86a5.476,5.476,0,0,1,5.48,5.48v3.73A5.476,5.476,0,0,1,313.85,239.86Z" fill="#e6f1f4"/><path d="M431.33,239.86H333.47a5.476,5.476,0,0,1-5.48-5.48v-3.73a5.476,5.476,0,0,1,5.48-5.48h97.86a5.476,5.476,0,0,1,5.48,5.48v3.73A5.482,5.482,0,0,1,431.33,239.86Z" fill="#e6f1f4"/><path d="M279.79,261.87H216a5.476,5.476,0,0,1-5.48-5.48v-3.73a5.476,5.476,0,0,1,5.48-5.48h63.79a5.476,5.476,0,0,1,5.48,5.48v3.73A5.482,5.482,0,0,1,279.79,261.87Z" fill="#dd2f37"/><text transform="translate(224.622 257.488)" fill="#fff" font-size="8.36" font-family="GothamRounded-Bold, Gotham Rounded" font-weight="700"><tspan x="0" y="0">Submit Job</tspan></text><path d="M342.1,386.69s-7.99-12.55-27.39-23.96c-13.7-8.06-21.68-30.81-21.68-30.81s26.24,1.14,37.65,17.12S342.1,386.69,342.1,386.69Z" fill="#00b570"/><path d="M342.19,387.02a.405.405,0,0,1-.38-.29,66.7,66.7,0,0,0-17.89-30.05,65.873,65.873,0,0,0-12.52-9.82.389.389,0,0,1,.38-.68,66.373,66.373,0,0,1,12.69,9.95,67.37,67.37,0,0,1,18.1,30.41.391.391,0,0,1-.28.48Z" fill="#363638"/><path d="M338.66,386.4s-2.28-4.56-12.55-3.42-15.97,6.85-34.23-3.42c0,0,13.69-11.41,28.53-9.13S336.38,378.41,338.66,386.4Z" fill="#00b570"/><path d="M338.71,386.79a.4.4,0,0,1-.33-.18c-.05-.07-4.64-7.29-12.03-8.63-12.91-2.35-21.7,1.78-21.79,1.82a.389.389,0,0,1-.34-.7c.09-.04,9.09-4.28,22.27-1.89,7.73,1.41,12.36,8.68,12.55,8.99a.4.4,0,0,1-.12.54A.5.5,0,0,1,338.71,386.79Z" fill="#363638"/><path d="M343.15,385.3s-.9-5.02,8.02-10.24,16.9-4.05,25.41-23.19c0,0-17.8-.97-28.33,9.71S340.21,377.53,343.15,385.3Z" fill="#00b570"/><path d="M343.11,385.72a.392.392,0,0,1-.39-.36c-.03-.36-.66-8.96,4.7-14.7,9.14-9.79,18.89-11.76,18.99-11.78a.392.392,0,0,1,.15.77c-.1.02-9.61,1.96-18.56,11.55-5.13,5.5-4.5,14.02-4.49,14.11a.385.385,0,0,1-.36.42A.076.076,0,0,0,343.11,385.72Z" fill="#363638"/><path d="M354.05,391.5H328.24a2.285,2.285,0,0,1-2.28-2.28v-1.93a2.285,2.285,0,0,1,2.28-2.28h25.81a2.285,2.285,0,0,1,2.28,2.28v1.93A2.279,2.279,0,0,1,354.05,391.5Z" fill="#fd615b"/><path d="M341.26,447.38c-20.4,0-33.39-3.25-31.3-17.62,1.32-9.12,8.44-18.06,13.46-23.37.71-.75,1.37-1.42,1.97-2.02,1.86-1.84,3.12-2.9,3.12-2.9l.06-.33.36-2.02.41-2.32.94-5.3.33-1.85,10.67-.47,11.13.47.25,1.85.4,2.91.65,4.71.28,2.02.04.33s1.26,1.06,3.12,2.9c.6.59,1.27,1.27,1.97,2.02,5.02,5.31,12.13,14.25,13.46,23.37C374.65,444.13,361.66,447.38,341.26,447.38Z" fill="#fd615b"/><path d="M353.97,401.14h-25.4l.35-2.02h24.77Z" fill="#c42b4b"/><path d="M359.1,406.39H323.42c.71-.75,1.37-1.42,1.97-2.02h31.74C357.73,404.97,358.4,405.64,359.1,406.39Z" fill="#c42b4b"/><path d="M353.04,394.41l-23.71,2.39.94-5.3h22.37Z" fill="#c42b4b"/><path d="M459.42,406.8c1.88-4.45,4.97-8.41,6.1-13.11,1.66-6.86-1.12-14.22.6-21.06.79-3.12,3.4-6.43,6.55-5.76,2.28.48,3.63,2.8,5.58,4.09,3.69,2.44,8.84.65,12.03-2.41s5.17-7.16,8.04-10.53a25.555,25.555,0,0,1,16.39-8.71c2.7-.3,5.65-.1,7.76,1.61,2.48,2.01,3.12,5.69,2.21,8.74s-3.11,5.56-5.52,7.65a36.747,36.747,0,0,1-13.28,7.35,8.409,8.409,0,0,0-3.73,1.78c-.97,1-1.2,2.87-.06,3.68,1.39.98,3.25-.33,4.95-.29a3.9,3.9,0,0,1,3.24,2.37,7.579,7.579,0,0,1,.44,4.14,15.358,15.358,0,0,1-7.03,10.97c-.87.54-1.89,1.11-2.11,2.12a2.633,2.633,0,0,0,1.32,2.55c.84.57,1.84.88,2.69,1.44,2.89,1.91,3.17,6.37,1.29,9.29s-5.28,4.5-8.65,5.31c-9.05,2.17-18.35-.1-27.51.4-3.15.17-8.91,2.92-11.11.47C456.88,415.86,458.03,410.1,459.42,406.8Z" fill="#00b570"/><path d="M461.23,419.77s16.62-37.14,53.29-61.03" fill="none" stroke="#0c8e5f" stroke-linecap="round" stroke-linejoin="round" stroke-miterlimit="10" stroke-width="0.79"/><path d="M468.52,394.81c1.06-3,2.55-5.87,3.13-9s.06-6.71-2.31-8.83c-3.19-2.85-8.44-2.09-11.76-4.78-5.53-4.49-1.79-14.6-6.75-19.72-2.58-2.66-6.73-3.03-10.4-2.54s-7.29,1.67-10.99,1.48c-4.41-.22-8.48-2.36-12.78-3.37-4.95-1.16-11.92-.32-12.28,5.89-.39,6.82,2.84,12.39,7.34,17.19,2.68,2.85,5.1,6.45,4.78,10.35-.25,3.03-2.11,5.65-3.56,8.33s-2.51,5.98-1.14,8.7c1.21,2.4,4,3.6,6.66,4.02,3.83.6,7.73.01,11.6-.04,7.58-.09,12.66,3.76,17.69,8.94,3.16,3.26,8.7,10.19,14.02,7.77,3.35-1.52,4.44-6.24,4.72-9.52C466.92,404.53,466.75,399.79,468.52,394.81Z" fill="#00b570"/><path d="M461.77,419.2s0-31.17-43.38-60.32" fill="none" stroke="#0c8e5f" stroke-linecap="round" stroke-linejoin="round" stroke-miterlimit="10" stroke-width="0.79"/><path d="M462.34,419.78s14.56-52.5,41.56-88.27c.4-.53,2.63-3.08,3.03-3.6" fill="#007d55"/><path d="M464.51,411.38s24.85-9.35,27.72-5.75C498.32,413.26,466.16,412.22,464.51,411.38Z" fill="#007d55"/><path d="M471.68,391.77s24.33-10.44,27.41-7C505.59,392.04,473.37,392.51,471.68,391.77Z" fill="#007d55"/><path d="M477.68,377.5s23.25-10.71,26.33-7.27C510.5,377.51,479.37,378.24,477.68,377.5Z" fill="#007d55"/><path d="M484.47,363.42s23.45-10.69,26.52-7.25C517.49,363.44,486.16,364.16,484.47,363.42Z" fill="#007d55"/><path d="M493.82,346.45s22.28-12.49,25.66-9.37C526.66,343.7,495.57,347.03,493.82,346.45Z" fill="#007d55"/><path d="M493.74,346.7s2.73-25.39-1.47-27.28C483.37,315.42,492.52,345.31,493.74,346.7Z" fill="#007d55"/><path d="M486.09,360.94s2.73-25.39-1.47-27.28C475.72,329.66,484.87,359.56,486.09,360.94Z" fill="#007d55"/><path d="M477.74,378.39s1.25-25.51-3.06-27.15C465.56,347.78,476.44,377.08,477.74,378.39Z" fill="#007d55"/><path d="M472.05,392.25s-2.14-25.45-6.62-26.51C455.94,363.51,470.6,391.12,472.05,392.25Z" fill="#007d55"/><path d="M464.86,411.17s-2.14-25.45-6.62-26.5C448.74,382.43,463.4,410.04,464.86,411.17Z" fill="#007d55"/><path d="M505.1,329.93s10.78-23.95,15.36-23.45C530.16,307.53,506.85,329.36,505.1,329.93Z" fill="#007d55"/><ellipse cx="73.8" cy="9.84" rx="73.8" ry="9.84" transform="translate(20.47 423.75)" fill="#d3e8ee"/><path d="M117.58,420.89h-.11s-13.09-1.71-13.09-12.4V334.53H92.01v73.96c0,10.69-13.09,12.4-13.09,12.4h-.11a11.472,11.472,0,0,0-11.46,11.46h61.69A11.459,11.459,0,0,0,117.58,420.89Z" fill="#1797e5"/><path d="M157.52,334.53H38.88a22.7,22.7,0,0,1,22.41-18.66l36.92.1,36.92-.1A22.7,22.7,0,0,1,157.52,334.53Z" fill="#ffb028"/><path d="M70.68,199.09s-18.02,24.03-20.42,44.99c-1.69,14.8,20.42,36.93,20.42,36.93l7.62-3.79L70.7,260.1c-2.7-8.34-6.03-11.63-3.57-20.05l5.5-11.86Z" fill="#fd615b"/><path d="M127.47,198.73s17.79,25.63,19.26,46.67c1.27,18.14-20.51,35.61-20.51,35.61l-6.29-3.13,8.71-17.3c2.7-8.34,3.99-13.37.3-22.44l-4.67-9.95Z" fill="#fd615b"/><path d="M74.35,253.83l-11.95,38s51.72,6.6,67.54,2.33l-8.03-41.39,5.56-54.04a76.954,76.954,0,0,0-24.32-5.95c-12.23-.88-19.96,1.13-32.47,6.31Z" fill="#e02d2d"/><path d="M87.28,210.55c11.41-1.34,22.03-9.17,22.51-9.53a.636.636,0,0,0-.76-1.02c-.12.09-12.62,9.31-24.63,9.47a.64.64,0,0,0,.02,1.28C85.37,210.73,86.33,210.66,87.28,210.55Z" fill="#af2525"/><path d="M96.47,414.15l.94,8.39,8.92.21.75-6.97Z" fill="#fba691"/><path d="M95.07,281.12s-23.11-1.27-30.94,5.13-6.25,24.78,1.72,29.8,21.57,14.88,21.57,14.88l8.65,85.96,11.43.39s10.53-86.35,5.19-103.07S95.07,281.12,95.07,281.12Z" fill="#001030"/><path d="M108.55,413.01a9.567,9.567,0,0,1-.29,5.89l-13.15-.29a15.376,15.376,0,0,1-.26-5.77Z" fill="#2e3062"/><path d="M127.78,280.47H67.13l-5.6-32.77a4.643,4.643,0,0,1,4.58-5.43H128.8a4.643,4.643,0,0,1,4.58,5.43Z" fill="#ffaa01"/><path d="M124.22,287.6H70.75a3.619,3.619,0,0,1-3.62-3.62v-3.51h60.7v3.51A3.611,3.611,0,0,1,124.22,287.6Z" fill="#f88800"/><path d="M102.86,262.72a5.27,5.27,0,1,1-5.27-5.27A5.271,5.271,0,0,1,102.86,262.72Z" fill="#fdcc50"/><path d="M58.57,390.55l-1.98,8.31,8.01,1.58,3.26-7.42Z" fill="#fba691"/><path d="M106.82,279.69s-15.48-5.34-24.55,5.87S58,391.38,58,391.38l10.42,4.3,33.48-84.02s27.26,15.56,30.57-6.56C135.08,287.6,106.82,279.69,106.82,279.69Z" fill="#0c375a"/><path d="M70.78,391.34a9.9,9.9,0,0,1-2.19,5.68l-12.8-4.53a15.438,15.438,0,0,1,1.61-5.74Z" fill="#524e84"/><path d="M62.7,397.49a48.5,48.5,0,0,0-6.28-2.74c-1.43-.28-13.23,8.09-16.57,8.01-6.06-.15-8,8.75-4.56,9.96,9.97,3.5,28.41,3.07,28.41,3.07s4.1-11.07,4.17-14.81S65.34,399.17,62.7,397.49Z" fill="#fc5f2d"/><path d="M52.1,405.4a.748.748,0,0,0,.57.02.7.7,0,0,0,.4-.92,11.1,11.1,0,0,0-3.21-4.36,5.066,5.066,0,0,0-5.12-.49.7.7,0,0,0-.29.96.733.733,0,0,0,.99.29,3.656,3.656,0,0,1,3.6.41,9.7,9.7,0,0,1,2.68,3.71A.78.78,0,0,0,52.1,405.4Z" fill="#fff"/><path d="M54.52,403.72a.748.748,0,0,0,.57.02.7.7,0,0,0,.4-.92,11.1,11.1,0,0,0-3.21-4.36,5.066,5.066,0,0,0-5.12-.49.7.7,0,0,0-.29.96.733.733,0,0,0,.99.29,3.656,3.656,0,0,1,3.6.41,9.653,9.653,0,0,1,2.68,3.71A.78.78,0,0,0,54.52,403.72Z" fill="#fff"/><path d="M48.97,406.6a.748.748,0,0,0,.57.02.7.7,0,0,0,.4-.92,11.1,11.1,0,0,0-3.21-4.36,5.066,5.066,0,0,0-5.12-.49.7.7,0,0,0-.29.96.733.733,0,0,0,.99.29,3.656,3.656,0,0,1,3.6.41,9.653,9.653,0,0,1,2.68,3.71A.823.823,0,0,0,48.97,406.6Z" fill="#fff"/><path d="M100.85,422.19a45.594,45.594,0,0,1,6.36-1.53c1.39-.03,11.08,9.79,14.24,10.27,5.72.87,6.06,9.55,2.63,10.12-9.94,1.64-27.2-1.83-27.2-1.83s-2.01-11.08-1.46-14.6C95.96,421.08,98.1,423.33,100.85,422.19Z" fill="#fc5f2d"/><path d="M109.49,431.38a.691.691,0,0,1-.54-.08.665.665,0,0,1-.23-.93,10.615,10.615,0,0,1,3.74-3.56,4.837,4.837,0,0,1,4.89.39.663.663,0,0,1,.11.95.7.7,0,0,1-.97.11,3.488,3.488,0,0,0-3.45-.22,9.481,9.481,0,0,0-3.14,3.04A.658.658,0,0,1,109.49,431.38Z" fill="#fff"/><path d="M107.5,429.4a.691.691,0,0,1-.54-.08.665.665,0,0,1-.23-.93,10.615,10.615,0,0,1,3.74-3.56,4.837,4.837,0,0,1,4.89.39.663.663,0,0,1,.11.95.7.7,0,0,1-.97.11,3.488,3.488,0,0,0-3.45-.22,9.47,9.47,0,0,0-3.14,3.04A.624.624,0,0,1,107.5,429.4Z" fill="#fff"/><path d="M112.23,433.02a.691.691,0,0,1-.54-.08.665.665,0,0,1-.23-.93,10.615,10.615,0,0,1,3.74-3.56,4.837,4.837,0,0,1,4.89.39.663.663,0,0,1,.11.95.7.7,0,0,1-.97.11,3.488,3.488,0,0,0-3.45-.22,9.47,9.47,0,0,0-3.14,3.04A.624.624,0,0,1,112.23,433.02Z" fill="#fff"/><path d="M80.52,168.83s-7.42-12.68-1.16-22.47,19.55-8.87,22.99-8.1,23.26,10.06,11.27,32.6Z" fill="#001030"/><path d="M81.76,165.24s-3-4-5.24-.69.92,13.09,6.39,10.7Z" fill="#fb876b"/><path d="M81.72,172.23a.448.448,0,0,1-.44-.34,7.1,7.1,0,0,0-4.01-4.25.466.466,0,0,1-.27-.6.459.459,0,0,1,.59-.27,7.964,7.964,0,0,1,4.57,4.87.457.457,0,0,1-.32.57A.5.5,0,0,1,81.72,172.23Z" fill="#d45c48"/><path d="M78.56,170.71a.451.451,0,0,1-.25-.07.466.466,0,0,1-.14-.64,4.2,4.2,0,0,1,1.73-1.4.461.461,0,1,1,.38.84,3.292,3.292,0,0,0-1.33,1.05A.469.469,0,0,1,78.56,170.71Z" fill="#d45c48"/><path d="M112.71,165.24s3-4,5.24-.69-.92,13.09-6.39,10.7Z" fill="#fb876b"/><path d="M112.74,172.23a.448.448,0,0,0,.44-.34,7.13,7.13,0,0,1,4.01-4.25.465.465,0,0,0-.33-.87,7.964,7.964,0,0,0-4.57,4.87.457.457,0,0,0,.32.57A.687.687,0,0,0,112.74,172.23Z" fill="#d45c48"/><path d="M115.9,170.71a.451.451,0,0,0,.25-.07.466.466,0,0,0,.14-.64,4.2,4.2,0,0,0-1.73-1.4.461.461,0,1,0-.38.84,3.292,3.292,0,0,1,1.33,1.05A.469.469,0,0,0,115.9,170.71Z" fill="#d45c48"/><path d="M104.62,183.54v9.73s-2.9,4.95-6.82,5.29-7.4-4.26-7.4-4.26V184.23Z" fill="#fba691"/><path d="M104.62,183.54v4.32c-2.63,2.92-7.31,3.65-14.22,2.63v-6.26Z" fill="#fb876b"/><path d="M114.88,158.57a94.48,94.48,0,0,1-1.26,12.28c-.18.94-.38,1.83-.61,2.62-2.05,7.17-7.17,19.45-21.5,14.34-6.33-2.26-9.26-9.31-10.57-16.48a69.52,69.52,0,0,1-.96-13.31,10.161,10.161,0,0,1,5.15-8.64c8.46-4.8,17.38-3.01,23.26-.75A10.161,10.161,0,0,1,114.88,158.57Z" fill="#fba691"/><path d="M93.37,144.72s18.91,30.33,21.52,19.21C118.58,148.16,107.29,138.41,93.37,144.72Z" fill="#001030"/><path d="M92.58,144.72c-12.58.09-18.84,14.39-13.01,16.09,8.12,2.36,15.16-9.14,17.33-13.13C95.45,146.72,93.99,145.76,92.58,144.72Z" fill="#001030"/><circle cx="12.45" cy="12.45" r="12.45" transform="translate(86.809 131.147) rotate(-22.377)" fill="#001030"/><path d="M82.18,159.45s.98,3.8-.36,6.36-.6,6.94,0,11.87a15.219,15.219,0,0,1-2.25-7.82c-.12-4.81.66-8.82,0-10.74Z" fill="#001030"/><path d="M111.9,159.45s-.98,3.8.36,6.36.6,6.94,0,11.87a15.219,15.219,0,0,0,2.25-7.82c.12-4.81-.66-8.82,0-10.74Z" fill="#001030"/><path d="M90.92,166.74c0,1.04-.54,1.88-1.19,1.88s-1.2-.84-1.2-1.88.54-1.88,1.2-1.88S90.92,165.7,90.92,166.74Z" fill="#2e3062"/><path d="M105.68,166.74c0,1.04-.54,1.88-1.2,1.88s-1.19-.84-1.19-1.88.54-1.88,1.19-1.88S105.68,165.7,105.68,166.74Z" fill="#2e3062"/><path d="M87.36,160.22a20.11,20.11,0,0,1,5.11-.77.881.881,0,0,1,.88,1.04v.01a.886.886,0,0,1-.91.73,22.417,22.417,0,0,0-7,.86,1.322,1.322,0,0,1,.41-.95A3,3,0,0,1,87.36,160.22Z" fill="#001030"/><path d="M106.67,160.25a20.11,20.11,0,0,0-5.11-.77.881.881,0,0,0-.88,1.04v.01a.886.886,0,0,0,.91.73,22.417,22.417,0,0,1,7,.86,1.322,1.322,0,0,0-.41-.95A3.147,3.147,0,0,0,106.67,160.25Z" fill="#001030"/><path d="M97.39,174.39a1.9,1.9,0,0,1-1-.24,1.4,1.4,0,0,1-.67-1.13,66.879,66.879,0,0,1,.28-7.25.462.462,0,0,1,.92.08,70.236,70.236,0,0,0-.28,7.08.49.49,0,0,0,.23.43c.43.26,1.44-.01,1.85-.17a.46.46,0,0,1,.35.85A5.322,5.322,0,0,1,97.39,174.39Z" fill="#fb876b"/><path d="M91.53,177.3c.35,1.76,1.51,4.99,5.42,4.99s5.02-2.95,5.4-4.99Z" fill="#f6f6f6"/><path d="M96.89,184.99a4.766,4.766,0,0,1-2.17-.63.465.465,0,1,1,.49-.79h0a3.633,3.633,0,0,0,1.68.5,3.792,3.792,0,0,0,1.77-.5.46.46,0,0,1,.47.79A4.627,4.627,0,0,1,96.89,184.99Z" fill="#fb876b"/><path d="M173.82,156.15a.859.859,0,0,0,.45,0c1.62-.42,2.55-.6,2.56-.6a.9.9,0,0,0-.32-1.78c-.04.01-1.01.18-2.7.63a.9.9,0,0,0-.64,1.1A.909.909,0,0,0,173.82,156.15Z" fill="#d3e8ee"/><path d="M121.46,197.46c-.84,1.53-1.65,3.12-2.4,4.72a.909.909,0,0,1-1.04.49.442.442,0,0,1-.16-.06.9.9,0,0,1-.43-1.2c.77-1.63,1.6-3.25,2.45-4.82a.894.894,0,0,1,1.22-.36A.91.91,0,0,1,121.46,197.46Z" fill="#d3e8ee"/><path d="M116.94,207.04c-.65,1.62-1.27,3.29-1.84,4.97a.9.9,0,0,1-1.07.59c-.02-.01-.05-.01-.07-.02a.9.9,0,0,1-.56-1.14c.58-1.71,1.21-3.42,1.87-5.07a.9.9,0,1,1,1.67.67Z" fill="#d3e8ee"/><path d="M109.3,233.44a.9.9,0,0,1-.67-.99c.23-1.79.5-3.59.81-5.33a.9.9,0,0,1,1.77.31c-.3,1.72-.57,3.49-.79,5.25a.908.908,0,0,1-1.01.78C109.37,233.45,109.33,233.45,109.3,233.44Z" fill="#d3e8ee"/><path d="M112.92,215.96a.9.9,0,0,1,.63,1.11c-.22.79-.43,1.59-.63,2.38-.23.91-.45,1.84-.66,2.77a.9.9,0,0,1-1.08.68c-.01,0-.02,0-.02-.01a.908.908,0,0,1-.66-1.07c.21-.94.44-1.89.67-2.81.2-.8.42-1.62.65-2.42a.9.9,0,0,1,1.09-.63Z" fill="#d3e8ee"/><path d="M124.15,192.9a.886.886,0,0,1-.98.39.849.849,0,0,1-.26-.11.9.9,0,0,1-.28-1.24c.96-1.52,1.98-3.03,3.03-4.48a.9.9,0,0,1,1.46,1.06C126.09,189.94,125.09,191.41,124.15,192.9Z" fill="#d3e8ee"/><path d="M169.21,157.68c-1.64.56-3.31,1.19-4.96,1.87a.838.838,0,0,1-.56.04.9.9,0,0,1-.12-1.71c1.68-.69,3.39-1.34,5.07-1.91a.9.9,0,1,1,.57,1.71Z" fill="#d3e8ee"/><path d="M154.71,164.17a.909.909,0,0,1-.66.09.939.939,0,0,1-.57-.43.907.907,0,0,1,.35-1.23c1.57-.87,3.18-1.71,4.8-2.5a.9.9,0,1,1,.78,1.62C157.83,162.49,156.25,163.31,154.71,164.17Z" fill="#d3e8ee"/><path d="M137.61,176.62a.905.905,0,0,1-.84.22.955.955,0,0,1-.44-.26.9.9,0,0,1,.04-1.27c1.31-1.23,2.67-2.43,4.06-3.57a.9.9,0,0,1,1.15,1.39C140.23,174.25,138.89,175.42,137.61,176.62Z" fill="#d3e8ee"/><path d="M145.78,169.88a.887.887,0,0,1-.75.14.929.929,0,0,1-.51-.34.907.907,0,0,1,.2-1.26c1.45-1.05,2.95-2.08,4.47-3.05a.9.9,0,1,1,.97,1.51C148.67,167.84,147.19,168.85,145.78,169.88Z" fill="#d3e8ee"/><path d="M130.36,184.33a.906.906,0,0,1-.92.3.782.782,0,0,1-.35-.18.9.9,0,0,1-.12-1.27c1.14-1.38,2.35-2.75,3.58-4.06a.9.9,0,0,1,1.31,1.23C132.66,181.64,131.48,182.98,130.36,184.33Z" fill="#d3e8ee"/><path d="M174.72,150.05l-1.82-15.02,47.78,7.3Z" fill="#30b9ef"/><path d="M220.68,142.32l-44.14,11.56-.12.03-2.21,2.71.51-6.57Z" fill="#1295c9"/><path d="M174.21,156.62l3.96-.06-1.75-2.65Z" fill="#0036af"/><path d="M181.98,152.45l-5.56,1.46,9.04,13.7,35.22-25.28Z" fill="#30b9ef"/><rect width="29.68" height="20.5" transform="translate(160.72 184.61)" fill="#fc5f2d"/><path d="M160.72,184.61l14.84,10.25,14.84-10.25Z" fill="#ff8b54"/><path d="M155.92,189.31h-9.57a.63.63,0,1,1,0-1.26h9.57a.627.627,0,0,1,.63.63A.634.634,0,0,1,155.92,189.31Z" fill="#9fb3b7"/><path d="M155.92,195.48h-9.57a.63.63,0,0,1,0-1.26h9.57a.63.63,0,1,1,0,1.26Z" fill="#9fb3b7"/><path d="M155.92,201.66h-9.57a.63.63,0,0,1,0-1.26h9.57a.63.63,0,1,1,0,1.26Z" fill="#9fb3b7"/></g></svg>