<?xml version="1.0" encoding="utf-8"?>
<!-- Generator: Adobe Illustrator 24.1.1, SVG Export Plug-In . SVG Version: 6.00 Build 0)  -->
<svg version="1.1" id="Layer_1" xmlns="http://www.w3.org/2000/svg" xmlns:xlink="http://www.w3.org/1999/xlink" x="0px" y="0px"
	 viewBox="0 0 24 24" style="enable-background:new 0 0 24 24;" xml:space="preserve">
<style type="text/css">
	.st0{fill:#FFFFFF;}
</style>
<path class="st0" d="M23.9,22.4l-7-7c3.3-4.1,2.7-10.1-1.4-13.4S5.4-0.6,2.1,3.5s-2.7,10.1,1.4,13.4c3.5,2.8,8.5,2.8,12,0l7,7
	c0.2,0.2,0.5,0.2,0.7,0l0.7-0.7C24.1,23,24.1,22.7,23.9,22.4C23.9,22.4,23.9,22.4,23.9,22.4z M9.5,17C5.4,17,2,13.6,2,9.5
	S5.4,2,9.5,2S17,5.4,17,9.5C17,13.6,13.6,17,9.5,17z"/>
</svg>
