<svg xmlns="http://www.w3.org/2000/svg" width="542.17" height="447.376" viewBox="0 0 542.17 447.376"><g transform="translate(0 -0.004)"><path d="M485.84,395.18c-27.22-20.68-73.78-72-12.47-152.57,75.82-99.63-14.98-140.5-102.02-136.24-70.02,3.43-148.82-84.6-227.43-68.86C39.58,58.39,107.33,148.24,36.59,196.65-23.74,237.93,2.16,363.72,80.68,395.18Z" fill="#d3e8ee"/><path d="M497.65,346.76a15.025,15.025,0,0,0,6.78-11.4c.91-10.46.88-34.77-19.02-35.44-12.07-.41-20.17,21.03-13.22,34.95C478.17,346.83,489.04,352.26,497.65,346.76Z" fill="#d3e8ee"/><path d="M361.04,85.65s22.75,24.6,45.72,8.23c18.57-13.23-3.87-31.47-20.99-33.9C367.18,57.34,346.04,67.97,361.04,85.65Z" fill="#d3e8ee"/><path d="M42.97,167.53s23.41-22.52,7.1-44.48c-13.18-17.75-30.43,4.35-32.46,21C15.41,162.11,26.12,182.4,42.97,167.53Z" fill="#d3e8ee"/><ellipse cx="248.91" cy="16.26" rx="248.91" ry="16.26" transform="translate(23.87 381.93)" fill="#d3e8ee"/><path d="M507.66,62.04c-11.52,18.21,5.35,15.73-3.03,29.42-7.64,12.47-24.55,5.82-17.94,30.59,1.45,5.42-1.62,10.37-6.73,13.71a21.805,21.805,0,0,1-25.06-.68c-.56-.4-1.11-.84-1.64-1.3a22.21,22.21,0,0,1-7.4-20.6c1.12-6.81,4.2-13.97,11.57-18.2,17.29-9.94,1.42-32.23,16.89-36.85,18.65-5.58,17.77-12.68,29.1-25.08C515.45,19.89,523.27,37.35,507.66,62.04Z" fill="#007d55"/><path d="M499.17,55.42c-.32.52-26.78,43.84-44.26,79.65-.56-.4-1.11-.84-1.64-1.3,17.55-35.84,43.83-78.89,44.16-79.41a1.019,1.019,0,0,1,1.74,1.06Z" fill="#04593a"/><path d="M522.67,110.79c-20.2,18.96,1.59,21.31-13.24,35.64-13.52,13.07-32.44-.66-32.19,32.3.06,7.21-5.35,12.39-12.79,14.89a28.019,28.019,0,0,1-30.97-8.92c-.57-.69-1.11-1.4-1.62-2.14a28.554,28.554,0,0,1-2.57-28.03c3.58-8.12,9.73-16.03,20.27-18.93,24.72-6.8,12.15-39.66,32.89-40.43,25.01-.94,26.2-10.06,44.3-21.85C545.94,60.83,550.04,85.09,522.67,110.79Z" fill="#00b570"/><path d="M514.22,99.82c-.56.55-47.45,45.94-80.74,84.89-.57-.69-1.11-1.4-1.62-2.14,33.38-38.97,79.97-84.09,80.54-84.63a1.308,1.308,0,0,1,1.82,1.88Z" fill="#007d55"/><path d="M38.08,39.03c8.19,19.93-7.99,14.57-2.11,29.5,5.36,13.6,23.18,9.98,12.38,33.23-2.36,5.09-.2,10.49,4.26,14.66a21.794,21.794,0,0,0,24.8,3.66,19.293,19.293,0,0,0,1.84-1A22.192,22.192,0,0,0,90.1,100.07c.08-6.9-1.72-14.48-8.25-19.93C66.54,67.36,86.02,48.15,71.59,40.92,54.18,32.2,56.28,25.36,47.27,11.19,37.7-3.84,26.97,12.02,38.08,39.03Z" fill="#007d55"/><path d="M47.59,33.98c.22.57,18.79,47.81,29.82,86.1a19.293,19.293,0,0,0,1.84-1C68.16,80.75,49.71,33.8,49.49,33.23a1.021,1.021,0,0,0-1.9.75Z" fill="#04593a"/><path d="M14.75,91.09c17.28,21.66-4.63,20.86,8,37.17,11.51,14.87,32.2,3.99,27.23,36.57-1.09,7.13,3.52,13.03,10.53,16.57a28.033,28.033,0,0,0,31.93-4.39c.66-.6,1.3-1.23,1.91-1.89a28.534,28.534,0,0,0,6.56-27.37c-2.38-8.55-7.33-17.26-17.35-21.64-23.5-10.27-6.35-40.99-26.77-44.72C32.17,76.88,32.3,67.68,16.07,53.42-1.13,38.31-8.67,61.74,14.75,91.09Z" fill="#00b570"/><path d="M24.68,81.44c.48.62,40.38,52.26,67.76,95.57.66-.6,1.3-1.23,1.91-1.89-27.46-43.34-67.11-94.67-67.6-95.29a1.311,1.311,0,0,0-2.07,1.61Z" fill="#007d55"/><path d="M251.41,98.47c-8.52-5.83-29.86,8.56-41.01,26.03l9.9-27.73c3.58-3.11,9.85-7.47,19.66-10.94,15.24-5.4,30.52-13.86,21.98-19.71-8-5.48-27.29,6.87-38.86,22.86l12.71-35.61a39.8,39.8,0,0,1,11.11-5.85c9.61-3.4,19.23-8.74,13.85-12.42-4.67-3.2-15.44,3.24-22.8,12.21l4.12-11.54a57.893,57.893,0,0,1,8.79-12.51C260.65,13.14,268.05,1.75,260.5.1s-19.92,18.19-21.86,36.11l-2.12,5.94c1.65-13.04-3.04-28.82-9.58-29.38-6.5-.56-2.42,9.67,2.86,18.39,4.02,6.64,5.13,11.9,5.43,14.63L225.2,73.83c2.55-20.65-4.88-45.56-15.22-46.45-10.31-.88-3.84,15.34,4.53,29.17,6.33,10.45,8.11,18.77,8.6,23.12L211.1,113.31c2.13-20.41-5.17-45.18-15.35-45.26-7.85-.06-5.45,11.02,3.93,26.67a66.481,66.481,0,0,1,9.06,25.21l-5.66,15.84a5.222,5.222,0,0,0,2.91,1.04l2.25-6.3c3.18-3.07,9.8-8.3,21.18-12.33C244.67,112.78,259.95,104.31,251.41,98.47Z" fill="#00b570"/><path d="M107.43,396.65h4.72l-.17-.14c-1.71-4.08-4.18-12.14-3.82-24.21.49-16.16-1.86-33.47-10.4-27.63s-2.85,30.93,9.4,47.66L84.9,373.05c-1.6-4.46-3.39-11.89-3.07-22.28.49-16.16-1.86-33.47-10.4-27.63-8,5.47-3.49,27.93,7.23,44.5L50.08,342.89a40.127,40.127,0,0,1-1.43-12.47c.31-10.19-1.17-21.09-6.56-17.41-4.67,3.19-2.58,15.57,3.12,25.67l-9.26-8.02a58.2,58.2,0,0,1-8.48-12.73c-5.89-12.79-13.82-23.81-18.1-17.38s9.73,25.15,25.74,33.46l4.77,4.13c-11.56-6.26-27.97-7.61-30.86-1.72-2.87,5.85,8.13,5.76,18.17,4,7.64-1.34,12.95-.47,15.6.24l22.52,19.5c-18.33-9.86-44.23-11.97-48.8-2.65-4.56,9.29,12.91,9.14,28.83,6.35,12.04-2.11,20.43-.76,24.66.36L97,387.6c-18.25-9.38-43.98-11.55-47.75-2.09-2.9,7.29,8.3,9.07,26.28,6a66.515,66.515,0,0,1,26.78.69Z" fill="#00b570"/><path d="M477.37,97.34V396.36a5.023,5.023,0,0,1-5.02,5.02H63.21a5.018,5.018,0,0,1-5.02-5.02V97.34a5.023,5.023,0,0,1,5.02-5.02H472.35a5,5,0,0,1,5.02,5.02Z" fill="#0c375a"/><path d="M477.37,97.34V396.36a5.023,5.023,0,0,1-5.02,5.02H63.21a4.982,4.982,0,0,1-3.35-1.28L476.39,94.35A5.072,5.072,0,0,1,477.37,97.34Z" fill="#001030"/><path d="M465.45,109.77V383.93a5.535,5.535,0,0,1-5.53,5.53H75.63a5.535,5.535,0,0,1-5.53-5.53V109.77a5.529,5.529,0,0,1,5.53-5.53H459.92A5.529,5.529,0,0,1,465.45,109.77Z" fill="#fff"/><path d="M465.45,109.77V129H70.11V109.77a5.529,5.529,0,0,1,5.53-5.53H459.93A5.527,5.527,0,0,1,465.45,109.77Z" fill="#d3e8ee"/><path d="M137.12,117.27h0a3.286,3.286,0,0,0,3.29,3.29H428.58a3.286,3.286,0,0,0,3.29-3.29h0a3.286,3.286,0,0,0-3.29-3.29H140.41A3.286,3.286,0,0,0,137.12,117.27Z" fill="#fff"/><path d="M92.09,117.27v2.44a.912.912,0,0,1-1.36.79l-2.11-1.22-2.11-1.22a.91.91,0,0,1,0-1.57l2.11-1.22,2.11-1.22a.907.907,0,0,1,1.36.79Z" fill="#2e3062"/><path d="M103.06,117.27v2.44a.912.912,0,0,0,1.36.79l2.11-1.22,2.11-1.22a.9.9,0,0,0,0-1.57l-2.11-1.22-2.11-1.22a.907.907,0,0,0-1.36.79Z" fill="#2e3062"/><text transform="translate(129.668 209.037)" fill="#4e6382" font-size="62.84" font-family="Montserrat-Black, Montserrat" font-weight="800"><tspan x="0" y="0">SEARCH</tspan></text><path d="M404.4,252.58h0a14.182,14.182,0,0,1-14.18,14.18H144.42a14.182,14.182,0,0,1-14.18-14.18h0a14.182,14.182,0,0,1,14.18-14.18H390.23A14.18,14.18,0,0,1,404.4,252.58Z" fill="#d3e8ee"/><path d="M390.22,238.4H351.26v28.36h38.96a14.182,14.182,0,0,0,14.18-14.18h0A14.182,14.182,0,0,0,390.22,238.4Z" fill="#fd615b"/><path d="M380.32,255.38a6.68,6.68,0,1,1,9.44-.38A6.684,6.684,0,0,1,380.32,255.38Zm7.56-8.19a4.472,4.472,0,1,0,.25,6.32A4.482,4.482,0,0,0,387.88,247.19Z" fill="#fff"/><path d="M372.94,263.38a1.105,1.105,0,0,1-.06-1.56l7.38-7.99a1.1,1.1,0,0,1,1.62,1.5l-7.38,7.99A1.115,1.115,0,0,1,372.94,263.38Z" fill="#fff"/><path d="M130.39,300.2h0a4.379,4.379,0,0,0,4.38,4.38H399.5a4.379,4.379,0,0,0,4.38-4.38h0a4.379,4.379,0,0,0-4.38-4.38H134.77A4.379,4.379,0,0,0,130.39,300.2Z" fill="#d3e8ee"/><path d="M130.39,321.74h0a4.379,4.379,0,0,0,4.38,4.38H399.5a4.379,4.379,0,0,0,4.38-4.38h0a4.379,4.379,0,0,0-4.38-4.38H134.77A4.366,4.366,0,0,0,130.39,321.74Z" fill="#d3e8ee"/><path d="M130.39,343.27h0a4.379,4.379,0,0,0,4.38,4.38H399.5a4.379,4.379,0,0,0,4.38-4.38h0a4.379,4.379,0,0,0-4.38-4.38H134.77A4.372,4.372,0,0,0,130.39,343.27Z" fill="#d3e8ee"/><path d="M123.89,295.21l1.19-6.06-5.68-1.11a13.89,13.89,0,0,0-.75-4.44l4.68-3.15-3.45-5.13-4.48,3.01a13.713,13.713,0,0,0-4.6-3.09l1.12-5.68-6.06-1.19-1.15,5.86a13.943,13.943,0,0,0-3.69.72l-3.15-4.68-5.13,3.45,3.01,4.48a13.713,13.713,0,0,0-3.09,4.6l-4.97-.98-1.19,6.06,5.14,1.01a13.763,13.763,0,0,0,1.09,4.68l-4.48,3.01,3.45,5.13,4.68-3.14a13.714,13.714,0,0,0,4.52,2.62l-1.12,5.72,6.06,1.19,1.22-6.2a13.712,13.712,0,0,0,3.92-1.04l3.01,4.48,5.13-3.45-3.14-4.68a13.946,13.946,0,0,0,2.06-3.14Zm-15.23-2.42a5.664,5.664,0,1,1,1.54-7.86A5.673,5.673,0,0,1,108.66,292.79Z" fill="#e8e8f9"/><path d="M441.62,164.66l.65-3.31-3.1-.61a7.56,7.56,0,0,0-.41-2.43l2.56-1.72-1.88-2.8-2.45,1.65a7.616,7.616,0,0,0-2.51-1.69l.61-3.11-3.31-.65-.63,3.2a7.848,7.848,0,0,0-2.02.39l-1.72-2.56-2.8,1.88,1.64,2.45a7.616,7.616,0,0,0-1.69,2.51l-2.71-.53-.65,3.31,2.81.55a7.468,7.468,0,0,0,.6,2.56l-2.45,1.65,1.88,2.8,2.56-1.72a7.393,7.393,0,0,0,2.47,1.43l-.61,3.12,3.31.65.66-3.39a7.525,7.525,0,0,0,2.15-.57l1.65,2.45,2.8-1.88-1.72-2.56a7.744,7.744,0,0,0,1.13-1.72Zm-8.33-1.33a3.1,3.1,0,1,1,.84-4.3A3.112,3.112,0,0,1,433.29,163.33Z" fill="#e8e8f9"/><path d="M109.73,198.63l.65-3.31-3.1-.61a7.56,7.56,0,0,0-.41-2.43l2.56-1.72-1.88-2.8-2.45,1.65a7.616,7.616,0,0,0-2.51-1.69l.61-3.11-3.31-.65-.63,3.2a7.848,7.848,0,0,0-2.02.39l-1.72-2.56-2.8,1.88,1.64,2.45a7.616,7.616,0,0,0-1.69,2.51l-2.71-.53-.65,3.31,2.81.55a7.469,7.469,0,0,0,.6,2.56l-2.45,1.65,1.88,2.8,2.56-1.72a7.393,7.393,0,0,0,2.47,1.43L96.57,205l3.31.65.66-3.39a7.525,7.525,0,0,0,2.15-.57l1.65,2.45,2.8-1.88-1.72-2.56a7.743,7.743,0,0,0,1.13-1.72Zm-8.32-1.33a3.1,3.1,0,1,1,.84-4.3A3.112,3.112,0,0,1,101.41,197.3Z" fill="#e8e8f9"/><path d="M127.02,434.32c0,4.49-27.29,8.13-60.95,8.13s-60.95-3.64-60.95-8.13,27.29-8.13,60.95-8.13S127.02,429.84,127.02,434.32Z" fill="#d3e8ee"/><path d="M83.51,234.39c5.64,20.53,24.24,26.26,24.24,26.26a55.893,55.893,0,0,0,16.68-6.33c-1.37-3.29-1.97-6.63-2.73-10.98-6.85,1.91-12.76,2.92-12.76,2.92-14.46-6.7-23.22-38.77-23.22-38.77C77.12,215.65,83.51,234.39,83.51,234.39Z" fill="#fba691"/><path d="M34.89,399.35l-6.12,8.18a13.088,13.088,0,0,0,5.65,6.48l7.31-9.41Z" fill="#fba691"/><path d="M33.4,411.47s2.86-.62,3.84.37,3.44,14.45,5.73,17.39-.02,4.51-1.43,5.11-21.69-19.66-21.69-19.66,5.01-6.92,7.43-8.27S30.84,410.05,33.4,411.47Z" fill="#54b2e0"/><path d="M33.78,419.33a.489.489,0,0,1-.29-.29.54.54,0,0,1,.28-.7,7.856,7.856,0,0,1,3.86-.64,3.546,3.546,0,0,1,2.8,2.4.535.535,0,0,1-.36.66.514.514,0,0,1-.64-.36,2.571,2.571,0,0,0-2-1.66,7.117,7.117,0,0,0-3.26.57A.53.53,0,0,1,33.78,419.33Z" fill="#fff"/><path d="M33.44,417.17a.489.489,0,0,1-.29-.29.54.54,0,0,1,.28-.7,7.94,7.94,0,0,1,3.86-.65,3.546,3.546,0,0,1,2.8,2.4.535.535,0,0,1-.36.66.514.514,0,0,1-.64-.36,2.571,2.571,0,0,0-2-1.66,7.083,7.083,0,0,0-3.26.57A.418.418,0,0,1,33.44,417.17Z" fill="#fff"/><path d="M34.72,421.59a.489.489,0,0,1-.29-.29.54.54,0,0,1,.28-.7,7.94,7.94,0,0,1,3.86-.65,3.546,3.546,0,0,1,2.8,2.4.535.535,0,0,1-.36.66.514.514,0,0,1-.64-.36,2.571,2.571,0,0,0-2-1.66,7.083,7.083,0,0,0-3.26.57A.421.421,0,0,1,34.72,421.59Z" fill="#fff"/><path d="M72.4,413.4l.93,10.17a13.1,13.1,0,0,0,8.53,1.04L81,412.71Z" fill="#fba691"/><path d="M80,423.17s1.79-2.48,3.24-2.39,12.76,8.81,16.59,9.49,3.14,3.51,2.46,4.96-30.41.62-30.41.62-1.1-9.6-.16-12.33S77.02,423.86,80,423.17Z" fill="#54b2e0"/><path d="M87.36,429.65a.534.534,0,0,1-.41-.03.543.543,0,0,1-.23-.72,7.772,7.772,0,0,1,2.56-2.96,3.544,3.544,0,0,1,3.69.06.544.544,0,0,1,.15.74.506.506,0,0,1-.72.13,2.525,2.525,0,0,0-2.6,0,6.842,6.842,0,0,0-2.14,2.52A.5.5,0,0,1,87.36,429.65Z" fill="#fff"/><path d="M85.73,428.21a.534.534,0,0,1-.41-.03.543.543,0,0,1-.23-.72,7.772,7.772,0,0,1,2.56-2.96,3.544,3.544,0,0,1,3.69.06.544.544,0,0,1,.15.74.506.506,0,0,1-.72.13,2.525,2.525,0,0,0-2.6,0,6.842,6.842,0,0,0-2.14,2.52A.539.539,0,0,1,85.73,428.21Z" fill="#fff"/><path d="M89.53,430.8a.534.534,0,0,1-.41-.03.543.543,0,0,1-.23-.72,7.772,7.772,0,0,1,2.56-2.96,3.544,3.544,0,0,1,3.69.06.544.544,0,0,1,.15.74.506.506,0,0,1-.72.13,2.525,2.525,0,0,0-2.6,0,6.842,6.842,0,0,0-2.14,2.52A.539.539,0,0,1,89.53,430.8Z" fill="#fff"/><path d="M66.7,302.99l-6.18,51.12A170.893,170.893,0,0,0,49.7,371.25c-4.43,8.08-16.25,29.03-16.25,29.03l7.15,5.45,39.14-40.56,10.42-62.69Z" fill="#182335"/><path d="M42.36,405.6a7.881,7.881,0,0,1-3.24,3.63l-8.3-7.01a12.632,12.632,0,0,1,2.83-3.84Z" fill="#182335"/><path d="M35.09,305.1s11.02,27.1,25.35,48.23c0,0,2.14,20.57,5.8,31.51,1.6,4.79,4.7,27.51,4.7,27.51l10.87-.49L79,348.71,67.5,302.97Z" fill="#0c375a"/><path d="M82.82,412.48a9.133,9.133,0,0,1,0,5.64l-12.58.35a14.632,14.632,0,0,1-.52-5.5Z" fill="#0c375a"/><path d="M85.71,207.49c1.64,2.04,4.92,22.87,5.44,44.02.01.49.02.97.04,1.46.05,2.24.1,4.49.15,6.73q.075,3.33.12,6.63c.06,3.6.11,7.14.15,10.55.01.39.01.77.01,1.16.04,3.33.07,6.51.1,9.49,0,.39.01.78.01,1.16.03,4.47.06,8.43.06,11.61h0v1.28c0,2.22-.01,3.98-.02,5.17a109.97,109.97,0,0,1-15.79,3.07c-.14.02-.28.03-.42.05-.24.03-.47.06-.7.08-.06.01-.11.01-.18.02-.91.1-1.82.19-2.74.26a105.986,105.986,0,0,1-13.57.24l-1.19-.06c-.35-.02-.71-.04-1.07-.07l-.48-.03c-.3-.02-.6-.05-.9-.07a110.312,110.312,0,0,1-19.94-3.5c-.03-2.62-.07-7.95-.08-14.83v-1.15c-.01-7.59.02-16.9.11-26.49l.03-2.28c.01-.88.02-1.76.03-2.65,0-.15,0-.3.01-.45.01-.21.01-.41.01-.62,0-.42.01-.84.02-1.25.01-.61.02-1.21.03-1.82.01-.46.01-.92.02-1.38.01-.91.03-1.83.04-2.73.32-19.04.96-36.53,2.19-40.98a3.191,3.191,0,0,1,.35-.89,5.9,5.9,0,0,1,.47-.61,9.845,9.845,0,0,1,.79-.8,56.49,56.49,0,0,1,9.16-6.12c.42-.24.84-.48,1.25-.72.06-.03,9.74-3.3,9.81-3.34l10.13.71C69.15,198.37,83.31,204.49,85.71,207.49Z" fill="#ffb028"/><path d="M44.85,234.92a.53.53,0,0,0-.95-.32,52.234,52.234,0,0,0-7.98,15.82c-.37,1.19-.69,2.34-.97,3.43-.01.46-.01.92-.02,1.38-.01.6-.02,1.21-.03,1.82-.01.41-.01.83-.02,1.25,0,.21-.01.42-.01.62,0,.15,0,.3-.01.45a64.169,64.169,0,0,1,2.06-8.66,51.185,51.185,0,0,1,7.8-15.47.429.429,0,0,0,.13-.32Z" fill="#f88800"/><path d="M46.92,290.17h0c10.94-.05,20.27-5.02,26.18-9.19a59.11,59.11,0,0,0,10.29-9.12.525.525,0,0,0-.8-.68,59.44,59.44,0,0,1-10.12,8.95c-5.78,4.07-14.9,8.93-25.55,8.98a.53.53,0,0,0,0,1.06Z" fill="#f88800"/><path d="M58.31,293.88c9.49,0,18.95-5.41,19.38-5.66a.527.527,0,0,0-.53-.91c-.11.06-11.25,6.42-21.12,5.4a.528.528,0,1,0-.11,1.05C56.73,293.84,57.52,293.88,58.31,293.88Z" fill="#f88800"/><path d="M55.59,215c9.14-2.53,16.82-10.27,17.17-10.63a.523.523,0,0,0-.75-.73c-.09.09-9.12,9.19-18.91,10.85a.528.528,0,1,0,.18,1.04C54.06,215.39,54.83,215.21,55.59,215Z" fill="#f88800"/><path d="M47.94,172.32c0,9.25,5.69,15.62,14.94,15.62s15.69-6.85,15.69-16.1-5.48-16.25-14.72-16.25C52.76,155.59,47.94,163.07,47.94,172.32Z" fill="#2e3062"/><path d="M48.15,174.77s-3.23-4.89-1.52-8.65c1.77-3.9.87-3.04,1.31-5.97s2.57-4.13,5.13-4.56.8-3.36,4.34-4.42,6.38,2.64,8.65.98,7.87-2.47,9.44,0,2.97,2.45,4.64,2.37c2.02-.1,4.72,3.08,2.89,6.01s-4.89,1.76-4.47,3.78,3.02,5.57-.46,10.08C77.05,175.76,48.15,174.77,48.15,174.77Z" fill="#001030"/><path d="M50.02,176.3s-2.57-3.43-4.48-.59.79,11.2,5.47,9.16Z" fill="#fb876b"/><path d="M49.98,182.28a.393.393,0,0,1-.38-.29,6.1,6.1,0,0,0-3.43-3.64.4.4,0,1,1,.28-.74,6.811,6.811,0,0,1,3.91,4.17.4.4,0,0,1-.27.49C50.06,182.27,50.02,182.28,49.98,182.28Z" fill="#d45c48"/><path d="M47.28,180.98a.394.394,0,0,1-.21-.06.4.4,0,0,1-.12-.55,3.642,3.642,0,0,1,1.48-1.2.394.394,0,1,1,.32.72,2.808,2.808,0,0,0-1.14.9A.386.386,0,0,1,47.28,180.98Z" fill="#d45c48"/><path d="M76.49,176.3s2.57-3.43,4.48-.59-.79,11.2-5.47,9.16Z" fill="#fb876b"/><path d="M76.52,182.28a.393.393,0,0,0,.38-.29,6.1,6.1,0,0,1,3.43-3.64.4.4,0,1,0-.28-.74,6.811,6.811,0,0,0-3.91,4.17.4.4,0,0,0,.27.49C76.45,182.27,76.49,182.28,76.52,182.28Z" fill="#d45c48"/><path d="M79.23,180.98a.394.394,0,0,0,.21-.06.4.4,0,0,0,.12-.55,3.642,3.642,0,0,0-1.48-1.2.394.394,0,0,0-.32.72,2.808,2.808,0,0,1,1.14.9A.386.386,0,0,0,79.23,180.98Z" fill="#d45c48"/><path d="M69.58,191.96v8.8a6.094,6.094,0,0,1-4.13,2.38c-3.86.46-8.04-3.62-8.04-3.62v-6.97Z" fill="#fba691"/><path d="M69.58,191.96v3.69c-2.25,2.5-6.25,3.12-12.17,2.25v-5.36Z" fill="#fb876b"/><path d="M48.65,176.14c.03.48.07.97.12,1.46.12,1.24.29,2.51.52,3.78.01.05.01.09.02.13,1.12,6.14,3.63,12.16,9.04,14.1,12.26,4.38,16.64-6.13,18.39-12.26.19-.68.37-1.44.52-2.25.01-.03.01-.07.02-.1.17-.91.32-1.87.44-2.87.09-.74.17-1.49.24-2.24.18-1.83.29-3.67.37-5.3a8.643,8.643,0,0,0-5.54-8.49c-5.03-1.93-12.66-3.46-19.9.64a8.689,8.689,0,0,0-4.41,7.39C48.47,171.82,48.49,173.91,48.65,176.14Z" fill="#fba691"/><path d="M48.65,176.14c.03.48.07.97.12,1.46.12,1.24.29,2.51.52,3.78.01.05.01.09.02.13,1.12,6.14,3.63,12.16,9.04,14.1,12.26,4.38,16.64-6.13,18.39-12.26.19-.68.37-1.44.52-2.25.01-.03.01-.07.02-.1.17-.91.32-1.87.44-2.87.09-.74.17-1.49.24-2.24l-1.84.48c-.52,2.78-1.31,6.82-2.34,8.7-1.61-3.92-10.55-.68-10.55-.68s-7.97-2.83-10.67-.02a74.729,74.729,0,0,1-2.42-8ZM63,185.84c6.43-.88,8.03.76,8.33,2.67a11.045,11.045,0,0,1-5.48,3.29,12.709,12.709,0,0,1-9.94-2.11C55.58,188.2,55.21,183.88,63,185.84Z" fill="#001030"/><path d="M59.09,176.79c0,.89-.46,1.61-1.02,1.61s-1.02-.72-1.02-1.61.46-1.61,1.02-1.61S59.09,175.9,59.09,176.79Z" fill="#2e3062"/><path d="M70.95,176.79c0,.89-.46,1.61-1.02,1.61s-1.02-.72-1.02-1.61.46-1.61,1.02-1.61S70.95,175.9,70.95,176.79Z" fill="#2e3062"/><path d="M72.82,171.27s-3.23-1.27-5.71-.2l.25,1.38s3.64-.31,5.48.44A2.435,2.435,0,0,0,72.82,171.27Z" fill="#2e3062"/><path d="M54.03,171.27s3.23-1.27,5.71-.2l-.25,1.38s-3.64-.31-5.48.44A2.375,2.375,0,0,1,54.03,171.27Z" fill="#2e3062"/><path d="M63.66,183.76a4.214,4.214,0,0,1-1.46-.13.394.394,0,1,1,.21-.76,2.406,2.406,0,0,0,1.59-.04.432.432,0,0,0,.15-.39c-.03-1.39-.96-5.93-.97-5.98a.4.4,0,0,1,.78-.16,58.9,58.9,0,0,1,.99,6.12,1.225,1.225,0,0,1-.45,1.03A1.825,1.825,0,0,1,63.66,183.76Z" fill="#fb876b"/><path d="M58.25,186.13c.32,1.63,1.4,4.61,5.01,4.61,3.63,0,4.64-2.73,4.99-4.61Z" fill="#fff"/><path d="M77.93,176.37H76.14a12.935,12.935,0,0,0-1-5.42c-1.22-3.28,1.38-4.73-.73-6.38s-7.35-.94-11-1.06c-3.67-.12-9.56-.07-11,.27s-.65,2.71-.12,4.56-1.76,3.88-2.14,5.79a8.3,8.3,0,0,0,0,2.24H48.66c-.18-2.32-.2-4.49-.17-6.24a8.689,8.689,0,0,1,4.41-7.39c7.24-4.1,14.87-2.57,19.9-.64a8.652,8.652,0,0,1,5.54,8.49C78.26,172.36,78.13,174.38,77.93,176.37Z" fill="#001030"/><path d="M65.2,177.58a4.71,4.71,0,1,1,4.71,4.71A4.712,4.712,0,0,1,65.2,177.58Zm.74,0a3.97,3.97,0,1,0,3.97-3.97A3.973,3.973,0,0,0,65.94,177.58Z" fill="#fff"/><path d="M52.33,177.58a4.71,4.71,0,1,1,4.71,4.71A4.712,4.712,0,0,1,52.33,177.58Zm.74,0a3.97,3.97,0,1,0,3.97-3.97A3.973,3.973,0,0,0,53.07,177.58Z" fill="#fff"/><path d="M73.83,176.07a.381.381,0,0,0,.26-.11h0a5.774,5.774,0,0,1,4.97-1.44.365.365,0,0,0,.17-.71,6.411,6.411,0,0,0-5.65,1.64.374.374,0,0,0,0,.52A.355.355,0,0,0,73.83,176.07Z" fill="#fff"/><path d="M53.04,176.07a.37.37,0,0,0,.2-.68c-.14-.09-3.47-2.24-6.31-1.77a.357.357,0,0,0-.3.42.364.364,0,0,0,.42.3c2.55-.42,5.75,1.64,5.79,1.66A.306.306,0,0,0,53.04,176.07Z" fill="#fff"/><path d="M61.49,176.53a2.98,2.98,0,0,1,2.03-1.19,2.7,2.7,0,0,1,1.93,1.19l.61-.4a3.409,3.409,0,0,0-2.55-1.52,3.6,3.6,0,0,0-2.62,1.5Z" fill="#fff"/><path d="M107.93,258.12l10.49,8.04a3.015,3.015,0,0,0,4.24-.56l20.38-26.57,8.43-10.99-15.29-11.73-4.99,6.51-23.81,31.05A3.018,3.018,0,0,0,107.93,258.12Z" fill="#30b9ef"/><path d="M131.18,222.83a41.65,41.65,0,0,0,11.85,16.2l8.43-10.99-15.29-11.73Z" fill="#0c375a"/><path d="M75.95,308.5l2.1,1.61a4.653,4.653,0,0,0,6.53-.86l33.34-43.46-9.49-7.28L75.09,301.97A4.664,4.664,0,0,0,75.95,308.5Z" fill="#0c375a"/><path d="M130.7,150.26a54.184,54.184,0,1,0,76.02-9.64A54.188,54.188,0,0,0,130.7,150.26Zm6.57,5.09a45.877,45.877,0,1,1,8.15,64.36A45.945,45.945,0,0,1,137.27,155.35Z" fill="#0c375a"/><path d="M129.21,171.61a45.938,45.938,0,0,0,32.48,56.17,45.73,45.73,0,0,0,22.25.35,46.3,46.3,0,0,0,14.96-6.47,45.761,45.761,0,0,0,16.6-19.64,45.242,45.242,0,0,0,2.36-6.72,45.934,45.934,0,0,0-32.48-56.17,45.752,45.752,0,0,0-32.31,3.29A46.1,46.1,0,0,0,140,152.16a45.563,45.563,0,0,0-8.71,13.39A44.577,44.577,0,0,0,129.21,171.61Z" fill="#fff" opacity="0.4"/><path d="M153.07,142.42l45.82,79.24a45.761,45.761,0,0,0,16.6-19.64l-37.12-64.2A45.747,45.747,0,0,0,153.07,142.42Z" fill="#fff" opacity="0.4"/><path d="M131.29,165.54,167.98,229a45.269,45.269,0,0,0,15.95-.87L140,152.16A45.384,45.384,0,0,0,131.29,165.54Z" fill="#fff" opacity="0.4"/><path d="M85.64,280.98h1.85a4.022,4.022,0,0,0,3.64-2.45,24.1,24.1,0,0,1,1.08-2.25c.86-1.15,3.22-3.08,4.1-3.14s.72,1.58.1,2.3a14.521,14.521,0,0,0-2.13,2.65c-.53,1.02,4.32,3.08,6.28,3.56s5.42-.58,5.75,1.05-2.25,1.87-2.25,1.87.76,1.47-1.39,2.69a2,2,0,0,1-1.01,2.21,2.214,2.214,0,0,1-1.46,2.3c-1.61.48-6.65,1.94-16.53-4.05Z" fill="#fba691"/><path d="M51.74,239.04c3.73,14.09,7.39,20.33,7.39,20.33a52.05,52.05,0,0,0,12.78,12.44,167.969,167.969,0,0,0,15.57,9.17c-1.66,2.15-2.83,6.41-2.19,7.68-19.95,0-37.41-18.9-37.41-18.9-13.96-24.3-14.87-44.09-14.64-51.29a13.714,13.714,0,0,1,2.22-7.14,7.11,7.11,0,0,1,2.68-2.61,14.542,14.542,0,0,1,8.07,9.25C48.3,224.98,51.74,239.04,51.74,239.04Z" fill="#fba691"/><path d="M142.12,241.39s-4.44-1.57-6.48-.72,3.61,3.91,3.61,3.91-6.85-3.65-8.04-2.18,5.37,5.2,5.37,5.2-5.02-1.76-6.04-.73,3.66,3.96,3.66,3.96-4.12-.99-4.98-.29,2.79,3.63,5.11,4.41,2.69-2.49,2.69-2.49,2.18-1.92,1.89-3.25c0,0,2.26-1.53,2.42-3.08C141.34,246.13,144.54,243.32,142.12,241.39Z" fill="#fba691"/><path d="M257.66,434.32c0,4.49-25.1,8.13-56.06,8.13s-56.06-3.64-56.06-8.13,25.1-8.13,56.06-8.13S257.66,429.84,257.66,434.32Z" fill="#e8e8f9"/><path d="M159.82,417.61a30.16,30.16,0,1,1,30.16-30.16A30.195,30.195,0,0,1,159.82,417.61Zm0-48.31a18.15,18.15,0,1,0,18.15,18.15A18.168,18.168,0,0,0,159.82,369.3Z" fill="#1797e5"/><path d="M243.38,434.02V338.73c0-11.29-83.56-11.29-83.56,0v95.29C159.82,441.32,243.38,441.32,243.38,434.02Z" fill="#30b9ef"/><path d="M239.18,337.53c0,2.7-16.82,4.89-37.58,4.89s-37.58-2.19-37.58-4.89,16.82-4.89,37.58-4.89S239.18,334.83,239.18,337.53Z" fill="#2e3062"/><path d="M25.12,204.68H9.53a6.542,6.542,0,0,1-6.54-6.54V182.55a6.542,6.542,0,0,1,6.54-6.54H25.12a6.542,6.542,0,0,1,6.54,6.54v15.59A6.542,6.542,0,0,1,25.12,204.68Z" fill="#1797e5"/><path d="M15.72,191.86a6.171,6.171,0,1,1,8.72-.35A6.176,6.176,0,0,1,15.72,191.86Zm6.99-7.57a4.14,4.14,0,1,0,.23,5.85A4.15,4.15,0,0,0,22.71,184.29Z" fill="#fff"/><path d="M8.9,199.26a1.024,1.024,0,0,1-.06-1.44l6.82-7.39a1.019,1.019,0,0,1,1.5,1.38l-6.82,7.39A1.024,1.024,0,0,1,8.9,199.26Z" fill="#fff"/><path d="M514.39,263.35H498.8a6.543,6.543,0,0,1-6.54-6.54V241.22a6.542,6.542,0,0,1,6.54-6.54h15.59a6.542,6.542,0,0,1,6.54,6.54v15.59A6.536,6.536,0,0,1,514.39,263.35Z" fill="#ffaa01"/><path d="M501.11,249.17v-5.49a.928.928,0,0,1,1.36-.82l5.36,2.8,5.15,2.69a.927.927,0,0,1,0,1.64l-5.15,2.69-5.36,2.8a.932.932,0,0,1-1.36-.82v-5.49Z" fill="#fff"/><path d="M422.95,79.97H306.92a11.8,11.8,0,0,1-11.8-11.8V61.48a11.8,11.8,0,0,1,11.8-11.8H422.95a11.8,11.8,0,0,1,11.8,11.8v6.69A11.809,11.809,0,0,1,422.95,79.97Z" fill="#ffaa01"/><path d="M419.81,55.83a9,9,0,1,0,9,9A9.014,9.014,0,0,0,419.81,55.83Zm.36,12.32V65h4.07a12.281,12.281,0,0,1-.48,3.15Zm2.55,3.59a9.821,9.821,0,0,0,1.56-2.87h2.74a8.217,8.217,0,0,1-5.39,4.02A8.5,8.5,0,0,0,422.72,71.74Zm.79-2.87a9.339,9.339,0,0,1-1.34,2.4,7.37,7.37,0,0,1-2,1.82V68.87Zm-3.34-8.47V56.56c.11,0,.21.01.32.02a11.211,11.211,0,0,1,2.82,3.82Zm3.93,0a11.872,11.872,0,0,0-1.21-2.21,11.993,11.993,0,0,0-1.14-1.4,8.3,8.3,0,0,1,5.04,3.61Zm-3.93,3.87V61.12h3.44a10.366,10.366,0,0,1,.62,3.15Zm4.79,0a10.953,10.953,0,0,0-.58-3.15h2.83a8.091,8.091,0,0,1,.86,3.15Zm3.12.73a8.253,8.253,0,0,1-.69,3.15h-2.87a12.414,12.414,0,0,0,.45-3.15Zm-12.89,3.15h-2.96a8.15,8.15,0,0,1-.69-3.15h3.2A12.412,12.412,0,0,0,415.19,68.15Zm1.2-7.75a11.166,11.166,0,0,1,1.01-1.78,10.4,10.4,0,0,1,1.83-2.04,1.77,1.77,0,0,1,.23-.01v3.84h-3.07Zm3.06.72v3.15h-3.98a10.366,10.366,0,0,1,.62-3.15h3.36Zm-6.62-.72a8.265,8.265,0,0,1,5.15-3.64,11.5,11.5,0,0,0-1.16,1.43,11.869,11.869,0,0,0-1.21,2.21Zm6.62,4.6v3.15h-3.5a12.147,12.147,0,0,1-.48-3.15Zm-7.9-.73a8.092,8.092,0,0,1,.86-3.15h2.91a10.951,10.951,0,0,0-.58,3.15Zm3.87,4.6a10.2,10.2,0,0,0,1.56,2.87,8.9,8.9,0,0,0,1.11,1.18,8.371,8.371,0,0,1-5.5-4.05Zm4.03,0v4.17a8.52,8.52,0,0,1-3.26-4.17Z" fill="#f88800"/><path d="M397.08,56.18a8.56,8.56,0,0,1,0,17.12H310.59a8.56,8.56,0,0,1,0-17.12h86.49m0-.89H310.59a9.44,9.44,0,1,0,0,18.88h86.49a9.44,9.44,0,0,0,0-18.88Z" fill="#f88800"/><g opacity="0.5"><ellipse cx="8.99" cy="9.67" rx="8.99" ry="9.67" transform="translate(445.12 37.46)" fill="#ccd3e6"/></g><path d="M497.75,369.05a8.289,8.289,0,1,1-11.11-3.74A8.293,8.293,0,0,1,497.75,369.05Z" fill="#d3e8ee"/><text transform="translate(169.325 395.178)" fill="#fff" font-size="15.56" font-family="GothamRounded-Bold, Gotham Rounded" font-weight="700"><tspan x="0" y="0">Vi</tspan><tspan y="0" font-family="GothamRounded-Medium, Gotham Rounded" font-weight="500">Tutors</tspan></text><path d="M90.13,233.79l2.44-.8,5.3-1.79-.72-1.82-.18-.43-1.71-4.27-.17-.43-3.22-8.06a17.99,17.99,0,0,0-3.13-5.63c-.62-.69-1.79-2.66-2.88-2.84C85.63,207.69,90.13,233.79,90.13,233.79Z" fill="#f88800"/><path d="M34.48,236.86l6.27-.64.46-.05,4.33-.44.53-.05,5.57-.57-.3-1.93-.08-.46-.71-4.54-.07-.46-1.34-8.57a17.907,17.907,0,0,0-1.8-6.18,8.321,8.321,0,0,0-9.82-3.78,6.128,6.128,0,0,0-2.12,1.2,3.7,3.7,0,0,0-.36.33,9.76,9.76,0,0,0-2.3,4.56,3.434,3.434,0,0,0-.09.44c-.79,3.65-.52,8.23.07,12.38.02.16.04.32.07.48.3,1.97.66,3.83,1.02,5.43.05.25.11.49.17.73C34.14,235.53,34.31,236.24,34.48,236.86Z" fill="#f88800"/><path d="M488.22,440.75c0,3.66-23.84,6.63-53.24,6.63s-53.24-2.97-53.24-6.63,23.84-6.63,53.24-6.63S488.22,437.09,488.22,440.75Z" fill="#d3e8ee"/><path d="M426.99,325.61s-11.07,2.45-9.43-5.27,1.52-10.57-2.98-14.09S405.55,301,409,295.44s-3.09-9.88-6.47-12.87.44-5.25,1.33-10.91-5.19-4.81-5.67-11.93,6.76-15.45.54-25.26c0,0,8.36,4.34,11.11,11.95s.53,13.5,5.47,16.39,8.03,7.9,6.35,13.04.71,7.86,4.75,11.61,2.97,5.24,2.47,9.82.51,3.5,5.14,9.76S438.77,323.55,426.99,325.61Z" fill="#007d55"/><path d="M428.56,325.26l-.06-.12-22.16-67.25a.552.552,0,0,1,.35-.7h.01a.558.558,0,0,1,.69.35l22.16,67.25a.453.453,0,0,1,.03.16Z" fill="#00333c"/><path d="M446.97,325.47s11.01,2.44,9.38-5.24-1.52-10.52,2.96-14.01,8.98-5.22,5.55-10.75,3.08-9.83,6.44-12.81-.43-5.22-1.32-10.85,5.16-4.78,5.64-11.87-6.72-15.37-.53-25.13c0,0-8.32,4.31-11.05,11.89s-.53,13.43-5.44,16.3-7.99,7.86-6.32,12.97-.7,7.82-4.73,11.55-2.95,5.21-2.45,9.77-.5,3.48-5.12,9.71S435.25,323.42,446.97,325.47Z" fill="#007d55"/><path d="M444.38,324.83a.415.415,0,0,1,.03-.16l22.04-66.89a.547.547,0,0,1,.68-.35h.01a.549.549,0,0,1,.35.69l-22.04,66.89a.338.338,0,0,1-.06.12Z" fill="#00333c"/><path d="M434.74,324.07s-12.67-1.05-8.35-8.78,5.14-10.82,1.49-16.07-7.93-8.62-2.39-13.43-.03-11.61-2.66-15.94,2.21-5.48,5.05-11.24-3.96-6.87-2.11-14.66,12.37-14.31,8.96-26.88c0,0,7.51,7.42,7.93,16.49s-3.92,14.63.41,19.37,5.98,11.13,2.47,16.08-1.85,8.66,1.24,14.01,1.44,6.59-.62,11.33-.62,3.92,2.27,12.16S448.04,325.78,434.74,324.07Z" fill="#00b570"/><path d="M436.54,324.22a.68.68,0,0,1-.02-.15l-1.4-79.38a.623.623,0,0,1,.61-.63h.01a.621.621,0,0,1,.62.61l1.4,79.38a1.228,1.228,0,0,1-.02.19Z" fill="#005b5c"/><path d="M471.63,321.38l-.92,2.43-.58,1.54-1.66,4.42-.58,1.54-1.71,4.54-.58,1.54-7.33,19.46H418.23l-7.33-19.46-.58-1.54-1.71-4.54-.58-1.54-1.66-4.42-.58-1.54-.92-2.43a2.548,2.548,0,0,1,2.39-3.45h61.99A2.553,2.553,0,0,1,471.63,321.38Z" fill="#ffbf63"/><path d="M470.71,323.82l-.58,1.54H406.37l-.58-1.54Z" fill="#ff9024"/><path d="M468.47,329.78l-.58,1.54H408.61l-.58-1.54Z" fill="#ff9024"/><path d="M466.18,335.86l-.58,1.54H410.9l-.58-1.54Z" fill="#ff9024"/><path d="M464.44,345.37H411.36l-.58-4.33h54.24Z" fill="#00312d"/><path d="M470.71,418.95h-65.2l-.71-4.33h66.62Z" fill="#00312d"/><path d="M476.42,441.01l-15.47-95.64h-4.04l15.9,95.64Z" fill="#00312d"/><path d="M403.15,441.01l15.9-95.64H415l-15.47,95.64Z" fill="#00312d"/></g></svg>