<svg xmlns="http://www.w3.org/2000/svg" xmlns:xlink="http://www.w3.org/1999/xlink" width="538.365" height="436.328" viewBox="0 0 538.365 436.328"><defs><linearGradient id="a" x1="0.513" y1="0.353" x2="0.391" y2="1.709" gradientUnits="objectBoundingBox"><stop offset="0" stop-color="#fff"/><stop offset="0.168" stop-color="#eef9fd"/><stop offset="0.487" stop-color="#d4f0fa"/><stop offset="0.775" stop-color="#c5ebf9"/><stop offset="1" stop-color="#bfe9f8"/></linearGradient><linearGradient id="b" x1="0.475" y1="0.78" x2="0.352" y2="2.136" xlink:href="#a"/></defs><g transform="translate(0.008 0.001)"><g opacity="0.5"><ellipse cx="8.82" cy="9.49" rx="8.82" ry="9.49" transform="translate(15.41 86.74)" fill="#ccd3e6"/></g><path d="M375.05,362.53a11.6,11.6,0,1,1-15.55-5.24A11.6,11.6,0,0,1,375.05,362.53Z" fill="#d3e8ee"/><path d="M524.31,410.48c0,6.92-117.37,12.54-262.16,12.54S0,417.4,0,410.48s117.37-12.54,262.15-12.54S524.31,403.55,524.31,410.48Z" fill="#d3e8ee"/><path d="M239.37,79.63C221.48,14.72,140.84-6.19,94.63,42.32c-.66.7-1.33,1.4-1.99,2.13C26.39,116.47,57.69,293.94,195.95,338.93s282.08-37.16,290.16-110.59-55.71-96.5-154.7-75.97C275.48,163.96,250.51,120.04,239.37,79.63Z" fill="#d3e8ee"/><path d="M397.74,331.72c-16.3,9.25-15.42,26.4,2.02,32.34,5.76,1.96,13.19,2.62,22.75.77,36.42-7.02,49-28.94,27.96-43.53C437.48,312.3,413.9,322.56,397.74,331.72Z" fill="#d3e8ee"/><path d="M453.17,300.59c-5.25,7.41-1.17,16.22,7.85,16.55a17.65,17.65,0,0,0,10.27-3.21c14.67-9.44,15.54-22.87,3.06-27.14C466.64,284.16,458.37,293.25,453.17,300.59Z" fill="#d3e8ee"/><path d="M74.76,359.49l-.25-7.55-7.07.23a16.942,16.942,0,0,0-2.11-5.08l4.71-5.03-5.51-5.16-4.51,4.82a16.737,16.737,0,0,0-6.33-2.42l-.23-7.07-7.55.25.24,7.29a16.7,16.7,0,0,0-4.19,1.87l-5.03-4.71-5.16,5.51,4.82,4.51a16.737,16.737,0,0,0-2.42,6.33l-6.18.2.25,7.55,6.4-.21a16.7,16.7,0,0,0,2.59,5.27l-4.51,4.82,5.51,5.16,4.71-5.03a16.9,16.9,0,0,0,6.1,1.88l.23,7.11,7.55-.25-.25-7.71a16.645,16.645,0,0,0,4.39-2.31l4.82,4.51,5.16-5.51-5.03-4.71a16.955,16.955,0,0,0,1.59-4.31Zm-18.79,1.29a6.919,6.919,0,1,1-.32-9.78A6.921,6.921,0,0,1,55.97,360.78Z" fill="#d3e8ee"/><path d="M165.97,376.29l-.14-4.12-3.86.13a9.214,9.214,0,0,0-1.16-2.77l2.57-2.75-3.01-2.82-2.46,2.63a9.266,9.266,0,0,0-3.46-1.32l-.13-3.86-4.12.14.13,3.98a9.015,9.015,0,0,0-2.29,1.02l-2.75-2.57-2.82,3.01,2.63,2.46a9.266,9.266,0,0,0-1.32,3.46l-3.38.09.14,4.12,3.5-.12a9.188,9.188,0,0,0,1.41,2.88l-2.46,2.63,3.01,2.82,2.57-2.75a9.279,9.279,0,0,0,3.33,1.03l.13,3.89,4.12-.14-.14-4.21a9.5,9.5,0,0,0,2.4-1.26l2.63,2.46,2.82-3.01-2.75-2.57a9.187,9.187,0,0,0,.87-2.36ZM155.7,377a3.785,3.785,0,1,1-.18-5.35A3.8,3.8,0,0,1,155.7,377Z" fill="#d3e8ee"/><path d="M524.64,110.43c-14.43,9.19-26.46-1.92-34.92,8.36s-21.39,12.44-28.48,3.06-11.78-16.67-24.41-10.11-29.6.61-27.76-11.62c.46-3.05.96-6.34,1.46-9.57.14-.88.27-1.76.4-2.63l.09-.6a25.8,25.8,0,0,1,26.54-21.99c5.32.25,10.31,2.13,13.5,7.11,10,15.59,16.87-2.11,29.82-.88,14.92,1.41,16.36,15.71,27.53,15.57C523.95,86.95,539.06,101.24,524.64,110.43Z" fill="#007d55"/><path d="M503.98,101.89,410.53,90.55c.14-.88.27-1.76.4-2.63L504.3,99.25a1.33,1.33,0,1,1-.32,2.64Z" fill="#04593a"/><path d="M85.93,87.38l-2.71.05-1.44.03-4.07.08S36.34,26.02,58.63,3.82c6.86-6.83,19.84-2.28,18.8,27.31C76.46,58.56,85.93,87.38,85.93,87.38Z" fill="#007d55"/><path d="M83.22,87.44l-1.44.03C74.3,72.41,70,56.01,67.66,44.46a199.574,199.574,0,0,1-3.47-23.85.647.647,0,1,1,1.29-.09,200.575,200.575,0,0,0,3.46,23.7C71.29,55.83,75.63,72.36,83.22,87.44Z" fill="#04593a"/><path d="M99.13,90.68l-3.27,2.18-1.73,1.16-4.91,3.27S-9.2,54.48.69,10.02C3.74-3.66,23.13-8.23,44.92,28.68,65.12,62.9,99.13,90.68,99.13,90.68Z" fill="#00b570"/><path d="M95.87,92.86l-1.73,1.16C73.28,81.48,55.25,64.82,43.39,52.55a292.719,292.719,0,0,1-22.83-26.4.93.93,0,0,1,.2-1.31.943.943,0,0,1,1.32.2A290.2,290.2,0,0,0,44.77,51.27C56.68,63.6,74.87,80.38,95.87,92.86Z" fill="#007d55"/><path d="M531.42,21.2c-3.7,16.7-20.06,17.36-18.77,30.61s-6.33,23.92-17.97,22.31-20.12-3.45-24.41,10.12-20.49,21.37-27.84,11.42c-1.83-2.48-3.81-5.16-5.74-7.8-.53-.72-1.06-1.44-1.57-2.14-.12-.16-.24-.33-.36-.49a25.816,25.816,0,0,1,3.2-34.32c3.94-3.58,8.8-5.78,14.57-4.52,18.09,3.95,10.43-13.42,20.45-21.72,11.54-9.56,22.67-.47,30.48-8.47C514.33,5.09,535.12,4.5,531.42,21.2Z" fill="#00b570"/><path d="M510.78,29.78,436.7,87.87c-.53-.72-1.06-1.44-1.57-2.14L509.15,27.7a1.321,1.321,0,1,1,1.63,2.08Z" fill="#007d55"/><path d="M278.2,16.96v17.4a4.174,4.174,0,0,0,4.17,4.17h31.59l9.54,3.42a1.212,1.212,0,0,0,1.54-1.58l-3.61-9.32V16.96a4.174,4.174,0,0,0-4.17-4.17H282.37A4.18,4.18,0,0,0,278.2,16.96Z" fill="#0076fa"/><path d="M305.64,26.16a3.01,3.01,0,1,0,3.01-3.01A3.013,3.013,0,0,0,305.64,26.16Z" fill="#004ecb"/><path d="M296.11,26.16a3.01,3.01,0,1,0,3.01-3.01A3.013,3.013,0,0,0,296.11,26.16Z" fill="#004ecb"/><path d="M286.57,26.16a3.01,3.01,0,1,0,3.01-3.01A3.013,3.013,0,0,0,286.57,26.16Z" fill="#004ecb"/><ellipse cx="197.68" cy="13.97" rx="197.68" ry="13.97" transform="translate(73.53 381.91)" fill="#edf8fd"/><rect width="382.36" height="283.23" transform="translate(73.53 69.22)" fill="url(#a)"/><rect width="382.36" height="283.23" transform="translate(73.53 69.22)" fill="url(#b)"/><path d="M203.83,294.42H96.8a4.916,4.916,0,0,1-4.92-4.92V260a4.916,4.916,0,0,1,4.92-4.92H203.83a4.916,4.916,0,0,1,4.92,4.92v29.5A4.923,4.923,0,0,1,203.83,294.42Z" fill="#305c7a"/><g opacity="0.44"><path d="M191.29,269.07H133.31a1.046,1.046,0,0,1-1.04-1.04h0a1.046,1.046,0,0,1,1.04-1.04h57.98a1.046,1.046,0,0,1,1.04,1.04h0A1.039,1.039,0,0,1,191.29,269.07Z" fill="#fff"/><path d="M176.86,273.55H133.3a1.046,1.046,0,0,1-1.04-1.04h0a1.046,1.046,0,0,1,1.04-1.04h43.56a1.046,1.046,0,0,1,1.04,1.04h0A1.033,1.033,0,0,1,176.86,273.55Z" fill="#fff"/><path d="M168.91,282.5H133.3a1.046,1.046,0,0,1-1.04-1.04h0a1.046,1.046,0,0,1,1.04-1.04h35.61a1.046,1.046,0,0,1,1.04,1.04h0A1.039,1.039,0,0,1,168.91,282.5Z" fill="#fff"/><path d="M183.54,278.02H133.31a1.046,1.046,0,0,1-1.04-1.04h0a1.046,1.046,0,0,1,1.04-1.04h50.23a1.046,1.046,0,0,1,1.04,1.04h0A1.033,1.033,0,0,1,183.54,278.02Z" fill="#fff"/></g><circle cx="12.73" cy="12.73" r="12.73" transform="translate(93.31 274.737) rotate(-45)" fill="#fff" opacity="0.44"/><path d="M203.83,343.32H96.8a4.916,4.916,0,0,1-4.92-4.92V308.9a4.916,4.916,0,0,1,4.92-4.92H203.83a4.916,4.916,0,0,1,4.92,4.92v29.5A4.916,4.916,0,0,1,203.83,343.32Z" fill="#0c375a"/><g opacity="0.44"><path d="M191.29,320.21H133.31a1.046,1.046,0,0,1-1.04-1.04h0a1.046,1.046,0,0,1,1.04-1.04h57.98a1.046,1.046,0,0,1,1.04,1.04h0A1.039,1.039,0,0,1,191.29,320.21Z" fill="#fff"/><path d="M177.02,324.69H133.15a.881.881,0,0,1-.88-.88v-.31a.881.881,0,0,1,.88-.88h43.87a.881.881,0,0,1,.88.88v.31A.875.875,0,0,1,177.02,324.69Z" fill="#fff"/><path d="M183.54,329.16H133.31a1.046,1.046,0,0,1-1.04-1.04h0a1.046,1.046,0,0,1,1.04-1.04h50.23a1.046,1.046,0,0,1,1.04,1.04h0A1.033,1.033,0,0,1,183.54,329.16Z" fill="#fff"/></g><circle cx="12.73" cy="12.73" r="12.73" transform="translate(98.59 310.92)" fill="#fff" opacity="0.44"/><path d="M338.18,294.42H231.15a4.916,4.916,0,0,1-4.92-4.92V260a4.916,4.916,0,0,1,4.92-4.92H338.18A4.916,4.916,0,0,1,343.1,260v29.5A4.923,4.923,0,0,1,338.18,294.42Z" fill="#0c375a"/><g opacity="0.44"><path d="M325.64,269.07H267.66a1.046,1.046,0,0,1-1.04-1.04h0a1.046,1.046,0,0,1,1.04-1.04h57.98a1.046,1.046,0,0,1,1.04,1.04h0A1.039,1.039,0,0,1,325.64,269.07Z" fill="#fff"/><path d="M297.73,273.55H267.5a.881.881,0,0,1-.88-.88v-.31a.881.881,0,0,1,.88-.88h30.23a.881.881,0,0,1,.88.88v.31A.881.881,0,0,1,297.73,273.55Z" fill="#fff"/><path d="M311.72,282.5H267.65a1.046,1.046,0,0,1-1.04-1.04h0a1.046,1.046,0,0,1,1.04-1.04h44.07a1.046,1.046,0,0,1,1.04,1.04h0A1.039,1.039,0,0,1,311.72,282.5Z" fill="#fff"/><path d="M317.89,278.02H267.66a1.046,1.046,0,0,1-1.04-1.04h0a1.046,1.046,0,0,1,1.04-1.04h50.23a1.046,1.046,0,0,1,1.04,1.04h0A1.033,1.033,0,0,1,317.89,278.02Z" fill="#fff"/></g><circle cx="12.73" cy="12.73" r="12.73" transform="translate(230.382 284.224) rotate(-76.792)" fill="#fff" opacity="0.44"/><path d="M338.18,343.16H231.15a4.916,4.916,0,0,1-4.92-4.92v-29.5a4.916,4.916,0,0,1,4.92-4.92H338.18a4.916,4.916,0,0,1,4.92,4.92v29.5A4.916,4.916,0,0,1,338.18,343.16Z" fill="#305c7a"/><g opacity="0.44"><path d="M305.15,317.82H267.49a.871.871,0,0,1-.87-.87v-.34a.871.871,0,0,1,.87-.87h37.66a.871.871,0,0,1,.87.87v.34A.871.871,0,0,1,305.15,317.82Z" fill="#fff"/><path d="M311.22,322.29H267.66a1.046,1.046,0,0,1-1.04-1.04h0a1.046,1.046,0,0,1,1.04-1.04h43.56a1.046,1.046,0,0,1,1.04,1.04h0A1.039,1.039,0,0,1,311.22,322.29Z" fill="#fff"/><path d="M303.26,331.24H267.65a1.046,1.046,0,0,1-1.04-1.04h0a1.046,1.046,0,0,1,1.04-1.04h35.61a1.046,1.046,0,0,1,1.04,1.04h0A1.033,1.033,0,0,1,303.26,331.24Z" fill="#fff"/><path d="M317.89,326.77H267.66a1.046,1.046,0,0,1-1.04-1.04h0a1.046,1.046,0,0,1,1.04-1.04h50.23a1.046,1.046,0,0,1,1.04,1.04h0A1.039,1.039,0,0,1,317.89,326.77Z" fill="#fff"/></g><circle cx="12.73" cy="12.73" r="12.73" transform="translate(230.39 332.971) rotate(-76.792)" fill="#fff" opacity="0.44"/><rect width="346.02" height="163.99" transform="translate(91.88 79.61)" fill="#d3e8ee"/><rect width="30.43" height="163.99" transform="translate(91.88 79.61)" fill="#a9e0ed"/><rect width="30.43" height="163.99" transform="translate(163.35 79.61)" fill="#bfe9f8"/><rect width="30.43" height="163.99" transform="translate(234.83 79.61)" fill="#a9e0ed"/><rect width="30.43" height="163.99" transform="translate(306.3 79.61)" fill="#a9e0ed"/><rect width="30.43" height="163.99" transform="translate(377.78 79.61)" fill="#a9e0ed"/><rect width="204.45" height="136.11" transform="translate(219.43 94.66)" fill="#0c375a"/><rect width="194.14" height="125.64" transform="translate(224.59 99.9)" fill="#fff"/><text transform="translate(229.921 122.923)" fill="#493bb5" font-size="15.52" font-family="GothamRounded-Bold, Gotham Rounded" font-weight="700"><tspan x="0" y="0">A B C D E F</tspan></text><text transform="translate(296.248 177.517)" fill="#493bb5" font-size="18.28" font-family="GothamRounded-Medium, Gotham Rounded" font-weight="500"><tspan x="0" y="0">Today&apos;s</tspan></text><text transform="translate(295.208 196.647)" fill="#493bb5" font-size="18.28" font-family="GothamRounded-Medium, Gotham Rounded" font-weight="500"><tspan x="0" y="0">Courses</tspan></text><path d="M418.73,99.9V225.54H224.59V214.3c48.31-1.8,155.5-16.96,179.82-114.4Z" fill="#3c8faf" opacity="0.18"/><path d="M455.89,69.22H73.53V59.76a5.608,5.608,0,0,1,5.61-5.61H450.27a5.608,5.608,0,0,1,5.61,5.61v9.46Z" fill="#0c375a"/><path d="M440.71,66.09H128.35a3.973,3.973,0,0,1-3.97-3.97h0a3.973,3.973,0,0,1,3.97-3.97H440.71a3.973,3.973,0,0,1,3.97,3.97h0A3.961,3.961,0,0,1,440.71,66.09Z" fill="#fff"/><circle cx="3.21" cy="3.21" r="3.21" transform="translate(82.58 59.48)" fill="#493bb5"/><path d="M97.24,62.69a3.21,3.21,0,1,1-3.21-3.21A3.214,3.214,0,0,1,97.24,62.69Z" fill="#00b8f5"/><path d="M105.48,62.69a3.21,3.21,0,1,1-3.21-3.21A3.214,3.214,0,0,1,105.48,62.69Z" fill="#ff7960"/><path d="M192.03,94a19.341,19.341,0,0,0-.82-5.81,9.621,9.621,0,0,0-3.03-4.43,12.705,12.705,0,0,0-4.64-2.3,23.413,23.413,0,0,0-10.5-.24,29.09,29.09,0,0,0-9.92,3.9,31.361,31.361,0,0,0-13.31,17.14,37.654,37.654,0,0,0,.3,23.26c.31.92.66,1.82,1.03,2.72a.367.367,0,0,0,.64,0,3.174,3.174,0,0,1,.69-.92c.04.25.28.46.54.28a30.519,30.519,0,0,1,15.24-5.52,29.96,29.96,0,0,1,15.45,3.02,30.678,30.678,0,0,1,7.38,5.1.379.379,0,0,0,.64-.27q.135-14.55.27-29.11C192.01,98.54,192.07,96.26,192.03,94Z" fill="#4f3132"/><path d="M324.38,116.03l-10.67,5.41,1.17,1.92c7.62-2.83,8.36-1.62,8.05-.55a1.859,1.859,0,0,1-1.2,1.21l-12.22,4.15c-8.17,8.67-15.56,8.08-15.56,8.08l-14.03,22.01c-3.49-3.63-7-7.24-10.22-10.51,9.57-10.16,17.82-18.94,17.82-18.94l-.95-5.88a13.931,13.931,0,0,1,1.2-7.97,25.292,25.292,0,0,0,2.36-10.7.632.632,0,0,1,.9-.6c3.71,1.85,1.19,10.21,1.19,10.21l3.11,2.91,6.85-4.77c9.17-13.32,12.11-13.19,13.04-12.09a1.246,1.246,0,0,1,0,1.54l-8.63,11.48,1.84,1.85c8.48-10.55,11.19-10.71,12.06-9.79a1.155,1.155,0,0,1-.06,1.56l-9.95,10.58,1.55,2.24c10.65-6.8,12.77-5.99,13.06-4.82A1.33,1.33,0,0,1,324.38,116.03Z" fill="#ffaf89"/><path d="M290.32,155.36l-31.05,32.01a12.2,12.2,0,0,1-18.52,2.59l-10.89-9.77-1.65-1.49L196.5,150.22l7.01-21.13a1.918,1.918,0,0,1,3.13-.83l32.83,30.23,1.07.98v.01l8.7,8c3.35-3.46,14.69-15.48,24.44-25.86C276.48,144.48,287.27,152.19,290.32,155.36Z" fill="#c42b4b"/><path d="M217.66,171.47l-4.68,10.36-3.57,23.88a88.654,88.654,0,0,0,1.03,31.82l.74,3.41h-65L133.93,140.46a10.706,10.706,0,0,1,6.98-11.8c18.61-6.38,33.73-10,51.62-5.84a53.248,53.248,0,0,1,15.44,6.12l10.22,28.2A19.112,19.112,0,0,1,217.66,171.47Z" fill="#f44d7c"/><path d="M181.45,170.27a25.477,25.477,0,0,1-26.07,14.66c-.95-.12-1.32,1.37-.36,1.49a26.989,26.989,0,0,0,27.75-15.4C183.18,170.13,181.87,169.38,181.45,170.27Z" fill="#c42b4b"/><path d="M163.92,133.13h0a8.593,8.593,0,0,0,16.16-3.31l.09-.86a24.908,24.908,0,0,0,.73-8.85l-.29-3.12-.01-.53-.37-10.11-20.41-1.78.49,8.35c.09,1.52.2,3.09.37,4.62.02.36.07,2.08.11,4a9.112,9.112,0,0,0,.09,1.29A25.233,25.233,0,0,0,163.92,133.13Z" fill="#ffaf89"/><path d="M161.7,122.91a23.615,23.615,0,0,0,9.24-.88l.11-.03c5.78-1.75,9.48-7.54,9.26-13.71l-.07-1.95-20.41-1.78.49,8.35c.09,1.52.2,3.09.37,4.62.02.39.07,2.31.12,4.38Z" fill="#ffaf89" opacity="0.58"/><path d="M156.53,124.56l-.8-6.14a2.543,2.543,0,0,1,4.01-2.19h0c9.98,4.46,8.76,20.98,8.76,20.98S161.23,134.63,156.53,124.56Z" fill="#fff"/><path d="M182.28,126.11l.67-8.27c.21-2.53-1.57-4.13-3.02-2.73h0c-5.76,5.53-3.31,20.91-3.31,20.91S181.76,133.95,182.28,126.11Z" fill="#fff"/><path d="M201.2,68.65a6.589,6.589,0,0,0-3.78,1.32,53.465,53.465,0,0,0-12.07-22.22,17.744,17.744,0,0,0-7.61-5.7,12.579,12.579,0,0,0-4.48-1.15c-1.02-.04-2.03-.03-3.02.03-.99.03-1.99.12-3.01.25a12.458,12.458,0,0,0-4.36,1.56,17.7,17.7,0,0,0-7.08,6.38,54.018,54.018,0,0,0-10.05,23.25,6.549,6.549,0,0,0-3.89-.96c-3.93.54-4.94,7.01-3.64,11.82,1.65,6.1,6.28,7.82,10.55,8.85a44.808,44.808,0,0,0,8.32,11.05,23.636,23.636,0,0,0,12.77,7.56c.14.03.29.06.43.08.28.05.56.13.85.17a5.634,5.634,0,0,0,.58.03l.49.03c.38.01.75.02,1.13,0s.75-.06,1.13-.11c.16-.02.32-.04.49-.07a5.815,5.815,0,0,0,.58-.09c.28-.07.55-.17.83-.24l.42-.12a23.84,23.84,0,0,0,12.05-8.72,45.327,45.327,0,0,0,7.3-11.78c4.16-1.42,8.61-3.57,9.72-9.8C206.74,75.17,205.16,68.82,201.2,68.65Z" fill="#ffaf89"/><path d="M180.06,88.11a10.974,10.974,0,0,0-1.43-2.08,15.4,15.4,0,0,1-1.47-2.43,16.429,16.429,0,0,1-1.56-5.43.983.983,0,0,0-1.1-.77.913.913,0,0,0-.69,1.1,18.048,18.048,0,0,0,3.49,8.76c.74.99,1.8,2.04.8,3.17s-2.76.87-4.12.73c-1.18-.13-1.26,1.77-.08,1.89,1.77.19,3.67.29,5.12-.86A3.418,3.418,0,0,0,180.06,88.11Z" fill="#ffaf89" opacity="0.58"/><path d="M161.68,79.45c.27,1.74,1.43,3.07,2.58,2.95s1.87-1.61,1.6-3.36-1.43-3.07-2.58-2.96S161.4,77.7,161.68,79.45Z" fill="#4f3132"/><path d="M179.91,78.92c.27,1.74,1.43,3.07,2.58,2.95s1.87-1.61,1.6-3.36-1.43-3.07-2.58-2.96C180.36,75.68,179.64,77.18,179.91,78.92Z" fill="#4f3132"/><path d="M180.31,66.49a1.961,1.961,0,0,1,1.2-.16c2.56.3,4.48,2.52,4.89,5.49a3.131,3.131,0,0,0-.64-1.06c-.02-.02-.04-.02-.05-.04a2.719,2.719,0,0,0-.52-.5,5.766,5.766,0,0,0-2.46-.84,8.345,8.345,0,0,1-2.54-.66,1.1,1.1,0,0,1-.7-1.06A1.579,1.579,0,0,1,180.31,66.49Z" fill="#4f3132"/><path d="M164.5,66.12a2.117,2.117,0,0,0-1.18-.4c-2.56-.2-4.67,1.63-5.35,4.49a2.85,2.85,0,0,1,.73-.93l.06-.03a2.394,2.394,0,0,1,.56-.4,5.286,5.286,0,0,1,2.52-.35,7.882,7.882,0,0,0,2.58-.16.974.974,0,0,0,.79-.91A1.82,1.82,0,0,0,164.5,66.12Z" fill="#4f3132"/><path d="M165.56,94.36a11.379,11.379,0,0,0,10.68,2.32c1.05-.31,1.48,1.37.43,1.68a13.094,13.094,0,0,1-12.33-2.78C163.53,94.84,164.74,93.63,165.56,94.36Z" fill="#ffaf89" opacity="0.58"/><path d="M137.74,175.71l-2.48,11.67-13.95,65.81a15.881,15.881,0,0,1-11.83-4.51c-5.16-4.8-7.4-12.13-6.47-19.22,3.67-28.26,8.02-54.56,13.63-77.44.15-.61.32-1.2.5-1.82a32.536,32.536,0,0,1,11.7-16.6,33.859,33.859,0,0,1,11.29-5.61Z" fill="#c42b4b"/><path d="M151.44,237.55l-27.52,8.6L93.85,192.02l8.99.38,20.42.87,9.06.39Z" fill="#ff7960"/><path d="M145.73,213.97l-3.74-.61a1.19,1.19,0,0,0-1.18,1.8l.98,1.66-7.36,4a5.849,5.849,0,0,0-3.02,5.21l.13,11.74s-5.57,3.25-14.65-4.15c-5.49,4.29-6.52,10.27-3.8,17.68,0,0,10.57,7.91,28.46-5.57l11.58-8.22a5.97,5.97,0,0,0,2.49-5.01l-.14-6.32a6.484,6.484,0,0,0-1.44-3.95l-5.29-6.53A4.966,4.966,0,0,0,145.73,213.97Z" fill="#ffaf89"/><path d="M142.89,217.14c.84-.64,1.48.09,1.62.8.23,1.15-.55,2.3-1.22,3.14a23.042,23.042,0,0,1-5.74,4.71c-.89.58-.03,2.02.86,1.43,2.64-1.74,5.56-3.63,7.12-6.54a4.143,4.143,0,0,0-.01-4.44,2.5,2.5,0,0,0-3.83-.28c-.69.82.49,1.99,1.2,1.18Z" fill="#ffaf89" opacity="0.49"/><path d="M118.55,204.73c-4.87,2.39-11.25-.95-14.27-7.43a17.218,17.218,0,0,1-1.44-4.89l20.42.87C124,198.26,122.27,202.91,118.55,204.73Z" fill="#ff7960"/><path d="M144.69,151.68a146.507,146.507,0,0,1-8.97,32.35c-.37.9.94,1.65,1.31.74a146.916,146.916,0,0,0,9.11-32.72C146.3,151.08,144.85,150.71,144.69,151.68Z" fill="#fff"/><path d="M209.03,135.93c-.09-5.67-1.28-11.3-1.79-16.96-.86-9.56.23-19.16.68-28.74s.22-19.33-3.18-28.51a39.773,39.773,0,0,0-20.67-22.54c-3.65-1.66-8.15-2.79-11.98-1.43-.03.01-.06.03-.09.04-.03-.01-.06-.03-.09-.04-3.84-1.36-8.33-.23-11.98,1.43a39.743,39.743,0,0,0-20.67,22.54c-3.4,9.18-3.63,18.93-3.18,28.51s1.54,19.17.68,28.74c-.51,5.66-1.7,11.28-1.79,16.96s1.02,11.53,4.74,16.35c3.09,4,7.81,7.05,10.88,11.06s3.99,9.85-.33,13.02a16.253,16.253,0,0,0,10.85-11.74c1.21-5,.3-10.17-.61-15.21q3.915,2.775,7.83,5.54c-7.61-6.29-11.01-15.73-8.78-24.34q3.72,2.31,7.43,4.61a34.355,34.355,0,0,1-10.08-19.97c1.47.6,2.95,1.21,4.42,1.82-8.47-9.05-8.68-21.32-8.53-32.67.09-6.72.26-13.72,4.04-19.71a20.593,20.593,0,0,1,15.19-9.04,20.653,20.653,0,0,1,15.19,9.04c3.78,5.99,3.95,12.99,4.04,19.71.15,11.35-.06,23.62-8.53,32.67,1.47-.61,2.95-1.21,4.42-1.82a34.355,34.355,0,0,1-10.08,19.97q3.72-2.31,7.43-4.61c2.23,8.61-1.17,18.05-8.78,24.34q3.915-2.775,7.83-5.54c-.91,5.05-1.81,10.21-.6,15.21a16.25,16.25,0,0,0,10.85,11.74c-4.32-3.17-3.4-9.01-.33-13.02s7.78-7.06,10.88-11.06C208.01,147.46,209.12,141.6,209.03,135.93Z" fill="#4f3132"/><path d="M165.45,50.19a44.725,44.725,0,0,0-17.33,18.35c-4.33,8.87-4.86,19-3.81,28.66.64,5.9,1.83,11.71,3.02,17.52.1.49.85.28.75-.21-2.04-9.93-4.1-20.03-3.28-30.23a43.4,43.4,0,0,1,3.34-13.96,39.709,39.709,0,0,1,6.81-10.5,47.117,47.117,0,0,1,10.89-8.96A.388.388,0,0,0,165.45,50.19Z" fill="#4f3132"/><path d="M147.75,155.15c-2.97-2.85-6.42-5.33-8.23-9.15-3.9-8.19-.28-17.38,1.86-25.49,1.31-4.98,2.21-10.22,1.04-15.32-.11-.49-.86-.28-.75.21,2.13,9.31-2.68,18.23-4.17,27.24a24.555,24.555,0,0,0,.64,12.04,16.37,16.37,0,0,0,2.87,5.06,42.4,42.4,0,0,0,4.44,4.35c3.22,2.89,6.87,6.46,6.66,11.15-.02.5.76.5.78,0C153.07,161.23,150.5,157.79,147.75,155.15Z" fill="#4f3132"/><path d="M152.24,152.72a40.249,40.249,0,0,1-5.14-23.33,39.681,39.681,0,0,1,1.21-6.84.39.39,0,0,0-.75-.21,40.922,40.922,0,0,0,1.06,24.43,41.4,41.4,0,0,0,2.94,6.34A.392.392,0,0,0,152.24,152.72Z" fill="#4f3132"/><path d="M154.15,118.01a49.582,49.582,0,0,0-1.75-5.59c-.18-.46-.93-.26-.75.21a49.571,49.571,0,0,1,3.16,19.59,47.958,47.958,0,0,1-.59,5.73c-.08.49.67.7.75.21A50.115,50.115,0,0,0,154.15,118.01Z" fill="#4f3132"/><path d="M166.38,41.84a27.167,27.167,0,0,0-17.27,8.19c-5.09,5.06-8.21,11.71-9.85,18.64a64.224,64.224,0,0,0-1.59,12.5c-.02.5.76.5.78,0,.25-7.27,1.5-14.63,4.66-21.23a31.854,31.854,0,0,1,13.08-14.28,24.218,24.218,0,0,1,10.19-3.04C166.88,42.58,166.89,41.81,166.38,41.84Z" fill="#4f3132"/><path d="M151.6,99.47a72.5,72.5,0,0,1-.95-23.51c.06-.5-.72-.49-.78,0a73.173,73.173,0,0,0,.98,23.71C150.95,100.17,151.7,99.96,151.6,99.47Z" fill="#4f3132"/><path d="M197.02,83.81a72.019,72.019,0,0,0-2.17-12.71,47.154,47.154,0,0,0-4.35-11.05,21.029,21.029,0,0,0-8.29-8.56c-.44-.23-.84.44-.39.67,6.7,3.5,9.98,11.21,11.98,18.1a81.23,81.23,0,0,1,2.66,25.79c-.2,5.06-.71,10.09-1.33,15.11-.06.5.72.49.78,0C197.04,102.1,197.79,92.93,197.02,83.81Z" fill="#4f3132"/><path d="M193.61,58.89a52.13,52.13,0,0,0-3.77-6.67,29.379,29.379,0,0,0-4.47-5.41,12.781,12.781,0,0,0-6.65-3.41c-.49-.07-.7.68-.21.75,4.59.68,7.88,4.41,10.37,8.04a50.769,50.769,0,0,1,6.5,13.34,50.241,50.241,0,0,1,1.85,8.21c.07.49.82.28.75-.21A51.5,51.5,0,0,0,193.61,58.89Z" fill="#4f3132"/><path d="M203.77,73.82a45.7,45.7,0,0,0-8.74-22.98,35.525,35.525,0,0,0-9.81-8.92.388.388,0,0,0-.39.67,37.491,37.491,0,0,1,14.83,17.9c3.46,8.33,4.2,17.48,3.26,26.39a90.078,90.078,0,0,1-3.34,16.08.39.39,0,0,0,.75.21C203.14,93.69,204.8,83.7,203.77,73.82Z" fill="#4f3132"/><path d="M203.49,111.74c-1.61,7.66-1.06,15.52-1.44,23.29-.35,7.01-1.54,14.23-5.67,20.09a19.787,19.787,0,0,1-7.93,6.72c-.46.2-.06.88.39.67,5.77-2.59,9.71-8.11,11.72-13.96,2.54-7.39,2.34-15.33,2.47-23.04a71.69,71.69,0,0,1,1.21-13.56C204.35,111.46,203.6,111.25,203.49,111.74Z" fill="#4f3132"/><path d="M192.4,117.26a30.316,30.316,0,0,1-5.69,10.67c-.32.38.23.94.55.55a31.293,31.293,0,0,0,5.89-11.01C193.3,116.99,192.55,116.78,192.4,117.26Z" fill="#4f3132"/><path d="M197.1,123.22a61.228,61.228,0,0,1-7.77,15.97c-.95,1.4-1.97,2.76-3.04,4.07-.31.39.23.94.55.55a62.226,62.226,0,0,0,7.23-11.15c-.03,6.24-2.71,12.04-5.84,17.31-.93,1.56-1.9,3.09-2.87,4.62-.27.42.4.81.67.39,3.44-5.42,6.96-11.01,8.29-17.39a24.578,24.578,0,0,0,.53-5.41.363.363,0,0,0-.37-.37c.56-1.16,1.1-2.33,1.59-3.52q.99-2.4,1.77-4.87C198,122.94,197.25,122.74,197.1,123.22Z" fill="#4f3132"/><path d="M54.06,304.39s-10.87,2.41-9.25-5.17,1.5-10.38-2.92-13.82-8.86-5.15-5.48-10.6-3.03-9.7-6.35-12.63.43-5.15,1.31-10.7-5.09-4.72-5.56-11.71,6.63-15.16.53-24.79c0,0,8.2,4.25,10.9,11.73s.52,13.25,5.37,16.09,7.88,7.75,6.23,12.8.69,7.72,4.67,11.39,2.91,5.14,2.42,9.63.5,3.43,5.05,9.58C65.51,292.31,65.63,302.37,54.06,304.39Z" fill="#007d55"/><path d="M55.61,304.05c-.02-.04-.04-.07-.06-.12L33.81,237.94a.541.541,0,0,1,.34-.68h.01a.536.536,0,0,1,.67.35L56.57,303.6a.453.453,0,0,1,.03.16Z" fill="#04593a"/><path d="M73.67,304.25s10.81,2.39,9.2-5.15-1.49-10.32,2.9-13.75,8.81-5.12,5.45-10.55,3.02-9.65,6.32-12.57-.43-5.12-1.3-10.65,5.07-4.69,5.53-11.65-6.6-15.08-.52-24.66c0,0-8.16,4.23-10.84,11.66s-.52,13.17-5.34,16-7.84,7.71-6.2,12.73-.69,7.67-4.64,11.33-2.9,5.11-2.41,9.58-.5,3.41-5.02,9.52C62.28,292.23,62.17,302.25,73.67,304.25Z" fill="#007d55"/><path d="M71.14,303.62a.453.453,0,0,1,.03-.16L92.8,237.82a.544.544,0,0,1,.67-.35h.01a.541.541,0,0,1,.34.68L72.19,303.8a.612.612,0,0,1-.05.12Z" fill="#04593a"/><path d="M61.67,302.88s-12.44-1.03-8.19-8.61,5.05-10.62,1.46-15.77-7.78-8.46-2.35-13.18-.03-11.39-2.61-15.64,2.17-5.38,4.95-11.03-3.89-6.74-2.07-14.39,12.14-14.04,8.8-26.38c0,0,7.37,7.28,7.78,16.18s-3.84,14.36.4,19.01,5.86,10.92,2.43,15.77-1.82,8.49,1.21,13.75,1.42,6.47-.61,11.12-.61,3.84,2.22,11.93C77.94,293.74,74.72,304.56,61.67,302.88Z" fill="#00b570"/><path d="M63.44,303.03a.675.675,0,0,1-.02-.14l-1.37-77.9a.61.61,0,0,1,.59-.62h.01a.61.61,0,0,1,.61.6l1.37,77.9a1.1,1.1,0,0,1-.02.18Z" fill="#007d55"/><path d="M97.88,300.25l-.9,2.39-.57,1.51-1.63,4.33-.57,1.51-1.68,4.45-.57,1.51-7.19,19.1H45.47l-7.19-19.1-.57-1.51-1.68-4.45-.57-1.51-1.63-4.33-.57-1.51-.9-2.39a2.5,2.5,0,0,1,2.34-3.38H95.53A2.5,2.5,0,0,1,97.88,300.25Z" fill="#ffbf63"/><path d="M96.97,302.63l-.56,1.52H33.83l-.57-1.52Z" fill="#ff9024"/><path d="M94.77,308.48l-.57,1.51H36.04l-.58-1.51Z" fill="#ff9024"/><path d="M92.53,314.45l-.57,1.51H38.28l-.57-1.51Z" fill="#ff9024"/><path d="M90.82,323.78H38.73l-.57-4.24H91.39Z" fill="#001030"/><path d="M96.97,395.99H32.99l-.7-4.25H97.66Z" fill="#001030"/><path d="M102.58,417.64,87.4,323.78H83.43l15.6,93.86Z" fill="#001030"/><path d="M30.67,417.64l15.61-93.86H42.31L27.12,417.64Z" fill="#001030"/><path d="M421.94,436.19c43.96-1.54,89.42-7.54,112.95-88.54,7-24.08,2.45-42.31-5.23-56.05a84.87,84.87,0,0,0-6.14-9.38h0c-.81-1.08-1.63-2.12-2.45-3.13-17.17-21.06-45.98-28.61-71.51-19.31-14.32,5.22-32.69,12.94-49.07,22.97-32.91,20.16-40.62,43.16-51.37,82.6-.92,3.39-1.85,7.18-2.55,11.22-.38,2.16-.69,4.38-.9,6.64C343.29,408.43,353.02,438.61,421.94,436.19Z" fill="#363638"/><path d="M345.67,383.21a51.839,51.839,0,0,0,6.31,12.24c8.31,11.91,25.62,26.3,60.87,27.23q2.325.06,4.59.06c13.47,0,25.35-1.62,36.2-4.94a88.536,88.536,0,0,0,30.3-15.99c15.1-12.18,27.55-30.01,40.35-57.8a80.705,80.705,0,0,0,7.79-33.06,72.259,72.259,0,0,0-2.43-19.35,84.87,84.87,0,0,0-6.14-9.38c.55,1.26,1.07,2.58,1.58,3.95,4.6,12.63,7.78,32.72-3.27,56.7-22.47,48.77-48.53,78.67-108.9,77.08-34.11-.9-50.76-14.67-58.71-26.06a48.007,48.007,0,0,1-7.65-17.32C346.2,378.73,345.89,380.95,345.67,383.21Z" fill="#575759"/><path d="M408.55,233.74s-27.6,37.44-33.89,56.09,8.98,31.9,8.98,31.9l14.19,5.32S412.41,261.2,408.55,233.74Z" fill="#004ecb"/><path d="M410.98,338.62c12.06,4,41.53,14.48,54.33,10.24a11.638,11.638,0,0,0,1.53-.62,8.025,8.025,0,0,0,3.3-2.79c5.02-7.64,10-39.7,7.76-58.54a74.235,74.235,0,0,1-.46-7.59c-.07-3.95.07-8.18.23-12.43.63-16,3.15-27.05-3.69-30.94a80.27,80.27,0,0,0-18.88-7.41c-3.07-.74-8.1-2.27-11.62-2.2l-15.26,2.77s-13.17,2.2-16.21,4.44-4.59,12.12-10.08,21.16-6.68,18.12-1.44,28.05c4.56,8.64,3.76,5.36,4.36,19.53C405.58,319.65,387.43,330.81,410.98,338.62Z" fill="#fff"/><g opacity="0.8"><path d="M451.5,257.25a95.206,95.206,0,0,0-37.64-.33l-.51,14.59s23.21-2.58,37.82,1.14Z" fill="#ccd3e6"/></g><g opacity="0.8"><path d="M432.5,244.93c.22,0,.45-.01.68-.02,9.04-.47,17.32-8.44,17.67-8.78a.615.615,0,1,0-.86-.88c-.08.08-8.3,7.99-16.87,8.43-8.21.43-9.2-7.71-9.24-8.05a.618.618,0,1,0-1.23.13C422.66,235.85,423.74,244.93,432.5,244.93Z" fill="#ccd3e6"/></g><g opacity="0.8"><path d="M458.11,317.95a.728.728,0,0,0,.17-.18.652.652,0,0,0-.22-.89,75.925,75.925,0,0,0-30.41-10.47,54.847,54.847,0,0,0-13.41-.14.642.642,0,0,0,.19,1.27,55.218,55.218,0,0,1,13.12.16,74.625,74.625,0,0,1,29.84,10.29A.65.65,0,0,0,458.11,317.95Z" fill="#ccd3e6"/></g><path d="M442.75,344.42c10.86-3.44,20.68-10.37,27.39-16.54.53-.49,1.04-.97,1.53-1.45,3.47-3.37,5.92-1.64,6.99-3.58,4.06-7.43,1.76-36.57,0-47.27s5.63-30.31,1.66-37.32-17.66-9.46-17.66-9.46,1.94-2.26-1.74-4.84-13.46-1.51-13.46-1.51C446.98,268.76,440.42,311.78,442.75,344.42Z" fill="#0076fa"/><path d="M453.43,331.14a.61.61,0,0,0,.6-.51c4.94-32.13.05-92.55.01-93.16a.6.6,0,1,0-1.2.1c.05.61,4.92,60.89,0,92.88a.608.608,0,0,0,.51.69Z" fill="#fff"/><path d="M443.49,335.96a.619.619,0,0,0,.6-.5c6.46-36.9,6.98-100.57,6.98-101.21a.61.61,0,0,0-.6-.61h0a.617.617,0,0,0-.61.6c0,.64-.52,64.2-6.96,101.01a.6.6,0,0,0,.49.7A.309.309,0,0,0,443.49,335.96Z" fill="#004ecb"/><path d="M454.21,233.89a1,1,0,0,0,.16-.02,20.256,20.256,0,0,0,8.38-4.51.608.608,0,1,0-.85-.87h0a19.5,19.5,0,0,1-7.85,4.21.608.608,0,0,0-.43.74A.627.627,0,0,0,454.21,233.89Z" fill="#004ecb"/><path d="M395.71,324.2a33.328,33.328,0,0,0,18.28,19.24c1.78-35.33,5.84-75.68,11.07-118.6,0,0-5.51-.97-7.8,2.18a8.727,8.727,0,0,0-1.2,3.65,28.258,28.258,0,0,0-5.9,1.98c-3.08,1.43-2.73,3.41-3.47,8.41s-8.47,12.75-10.98,23.25,4.15,17.19,6.24,25.99C404.03,299.12,395.71,324.2,395.71,324.2Z" fill="#0076fa"/><path d="M408.08,329.67a.608.608,0,0,0,.61-.59,598.053,598.053,0,0,1,10.26-91.44.608.608,0,1,0-1.19-.25,599.026,599.026,0,0,0-10.28,91.65.6.6,0,0,0,.59.62C408.07,329.67,408.07,329.67,408.08,329.67Z" fill="#fff"/><path d="M421.34,235.22a.6.6,0,0,0,.11-1.2c-.04-.01-3.92-.71-4.81-3.52a.6.6,0,0,0-1.15.37c1.11,3.52,5.57,4.32,5.76,4.35C421.27,235.21,421.3,235.22,421.34,235.22Z" fill="#004ecb"/><path d="M409.49,329.67a.613.613,0,0,0,.6-.53c4.26-35.43,10.99-92.07,11.06-92.63a.6.6,0,0,0-1.2-.14c-.07.57-6.8,57.2-11.06,92.63a.606.606,0,0,0,.53.67Z" fill="#004ecb"/><path d="M445.28,355.11a33.57,33.57,0,0,1-9.1,4.08c-24.72,7.86-47.38-4.83-47.38-4.83-1.37-6.77-.52-14.46,1.76-17.28a2.48,2.48,0,0,1-.24-2.2l-22.75-23.61c12.94,10.72,28.94,14.23,41.39,21.76h.01c3.59,2.17,6.82,4.08,9.18,5.41,3.61,2.03,8.21,2.22,12.73,1.6a62.239,62.239,0,0,0,17.24-5.55s28.33-12.84,33.64-12.41C485.88,322.41,463.66,345.61,445.28,355.11Z" fill="#00b570"/><path d="M401.49,374.9s7.29-2.09,9.53-4.46l5.07,11.93-17.25,5.38S398.6,377.27,401.49,374.9Z" fill="#ff9b79"/><path d="M359.87,409.37l22.3-49.49a7.5,7.5,0,0,1,3.04.59c4.33,1.58,10.41,5.92,14.32,8.47.46.3.89.58,1.28.82a14.639,14.639,0,0,0,1.65.92c3.44,1.55,1.63,3.4,1.63,3.4-6.41,3.21-2.51,12.71-6.41,14.93,0,0-1.66.97-6.97,3.3s-10.65,7.97-15.59,12.58c-6.38,5.96-10.38,6.66-12.68,6.12A4.2,4.2,0,0,1,359.87,409.37Z" fill="#fdb205"/><path d="M359.87,409.37l22.3-49.49a7.5,7.5,0,0,1,3.04.59l-22.77,50.55A4.233,4.233,0,0,1,359.87,409.37Z" fill="#dc7f21"/><path d="M379.89,364.93l.66-1.47a11.947,11.947,0,0,0,6.73,6.23,15.3,15.3,0,0,0,12.25-.75c.46.3.89.58,1.28.82a16.631,16.631,0,0,1-14,1.14A13.2,13.2,0,0,1,379.89,364.93Z" fill="#dc7f21"/><path d="M388.16,390.16a.9.9,0,0,1,1.7.53l-.63,3.44a.894.894,0,0,1-1.76-.32l.63-3.44A.829.829,0,0,1,388.16,390.16Z" fill="#fff"/><path d="M392.12,388.25a.9.9,0,0,1,1.7.53l-.63,3.44a.894.894,0,1,1-1.76-.32l.63-3.44A.831.831,0,0,1,392.12,388.25Z" fill="#fff"/><path d="M384.97,392.45a.9.9,0,0,1,1.7.53l-.63,3.44a.894.894,0,0,1-1.76-.32l.63-3.44A.646.646,0,0,1,384.97,392.45Z" fill="#fff"/><path d="M381.85,394.76a.9.9,0,0,1,1.7.53l-.63,3.44a.894.894,0,0,1-1.76-.32l.63-3.44A.646.646,0,0,1,381.85,394.76Z" fill="#fff"/><path d="M378.74,397.41a.9.9,0,0,1,1.7.53l-.63,3.44a.894.894,0,0,1-1.76-.32l.63-3.44A.728.728,0,0,1,378.74,397.41Z" fill="#fff"/><path d="M375.73,400.45a.9.9,0,0,1,1.7.53l-.63,3.44a.894.894,0,0,1-1.76-.32l.63-3.44A.829.829,0,0,1,375.73,400.45Z" fill="#fff"/><path d="M481.75,322.08s17.93-9.68,28.31-2.2c18.99,13.68-13.23,39.99-50.09,52.83s-48.83,11.1-48.83,11.1-8.01-2.2-5.17-15.18c0,0,21.25-8.08,32.3-16.54C449.34,343.62,456.87,333.25,481.75,322.08Z" fill="#00b570"/><path d="M407.41,372.4c7.73-1.86,23.48-9.08,42.14-19.33,13.95-7.66,30.05-17.46,32.41-20.85,1.28-1.83,1.6-3.34.96-4.46-.96-1.68-3.73-1.86-4.98-1.85a.568.568,0,0,0-.56.6h0a.566.566,0,0,0,.56.52c1.24-.01,3.39.2,4.01,1.28.51.89-.21,2.27-.9,3.26-1.9,2.74-15.37,11.36-32.03,20.51-14.34,7.88-32.87,17.06-41.86,19.22Z" fill="#007d55"/><path d="M408.87,366.9c.87,6.82,2.64,13.02,6.49,17.78,0,0-3.3,2.38-6.31.67-2.3-1.3-6.74-11.96-5.05-17.65C405.92,366.65,407.58,366.29,408.87,366.9Z" fill="#007d55"/><path d="M455.64,373.55s-7.33-1.41-9.4-3.93l-5.85,11.56,16.85,6.52C457.24,387.71,458.37,376.11,455.64,373.55Z" fill="#ff9b79"/><path d="M494.68,411.89l-18.94-50.87a7.559,7.559,0,0,0-3.07.38c-4.42,1.28-10.78,5.21-14.86,7.5-.48.27-.92.52-1.33.73a15.958,15.958,0,0,1-1.71.81c-3.53,1.32-2.06,2.31-2.06,2.31,6.96,3.27,1.86,13.82,5.61,16.3,0,0,1.6,1.07,6.73,3.76s10.09,8.66,14.72,13.6c5.97,6.37,9.91,7.34,12.24,6.95A4.251,4.251,0,0,0,494.68,411.89Z" fill="#fdb205"/><path d="M494.68,411.89l-18.94-50.87a7.559,7.559,0,0,0-3.07.38l19.35,51.96A4.245,4.245,0,0,0,494.68,411.89Z" fill="#dc7f21"/><path d="M477.67,366.21l-.56-1.51a11.936,11.936,0,0,1-7.13,5.77,15.266,15.266,0,0,1-12.17-1.57c-.48.27-.92.52-1.33.73a16.593,16.593,0,0,0,13.89,2.07A13.129,13.129,0,0,0,477.67,366.21Z" fill="#dc7f21"/><path d="M467.73,390.83a.9.9,0,0,0-1.73.41l.39,3.47a.9.9,0,1,0,1.78-.2l-.39-3.47A.538.538,0,0,0,467.73,390.83Z" fill="#fff"/><path d="M463.91,388.66a.9.9,0,0,0-1.73.41l.39,3.47a.9.9,0,0,0,1.78-.2l-.39-3.47A.8.8,0,0,0,463.91,388.66Z" fill="#fff"/><path d="M470.76,393.32a.9.9,0,0,0-1.73.41l.39,3.47a.9.9,0,1,0,1.78-.2l-.39-3.47A.537.537,0,0,0,470.76,393.32Z" fill="#fff"/><path d="M473.72,395.84a.9.9,0,0,0-1.73.41l.39,3.47a.9.9,0,1,0,1.78-.2l-.39-3.47A.8.8,0,0,0,473.72,395.84Z" fill="#fff"/><path d="M476.65,398.69a.9.9,0,0,0-1.73.41l.39,3.47a.9.9,0,1,0,1.78-.2l-.39-3.47A.537.537,0,0,0,476.65,398.69Z" fill="#fff"/><path d="M479.45,401.93a.9.9,0,0,0-1.73.41l.39,3.47a.9.9,0,1,0,1.78-.2l-.39-3.47A.538.538,0,0,0,479.45,401.93Z" fill="#fff"/><path d="M374.87,314.22s-16.97-11.28-27.99-4.78c-20.17,11.88,9.51,41.03,45.04,57.21s47.61,15.53,47.61,15.53,8.18-1.46,6.54-14.65c0,0-20.42-9.99-30.65-19.43C405.17,338.65,398.62,327.63,374.87,314.22Z" fill="#00b570"/><path d="M405.89,372.72c1.96.64,3.95,1.29,6,1.94,7.95,2.5,17.02,5.12,25.24,7.14l.03,1.17c-7.42-1.81-16.13-4.26-25.61-7.25-1.85-.58-3.74-1.2-5.63-1.82Z" fill="#007d55"/><path d="M444.28,371.15c-7.53-2.56-22.55-11.2-40.19-23.11-13.19-8.91-28.32-20.14-30.36-23.74-1.1-1.94-1.28-3.47-.54-4.53,1.11-1.59,3.88-1.51,5.13-1.38a.565.565,0,0,1,.5.65h0a.563.563,0,0,1-.61.47c-1.23-.12-3.4-.11-4.11.91-.59.84,0,2.28.6,3.33,1.65,2.9,14.27,12.73,30.01,23.36,13.56,9.16,31.17,20,39.92,22.98Z" fill="#007d55"/><path d="M443.33,365.54c-1.49,6.71-3.82,12.73-8.1,17.11,0,0,3.07,2.67,6.23,1.25,2.41-1.09,7.81-11.29,6.65-17.11C446.29,365.56,444.67,365.04,443.33,365.54Z" fill="#007d55"/><path d="M445.63,311.72l1.36,19.47s23.15-3.31,34.51-6.2a46.492,46.492,0,0,0,10.43-3.74c6.27-3.33,11.48-9.14,11.09-20.45a51.635,51.635,0,0,0-2.25-12.71,262.708,262.708,0,0,0-22.12-52.01c-17.83,7.63-16.33,20.33-16.33,20.33,5.09,13.56,16.33,42.45,16.33,42.45C472.13,306.83,445.63,311.72,445.63,311.72Z" fill="#0076fa"/><path d="M478.65,299.46a.62.62,0,0,0,.32-.09c1.97-1.22,7.33-2.48,7.39-2.49a.606.606,0,1,0-.28-1.18,46.944,46.944,0,0,0-6.43,1.99,10.537,10.537,0,0,1,1.78-2.61.6.6,0,0,0-.9-.8,9.294,9.294,0,0,0-2.46,4.49.581.581,0,0,0,.58.69Z" fill="#004ecb"/><path d="M491.93,321.25c6.27-3.33,11.48-9.14,11.09-20.45C498.05,303.39,489.39,309.69,491.93,321.25Z" fill="#004ecb"/><path d="M460.19,308.73a.773.773,0,0,0,.15-.02,47.746,47.746,0,0,0,18.72-9.41.6.6,0,0,0,.13-.72c-8.18-16.08-13.35-28.85-16.28-40.18a.605.605,0,1,0-1.17.31c2.93,11.32,8.06,24.04,16.16,40a48.334,48.334,0,0,1-17.86,8.84.6.6,0,0,0,.15,1.18Z" fill="#004ecb"/><path d="M464.78,267.42a.6.6,0,0,0,.38-.13.614.614,0,0,0,.1-.85l-4.25-5.34a.605.605,0,0,0-.95.75l4.25,5.34A.583.583,0,0,0,464.78,267.42Z" fill="#004ecb"/><path d="M444.96,218.35l-20.57,2.94c-13.36-1.34-17.61-6.65-19.8-17.87a30.385,30.385,0,0,1,.71-14.34c.28-4.22,1.24-7.87,3.24-10.27,9.03-10.88,16.97-10.46,16.97-10.46,4.04-1.85,17.38-3.12,26.18,7.56h0c.28.24,5.64,5.92,6.88,17.86C459.76,205.16,452.17,219.69,444.96,218.35Z" fill="#001030"/><path d="M433.47,171.34s-2.14-18.97,14.69-16.56c11,1.57,17.8,16.47,7.75,23.24S433.47,171.34,433.47,171.34Z" fill="#001030"/><path d="M454.22,179.96a.509.509,0,0,0,.26-.07.53.53,0,0,0,.21-.72,24.3,24.3,0,0,0-13.44-11.6,21.9,21.9,0,0,0-7.81-1.31.534.534,0,0,0-.5.56.528.528,0,0,0,.56.5,23.044,23.044,0,0,1,20.25,12.36A.535.535,0,0,0,454.22,179.96Z" fill="#fdb205"/><path d="M443.35,214.07s13.12-7.34,10.54-22.62-12.64-24.47-28.06-20.04C425.83,171.41,427.32,215.58,443.35,214.07Z" fill="#001030"/><path d="M406.87,185.98s-1.34,13.11,1.05,15.01,4.73-3.29,4.73-3.29S409.39,186.12,406.87,185.98Z" fill="#363638"/><path d="M412.9,202.18s-3.91-3.44-5.21.78,1.34,11.95,6.2,9.9Z" fill="#ef6a3f"/><path d="M408.09,211.9a9.228,9.228,0,0,0,1.77,1.27c2.46,1.32,5.67,1.48,9.52-.55,0,0,4.93-6.41-2.36-17.73,0,0-6.68-1.76-10.5,2.28a7.88,7.88,0,0,0-1.15,1.56,8.76,8.76,0,0,0-.57,1.19C403.46,203.36,404.72,208.84,408.09,211.9Z" fill="#00b570"/><path d="M408.27,195.8a55.1,55.1,0,0,1-.82-5.46.947.947,0,0,0,.3.08,1.851,1.851,0,0,0,1.23-.43c.18,1.94.46,3.7.73,5.16Z" fill="#fff"/><path d="M408.09,211.9a9.228,9.228,0,0,0,1.77,1.27,33.6,33.6,0,0,1-3.34-15.99,7.88,7.88,0,0,0-1.15,1.56A34.962,34.962,0,0,0,408.09,211.9Z" fill="#007d55"/><path d="M424.31,221.11l1.61,10.84s6.63,8.51,22.01-5.37c-1.75-4.41-4.43-10.09-3.74-14.44a23.844,23.844,0,0,1-3.05,2.26c-.39.25-.82.52-1.27.79C435.87,217.62,429.77,220.72,424.31,221.11Z" fill="#ff9b79"/><path d="M424.31,221.11l.76,5.07c4.48-1.72,12.24-5.46,16.07-11.78-.39.25-.82.52-1.27.79C435.87,217.62,429.77,220.72,424.31,221.11Z" fill="#363638"/><path d="M409.57,202.66c.17,1.12.34,2.18.5,3.17,1.23,7.48,2.36,11.51,4.44,13.1,10.51,8.07,29.05-6.19,29.65-6.65a.031.031,0,0,1,.02-.01c.06-.87.1-1.73.13-2.58a66.647,66.647,0,0,0-2.28-19.8,15.084,15.084,0,0,0-11.89-13.39c-6.7-1.37-11.99,2.28-15.26,3.84-4.93,2.37-7.19,9.53-5.8,19.06C409.26,200.54,409.42,201.63,409.57,202.66Z" fill="#ff9b79"/><path d="M418.97,211.38c5.88,0,8.23-5.63,8.26-5.69a.536.536,0,0,0-.99-.41h0c-.1.25-2.57,6.09-8.99,4.85a.535.535,0,1,0-.21,1.05A9.664,9.664,0,0,0,418.97,211.38Z" fill="#363638"/><path d="M423.49,191.07a1.468,1.468,0,0,1,.39-2.85c2.72-.18,7.08-.11,7.45,2.08.53,3.21-4.54,1.87-7.75.8A.465.465,0,0,0,423.49,191.07Z" fill="#363638"/><path d="M415.48,192.02a1.469,1.469,0,0,0-1.51-2.45c-2.56.94-6.53,2.76-5.98,4.91.8,3.15,4.91-.12,7.41-2.39A.5.5,0,0,1,415.48,192.02Z" fill="#363638"/><path d="M423.31,214a4.723,4.723,0,0,1-2.04.05.355.355,0,1,1,.17-.69h0a3.8,3.8,0,0,0,3.11-.78.354.354,0,1,1,.47.53A3.977,3.977,0,0,1,423.31,214Z" fill="#ef6a3f"/><path d="M419.62,206.7a.385.385,0,0,0,.2-.23.377.377,0,0,0-.25-.49l-2.57-.84,1.52-1.54a.407.407,0,0,0,.11-.32l-.47-4.25a.385.385,0,0,0-.43-.34.4.4,0,0,0-.35.43l.45,4.06-1.84,1.86a.411.411,0,0,0-.1.37.387.387,0,0,0,.26.28l3.16,1.04A.535.535,0,0,0,419.62,206.7Z" fill="#363638"/><path d="M426.27,202.63c.13.88,2.05,1.33,4.29.99s3.95-1.32,3.82-2.2-2.05-1.33-4.29-.99S426.14,201.75,426.27,202.63Z" fill="#ef6a3f"/><g opacity="0.8"><path d="M409.57,203.69c.17,1.12.34,2.18.5,3.17,2.05-.38,3.55-1.31,3.42-2.14C413.38,203.9,411.65,203.46,409.57,203.69Z" fill="#ef6a3f"/></g><path d="M424.09,199.48c.18,1.21.88,2.11,1.55,2.01s1.08-1.16.9-2.38-.88-2.11-1.55-2.01S423.91,198.26,424.09,199.48Z" fill="#363638"/><path d="M412.1,201.26c.18,1.21.88,2.11,1.55,2.01s1.08-1.16.9-2.38-.88-2.11-1.55-2.01S411.92,200.05,412.1,201.26Z" fill="#363638"/><path d="M439.49,207.96c.08.13,2.22,3.58,4.67,4.33h0l.01-.01c.06-.87.1-1.73.13-2.58A9.442,9.442,0,0,1,439.49,207.96Z" fill="#363638"/><path d="M440.46,199.22s3.87-7.23,8.18-2.64c3.55,3.78-.29,15.81-6.82,12.6Z" fill="#ff9b79"/><path d="M442.32,207.2a.509.509,0,0,0,.43-.52,8.424,8.424,0,0,1,3.84-7.43.5.5,0,1,0-.51-.87,9.422,9.422,0,0,0-4.34,8.34.5.5,0,0,0,.52.48A.115.115,0,0,0,442.32,207.2Z" fill="#363638"/><path d="M446.52,203.49a.523.523,0,0,0,.36-.24.505.505,0,0,0-.18-.69c-.22-.13-2.22-1.27-3.66-.67a.5.5,0,0,0,.39.93c.83-.35,2.3.34,2.75.61A.7.7,0,0,0,446.52,203.49Z" fill="#363638"/><path d="M415.35,173.73a17.661,17.661,0,0,0-9.55,10.39c-.98,2.91-1.8,6.75,2.29,6.26,11.17-1.36,17.14-12.94,17.14-12.94s2.17,10.68,10.94,9.37,8.49-7.92,3.51-11.66C435.61,172.09,425.27,169.26,415.35,173.73Z" fill="#001030"/><path d="M435.82,185.58s4.99,5.36,3.2,11.12-1.91,10.39-.04,13.48a35.1,35.1,0,0,1,2.7-10.67c1.82-3.78,3.53-6.66,2.21-11.01C442.99,185.5,440.8,182.63,435.82,185.58Z" fill="#001030"/><path d="M443.93,211.72c3.87.93,6.86.39,9.08-1a9.152,9.152,0,0,0,1-.73c4.65-3.89,4.99-11.95,2.14-15.91a9,9,0,0,0-3.38-2.93,7.141,7.141,0,0,0-1.12-.46c-4.8-1.57-10.01,1.31-10.01,1.31C436.18,207,443.93,211.72,443.93,211.72Z" fill="#00b570"/><path d="M430.33,218.28a25.042,25.042,0,0,0,16.33-10.84.652.652,0,1,0-1.13-.65c-.07.12-5.94,10-19.65,10.74a.656.656,0,0,0,.07,1.31A30.78,30.78,0,0,0,430.33,218.28Z" fill="#fff"/><path d="M422.27,218.66a2.093,2.093,0,1,0,1.63-2.47A2.1,2.1,0,0,0,422.27,218.66Z" fill="#143131"/><path d="M453.01,210.73a9.152,9.152,0,0,0,1-.73,26.886,26.886,0,0,1-1.24-18.84,7.141,7.141,0,0,0-1.12-.46A28.238,28.238,0,0,0,453.01,210.73Z" fill="#007d55"/><path d="M407.12,181.08a18.359,18.359,0,0,1,2.52-3.55,17.173,17.173,0,0,1,1.61-3.57c2.36-3.75,6.11-6.05,11.13-6.83,5.43-.84,10.13.23,13.99,3.19a19.941,19.941,0,0,1,3.22,3.14,27.949,27.949,0,0,1,3.31,5.17,42.67,42.67,0,0,1,3.86,12.7l1.48-.16c-.07-.61-1.74-14.97-10.97-22.04-4.19-3.21-9.28-4.38-15.12-3.48-5.47.85-9.56,3.38-12.17,7.51A21.67,21.67,0,0,0,407.12,181.08Z" fill="#fff"/><path d="M463.34,345.05l5.15-9.8a3.648,3.648,0,0,0-3.27-5.34l-81,.87,2.39,12.55Z" fill="#363638"/><path d="M388.01,342.29H460.5a2.787,2.787,0,0,0,2.82-3.17l-4.94-44.79a3.63,3.63,0,0,0-3.52-3.17H382.37a2.787,2.787,0,0,0-2.82,3.17l4.94,44.79A3.63,3.63,0,0,0,388.01,342.29Z" fill="#363638"/><path d="M461.58,344.22h.08a.608.608,0,0,0,.53-.68l-6.02-47.97a.615.615,0,0,0-.68-.53.608.608,0,0,0-.53.68l6.02,47.97A.6.6,0,0,0,461.58,344.22Z" fill="#594b54"/><path d="M426.31,317.53a6.37,6.37,0,0,1-5.92,6.92,6.578,6.578,0,0,1-6.92-6.1,6.37,6.37,0,0,1,5.92-6.92A6.571,6.571,0,0,1,426.31,317.53Z" fill="#575759"/><path d="M387.66,346.19h73.49a2.665,2.665,0,0,0,2.64-3.03l-.7-5.12H384.22l.8,5.84A2.663,2.663,0,0,0,387.66,346.19Z" fill="#363638"/><path d="M438.11,331.74l-.27-3.04h2.42l-.59-2.78h3.2l.59,2.78h1.98l-.59-2.78h3.2l.59,2.78h2.8l.27,3.04h-2.42l.53,2.56h2.8l.27,3.04h-2.42l.59,2.78h-3.2l-.59-2.78h-1.98l.59,2.78h-3.2l-.59-2.78h-2.8l-.27-3.04h2.42l-.53-2.56Zm6.54,2.55h1.98l-.53-2.56h-1.98Z" fill="#fdb205"/><path d="M367.68,260.94a19.99,19.99,0,1,1-19.99-19.99A19.99,19.99,0,0,1,367.68,260.94Z" fill="#fd615b"/><path d="M357.91,277.3l10.75,2.27L364,270.31Z" fill="#fd615b"/><path d="M343.1,252.18l14.81,10.24-14.81,9.05Z" fill="#fff"/></g></svg>