<svg xmlns="http://www.w3.org/2000/svg" width="19.47" height="17" viewBox="0 0 19.47 17">
  <path id="star" d="M19.419,6.916a1.018,1.018,0,0,0-.891-.648L12.909,5.8,10.687,1.063a1.077,1.077,0,0,0-1.9,0L6.561,5.8l-5.62.465a1.02,1.02,0,0,0-.89.648.889.889,0,0,0,.3,1L4.6,11.311,3.349,16.338a.9.9,0,0,0,.4.973,1.112,1.112,0,0,0,1.137.045l4.847-2.64,4.846,2.64a1.115,1.115,0,0,0,1.137-.045.9.9,0,0,0,.4-.973l-1.253-5.027,4.248-3.393a.89.89,0,0,0,.3-1Zm0,0" transform="translate(0 -0.491)" fill="#ffc107"/>
</svg>
