<svg xmlns="http://www.w3.org/2000/svg" width="34.026" height="41.479" viewBox="0 0 34.026 41.479">
  <g id="Group_7142" data-name="Group 7142" transform="translate(-919 -2765.387)">
    <path id="Path_2776" data-name="Path 2776" d="M-1226.859,2836.105c-.508,2.249,1.2,11.692-4.436,14.807.026,0-.5.208-.5.208l.5,2.539s7.337-.145,9.078,2.031.58-11.026-.58-14S-1226.351,2833.857-1226.859,2836.105Z" transform="translate(2171 -58)" fill="#1492e6"/>
    <path id="Path_2775" data-name="Path 2775" d="M-1226.261,2836.105c.508,2.249-1.2,11.692,4.436,14.807-.026,0,.5.208.5.208l-.5,2.539s-7.337-.145-9.078,2.031-.58-11.026.58-14S-1226.769,2833.857-1226.261,2836.105Z" transform="translate(2154 -58)" fill="#1492e6"/>
    <g id="student" transform="translate(919 2765.387)">
      <path id="Path_239" data-name="Path 239" d="M47.215,14.663a1.215,1.215,0,0,0,1.215-1.215V5.062l4.861.748v4.772c-2.727,3.261-4.861,6.3-4.861,15.018v7.185a8.522,8.522,0,0,0-1.346,2.909l-1.05,4.28a1.215,1.215,0,0,0,1.18,1.5h31.6a1.215,1.215,0,0,0,1.18-1.5L78.94,35.689A8.508,8.508,0,0,0,77.6,32.784V25.3c0-8.681-2.135-11.758-4.861-15.018V5.81L79,4.847a1.215,1.215,0,0,0,0-2.4L63.2.014a1.218,1.218,0,0,0-.37,0l-15.8,2.43A1.219,1.219,0,0,0,46,3.646v9.8a1.215,1.215,0,0,0,1.215,1.215ZM50.861,25.6c0-5.956,1.131-9.013,2.43-11.048v4.491a10.4,10.4,0,0,0,4.861,8.837v1.366H55.338a8.509,8.509,0,0,0-4.478,1.272ZM63,13.466a31.112,31.112,0,0,0,7.3-.87v6.791a12.189,12.189,0,0,1-2.522-.964,10.821,10.821,0,0,0-4.769-1.33,10.823,10.823,0,0,0-4.769,1.33,12.223,12.223,0,0,1-2.515.962c0-.114-.008-.228-.008-.343V12.6A31.087,31.087,0,0,0,63,13.466ZM55.722,10.1V6.184l7.106,1.093a1.216,1.216,0,0,0,.37,0L70.3,6.184V10.09A28.662,28.662,0,0,1,55.722,10.1Zm6.9,16.709A7.417,7.417,0,0,1,56.2,21.771a14.205,14.205,0,0,0,3.077-1.146,8.621,8.621,0,0,1,3.737-1.1,8.621,8.621,0,0,1,3.737,1.1,13.831,13.831,0,0,0,3.2,1.171A7.3,7.3,0,0,1,62.619,26.8Zm2.824,2.137v1.519a2.43,2.43,0,1,1-4.861,0V28.928a9.176,9.176,0,0,0,1.909.3A9.809,9.809,0,0,0,65.443,28.942ZM48.764,39.048l.679-2.77a6.07,6.07,0,0,1,4.173-4.354l1.766,7.124Zm19.374,0H57.887L56.06,31.676h2.246a4.861,4.861,0,0,0,9.414,0h2.246Zm9.123,0H70.642l1.766-7.124a6.063,6.063,0,0,1,4.172,4.349Zm-4.527-24.8c1.3,2.035,2.43,5.093,2.43,11.048v5.222a8.511,8.511,0,0,0-4.478-1.272H67.873v-1.3a9.7,9.7,0,0,0,4.861-8.425Zm-9.722-11.8,7.806,1.2-7.806,1.2-7.806-1.2Z" transform="translate(-46 0)" fill="#181c2b"/>
    </g>
  </g>
</svg>
