<svg id="teacher" xmlns="http://www.w3.org/2000/svg" width="34.025" height="41.479" viewBox="0 0 34.025 41.479">
  <path id="Path_2773" data-name="Path 2773" d="M15.692,1.791c-5.7,1.162-6.455,1.707-8.2,3.583-1,1.051-3.523,2.991-3.772,6.6-.566,8.2-1.414,8.016-1.886,9.807s0,7.449,3.583,8.487a12.351,12.351,0,0,0,6.7,0L13.9,27.912s5.658.754,6.6,0,0,2.357,0,2.357,6.6,1.226,8.487,0,5.375-4.149,3.489-8.487-2.735-6.79-2.546-8.864S25.876-.284,15.692,1.791Z" fill="#1492e6"/>
  <path id="Path_2774" data-name="Path 2774" d="M8.714,13.767a23.086,23.086,0,0,0,8.881-1.484c1.055-.4,4.846-2.545,5.177-3.185,1.414-2.735,3.669,2.126,3.1,5.14s-.189,5.658-.472,6.978a18.532,18.532,0,0,1-2.546,4.715c-.566.754-3.583,2.075-5.187,2.263s-3.583.66-4.715-.754-2.829-1.415-3.583-3.961-.283-3.489-.66-5.187A16.756,16.756,0,0,1,8.714,13.767Z" fill="#f1f6f9"/>
  <path id="Path_240" data-name="Path 240" d="M50.187,31.062a8.489,8.489,0,0,0-3.1,4.708l-1.05,4.2a1.215,1.215,0,0,0,1.179,1.51h31.6a1.215,1.215,0,0,0,1.179-1.51l-1.05-4.2a8.49,8.49,0,0,0-3.1-4.708,7.3,7.3,0,0,0,4.186-6.6,14.368,14.368,0,0,0-1.3-5.383,12.3,12.3,0,0,1-1.132-4.5A14.574,14.574,0,0,0,63.013,0h0A14.574,14.574,0,0,0,48.43,14.582a12.3,12.3,0,0,1-1.132,4.5A14.366,14.366,0,0,0,46,24.466a7.3,7.3,0,0,0,4.187,6.6Zm-1.415,7.986.672-2.689a6.067,6.067,0,0,1,5.895-4.6h.015l-.306.2a1.215,1.215,0,0,0-.413,1.555l2.43,4.861a1.215,1.215,0,0,0,1.08.672Zm10.5-18.424a8.622,8.622,0,0,1,3.737-1.1,8.621,8.621,0,0,1,3.737,1.1,14.177,14.177,0,0,0,3.087,1.148,7.429,7.429,0,0,1-6.43,5.113,7.315,7.315,0,0,1-7.323-5.091A13.853,13.853,0,0,0,59.275,20.624Zm-3.554-1.237V14.582H57.9A17.494,17.494,0,0,0,64.7,13.211a17.5,17.5,0,0,0,4.809-3.01,3.6,3.6,0,0,1,.792,2.28s0,6.79-.008,6.9a12.227,12.227,0,0,1-2.515-.962,10.822,10.822,0,0,0-4.769-1.33,10.823,10.823,0,0,0-4.769,1.33A12.2,12.2,0,0,1,55.722,19.388Zm11.219,12.8,1.8,1.2L67.33,36.2l-2.472-1.236Zm-3.928,1.187-2.43-3.241V29.016a9.668,9.668,0,0,0,2.951.3,9.041,9.041,0,0,0,1.909-.307v1.131Zm-1.846,1.59L58.7,36.2l-1.407-2.814,1.8-1.2Zm-3.009,4.081a1.21,1.21,0,0,0,.538-.128l4.317-2.159L67.33,38.92a1.21,1.21,0,0,0,.538.128h-9.71Zm18.424-2.689.672,2.689H67.881a1.215,1.215,0,0,0,1.08-.672l2.43-4.861a1.215,1.215,0,0,0-.413-1.555l-.306-.2h.015A6.067,6.067,0,0,1,76.582,36.359ZM49.563,19.965a14.367,14.367,0,0,0,1.3-5.383,12.152,12.152,0,0,1,24.3,0,14.368,14.368,0,0,0,1.3,5.383,12.3,12.3,0,0,1,1.132,4.5,4.866,4.866,0,0,1-4.861,4.861H67.873V27.944a10.536,10.536,0,0,0,4.861-8.9V12.482A6.012,6.012,0,0,0,71.166,8.4a11.274,11.274,0,0,0-.818-.8,1.215,1.215,0,0,0-1.671.054,15.254,15.254,0,0,1-10.781,4.5H54.506a1.215,1.215,0,0,0-1.215,1.215v6.157a9.88,9.88,0,0,0,4.861,8.482v1.321H53.291a4.866,4.866,0,0,1-4.861-4.861,12.3,12.3,0,0,1,1.132-4.5Z" transform="translate(-46)" fill="#181c2b"/>
</svg>
