<svg xmlns="http://www.w3.org/2000/svg" width="536.635" height="442.386" viewBox="0 0 536.635 442.386"><g transform="translate(-990 -1246)"><g transform="translate(988.578 1246.526)"><path d="M482.4,386.14c-27.04-20.54-73.29-71.52-12.39-151.55,75.31-98.96-14.88-139.56-101.33-135.32-69.55,3.41-147.82-84.03-225.9-68.4C39.15,51.61,106.44,140.86,36.17,188.94c-59.93,41.01-34.2,165.95,43.8,197.2Z" fill="#d3e8ee"/><path d="M494.14,338.05a14.952,14.952,0,0,0,6.74-11.32c.91-10.39.87-34.54-18.89-35.2-11.99-.4-20.03,20.89-13.13,34.72C474.79,338.12,485.58,343.51,494.14,338.05Z" fill="#d3e8ee"/><path d="M358.44,78.69s22.6,24.43,45.41,8.17C422.29,73.72,400.01,55.6,383,53.19,364.55,50.57,343.55,61.14,358.44,78.69Z" fill="#d3e8ee"/><path d="M42.51,160.02s23.25-22.37,7.06-44.18c-13.09-17.63-30.23,4.32-32.24,20.86C15.14,154.64,25.78,174.79,42.51,160.02Z" fill="#d3e8ee"/></g><ellipse cx="247.24" cy="16.15" rx="247.24" ry="16.15" transform="translate(1012.118 1619.506)" fill="#d3e8ee"/><g transform="translate(988.578 1246.526)"><path d="M503.78,33.84c-11.44,18.09,5.32,15.63-3.01,29.22-7.58,12.39-24.39,5.78-17.82,30.38,1.44,5.38-1.61,10.3-6.68,13.61a21.654,21.654,0,0,1-24.89-.68c-.56-.4-1.1-.83-1.63-1.29a22.049,22.049,0,0,1-7.35-20.46c1.11-6.77,4.17-13.87,11.49-18.08,17.18-9.87,1.41-32.01,16.78-36.6,18.53-5.54,17.65-12.59,28.9-24.91C511.52-8.03,519.28,9.32,503.78,33.84Z" fill="#007d55"/><path d="M495.34,27.27c-.32.52-26.6,43.54-43.96,79.11-.56-.4-1.1-.83-1.63-1.29,17.43-35.6,43.54-78.36,43.86-78.88a1.014,1.014,0,0,1,1.73,1.06Z" fill="#04593a"/><path d="M518.68,82.26c-20.06,18.84,1.58,21.17-13.15,35.4-13.43,12.98-32.22-.65-31.97,32.08.06,7.16-5.32,12.3-12.7,14.79a27.833,27.833,0,0,1-30.76-8.86,25.837,25.837,0,0,1-1.61-2.13,28.373,28.373,0,0,1-2.56-27.84c3.56-8.07,9.66-15.92,20.13-18.8,24.56-6.75,12.07-39.39,32.67-40.16,24.85-.93,26.02-9.99,44-21.7C541.8,32.64,545.88,56.74,518.68,82.26Z" fill="#00b570"/><path d="M510.3,71.37c-.56.54-47.13,45.63-80.2,84.32a25.837,25.837,0,0,1-1.61-2.13c33.16-38.71,79.43-83.52,80-84.06a1.3,1.3,0,0,1,1.81,1.87Z" fill="#007d55"/></g><g transform="translate(988.578 1246.526)"><path d="M39.24,34.97c8.14,19.8-7.94,14.47-2.09,29.3,5.33,13.51,23.02,9.91,12.3,33.01-2.35,5.05-.2,10.42,4.23,14.56a21.66,21.66,0,0,0,24.63,3.64c.62-.3,1.23-.63,1.82-.99A22.075,22.075,0,0,0,90.91,95.6c.08-6.86-1.71-14.39-8.19-19.79C67.5,63.12,86.86,44.04,72.52,36.86,55.23,28.2,57.32,21.4,48.36,7.32,38.86-7.6,28.21,8.15,39.24,34.97Z" fill="#007d55"/><path d="M48.69,29.96c.22.57,18.67,47.48,29.62,85.52.62-.3,1.23-.63,1.82-.99C69.12,76.41,50.8,29.78,50.57,29.22a1.01,1.01,0,0,0-1.88.74Z" fill="#04593a"/><path d="M16.07,86.68c17.16,21.51-4.6,20.72,7.95,36.92,11.44,14.77,31.98,3.96,27.05,36.33-1.08,7.08,3.5,12.94,10.46,16.46a27.837,27.837,0,0,0,31.71-4.36c.66-.59,1.29-1.22,1.9-1.88a28.364,28.364,0,0,0,6.51-27.19c-2.37-8.49-7.28-17.14-17.23-21.49-23.34-10.2-6.31-40.71-26.59-44.42C33.37,72.57,33.51,63.44,17.39,49.28.3,34.26-7.19,57.53,16.07,86.68Z" fill="#00b570"/><path d="M25.93,77.1c.48.62,40.11,51.91,67.3,94.93.66-.59,1.29-1.22,1.9-1.88C67.85,127.1,28.47,76.12,27.99,75.5a1.3,1.3,0,1,0-2.06,1.6Z" fill="#007d55"/></g><path d="M234.12,97.28c-8.46-5.8-29.66,8.5-40.74,25.86l9.83-27.54a60.3,60.3,0,0,1,19.52-10.87c15.14-5.37,30.31-13.77,21.84-19.58-7.95-5.44-27.11,6.83-38.6,22.71L218.6,52.49a39.658,39.658,0,0,1,11.03-5.81c9.54-3.38,19.1-8.68,13.76-12.34-4.64-3.18-15.34,3.22-22.64,12.13l4.09-11.46a57.58,57.58,0,0,1,8.73-12.43c9.72-10.06,17.07-21.37,9.57-23.01s-19.78,18.07-21.72,35.87l-2.11,5.9c1.64-12.95-3.02-28.63-9.51-29.18-6.45-.55-2.41,9.6,2.84,18.26,3.99,6.59,5.09,11.82,5.39,14.53l-9.95,27.86c2.53-20.52-4.84-45.26-15.12-46.13-10.24-.88-3.82,15.24,4.5,28.98,6.29,10.38,8.06,18.64,8.54,22.96l-11.93,33.41c2.11-20.27-5.14-44.88-15.25-44.96-7.8-.06-5.41,10.95,3.9,26.49a66.108,66.108,0,0,1,9,25.04l-5.62,15.74a5.148,5.148,0,0,0,2.89,1.03l2.24-6.26c3.16-3.05,9.73-8.25,21.04-12.25C227.43,111.49,242.6,103.09,234.12,97.28Z" transform="translate(988.578 1246.526)" fill="#00b570"/><path d="M473.99,90.3V387.31a4.983,4.983,0,0,1-4.99,4.98H62.61a4.967,4.967,0,0,1-4.98-4.98V90.3a4.989,4.989,0,0,1,4.98-4.99h406.4a4.97,4.97,0,0,1,4.98,4.99Z" transform="translate(988.578 1246.526)" fill="#0c375a"/><path d="M473.99,90.3V387.31a4.983,4.983,0,0,1-4.99,4.98H62.61a4.99,4.99,0,0,1-3.33-1.27L473.02,87.34A4.973,4.973,0,0,1,473.99,90.3Z" transform="translate(988.578 1246.526)" fill="#001030"/><path d="M462.15,102.65V374.97a5.493,5.493,0,0,1-5.49,5.49H74.96a5.493,5.493,0,0,1-5.49-5.49V102.65a5.493,5.493,0,0,1,5.49-5.49h381.7A5.493,5.493,0,0,1,462.15,102.65Z" transform="translate(988.578 1246.526)" fill="#fff"/><path d="M462.15,102.65v19.11H69.47V102.65a5.493,5.493,0,0,1,5.49-5.49h381.7A5.493,5.493,0,0,1,462.15,102.65Z" transform="translate(988.578 1246.526)" fill="#d3e8ee"/><path d="M136.03,110.1h0a3.271,3.271,0,0,0,3.27,3.27H425.54a3.271,3.271,0,0,0,3.27-3.27h0a3.263,3.263,0,0,0-3.27-3.26H139.3A3.256,3.256,0,0,0,136.03,110.1Z" transform="translate(988.578 1246.526)" fill="#fff"/><path d="M91.3,110.1v2.42a.9.9,0,0,1-1.35.78l-2.09-1.21-2.1-1.21a.9.9,0,0,1,0-1.56l2.1-1.21,2.09-1.21a.9.9,0,0,1,1.35.78Z" transform="translate(988.578 1246.526)" fill="#2e3062"/><path d="M102.2,110.1v2.42a.9.9,0,0,0,1.35.78l2.09-1.21,2.1-1.21a.9.9,0,0,0,0-1.56l-2.1-1.21-2.09-1.21a.9.9,0,0,0-1.35.78Z" transform="translate(988.578 1246.526)" fill="#2e3062"/><path d="M355.56,147.2l1.18-6.02-5.64-1.11a13.71,13.71,0,0,0-.75-4.41l4.65-3.12-3.42-5.1-4.45,2.99a13.537,13.537,0,0,0-4.57-3.07l1.11-5.64-6.02-1.18-1.14,5.82a13.561,13.561,0,0,0-3.66.71l-3.12-4.65-5.1,3.42,2.99,4.45a13.537,13.537,0,0,0-3.07,4.57l-4.93-.97-1.18,6.02,5.11,1a13.819,13.819,0,0,0,1.08,4.65l-4.45,2.99,3.42,5.1,4.65-3.12a13.728,13.728,0,0,0,4.49,2.61l-1.12,5.68,6.02,1.18,1.21-6.16a13.894,13.894,0,0,0,3.9-1.03l2.99,4.45,5.1-3.42-3.12-4.65a13.9,13.9,0,0,0,2.05-3.12Zm-15.12-2.41a5.627,5.627,0,1,1,1.53-7.81A5.639,5.639,0,0,1,340.44,144.79Z" transform="translate(988.578 1246.526)" fill="#e8e8f9"/><path d="M438.48,157.17l.65-3.29-3.08-.61a7.441,7.441,0,0,0-.41-2.41l2.54-1.71-1.87-2.78L433.88,148a7.446,7.446,0,0,0-2.5-1.68l.61-3.08-3.29-.65-.62,3.18a7.621,7.621,0,0,0-2,.39l-1.71-2.54-2.78,1.87,1.63,2.43a7.349,7.349,0,0,0-1.68,2.5l-2.7-.53-.65,3.29,2.79.55a7.579,7.579,0,0,0,.59,2.54l-2.43,1.63,1.87,2.78,2.54-1.71a7.376,7.376,0,0,0,2.45,1.42l-.61,3.1,3.29.65.66-3.36a7.712,7.712,0,0,0,2.13-.56l1.63,2.43,2.78-1.87-1.71-2.54a7.639,7.639,0,0,0,1.12-1.71Zm-8.27-1.31a3.077,3.077,0,1,1,.84-4.27A3.076,3.076,0,0,1,430.21,155.86Z" transform="translate(988.578 1246.526)" fill="#e8e8f9"/><path d="M132.6,207.7l.65-3.29-3.08-.61a7.441,7.441,0,0,0-.41-2.41l2.54-1.71-1.87-2.78L128,198.53a7.446,7.446,0,0,0-2.5-1.68l.61-3.08-3.29-.65-.62,3.18a7.621,7.621,0,0,0-2,.39l-1.71-2.54-2.78,1.87,1.63,2.43a7.446,7.446,0,0,0-1.68,2.5l-2.7-.53-.65,3.29,2.79.55a7.579,7.579,0,0,0,.59,2.54l-2.43,1.63,1.87,2.78,2.54-1.71a7.377,7.377,0,0,0,2.45,1.42l-.61,3.1,3.29.65.66-3.36a7.712,7.712,0,0,0,2.13-.56l1.63,2.43,2.78-1.87-1.71-2.54a7.639,7.639,0,0,0,1.12-1.71Zm-8.26-1.32a3.077,3.077,0,1,1,.84-4.27A3.076,3.076,0,0,1,124.34,206.38Z" transform="translate(988.578 1246.526)" fill="#e8e8f9"/><g transform="translate(988.578 1246.526)"><path d="M24.74,196.92H9.34a6.542,6.542,0,0,1-6.54-6.54v-15.4a6.542,6.542,0,0,1,6.54-6.54h15.4a6.542,6.542,0,0,1,6.54,6.54v15.4A6.542,6.542,0,0,1,24.74,196.92Z" fill="#1797e5"/><path d="M15.45,184.19a6.136,6.136,0,1,1,8.67-.35A6.143,6.143,0,0,1,15.45,184.19Zm6.94-7.52a4.112,4.112,0,1,0,.23,5.81A4.119,4.119,0,0,0,22.39,176.67Z" fill="#fff"/><path d="M8.67,191.54a1.012,1.012,0,0,1-.06-1.43l6.78-7.34a1.012,1.012,0,0,1,1.49,1.37l-6.78,7.34A1.021,1.021,0,0,1,8.67,191.54Z" fill="#fff"/></g><g transform="translate(988.578 1246.526)"><path d="M510.72,255.2h-15.4a6.542,6.542,0,0,1-6.54-6.54v-15.4a6.542,6.542,0,0,1,6.54-6.54h15.4a6.542,6.542,0,0,1,6.54,6.54v15.4A6.542,6.542,0,0,1,510.72,255.2Z" fill="#fc5f2d"/><path d="M497.58,241.11v-5.46a.924.924,0,0,1,1.35-.82l5.33,2.78,5.11,2.67a.918.918,0,0,1,0,1.63l-5.11,2.67-5.33,2.78a.923.923,0,0,1-1.35-.82Z" fill="#fff"/></g><g transform="translate(988.578 1246.526)" opacity="0.5"><ellipse cx="8.93" cy="9.61" rx="8.93" ry="9.61" transform="translate(441.96 30.82)" fill="#ccd3e6"/></g><g transform="translate(988.578 1246.526)"><path d="M494.24,360.19a8.231,8.231,0,1,1-11.03-3.72A8.225,8.225,0,0,1,494.24,360.19Z" fill="#d3e8ee"/></g><g transform="translate(988.578 1246.526)"><path d="M484.77,431.41c0,3.64-23.68,6.58-52.89,6.58s-52.89-2.95-52.89-6.58,23.68-6.58,52.89-6.58S484.77,427.77,484.77,431.41Z" fill="#d3e8ee"/><path d="M423.95,317.04s-11,2.44-9.36-5.24,1.51-10.5-2.96-13.99-8.97-5.21-5.55-10.73-3.07-9.82-6.43-12.79.43-5.21,1.32-10.83-5.16-4.77-5.63-11.85,6.72-15.35.53-25.09c0,0,8.3,4.31,11.03,11.87s.53,13.41,5.43,16.28,7.98,7.85,6.31,12.95.7,7.81,4.72,11.53,2.95,5.2,2.45,9.75.5,3.48,5.11,9.69S435.65,315,423.95,317.04Z" fill="#007d55"/><path d="M425.51,316.7c-.02-.04-.04-.07-.06-.12l-22.01-66.8a.545.545,0,0,1,.35-.69h.01a.547.547,0,0,1,.68.35l22.01,66.79a.453.453,0,0,1,.03.16Z" fill="#00333c"/><path d="M443.79,316.9s10.94,2.42,9.31-5.21-1.51-10.45,2.94-13.92,8.92-5.18,5.52-10.68,3.06-9.76,6.39-12.72-.43-5.19-1.31-10.78,5.13-4.75,5.6-11.79-6.68-15.27-.53-24.96c0,0-8.26,4.28-10.97,11.81s-.52,13.34-5.4,16.2-7.93,7.81-6.28,12.88-.7,7.77-4.7,11.47-2.93,5.17-2.44,9.7-.5,3.46-5.08,9.64S432.15,314.87,443.79,316.9Z" fill="#007d55"/><path d="M441.23,316.26a.453.453,0,0,1,.03-.16l21.89-66.44a.547.547,0,0,1,.68-.35h.01a.553.553,0,0,1,.35.69L442.3,316.44a.338.338,0,0,1-.06.12Z" fill="#00333c"/><path d="M431.65,315.51s-12.59-1.04-8.29-8.72,5.11-10.75,1.48-15.97-7.88-8.56-2.37-13.34-.03-11.53-2.64-15.83,2.19-5.44,5.01-11.16-3.94-6.83-2.09-14.57,12.29-14.21,8.9-26.7c0,0,7.46,7.37,7.87,16.38s-3.89,14.53.41,19.24,5.94,11.05,2.46,15.97-1.84,8.6,1.23,13.92,1.43,6.55-.61,11.26-.61,3.89,2.25,12.08S444.86,317.21,431.65,315.51Z" fill="#00b570"/><path d="M433.44,315.67a.68.68,0,0,1-.02-.15l-1.39-78.85a.6.6,0,0,1,.6-.62h.01a.61.61,0,0,1,.61.6l1.39,78.85a1.1,1.1,0,0,1-.02.18Z" fill="#005b5c"/><path d="M468.29,312.84l-.91,2.42-.58,1.53-1.65,4.39-.58,1.53-1.7,4.51-.58,1.53-7.28,19.33H415.24l-7.28-19.33-.58-1.53-1.7-4.51-.58-1.53-1.65-4.39-.58-1.53-.91-2.42a2.537,2.537,0,0,1,2.37-3.43H465.9A2.541,2.541,0,0,1,468.29,312.84Z" fill="#ffbf63"/><path d="M467.38,315.26l-.57,1.53H403.47l-.58-1.53Z" fill="#ff9024"/><path d="M465.15,321.18l-.57,1.53H405.7l-.58-1.53Z" fill="#ff9024"/><path d="M462.88,327.22l-.58,1.53H407.97l-.57-1.53Z" fill="#ff9024"/><path d="M461.16,336.66H408.43l-.58-4.29h53.88Z" fill="#00312d"/><path d="M467.37,409.75H402.62l-.71-4.29h66.17Z" fill="#00312d"/><path d="M473.05,431.67l-15.36-95.01h-4.02l15.8,95.01Z" fill="#00312d"/><path d="M400.27,431.67l15.8-95.01h-4.02l-15.37,95.01Z" fill="#00312d"/></g><g transform="translate(988.578 1246.526)"><path d="M292.06,354.83h-52.9a7.994,7.994,0,0,1-7.99-7.99V281.99a7.994,7.994,0,0,1,7.99-7.99h52.9a7.994,7.994,0,0,1,7.99,7.99v64.85A8,8,0,0,1,292.06,354.83Z" fill="#d3e8ee"/><path d="M286.16,347.58H270.81a5.2,5.2,0,0,1-5.2-5.2v-1.99a5.2,5.2,0,0,1,5.2-5.2h15.35a5.2,5.2,0,0,1,5.2,5.2v1.99A5.2,5.2,0,0,1,286.16,347.58Z" fill="#dd2f37"/><text transform="translate(273.273 343.724)" fill="#fff" font-size="5.95" font-family="GothamRounded-Medium, Gotham Rounded" font-weight="500"><tspan x="0" y="0">Bid</tspan></text><circle cx="8.11" cy="8.11" r="8.11" transform="translate(257.05 281.27)" fill="#aecacc"/><path d="M282.14,314.48v-.21a16.982,16.982,0,0,0-33.96-.07v.28h33.96Z" fill="#aecacc"/><path d="M292.13,324.15H238.89a1.472,1.472,0,0,1-1.47-1.47v-.56a1.472,1.472,0,0,1,1.47-1.47h53.24a1.472,1.472,0,0,1,1.47,1.47v.56A1.472,1.472,0,0,1,292.13,324.15Z" fill="#fff"/><path d="M265.84,331H238.99a1.472,1.472,0,0,1-1.47-1.47v-.56a1.472,1.472,0,0,1,1.47-1.47h26.85a1.472,1.472,0,0,1,1.47,1.47v.56A1.466,1.466,0,0,1,265.84,331Z" fill="#fff"/><text transform="translate(238.451 345.747)" fill="#0c375a" font-size="11.9" font-family="GothamRounded-Bold, Gotham Rounded" font-weight="700"><tspan x="0" y="0">$</tspan></text><path d="M256.69,343.81h-7.77a2.053,2.053,0,0,1-2.05-2.05v-.78a2.053,2.053,0,0,1,2.05-2.05h7.77a2.053,2.053,0,0,1,2.05,2.05v.78A2.059,2.059,0,0,1,256.69,343.81Z" fill="#fff"/></g><g transform="translate(988.578 1246.526)"><path d="M211.5,356.36H158.6a7.994,7.994,0,0,1-7.99-7.99V283.52a7.994,7.994,0,0,1,7.99-7.99h52.9a7.994,7.994,0,0,1,7.99,7.99v64.85A8,8,0,0,1,211.5,356.36Z" fill="#d3e8ee"/><path d="M205.6,349.12H190.25a5.2,5.2,0,0,1-5.2-5.2v-1.99a5.2,5.2,0,0,1,5.2-5.2H205.6a5.2,5.2,0,0,1,5.2,5.2v1.99A5.2,5.2,0,0,1,205.6,349.12Z" fill="#dd2f37"/><text transform="translate(192.715 345.255)" fill="#fff" font-size="5.95" font-family="GothamRounded-Medium, Gotham Rounded" font-weight="500"><tspan x="0" y="0">Bid</tspan></text><circle cx="8.11" cy="8.11" r="8.11" transform="translate(176.49 282.81)" fill="#aecacc"/><path d="M201.58,316.01v-.21a16.982,16.982,0,0,0-33.96-.07v.28h33.96Z" fill="#aecacc"/><path d="M211.57,325.68H158.33a1.472,1.472,0,0,1-1.47-1.47v-.56a1.472,1.472,0,0,1,1.47-1.47h53.24a1.472,1.472,0,0,1,1.47,1.47v.56A1.472,1.472,0,0,1,211.57,325.68Z" fill="#fff"/><path d="M185.28,332.54H158.43a1.472,1.472,0,0,1-1.47-1.47v-.56a1.472,1.472,0,0,1,1.47-1.47h26.85a1.472,1.472,0,0,1,1.47,1.47v.56A1.472,1.472,0,0,1,185.28,332.54Z" fill="#fff"/><text transform="translate(157.892 347.279)" fill="#0c375a" font-size="11.9" font-family="GothamRounded-Bold, Gotham Rounded" font-weight="700"><tspan x="0" y="0">$</tspan></text><path d="M176.13,345.34h-7.77a2.053,2.053,0,0,1-2.05-2.05v-.78a2.053,2.053,0,0,1,2.05-2.05h7.77a2.053,2.053,0,0,1,2.05,2.05v.78A2.059,2.059,0,0,1,176.13,345.34Z" fill="#fff"/></g><g transform="translate(988.578 1246.526)"><path d="M373.32,354.89h-52.9a7.994,7.994,0,0,1-7.99-7.99V282.05a7.994,7.994,0,0,1,7.99-7.99h52.9a7.994,7.994,0,0,1,7.99,7.99V346.9A7.994,7.994,0,0,1,373.32,354.89Z" fill="#d3e8ee"/><path d="M367.42,347.65H352.07a5.2,5.2,0,0,1-5.2-5.2v-1.99a5.2,5.2,0,0,1,5.2-5.2h15.35a5.2,5.2,0,0,1,5.2,5.2v1.99A5.2,5.2,0,0,1,367.42,347.65Z" fill="#dd2f37"/><text transform="translate(354.538 343.785)" fill="#fff" font-size="5.95" font-family="GothamRounded-Medium, Gotham Rounded" font-weight="500"><tspan x="0" y="0">Bid</tspan></text><circle cx="8.11" cy="8.11" r="8.11" transform="translate(338.32 281.34)" fill="#aecacc"/><path d="M363.41,314.54v-.21a16.982,16.982,0,0,0-33.96-.07v.28h33.96Z" fill="#aecacc"/><path d="M373.39,324.21H320.15a1.472,1.472,0,0,1-1.47-1.47v-.56a1.472,1.472,0,0,1,1.47-1.47h53.24a1.472,1.472,0,0,1,1.47,1.47v.56A1.472,1.472,0,0,1,373.39,324.21Z" fill="#fff"/><path d="M347.1,331.07H320.25a1.472,1.472,0,0,1-1.47-1.47v-.56a1.472,1.472,0,0,1,1.47-1.47H347.1a1.472,1.472,0,0,1,1.47,1.47v.56A1.472,1.472,0,0,1,347.1,331.07Z" fill="#fff"/><text transform="translate(319.716 345.808)" fill="#0c375a" font-size="11.9" font-family="GothamRounded-Bold, Gotham Rounded" font-weight="700"><tspan x="0" y="0">$</tspan></text><path d="M337.95,343.87h-7.77a2.053,2.053,0,0,1-2.05-2.05v-.78a2.053,2.053,0,0,1,2.05-2.05h7.77a2.053,2.053,0,0,1,2.05,2.05v.78A2.053,2.053,0,0,1,337.95,343.87Z" fill="#fff"/></g><g transform="translate(988.578 1246.526)"><path d="M70.43,262.82c22.8-1.93,44.42,13.56,64.52,39.02,0,0,14.27,17.48,49.66,23.3a69.341,69.341,0,0,1,15.64,4.3c52.04,21.86,43.84,97.43-11.21,106.85H107.52L18.95,293.95Q38.735,270.04,70.43,262.82Z" fill="#f88800"/><path d="M171.91,323.4c7.79,9.06,10.2,21.8,9.76,33.43-.44,11.69-22.41,3.85-51.06-1.12-11.12-1.93-111.65-61.77-111.65-61.77q19.785-23.895,51.48-31.13c22.8-1.93,44.42,13.56,64.52,39.02,0,0,10.46,12.79,35.63,20.13C171.04,322.44,171.48,322.91,171.91,323.4Z" fill="#ff7960" opacity="0.37"/><path d="M98.63,214.23a14.732,14.732,0,0,1,4.18,13.6c-.46,2.09-1.39,4.21-.89,6.3.52,2.16,2.41,3.65,3.97,5.23s2.91,3.89,2.04,5.93c-.68,1.58-2.53,2.51-2.94,4.18a4.219,4.219,0,0,0,1.2,3.6c.87.99,1.95,1.77,2.79,2.79a7.688,7.688,0,0,1,.32,9.06,18.071,18.071,0,0,1-4.41,3.84,9.959,9.959,0,0,0-3.81,4.36c-.66,1.84-.06,4.27,1.75,5.03a12.956,12.956,0,0,1-12.16-11.1c.39,3.02-1.89,5.88-4.66,7.15s-5.92,1.32-8.97,1.34c2.49-.02,4.33-2.7,4.19-5.19s-1.77-4.64-3.63-6.29-4.03-2.93-5.82-4.65c-5.32-5.1-6.58-13.13-6.24-20.49a62.793,62.793,0,0,1,8.42-28.5" fill="#001030"/><path d="M144.78,295.61s17.53-7.35,22.44,3.15c0,0,1.95,3.5-4.6-1.73,0,0-2.53-1.34-3.58-.6,0,0,6.56,3.25,7.18,4.86.31.82-1.31,3.3-8.13-2.98,0,0,3.72,3.37,4.34,5.59a.945.945,0,0,1-1.61.89l-4.62-5.08,3.12,5.6a.987.987,0,0,1-.19,1.24c-.61.5-1.98.27-4.83-4.97h0c-.02.02-.03.05-.05.05-3.35,1.05-6.22,1.47-9.46-.17l-.6-.56Z" fill="#ffb58c"/><path d="M88.69,251.68l.25.54,3.09,6.64,5.94,12.76,15.2,24.41,1.04,1.66,1.44,2.29a.092.092,0,0,0,.04.06,8.631,8.631,0,0,0,8.28,3.85l16.13-1.87,8.61-.99c3.51-.36,4.76-5.03,4.76-5.03l-29.15-4.07c-.59-.85-1.17-1.7-1.75-2.55-.32-.47-.63-.94-.95-1.42a150.593,150.593,0,0,1-13.88-26.59,16.864,16.864,0,0,0-5.69-7.51.746.746,0,0,0-.12-.07,13.027,13.027,0,0,0-8.11-2.35l-4.56.2Z" fill="#493bb5"/><path d="M92.03,258.86l5.94,12.76,15.2,24.41,1.04,1.66,1.44,2.29a.092.092,0,0,0,.04.06,8.631,8.631,0,0,0,8.28,3.85l16.13-1.87-20.15-2.82c-.59-.84-1.17-1.7-1.74-2.55-.33-.47-.64-.94-.95-1.42a149.975,149.975,0,0,1-13.89-26.59,16.864,16.864,0,0,0-5.69-7.51c-.04-.03-.08-.05-.11-.07A13.238,13.238,0,0,0,92.03,258.86Z" fill="#493bb5"/><path d="M100.96,353.47l66.61,11.32,30.63,47.15,9.58,14.75s-2.69,8.43,3.43,8.02l26.73-1.75c.94-.06,2.08-.4,2.35-1.31,1.3-4.3-22.07-7.92-22.07-7.92l-5.51-13.71-28.62-71.19a19,19,0,0,0-12-9.45l-61.67-4.57-5.61-12.51-32.43,6.52C64.02,343.65,74.68,350.37,100.96,353.47Z" fill="#00b8f5"/><path d="M207.78,426.69s-2.69,8.43,3.43,8.02l26.73-1.75c.94-.06,2.08-.4,2.35-1.31,1.3-4.3-22.07-7.92-22.07-7.92l-5.51-13.71-14.5,1.92Z" fill="#4a3333"/><path d="M70.49,319.18c12.77-.28,21.38.47,30.86-.82a4.384,4.384,0,0,0,3.43-6.06,47.945,47.945,0,0,1-2.56-8.22,20.928,20.928,0,0,1,.21-2.74l2.07-14.53,2.62-3.77a11.981,11.981,0,0,0,.72-13.81s-1.05-1.38-2.56-3.37c-2.32-3.05-5.74-7.51-8.12-10.63-.42-.56-2.01-3.31-2.36-3.75a28.48,28.48,0,0,1-3.05-.34l-.04.01c-.51-.08-1.02-.15-1.53-.19a.127.127,0,0,0-.06-.01c-.53-.05-1.05-.08-1.59-.09-2.42-.06-4.85.15-7.28.17a15.073,15.073,0,0,1-3.97-.26c-.18.03-2.77.68-3.92.98h-.02c-.16.06-.32.11-.47.18-1.38.5-2.8,1.09-4.06,1.66a4.3,4.3,0,0,0-1.9,6.16,2.343,2.343,0,0,1,.37,1.39,61.144,61.144,0,0,0,1.1,14.9c.23,1.4.52,2.77.86,4.14,1.55,6.51,3.93,12.86,4.69,19.44a28.3,28.3,0,0,1-.16,7.07C73.74,306.93,71.97,313.46,70.49,319.18Z" fill="#493bb5"/><path d="M100.26,257.75a59.945,59.945,0,0,1,9.39,14.95.468.468,0,0,1-.85.39,58.91,58.91,0,0,0-9.26-14.75C99.15,257.89,99.87,257.3,100.26,257.75Z" fill="#493bb5"/><path d="M83.19,287.29a12.616,12.616,0,0,0,10.6-11.04c.06-.49.8-.3.74.19a13.2,13.2,0,0,1-11.32,11.62C82.72,288.13,82.71,287.36,83.19,287.29Z" fill="#493bb5"/><path d="M72.85,251.89c.01.01.02.03.03.04,3.72,4.44,6.86,8.76,11.88,11.55a8.914,8.914,0,0,0,4.37,1.29,5.235,5.235,0,0,0,4.08-1.81c3.38-4.24-2.63-11.95-2.63-11.95-.13-.02-.25-.04-.37-.05a.127.127,0,0,0-.06-.01c-.79-.11-1.28-.14-1.28-.14l.33-7.3.35-8.15-6.46-.02-4.8-.01h-.44l-.12,2.29-.35,7.5-.06,5.64c-.18.03-2.77.68-3.92.98h-.02C73.1,251.82,72.91,251.87,72.85,251.89Z" fill="#ffb58c"/><path d="M88.99,247.63v.98c-9.63-.38-10.63-10.44-10.73-13.28-.01-.47-.01-.74-.01-.74l4.8.76,5.45.85.66,7.31Z" fill="#ffb58c"/><path d="M98.36,228.05c-.25-1.9-.5-3.8-.61-5.72-.16-2.75-1.79-5.51-3.4-7.82a15.05,15.05,0,0,0-3.74-3.81,15.411,15.411,0,0,0-14.06-1.38c-6.1,2.56-6.71,8.72-5.04,14.26-3.92-1.93-4.09,3.07-4.09,3.07-.17,5,4.71,4.98,4.71,4.98a18.218,18.218,0,0,0,4.69,7.68,24.409,24.409,0,0,0,7.97,5.14,9.876,9.876,0,0,0,11.76-4.07,15.709,15.709,0,0,0,2.03-10.58C98.51,229.22,98.43,228.63,98.36,228.05Z" fill="#ffb58c"/><path d="M92.72,232.93a4.891,4.891,0,0,0-.76-1,7.089,7.089,0,0,1-.78-1.18,8.118,8.118,0,0,1-.88-2.65.493.493,0,0,0-.57-.36.447.447,0,0,0-.33.56,8.857,8.857,0,0,0,1.9,4.26c.39.47.94.98.46,1.55s-1.38.48-2.07.43c-.6-.04-.61.89-.01.93a3.518,3.518,0,0,0,2.57-.51A1.668,1.668,0,0,0,92.72,232.93Z" fill="#ffb58c"/><path d="M83.28,228.96c.17.86.77,1.49,1.35,1.41s.92-.83.75-1.68-.77-1.49-1.35-1.42S83.12,228.11,83.28,228.96Z" fill="#4a3333"/><path d="M92.49,228.4c.17.86.77,1.49,1.35,1.41s.92-.83.75-1.68-.77-1.49-1.35-1.42S92.33,227.55,92.49,228.4Z" fill="#4a3333"/><path d="M92.49,222.26a1,1,0,0,1,.6-.1,2.963,2.963,0,0,1,2.56,2.63,1.426,1.426,0,0,0-.34-.51c-.01-.01-.02-.01-.03-.02a1.546,1.546,0,0,0-.27-.24,2.806,2.806,0,0,0-1.26-.37,4.566,4.566,0,0,1-1.29-.28.554.554,0,0,1-.37-.51A.8.8,0,0,1,92.49,222.26Z" fill="#4a3333"/><path d="M84.49,222.34a1.158,1.158,0,0,0-.6-.18,2.617,2.617,0,0,0-2.63,2.3,1.286,1.286,0,0,1,.36-.47.037.037,0,0,1,.03-.01,1.464,1.464,0,0,1,.28-.21,2.79,2.79,0,0,1,1.27-.21,4.262,4.262,0,0,0,1.3-.12.474.474,0,0,0,.38-.46A.927.927,0,0,0,84.49,222.34Z" fill="#4a3333"/><path d="M83.73,235.59a6.612,6.612,0,0,0,5.8,1.87.474.474,0,0,1,.18.93,7.608,7.608,0,0,1-6.69-2.21C82.59,235.73,83.3,235.15,83.73,235.59Z" fill="#ffb58c"/><path d="M95.66,350.45l55.68,13.29,28.37,50.66,7.7,13.74s-3.24,8.24,2.9,8.24h26.78c.94,0,2.09-.27,2.43-1.16,1.59-4.2-21.5-9.36-21.5-9.36l-4.67-13.28L169.61,345a18.906,18.906,0,0,0-11.35-10.21l-48.57-9.38-4.78-12.85L70.5,319.18C60.57,343.41,75.12,349.19,95.66,350.45Z" fill="#00b8f5"/><path d="M187.4,428.14s-3.24,8.24,2.9,8.24h26.78c.94,0,2.09-.27,2.43-1.16,1.59-4.2-21.5-9.36-21.5-9.36l-4.67-13.28-13.64,1.81Z" fill="#4a3333"/><path d="M119.47,327.46q10.74,2.07,21.49,4.13,5.43,1.05,10.86,2.09a50.964,50.964,0,0,1,9.37,2.25,15.461,15.461,0,0,1,7.01,5.49,36.481,36.481,0,0,1,3.87,7.66c2.69,6.64,5.3,13.32,7.88,20.01q4.38,11.34,8.56,22.76c.4,1.09-1.34,1.56-1.74.48q-7.35-19.995-15.25-39.79c-2.07-5.19-4.05-11.33-9.3-14.16-2.73-1.47-5.88-1.99-8.89-2.57l-10.63-2.04L119,329.21C117.85,328.99,118.33,327.25,119.47,327.46Z" fill="#00b8f5"/><path d="M67.58,227.63c1.78,3.27,5.43,6.11,7.21,9.33,0,0,4.95-2.18,4.67-20.26a14.272,14.272,0,0,0,1.57.49c2.99.81,6.08,1.27,9,2.31,3.79,1.36,7.22,3.83,8.19,7.93a23.913,23.913,0,0,1,.47,5.28,19.023,19.023,0,0,1,.76-3.45c.24-1.23.44-2.47.59-3.71a25.153,25.153,0,0,0-.08-7.65c-1.65-8.96-11.9-14.29-20.42-13.99-9.68.35-15.58,13.05-12.93,21.43a12.63,12.63,0,0,0,.76,1.87Q67.475,227.435,67.58,227.63Z" fill="#001030"/><path d="M57.88,260.3a3.4,3.4,0,0,0-.08.46l-2.05,14.78-3.54,25.32a11.048,11.048,0,0,0,12.24,12.61s30.55-3.51,30.59-3.5l.66-.11a2.014,2.014,0,0,1,.23.07,1.762,1.762,0,0,1,.27.07,37.534,37.534,0,0,1,2.15-5.06l-28.23-4.26-.06-.01-3-.28.18-.92,5.98-36.33c.74-4.47-.34-11.2-.34-11.2-2.11-.2-10.7,2.59-12.22,3.81A7.64,7.64,0,0,0,57.88,260.3Z" fill="#493bb5"/><path d="M79.47,215.28a31.736,31.736,0,0,1-.56,18.36c-.79,2.33-1.87,4.77-1.25,7.15.46,1.79,1.81,3.18,2.83,4.71s1.76,3.56.88,5.18c-.63,1.16-2.02,1.96-2.14,3.27-.11,1.23.99,2.25,2.14,2.7s2.42.53,3.55,1.03a5.322,5.322,0,0,1,2.91,5.93c-.34,1.39-1.25,2.6-1.58,3.99s.26,3.24,1.68,3.42a20.462,20.462,0,0,1-6.1-.5,8.681,8.681,0,0,1-4.99-3.35c-1.93-2.92-1.34-6.99-3.3-9.89a8.788,8.788,0,0,0-5.84-3.42c-2.28-.4-3.72,1.05-6.03,1.27,1.86-.86,1.15-4.72.56-6.68s-1.67-3.91-1.35-5.94c.39-2.48,2.7-4.14,3.89-6.34a12.2,12.2,0,0,0,1-6.98,56.878,56.878,0,0,1-.63-7.12,14.954,14.954,0,0,1,6.76-11.84" fill="#001030"/><path d="M70.84,274.02q-1.62,12.975-3.86,25.85,13.425,2.4,27,3.7c.58.06.42.94-.15.89q-13.8-1.32-27.44-3.77a.459.459,0,0,1-.37-.52q2.28-13.1,3.94-26.29C70.02,273.29,70.91,273.45,70.84,274.02Z" fill="#493bb5"/><path d="M63.61,313.22a253.642,253.642,0,0,0,27.76-3.07c.57-.1.66.8.09.9a251.21,251.21,0,0,1-27.76,3.07C63.12,314.15,63.03,313.25,63.61,313.22Z" fill="#493bb5"/><path d="M95.09,304.36s19.16-2.26,21.4,9.12c0,0,1.05,3.87-4.05-2.79,0,0-2.14-1.91-3.33-1.44,0,0,5.59,4.73,5.8,6.44.11.87-2.06,2.89-7.18-4.85,0,0,2.8,4.16,2.87,6.47a.947.947,0,0,1-1.78.48l-3.27-6.04,1.68,6.18a1,1,0,0,1-.48,1.16c-.71.34-1.98-.21-3.5-5.99h0c-.02.01-.04.04-.07.04-3.5.22-6.39-.06-9.14-2.44l-.45-.69Z" fill="#ffb58c"/><path d="M137.69,321.3H89.26a5.439,5.439,0,0,0-5.44,5.44h53.87Z" fill="#fff"/><path d="M154.79,321.3H106.36a5.439,5.439,0,0,0-5.44,5.44h53.87Z" fill="#bee8f8"/><path d="M182.66,290.17H124.13a1.409,1.409,0,0,0-1.28.82l-15.44,33.74a1.412,1.412,0,0,0,1.28,2h58.53a1.409,1.409,0,0,0,1.28-.82l15.44-33.74A1.408,1.408,0,0,0,182.66,290.17Z" fill="#adb8c4"/><path d="M142.83,306.2a4.861,4.861,0,1,0,6.98-1.61A5.08,5.08,0,0,0,142.83,306.2Z" fill="#bee8f8"/><path d="M7.77,381.47a68.342,68.342,0,0,0,14.92,30.61,67.163,67.163,0,0,0,22.06,16.7,78.642,78.642,0,0,0,34.05,7.51h66.58c34.03-30.81,11.05-91.54-56.1-107.49A99,99,0,0,1,59.8,316.48C43.09,306.03,36.53,295,46.72,282.96c2.97-3.51,4.87-5.44,9.02-7.44,0,0,2.05-14.62,2.06-14.77C26.93,271.04,9.16,292.07,4.4,323.28Q.59,348.12,7.77,381.47Z" fill="#ffaa01"/><path d="M7.77,381.47a68.342,68.342,0,0,0,14.92,30.61,67.163,67.163,0,0,0,22.06,16.7,78.642,78.642,0,0,0,34.05,7.51h36.08c13.24-32.29-12.01-77.04-68.23-90.4a98.535,98.535,0,0,1-29.49-12.32A57.491,57.491,0,0,1,4.4,323.28Q.59,348.12,7.77,381.47Z" fill="#f88800"/></g><g transform="translate(988.578 1246.526)"><path d="M211.94,263.55h-52.9a7.994,7.994,0,0,1-7.99-7.99V190.71a7.994,7.994,0,0,1,7.99-7.99h52.9a7.994,7.994,0,0,1,7.99,7.99v64.85A7.987,7.987,0,0,1,211.94,263.55Z" fill="#a9e0ed"/><path d="M206.04,256.31H190.69a5.2,5.2,0,0,1-5.2-5.2v-1.99a5.2,5.2,0,0,1,5.2-5.2h15.35a5.2,5.2,0,0,1,5.2,5.2v1.99A5.2,5.2,0,0,1,206.04,256.31Z" fill="#dd2f37"/><text transform="translate(193.161 252.45)" fill="#fff" font-size="5.95" font-family="GothamRounded-Medium, Gotham Rounded" font-weight="500"><tspan x="0" y="0">Bid</tspan></text><circle cx="8.11" cy="8.11" r="8.11" transform="translate(176.94 190)" fill="#57a6c1"/><path d="M202.03,223.21V223a16.982,16.982,0,0,0-33.96-.07v.28h33.96Z" fill="#57a6c1"/><path d="M212.01,232.87H158.77a1.472,1.472,0,0,1-1.47-1.47v-.56a1.472,1.472,0,0,1,1.47-1.47h53.24a1.472,1.472,0,0,1,1.47,1.47v.56A1.466,1.466,0,0,1,212.01,232.87Z" fill="#fff"/><path d="M185.72,239.73H158.87a1.472,1.472,0,0,1-1.47-1.47v-.56a1.472,1.472,0,0,1,1.47-1.47h26.85a1.472,1.472,0,0,1,1.47,1.47v.56A1.466,1.466,0,0,1,185.72,239.73Z" fill="#fff"/><text transform="translate(158.337 254.475)" fill="#0c375a" font-size="11.9" font-family="GothamRounded-Bold, Gotham Rounded" font-weight="700"><tspan x="0" y="0">$</tspan></text><path d="M176.57,252.54H168.8a2.053,2.053,0,0,1-2.05-2.05v-.78a2.053,2.053,0,0,1,2.05-2.05h7.77a2.053,2.053,0,0,1,2.05,2.05v.78A2.053,2.053,0,0,1,176.57,252.54Z" fill="#fff"/></g><g transform="translate(988.578 1246.526)"><path d="M292.89,263.61h-52.9a7.994,7.994,0,0,1-7.99-7.99V190.77a7.994,7.994,0,0,1,7.99-7.99h52.9a7.994,7.994,0,0,1,7.99,7.99v64.85A7.994,7.994,0,0,1,292.89,263.61Z" fill="#d3e8ee"/><path d="M286.98,256.37H271.63a5.2,5.2,0,0,1-5.2-5.2v-1.99a5.2,5.2,0,0,1,5.2-5.2h15.35a5.2,5.2,0,0,1,5.2,5.2v1.99A5.2,5.2,0,0,1,286.98,256.37Z" fill="#dd2f37"/><text transform="translate(274.102 252.511)" fill="#fff" font-size="5.95" font-family="GothamRounded-Medium, Gotham Rounded" font-weight="500"><tspan x="0" y="0">Bid</tspan></text><circle cx="8.11" cy="8.11" r="8.11" transform="translate(257.88 190.06)" fill="#aecacc"/><path d="M282.97,223.27v-.21a16.982,16.982,0,0,0-33.96-.07v.28h33.96Z" fill="#aecacc"/><path d="M292.95,232.93H239.71a1.472,1.472,0,0,1-1.47-1.47v-.56a1.472,1.472,0,0,1,1.47-1.47h53.24a1.472,1.472,0,0,1,1.47,1.47v.56A1.46,1.46,0,0,1,292.95,232.93Z" fill="#fff"/><path d="M266.67,239.79H239.82a1.472,1.472,0,0,1-1.47-1.47v-.56a1.472,1.472,0,0,1,1.47-1.47h26.85a1.472,1.472,0,0,1,1.47,1.47v.56A1.472,1.472,0,0,1,266.67,239.79Z" fill="#fff"/><text transform="translate(239.278 254.535)" fill="#0c375a" font-size="11.9" font-family="GothamRounded-Bold, Gotham Rounded" font-weight="700"><tspan x="0" y="0">$</tspan></text><path d="M257.52,252.6h-7.77a2.053,2.053,0,0,1-2.05-2.05v-.78a2.053,2.053,0,0,1,2.05-2.05h7.77a2.053,2.053,0,0,1,2.05,2.05v.78A2.059,2.059,0,0,1,257.52,252.6Z" fill="#fff"/></g><g transform="translate(988.578 1246.526)"><path d="M374.15,263.68h-52.9a7.994,7.994,0,0,1-7.99-7.99V190.84a7.994,7.994,0,0,1,7.99-7.99h52.9a7.994,7.994,0,0,1,7.99,7.99v64.85A7.993,7.993,0,0,1,374.15,263.68Z" fill="#d3e8ee"/><path d="M368.25,256.43H352.9a5.2,5.2,0,0,1-5.2-5.2v-1.99a5.2,5.2,0,0,1,5.2-5.2h15.35a5.2,5.2,0,0,1,5.2,5.2v1.99A5.2,5.2,0,0,1,368.25,256.43Z" fill="#dd2f37"/><text transform="translate(355.365 252.572)" fill="#fff" font-size="5.95" font-family="GothamRounded-Medium, Gotham Rounded" font-weight="500"><tspan x="0" y="0">Bid</tspan></text><circle cx="8.11" cy="8.11" r="8.11" transform="translate(339.14 190.12)" fill="#aecacc"/><path d="M364.23,223.33v-.21a16.982,16.982,0,0,0-33.96-.07v.28h33.96Z" fill="#aecacc"/><path d="M374.22,232.99H320.98a1.472,1.472,0,0,1-1.47-1.47v-.56a1.472,1.472,0,0,1,1.47-1.47h53.24a1.472,1.472,0,0,1,1.47,1.47v.56A1.466,1.466,0,0,1,374.22,232.99Z" fill="#fff"/><path d="M347.93,239.85H321.08a1.472,1.472,0,0,1-1.47-1.47v-.56a1.472,1.472,0,0,1,1.47-1.47h26.85a1.472,1.472,0,0,1,1.47,1.47v.56A1.466,1.466,0,0,1,347.93,239.85Z" fill="#fff"/><text transform="translate(320.543 254.597)" fill="#0c375a" font-size="11.9" font-family="GothamRounded-Bold, Gotham Rounded" font-weight="700"><tspan x="0" y="0">$</tspan></text><path d="M338.78,252.66h-7.77a2.053,2.053,0,0,1-2.05-2.05v-.78a2.053,2.053,0,0,1,2.05-2.05h7.77a2.053,2.053,0,0,1,2.05,2.05v.78A2.053,2.053,0,0,1,338.78,252.66Z" fill="#fff"/></g><g transform="translate(988.578 1246.526)"><path d="M373.09,433.79c0,4.46-24.93,8.07-55.68,8.07s-55.68-3.61-55.68-8.07,24.93-8.07,55.68-8.07S373.09,429.33,373.09,433.79Z" fill="#e8e8f9"/><path d="M275.91,417.19a29.95,29.95,0,1,1,29.95-29.95A29.983,29.983,0,0,1,275.91,417.19Zm0-47.99a18.03,18.03,0,1,0,18.03,18.03A18.053,18.053,0,0,0,275.91,369.2Z" fill="#1797e5"/><path d="M358.91,433.48V338.83c0-11.21-83-11.21-83,0v94.65C275.91,440.74,358.91,440.74,358.91,433.48Z" fill="#30b9ef"/><path d="M354.73,337.65c0,2.68-16.71,4.85-37.32,4.85s-37.32-2.17-37.32-4.85,16.71-4.85,37.32-4.85S354.73,334.97,354.73,337.65Z" fill="#2e3062"/><text transform="translate(285.346 394.902)" fill="#fff" font-size="15.46" font-family="GothamRounded-Bold, Gotham Rounded" font-weight="700"><tspan x="0" y="0">Vi</tspan><tspan y="0" font-family="GothamRounded-Medium, Gotham Rounded" font-weight="500">Tutors</tspan></text></g><text transform="translate(1214.598 1406.803)" fill="#363951" font-size="15.37" font-family="GothamRounded-Bold, Gotham Rounded" font-weight="700"><tspan x="0" y="0">Tutors Bid</tspan></text><g transform="translate(988.578 1246.526)"><path d="M425.18,74.42H310.09a11.8,11.8,0,0,1-11.8-11.8V56.13a11.8,11.8,0,0,1,11.8-11.8H425.18a11.8,11.8,0,0,1,11.8,11.8v6.49A11.8,11.8,0,0,1,425.18,74.42Z" fill="#fc5f2d"/><path d="M422.15,50.45a8.94,8.94,0,1,0,8.94,8.94A8.95,8.95,0,0,0,422.15,50.45Zm.36,12.23V59.55h4.04a11.649,11.649,0,0,1-.48,3.13Zm2.53,3.57a9.687,9.687,0,0,0,1.55-2.85h2.72a8.169,8.169,0,0,1-5.35,4A8.441,8.441,0,0,0,425.04,66.25Zm.78-2.85a9.49,9.49,0,0,1-1.33,2.38,7.649,7.649,0,0,1-1.98,1.81V63.4h3.31Zm-3.31-8.42V51.17c.11,0,.21.01.32.02a11.107,11.107,0,0,1,2.8,3.79Zm3.9,0a12.347,12.347,0,0,0-1.2-2.2,12,12,0,0,0-1.13-1.39,8.278,8.278,0,0,1,5.01,3.59Zm-3.9,3.85V55.7h3.42a10.183,10.183,0,0,1,.62,3.13Zm4.75,0a10.82,10.82,0,0,0-.58-3.13h2.81a8.11,8.11,0,0,1,.85,3.13Zm3.1.72a8.013,8.013,0,0,1-.69,3.13h-2.86a13.133,13.133,0,0,0,.45-3.13Zm-12.8,3.13h-2.94a8.013,8.013,0,0,1-.69-3.13h3.18A13.134,13.134,0,0,0,417.56,62.68Zm1.19-7.7a11.018,11.018,0,0,1,1-1.77,10.686,10.686,0,0,1,1.81-2.03,1.77,1.77,0,0,1,.23-.01v3.81h-3.04Zm3.04.72v3.13h-3.95a10.183,10.183,0,0,1,.62-3.13Zm-6.58-.72a8.267,8.267,0,0,1,5.11-3.61,11.494,11.494,0,0,0-1.15,1.42,11.743,11.743,0,0,0-1.2,2.2h-2.76Zm6.58,4.57v3.13h-3.48a12.059,12.059,0,0,1-.48-3.13Zm-7.84-.72a8.11,8.11,0,0,1,.85-3.13h2.89a11.231,11.231,0,0,0-.58,3.13Zm3.84,4.57a9.923,9.923,0,0,0,1.55,2.85,9.438,9.438,0,0,0,1.1,1.17,8.317,8.317,0,0,1-5.46-4.02h2.81Zm4,0v4.14a8.445,8.445,0,0,1-3.23-4.14Z" fill="#efb7a3"/><path d="M399.57,50.8a8.5,8.5,0,0,1,0,17H313.66a8.5,8.5,0,0,1,0-17h85.91m0-.88H313.66a9.38,9.38,0,1,0,0,18.76h85.91a9.38,9.38,0,1,0,0-18.76Z" fill="#efb7a3"/></g></g></svg>