<svg xmlns="http://www.w3.org/2000/svg" xmlns:xlink="http://www.w3.org/1999/xlink" width="185.905" height="40.664" viewBox="0 0 185.905 40.664">
  <defs>
    <linearGradient id="linear-gradient" x1="0.253" y1="0.002" x2="0.916" y2="0.719" gradientUnits="objectBoundingBox">
      <stop offset="0" stop-color="#2779dd"/>
      <stop offset="1" stop-color="#3cd2fb"/>
    </linearGradient>
  </defs>
  <g id="Vitutor-logo" transform="translate(0 -1.7)">
    <g id="Group_8793" data-name="Group 8793" transform="translate(44.685 10.206)">
      <g id="Group_8792" data-name="Group 8792">
        <path id="Path_4197" data-name="Path 4197" d="M118.5,30.552h-6.378a2.126,2.126,0,0,1,0-4.252h17.457a2.126,2.126,0,0,1,0,4.252h-6.416V50.433a2.313,2.313,0,0,1-4.625,0V30.552Z" transform="translate(-110 -25.852)" fill="#232728"/>
        <path id="Path_4198" data-name="Path 4198" d="M172.1,41.093V28.075a2.294,2.294,0,0,1,4.588,0V40.907c0,4.886,2.5,7.46,6.639,7.46,4.1,0,6.6-2.425,6.6-7.274V28.075a2.294,2.294,0,0,1,4.588,0V40.869c0,7.833-4.439,11.787-11.3,11.787C176.464,52.656,172.1,48.7,172.1,41.093Z" transform="translate(-148.936 -25.539)" fill="#232728"/>
        <path id="Path_4199" data-name="Path 4199" d="M244.9,30.552h-6.378a2.126,2.126,0,1,1,0-4.252h17.457a2.126,2.126,0,0,1,0,4.252h-6.416V50.433a2.313,2.313,0,0,1-4.625,0V30.552Z" transform="translate(-189.252 -25.852)" fill="#232728"/>
        <path id="Path_4200" data-name="Path 4200" d="M292.6,38.752v-.075a13.728,13.728,0,0,1,27.453-.075v.075a13.728,13.728,0,0,1-27.453.075Zm22.641,0v-.075c0-5.11-3.73-9.362-8.952-9.362s-8.878,4.178-8.878,9.288v.075a8.922,8.922,0,1,0,17.83.075Z" transform="translate(-224.489 -25.1)" fill="#232728"/>
        <path id="Path_4201" data-name="Path 4201" d="M373.7,28.613a2.277,2.277,0,0,1,2.313-2.313h9.4c3.32,0,5.893.97,7.572,2.611a7.983,7.983,0,0,1,2.163,5.67v.075c0,4.215-2.425,6.751-5.968,7.833l5.036,6.341a2.661,2.661,0,0,1,.746,1.753,2.164,2.164,0,0,1-2.2,2.126,2.622,2.622,0,0,1-2.238-1.194l-6.378-8.131h-5.819v7.05a2.294,2.294,0,0,1-4.588,0V28.613Zm11.377,10.705c3.32,0,5.409-1.716,5.409-4.4v-.075c0-2.8-2.014-4.364-5.446-4.364h-6.714v8.84Z" transform="translate(-275.339 -25.852)" fill="#232728"/>
        <path id="Path_4202" data-name="Path 4202" d="M435.6,48.923a2.139,2.139,0,0,1,1.268-3.879,2.127,2.127,0,0,1,1.343.41,11.421,11.421,0,0,0,7.348,2.686c2.835,0,4.663-1.343,4.663-3.32v-.075c0-1.865-1.044-2.872-5.931-4.028-5.6-1.343-8.766-3.021-8.766-7.833v-.075c0-4.513,3.767-7.609,8.989-7.609a14.4,14.4,0,0,1,8.318,2.425,2.071,2.071,0,0,1,1.007,1.828,2.133,2.133,0,0,1-2.163,2.126,2.219,2.219,0,0,1-1.194-.336,10.974,10.974,0,0,0-6.043-1.977c-2.686,0-4.29,1.38-4.29,3.133v.075c0,2.014,1.194,2.947,6.266,4.14,5.558,1.343,8.393,3.357,8.393,7.684v.075c0,4.924-3.879,7.833-9.4,7.833A15.938,15.938,0,0,1,435.6,48.923Z" transform="translate(-313.586 -25.163)" fill="#232728"/>
      </g>
    </g>
    <circle id="Ellipse_263" data-name="Ellipse 263" cx="2.559" cy="2.559" r="2.559" transform="translate(21.733 3.528)" fill="#1492e6"/>
    <path id="Path_4203" data-name="Path 4203" d="M37.059,42.465,36,40.027c-.041-.041,0-.122.041-.162l.731-.772a.115.115,0,0,1,.2,0l.691.731a.115.115,0,0,0,.2,0l.65-.731a.115.115,0,0,1,.2,0l.772.772a.244.244,0,0,1,.041.162l-1.1,2.437Zm.122.366H38.4l-.65,1.219ZM36,38.849v-12.8a1.777,1.777,0,0,1,1.787-1.787h.081a1.777,1.777,0,0,1,1.787,1.787v12.8c0,.081-.081.122-.162.041l-.691-.731a.076.076,0,0,0-.122,0l-.731.812a.076.076,0,0,1-.122,0l-.853-.812a.076.076,0,0,0-.122,0l-.691.731A.087.087,0,0,1,36,38.849ZM22.8,25,36.49,48.68a1.561,1.561,0,0,0,2.681,0L55.014,21.219A.811.811,0,0,0,54.324,20H41.365c-.65,0-.812.366-.853.569a2.776,2.776,0,0,1-2.681,2.194,2.739,2.739,0,0,1-2.681-2.194c-.041-.162-.122-.528-.853-.569H27.065a8.994,8.994,0,0,0-1.422,4.1c0,.406-.162.447-.609.487C24.059,24.712,22.8,25,22.8,25Z" transform="translate(-13.538 -10.866)" fill="url(#linear-gradient)"/>
    <g id="Group_8794" data-name="Group 8794" transform="translate(0 1.7)">
      <path id="Path_4204" data-name="Path 4204" d="M19.206,13.959a8.668,8.668,0,0,0-2.072,4.875,7.788,7.788,0,0,0-4.875,2.031L9.7,18.265s2.153-5.159,6.947-6.865Z" transform="translate(-5.76 -7.46)" fill="#3d4849"/>
      <path id="Path_4205" data-name="Path 4205" d="M14.381,1.7,4.265,5.925,1.666,12.1a4.453,4.453,0,0,1,1.909,2.4l1.056-.406L3.25,12.628c2.8-6.54,7.759-7.637,7.759-7.637l1.462,1.341ZM0,16.04l2.559-1.1a3.1,3.1,0,0,0-1.341-1.706Z" transform="translate(0 -1.7)" fill="#232728"/>
      <path id="Path_4206" data-name="Path 4206" d="M.243,24.73a.874.874,0,0,0,.447,1.016A5.012,5.012,0,0,1,3.33,30.5a.937.937,0,0,0-.569.772.613.613,0,0,0,.366.691l-.406,1.625H4.345L3.98,31.92a.6.6,0,0,0,.406-.65.748.748,0,0,0-.569-.772A4.984,4.984,0,0,0,.893,25.339c-.244-.122-.284-.487-.041-.569a2.865,2.865,0,0,1,.853,0s.284-.447.162-.487C.405,23.958.243,24.73.243,24.73Z" transform="translate(-0.121 -15.062)" fill="#1c1d1e"/>
    </g>
    <g id="Group_8798" data-name="Group 8798" transform="translate(3.331 30.357)">
      <g id="Group_8797" data-name="Group 8797" transform="translate(0 0)">
        <g id="Group_8795" data-name="Group 8795" transform="translate(21.327)">
          <path id="Path_4207" data-name="Path 4207" d="M60.7,87.869s8.287-8.125,17.793-8.571a1.562,1.562,0,0,1,1.625,1.544v.2S71.668,80.638,60.7,87.869Z" transform="translate(-60.7 -76.431)" fill="#373c3d"/>
          <path id="Path_4208" data-name="Path 4208" d="M60.7,82.991s6.54-9.1,16.534-10.725a1.539,1.539,0,0,1,1.787,1.544h0S70.328,73.729,60.7,82.991Z" transform="translate(-60.7 -72.244)" fill="#5a6466"/>
          <path id="Path_4209" data-name="Path 4209" d="M60.7,92.834s9.262-5.972,18.89-6.134a1.588,1.588,0,0,1,1.625,1.544v.2C81.174,88.447,72.643,87.716,60.7,92.834Z" transform="translate(-60.7 -80.828)" fill="#1b1e1e"/>
        </g>
        <g id="Group_8796" data-name="Group 8796">
          <path id="Path_4210" data-name="Path 4210" d="M30.318,87.869S22.031,79.744,12.525,79.3A1.562,1.562,0,0,0,10.9,80.841v.2S19.35,80.638,30.318,87.869Z" transform="translate(-9.803 -76.431)" fill="#373c3d"/>
          <path id="Path_4211" data-name="Path 4211" d="M31.921,82.991s-6.54-9.1-16.534-10.725A1.539,1.539,0,0,0,13.6,73.811h0S22.253,73.729,31.921,82.991Z" transform="translate(-11.406 -72.244)" fill="#5a6466"/>
          <path id="Path_4212" data-name="Path 4212" d="M28.715,92.834S19.453,86.863,9.825,86.7A1.588,1.588,0,0,0,8.2,88.244v.2C8.241,88.447,16.771,87.716,28.715,92.834Z" transform="translate(-8.2 -80.828)" fill="#1b1e1e"/>
        </g>
      </g>
    </g>
  </g>
</svg>
