<?xml version="1.0" encoding="utf-8"?>
<!-- Generator: Adobe Illustrator 16.0.0, SVG Export Plug-In . SVG Version: 6.00 Build 0)  -->
<!DOCTYPE svg PUBLIC "-//W3C//DTD SVG 1.1//EN" "http://www.w3.org/Graphics/SVG/1.1/DTD/svg11.dtd">
<svg version="1.1" id="Layer_1" xmlns="http://www.w3.org/2000/svg" xmlns:xlink="http://www.w3.org/1999/xlink" x="0px" y="0px"
	 width="288px" height="453.6px" viewBox="0 0 288 453.6" enable-background="new 0 0 288 453.6" xml:space="preserve">
<g>
	<path display="none" fill-rule="evenodd" clip-rule="evenodd" fill="#FFFFFF" d="M-36.245,410.684c0-120.164,0-240.327,0-360.573
		c120.094,0,240.227,0,360.489,0c0,120.135,0,240.354,0,360.573C204.173,410.684,83.984,410.684-36.245,410.684z M144.09,345.745
		c-1.427-2.438-2.442-4.148-3.433-5.873c-9.224-16.064-18.526-32.09-27.57-48.256c-1.271-2.273-1.92-5.291-1.764-7.898
		c0.842-14.172,2.095-28.316,3.006-42.482c0.109-1.711-0.601-3.773-1.602-5.203c-3.201-4.58-8.658-5.762-13.689-3.303
		c-11.266,5.504-22.345,11.443-33.854,16.381c-8.879,3.813-17.607,7.678-25.3,13.59c-10.773,8.283-18.389,18.666-21.217,32.18
		c-3.24,15.479-6.816,30.9-9.524,46.473c-2.153,12.375-3.331,25.041-0.932,37.49c2.86,14.842,3.807,16.715,18.084,20.049
		c6.939,1.621,14.071,2.854,21.173,3.264c22.37,1.293,44.757,2.611,67.155,3.012c43.891,0.783,87.808,1.078,131.539-3.715
		c7.746-0.85,15.396-2.945,22.954-4.971c4.135-1.109,7.174-3.811,8.94-8.221c4.013-10.008,4.268-20.336,3.687-30.814
		c-1.082-19.525-5.292-38.521-9.616-57.514c-2.834-12.451-7.141-24.02-16.759-33.016c-6.754-6.318-14.327-11.354-22.698-15.211
		c-14.154-6.518-28.338-12.977-42.507-19.467c-9.52-4.359-16.901,0.791-16.103,11.139c1.039,13.453,2.027,26.912,2.85,40.381
		c0.13,2.143-0.179,4.648-1.202,6.471C165.393,308.596,154.885,326.856,144.09,345.745z M65.76,126.841
		c0.049,21.892,5.327,41.87,14,58.784c7.843,15.295,17.415,29.235,31.271,39.769c10.06,7.648,21.187,12.439,34.116,12.109
		c15.033-0.385,27.392-7.008,37.951-17.038c20.982-19.926,33.122-44.74,37.844-73.015c5.284-31.641-4.429-58.279-30.269-77.588
		c-25.352-18.945-53.408-21.308-81.605-7.232C80.811,76.735,66.967,100.885,65.76,126.841z M143.992,242.743
		c-6.333,0-12.669-0.09-19,0.031c-4.573,0.086-6.936,3.676-5.418,7.934c0.904,2.535,1.58,5.199,2.822,7.559
		c3.948,7.5,4.423,15.002,0.856,22.766c-1.396,3.041-0.921,6.047,0.304,9.172c4.957,12.643,9.761,25.348,14.536,38.059
		c1.074,2.859,2.502,5.033,5.906,5.061c3.399,0.027,4.886-2.08,5.968-4.963c4.232-11.289,8.278-22.664,12.991-33.754
		c2.588-6.088,3.357-11.838,0.674-17.871c-2.198-4.939-1.792-9.596,0.522-14.426c1.711-3.572,2.911-7.408,4.15-11.188
		c1.667-5.086-0.681-8.318-6.016-8.371C156.19,242.69,150.091,242.737,143.992,242.743z"/>
	<path fill-rule="evenodd" clip-rule="evenodd" fill="#333333" d="M144.09,345.745c10.795-18.889,21.303-37.148,31.617-55.516
		c1.023-1.822,1.332-4.328,1.202-6.471c-0.822-13.469-1.811-26.928-2.85-40.381c-0.799-10.348,6.583-15.498,16.103-11.139
		c14.169,6.49,28.353,12.949,42.507,19.467c8.371,3.857,15.944,8.893,22.698,15.211c9.618,8.996,13.925,20.564,16.759,33.016
		c4.324,18.992,8.534,37.988,9.616,57.514c0.581,10.479,0.326,20.807-3.687,30.814c-1.767,4.41-4.806,7.111-8.94,8.221
		c-7.559,2.025-15.208,4.121-22.954,4.971c-43.73,4.793-87.647,4.498-131.539,3.715c-22.397-0.4-44.785-1.719-67.155-3.012
		c-7.102-0.41-14.233-1.643-21.173-3.264c-14.277-3.334-15.224-5.207-18.084-20.049c-2.399-12.449-1.221-25.115,0.932-37.49
		c2.708-15.572,6.285-30.994,9.524-46.473c2.828-13.514,10.444-23.896,21.217-32.18c7.692-5.912,16.42-9.777,25.3-13.59
		c11.508-4.938,22.588-10.877,33.854-16.381c5.031-2.459,10.489-1.277,13.689,3.303c1,1.43,1.711,3.492,1.602,5.203
		c-0.911,14.166-2.164,28.311-3.006,42.482c-0.156,2.607,0.493,5.625,1.764,7.898c9.044,16.166,18.346,32.191,27.57,48.256
		C141.647,341.596,142.663,343.307,144.09,345.745z M91.007,273.004c-0.849,0.063-1.235-0.014-1.509,0.129
		c-9.159,4.746-18.588,9.051-27.383,14.398c-10.684,6.496-17.304,16.311-20.024,28.633c-1.593,7.215-3.5,14.371-4.831,21.633
		c-2.175,11.875-4.237,23.779-5.857,35.738c-0.787,5.805-0.195,6.135,5.672,6.598c15.77,1.246,31.539,3.115,47.33,3.369
		c35.314,0.561,70.649,0.709,105.963,0.193c19.662-0.285,39.306-2.146,58.945-3.486c8.147-0.555,8.712-1.227,7.188-9.381
		c-3.594-19.236-7.277-38.461-11.335-57.602c-1.879-8.869-7.182-15.85-14.021-21.816c-7.928-6.912-17.473-10.881-26.687-15.49
		c-2.534-1.266-5.118-2.434-8.254-3.916c0.173,3.184,0.22,5.516,0.44,7.832c0.73,7.656,0.289,14.789-3.818,21.91
		c-11.243,19.49-21.885,39.33-32.571,59.135c-2.93,5.432-7.003,9.424-12.566,11.74c-1.883,0.781-4.422,0.91-6.398,0.371
		c-6.081-1.656-10.31-5.844-13.403-11.205c-11.07-19.191-21.899-38.525-33.305-57.514c-3.337-5.555-4.688-11.08-4.352-17.293
		C90.476,282.434,90.735,277.887,91.007,273.004z"/>
	<path fill-rule="evenodd" clip-rule="evenodd" fill="#333333" d="M65.76,126.841c1.207-25.956,15.051-50.106,43.308-64.212
		c28.197-14.075,56.254-11.712,81.605,7.232c25.84,19.309,35.553,45.948,30.269,77.588c-4.722,28.275-16.861,53.089-37.844,73.015
		c-10.56,10.03-22.918,16.653-37.951,17.038c-12.93,0.33-24.057-4.461-34.116-12.109C97.175,214.86,87.603,200.92,79.76,185.625
		C71.087,168.711,65.81,148.733,65.76,126.841z M144.134,76.149c-7.732-0.22-15.107,1.425-22.236,4.305
		c-21.242,8.582-35.913,30.78-35.318,53.646c0.271,10.385,2.5,20.429,6.116,30.146c6.071,16.317,14.105,31.422,27.335,43.212
		c4.869,4.339,10.31,7.786,16.692,9.388c12.094,3.036,22.353-1.167,30.983-9.189c19.706-18.316,30.467-41.408,33.375-67.885
		C204.896,105.05,178.71,76.205,144.134,76.149z"/>
	<path fill-rule="evenodd" clip-rule="evenodd" fill="#FFC60B" d="M143.992,242.739c6.099-0.002,12.198-0.049,18.297,0.012
		c5.335,0.053,7.683,3.285,6.016,8.371c-1.239,3.779-2.439,7.615-4.15,11.188c-2.314,4.83-2.721,9.486-0.522,14.426
		c2.684,6.033,1.914,11.783-0.674,17.871c-4.713,11.09-8.759,22.465-12.991,33.754c-1.082,2.883-2.568,4.99-5.968,4.963
		c-3.404-0.027-4.832-2.201-5.906-5.061c-4.775-12.711-9.579-25.416-14.536-38.059c-1.225-3.125-1.7-6.131-0.304-9.172
		c3.567-7.764,3.092-15.266-0.856-22.766c-1.243-2.359-1.918-5.023-2.822-7.559c-1.518-4.258,0.845-7.848,5.418-7.934
		C131.323,242.653,137.659,242.743,143.992,242.739z M144.029,314.381c2.5-6.914,4.237-12.973,6.855-18.623
		c3.106-6.707,3.336-13.139,0.479-19.861c-1.687-3.967-1.49-7.904,0.294-11.904c1.341-3.008,2.2-6.229,3.346-9.563
		c-8.261,0-15.946,0-23.968,0c0.676,2.027,1.124,3.846,1.871,5.529c2.584,5.824,3.843,11.76,2.067,18.074
		c-1.6,5.689-0.322,10.998,1.836,16.344C139.325,300.606,141.395,307.014,144.029,314.381z"/>
	<path fill-rule="evenodd" clip-rule="evenodd" fill="#FFFFFF" d="M91.007,273.004c-0.271,4.883-0.531,9.43-0.777,13.977
		c-0.335,6.213,1.015,11.738,4.352,17.293c11.406,18.988,22.235,38.322,33.305,57.514c3.093,5.361,7.322,9.549,13.403,11.205
		c1.977,0.539,4.516,0.41,6.398-0.371c5.563-2.316,9.637-6.309,12.566-11.74c10.687-19.805,21.328-39.645,32.571-59.135
		c4.107-7.121,4.549-14.254,3.818-21.91c-0.221-2.316-0.268-4.648-0.44-7.832c3.136,1.482,5.72,2.65,8.254,3.916
		c9.214,4.609,18.759,8.578,26.687,15.49c6.84,5.967,12.143,12.947,14.021,21.816c4.058,19.141,7.741,38.365,11.335,57.602
		c1.523,8.154,0.959,8.826-7.188,9.381c-19.64,1.34-39.283,3.201-58.945,3.486c-35.313,0.516-70.648,0.367-105.963-0.193
		c-15.791-0.254-31.56-2.123-47.33-3.369c-5.867-0.463-6.458-0.793-5.672-6.598c1.62-11.959,3.682-23.863,5.857-35.738
		c1.331-7.262,3.238-14.418,4.831-21.633c2.72-12.322,9.34-22.137,20.024-28.633c8.795-5.348,18.225-9.652,27.383-14.398
		C89.771,272.991,90.158,273.067,91.007,273.004z"/>
	<path fill-rule="evenodd" clip-rule="evenodd" fill="#FFFFFF" d="M144.134,76.148c34.576,0.057,60.762,28.902,56.947,63.624
		c-2.908,26.477-13.669,49.569-33.375,67.885c-8.631,8.022-18.89,12.225-30.983,9.189c-6.382-1.602-11.823-5.048-16.692-9.388
		c-13.23-11.791-21.264-26.896-27.335-43.212c-3.616-9.717-5.845-19.761-6.116-30.146c-0.595-22.866,14.076-45.065,35.318-53.646
		C129.026,77.574,136.401,75.93,144.134,76.148z"/>
	<path fill-rule="evenodd" clip-rule="evenodd" fill="#FFFFFF" d="M144.029,314.381c-2.635-7.367-4.704-13.775-7.22-20.004
		c-2.158-5.346-3.436-10.654-1.836-16.344c1.775-6.314,0.517-12.25-2.067-18.074c-0.747-1.684-1.195-3.502-1.871-5.529
		c8.021,0,15.707,0,23.968,0c-1.146,3.334-2.005,6.555-3.346,9.563c-1.784,4-1.98,7.938-0.294,11.904
		c2.857,6.723,2.628,13.154-0.479,19.861C148.267,301.409,146.529,307.467,144.029,314.381z"/>
</g>
</svg>
