<?xml version="1.0" encoding="utf-8"?>
<!-- Generator: Adobe Illustrator 16.0.0, SVG Export Plug-In . SVG Version: 6.00 Build 0)  -->
<!DOCTYPE svg PUBLIC "-//W3C//DTD SVG 1.1//EN" "http://www.w3.org/Graphics/SVG/1.1/DTD/svg11.dtd">
<svg version="1.1" id="Layer_1" xmlns="http://www.w3.org/2000/svg" xmlns:xlink="http://www.w3.org/1999/xlink" x="0px" y="0px"
	 width="288px" height="453.6px" viewBox="0 0 288 453.6" enable-background="new 0 0 288 453.6" xml:space="preserve">
<g>
	<path display="none" fill-rule="evenodd" clip-rule="evenodd" fill="#FFFFFF" d="M-30.435,10.585c128,0,256,0,384,0
		c0,128,0,256,0,384c-128,0-256,0-384,0C-30.435,266.584-30.435,138.585-30.435,10.585z M309.689,202.562
		c0-47.113-0.003-94.226,0.002-141.338c0.003-25.766-19.206-45.17-44.899-45.209c-51.111-0.078-102.223-0.152-153.334,0.021
		c-2.91,0.01-6.463,1.57-8.601,3.59C95.148,26.908,88.007,34.79,80.486,42.28C59.24,63.438,37.87,84.473,16.695,105.701
		c-1.717,1.722-2.719,4.458-3.32,6.903c-0.517,2.102,0.074,4.461,0.074,6.706c0.01,33.617,0.002,67.233,0.002,100.849
		c0,41.49-0.127,82.978,0.054,124.466c0.11,25.463,19.445,44.518,44.762,44.529c68.857,0.031,137.715,0.043,206.572,0.002
		c25.528-0.016,44.831-19.395,44.842-44.883C309.7,297.036,309.687,249.799,309.689,202.562z"/>
	<path fill-rule="evenodd" clip-rule="evenodd" fill="#333333" d="M271.556,226.561c-0.002,41.163,0.01,82.325-0.006,123.489
		c-0.01,22.211-16.83,39.098-39.075,39.111c-60.003,0.035-120.005,0.025-180.007-0.002c-22.062-0.01-38.91-16.615-39.006-38.803
		c-0.158-36.152-0.047-72.307-0.047-108.461c0-29.292,0.007-58.586-0.002-87.879c0-1.956-0.515-4.012-0.065-5.843
		c0.524-2.131,1.397-4.516,2.894-6.016c18.452-18.499,37.074-36.828,55.588-55.266c6.553-6.526,12.776-13.395,19.494-19.742
		c1.863-1.76,4.959-3.12,7.495-3.129c44.539-0.15,89.077-0.085,133.615-0.018c22.39,0.034,39.128,16.943,39.126,39.396
		C271.554,144.453,271.557,185.506,271.556,226.561z M32.851,158.829c-0.067,1.439-0.161,2.498-0.161,3.557
		c-0.007,62.404-0.012,124.808,0.001,187.214c0.002,12.355,7.795,20.193,20.182,20.199c59.682,0.029,119.363,0.025,179.045,0.004
		c12.58-0.004,20.354-7.83,20.355-20.369c0.005-81.791,0.005-163.581,0.001-245.372c-0.002-13.026-7.654-20.707-20.667-20.712
		c-39.751-0.014-79.502-0.005-119.254-0.004c-1.271,0-2.543,0-4.218,0c0,1.711,0,2.994,0,4.276
		c0.002,19.604,0.003,39.207,0.006,58.811c0.001,8.278-4.137,12.405-12.431,12.403c-19.603-0.003-39.207-0.005-58.81-0.007
		C35.622,158.829,34.344,158.829,32.851,158.829z M47.697,139.155c-0.065-0.04,0.11,0.162,0.287,0.163
		c12.833,0.024,25.667,0,38.498,0.072c2.383,0.014,2.22-1.433,2.218-3.015c-0.015-9.679-0.007-19.359-0.007-29.038
		c0-3.094,0-6.188,0-9.148C74.919,111.953,61.289,125.574,47.697,139.155z"/>
	<path fill-rule="evenodd" clip-rule="evenodd" fill="#FFFFFF" d="M47.697,139.155c13.592-13.582,27.222-27.203,40.996-40.966
		c0,2.96,0,6.054,0,9.148c0,9.679-0.007,19.358,0.007,29.038c0.002,1.582,0.165,3.029-2.218,3.015
		c-12.832-0.072-25.666-0.048-38.498-0.072C47.807,139.317,47.631,139.115,47.697,139.155z"/>
	<path fill-rule="evenodd" clip-rule="evenodd" fill="#FFC60B" d="M146.252,313.694c0-9.148-0.072-18.297,0.052-27.443
		c0.031-2.268-0.67-3.715-2.353-5.271c-16.013-14.811-21.893-32.992-15.403-53.867c6.541-21.04,21.89-32.969,43.589-35.65
		c32.76-4.047,60.187,24.037,56.327,56.851c-1.559,13.252-7.151,24.236-17.076,33.152c-1.14,1.025-1.779,3.172-1.79,4.803
		c-0.124,18.295-0.037,36.59-0.146,54.885c-0.011,1.822-0.423,4.082-1.541,5.359c-1.944,2.223-4.475,1.943-6.946,0.119
		c-6.834-5.039-13.825-9.861-20.617-14.953c-1.928-1.445-3.162-1.363-5.044,0.049c-6.531,4.898-13.131,9.715-19.905,14.262
		c-1.58,1.061-4.123,1.635-5.922,1.197c-2.499-0.607-3.303-3.008-3.268-5.723C146.324,332.208,146.252,322.95,146.252,313.694z
		 M177.84,283.586c23.497-0.137,41.251-18.842,40.938-43.537c-0.289-22.757-20.761-39.44-41.555-38.999
		c-22.578,0.479-41.264,19.076-41.125,41.561C136.234,264.95,155.354,283.715,177.84,283.586z M199.282,289.227
		c-14.196,6.02-28.063,5.973-42.056,0.424c0,14.535,0,28.695,0,43.236c1.185-0.766,2.09-1.314,2.958-1.918
		c4.995-3.473,10.043-6.877,14.947-10.477c2.303-1.691,4.207-1.654,6.452,0.051c3.197,2.43,6.557,4.646,9.854,6.943
		c2.452,1.705,4.916,3.391,7.844,5.408C199.282,318.102,199.282,304.012,199.282,289.227z"/>
	<path fill-rule="evenodd" clip-rule="evenodd" fill="#FFC60B" d="M178.462,112.756c13.377,0.002,26.753-0.004,40.131,0.006
		c4.068,0.003,6.132,1.545,6.217,4.577c0.085,3.012-2.389,5.166-6.237,5.17c-26.971,0.029-53.942,0.03-80.913-0.003
		c-3.94-0.005-5.815-1.782-5.73-5.082c0.081-3.142,1.876-4.655,5.751-4.662C151.273,112.737,164.868,112.753,178.462,112.756z"/>
	<path fill-rule="evenodd" clip-rule="evenodd" fill="#FFC60B" d="M178.41,144.209c13.38-0.004,26.76-0.019,40.141,0.003
		c4.142,0.007,6.377,1.818,6.277,4.949c-0.092,2.881-2.56,4.898-6.18,4.9c-26.978,0.013-53.955,0.012-80.933-0.015
		c-3.832-0.003-5.693-1.593-5.782-4.691c-0.095-3.307,1.807-5.117,5.684-5.131c11.749-0.042,23.498-0.012,35.246-0.01
		C174.712,144.214,176.561,144.213,178.41,144.209z"/>
</g>
</svg>
