<svg xmlns="http://www.w3.org/2000/svg" width="93.006" height="66.038" viewBox="0 0 93.006 66.038">
  <g id="add_video" transform="translate(-11.694 -224.827)">
    <g id="Group_8400" data-name="Group 8400" transform="translate(11.694 224.827)">
      <path id="Path_4115" data-name="Path 4115" d="M124.729,127.457a5.041,5.041,0,0,0-5.035,5.035V188.46a5.041,5.041,0,0,0,5.035,5.035h82.936a5.041,5.041,0,0,0,5.035-5.035V132.492a5.041,5.041,0,0,0-5.035-5.035Zm76.253,29.417h6.6v7.2h-6.6Zm6.6-5.118h-6.6v-7.2h6.6Zm-6.6,17.438h6.6v7.2h-6.6Zm6.6-29.759h-6.6v-6.861h6.6Zm-82.77,17.438h6.6v7.2h-6.6Zm6.6-5.118h-6.6v-7.2h6.6Zm-6.6,17.438h6.6v7.2h-6.6Zm6.6-36.62v6.861h-6.6v-6.861Zm-6.6,48.94h6.6v6.861h-6.6Zm11.718-48.94h59.333v55.8H136.53Zm64.451,55.8v-6.861h6.6v6.861Z" transform="translate(-119.694 -127.457)" fill="#939ea8"/>
      <path id="Path_4116" data-name="Path 4116" d="M242.251,193.108l-14.74-9.071a4.891,4.891,0,0,0-7.448,4.162v18.142a4.892,4.892,0,0,0,7.448,4.162l14.74-9.071A4.886,4.886,0,0,0,242.251,193.108Zm-17.071,12.819V188.613l14.069,8.658Z" transform="translate(-185.817 -164.251)" fill="#939ea8"/>
    </g>
  </g>
</svg>
