<svg xmlns="http://www.w3.org/2000/svg" width="31.139" height="31.121" viewBox="0 0 31.139 31.121"><defs><style>.a{fill:#c0e1f0;}.b{fill:#8fc3d9;}.c{fill:#edf9ff;}.d{fill:#97de3d;}.e{fill:#59c36a;}.f{fill:#2d5177;}.g{fill:#32405d;}</style></defs><g transform="translate(0 -0.15)"><path class="a" d="M211,180.85h5.474v16.482H211Z" transform="translate(-198.167 -169.71)"/><path class="a" d="M61,180.85h5.474v16.482H61Z" transform="translate(-57.29 -169.71)"/><path class="b" d="M361,180.85h5.474v16.482H361Z" transform="translate(-339.044 -169.71)"/><path class="b" d="M256,180.85h2.737v16.482H256Z" transform="translate(-240.43 -169.71)"/><path class="c" d="M31,421.85H58.369v4.561H31Z" transform="translate(-29.115 -396.053)"/><path class="a" d="M256,421.85h13.684v4.561H256Z" transform="translate(-240.43 -396.053)"/><path class="c" d="M31,120.85H58.369v5.474H31Z" transform="translate(-29.115 -113.359)"/><path class="a" d="M256,120.85h13.684v5.474H256Z" transform="translate(-240.43 -113.359)"/><path class="a" d="M15.57.15,0,5.94V9.315H31.139V5.94Z"/><path class="b" d="M271.57,5.94V9.315H256V.15Z" transform="translate(-240.43 0)"/><path class="a" d="M256,421.85h13.684v4.561H256Z" transform="translate(-240.43 -396.053)"/><path class="d" d="M0,481.85H31.139v1.825H0Z" transform="translate(0 -452.403)"/><path class="e" d="M256,481.85h15.57v1.825H256Z" transform="translate(-240.43 -452.403)"/><path class="f" d="M241,60.85h1.825v1.825H241Z" transform="translate(-226.343 -57.008)"/><path class="g" d="M256,60.85h.912v1.825H256Z" transform="translate(-240.43 -57.008)"/></g></svg>