<svg width="27" height="27" xmlns="http://www.w3.org/2000/svg" xmlns:xlink="http://www.w3.org/1999/xlink" xmlns:svgjs="http://svgjs.com/svgjs" viewBox="1689 489 27 27"><svg width="3" height="3" xmlns="http://www.w3.org/2000/svg" xmlns:xlink="http://www.w3.org/1999/xlink" xmlns:svgjs="http://svgjs.com/svgjs" viewBox="0 0 2.999 3" fill="#939ea8" x="1698" y="499"><svg xmlns="http://www.w3.org/2000/svg" xmlns:xlink="http://www.w3.org/1999/xlink" width="3" height="3" viewBox="0.821 0.459 2.068 2.068"><path paint-order="stroke fill markers" fill-rule="evenodd" d="M1.855 2.527A1.033 1.033 0 1 1 1.853.46a1.033 1.033 0 0 1 .002 2.067z"/></svg></svg><svg width="3" height="3" xmlns="http://www.w3.org/2000/svg" xmlns:xlink="http://www.w3.org/1999/xlink" xmlns:svgjs="http://svgjs.com/svgjs" viewBox="0 0 2.999 3" fill="#939ea8" x="1707" y="499"><svg xmlns="http://www.w3.org/2000/svg" xmlns:xlink="http://www.w3.org/1999/xlink" width="3" height="3" viewBox="0.608 0.459 2.068 2.068"><path paint-order="stroke fill markers" fill-rule="evenodd" d="M1.642 2.527A1.033 1.033 0 1 1 1.64.46a1.033 1.033 0 0 1 .002 2.067z"/></svg></svg><svg width="3" height="3" xmlns="http://www.w3.org/2000/svg" xmlns:xlink="http://www.w3.org/1999/xlink" xmlns:svgjs="http://svgjs.com/svgjs" viewBox="0 0 2.999 3" fill="#939ea8" x="1703" y="499"><svg xmlns="http://www.w3.org/2000/svg" xmlns:xlink="http://www.w3.org/1999/xlink" width="3" height="3" viewBox="0.473 0.459 2.068 2.068"><path paint-order="stroke fill markers" fill-rule="evenodd" d="M1.506 2.527a1.033 1.033 0 1 1 0-2.067 1.033 1.033 0 0 1 0 2.067z"/></svg></svg><svg width="3" height="3" xmlns="http://www.w3.org/2000/svg" xmlns:xlink="http://www.w3.org/1999/xlink" xmlns:svgjs="http://svgjs.com/svgjs" viewBox="0 0 2.999 3" fill="#939ea8" x="1694" y="499"><svg xmlns="http://www.w3.org/2000/svg" xmlns:xlink="http://www.w3.org/1999/xlink" width="3" height="3" viewBox="0.168 0.459 2.068 2.068"><path paint-order="stroke fill markers" fill-rule="evenodd" d="M1.203 2.527A1.033 1.033 0 1 1 1.2.46a1.033 1.033 0 0 1 .002 2.067z"/></svg></svg><svg width="3" height="3" xmlns="http://www.w3.org/2000/svg" xmlns:xlink="http://www.w3.org/1999/xlink" xmlns:svgjs="http://svgjs.com/svgjs" viewBox="0 0 2.999 3" fill="#939ea8" x="1698" y="504"><svg xmlns="http://www.w3.org/2000/svg" xmlns:xlink="http://www.w3.org/1999/xlink" width="3" height="3" viewBox="0.821 0.111 2.068 2.068"><path paint-order="stroke fill markers" fill-rule="evenodd" d="M1.855 2.179A1.033 1.033 0 1 1 1.853.112a1.033 1.033 0 0 1 .002 2.067z"/></svg></svg><svg width="3" height="3" xmlns="http://www.w3.org/2000/svg" xmlns:xlink="http://www.w3.org/1999/xlink" xmlns:svgjs="http://svgjs.com/svgjs" fill="#939ea8" x="1694" y="508"><svg xmlns="http://www.w3.org/2000/svg" xmlns:xlink="http://www.w3.org/1999/xlink" width="3" height="3" viewBox="0.168 0.246 2.068 2.067"><path paint-order="stroke fill markers" fill-rule="evenodd" d="M1.203 2.314A1.033 1.033 0 1 1 1.2.248a1.033 1.033 0 0 1 .003 2.066z"/></svg></svg><svg width="3" height="3" xmlns="http://www.w3.org/2000/svg" xmlns:xlink="http://www.w3.org/1999/xlink" xmlns:svgjs="http://svgjs.com/svgjs" fill="#939ea8" x="1698" y="508"><svg xmlns="http://www.w3.org/2000/svg" xmlns:xlink="http://www.w3.org/1999/xlink" width="3" height="3" viewBox="0.821 0.246 2.068 2.067"><path paint-order="stroke fill markers" fill-rule="evenodd" d="M1.855 2.314A1.033 1.033 0 1 1 1.852.248a1.033 1.033 0 0 1 .003 2.066z"/></svg></svg><svg width="7" height="7" xmlns="http://www.w3.org/2000/svg" xmlns:xlink="http://www.w3.org/1999/xlink" xmlns:svgjs="http://svgjs.com/svgjs" fill="#939ea8" x="1703" y="504"><svg xmlns="http://www.w3.org/2000/svg" xmlns:xlink="http://www.w3.org/1999/xlink" width="7" height="7" viewBox="0.242 0.003 6.483 6.483"><path paint-order="stroke fill markers" fill-rule="evenodd" d="M.242 4.445c0 1.125.916 2.041 2.042 2.041h2.4a2.044 2.044 0 0 0 2.041-2.041v-2.4A2.044 2.044 0 0 0 4.683.003H2.284A2.044 2.044 0 0 0 .242 2.045v2.4zm2.042-2.4h2.4l.001 2.4h-.002-2.399v-2.4z"/></svg></svg><svg width="27" height="27" xmlns="http://www.w3.org/2000/svg" xmlns:xlink="http://www.w3.org/1999/xlink" xmlns:svgjs="http://svgjs.com/svgjs" fill="#939ea8" x="1689" y="489"><svg xmlns="http://www.w3.org/2000/svg" xmlns:xlink="http://www.w3.org/1999/xlink" width="27" height="27" viewBox="-0.001 0.862 26.138 26.137"><path paint-order="stroke fill markers" fill-rule="evenodd" d="M25.116 18.832c.564 0 1.02-.458 1.02-1.021V6.988a4.088 4.088 0 0 0-4.083-4.084h-1.328v-1.02a1.02 1.02 0 1 0-2.042 0v1.02H14.04v-1.02a1.02 1.02 0 1 0-2.043 0v1.02H7.402v-1.02a1.02 1.02 0 1 0-2.042 0v1.02H4.083A4.089 4.089 0 0 0 0 6.988v15.928A4.089 4.089 0 0 0 4.083 27h17.97a4.088 4.088 0 0 0 4.084-4.084 1.021 1.021 0 1 0-2.042 0 2.044 2.044 0 0 1-2.042 2.042H4.083a2.044 2.044 0 0 1-2.042-2.042V6.988c0-1.126.916-2.042 2.042-2.042H5.36v1.021a1.02 1.02 0 0 0 2.042 0v-1.02h4.594v1.02a1.02 1.02 0 0 0 2.043 0v-1.02h4.644v1.02a1.02 1.02 0 0 0 2.042 0v-1.02h1.328c1.126 0 2.042.915 2.042 2.041v10.823c0 .563.457 1.02 1.021 1.02z"/></svg></svg><svg width="3" height="3" xmlns="http://www.w3.org/2000/svg" xmlns:xlink="http://www.w3.org/1999/xlink" xmlns:svgjs="http://svgjs.com/svgjs" viewBox="0 0 2.999 3" fill="#939ea8" x="1694" y="504"><svg xmlns="http://www.w3.org/2000/svg" width="3" height="3" viewBox="0.168 0.111 2.068 2.068"><path paint-order="stroke fill markers" fill-rule="evenodd" d="M1.203 2.179A1.033 1.033 0 1 1 1.2.112a1.033 1.033 0 0 1 .002 2.067z"/></svg></svg></svg>