<svg xmlns="http://www.w3.org/2000/svg" width="57.814" height="57.48" viewBox="0 0 57.814 57.48">
  <g id="candidate" transform="translate(-1133.27 -233.52)">
    <g id="candidate-2" data-name="candidate" transform="translate(988.916 89.416)">
      <g id="Group_8800" data-name="Group 8800" transform="translate(144.354 143.52)">
        <g id="jobaccepted" transform="translate(0 0.584)">
          <path id="Path_4215" data-name="Path 4215" d="M44.834,32.1a13,13,0,0,0-11.978,7.988L30,39.653v-.96a13.008,13.008,0,0,0,6.2-8.506,4.629,4.629,0,0,0,4-4.572V17.271A16.707,16.707,0,0,0,23.511.584H21.923a11.075,11.075,0,0,0-8.688,4.176l-.521.653a10.927,10.927,0,0,0-5.891,9.734V25.615a4.629,4.629,0,0,0,4,4.572,13.008,13.008,0,0,0,6.2,8.506v.96l-4.788.736a11.511,11.511,0,0,0-9.177,7.893L0,58.063H44.834a12.979,12.979,0,1,0,0-25.959Zm-8.383-3.867c.015-.256.039-.509.039-.769V23a2.764,2.764,0,0,1-.039,5.233ZM8.678,25.615A2.777,2.777,0,0,1,10.532,23v4.465c0,.26.024.513.039.769A2.776,2.776,0,0,1,8.678,25.615Zm2.44-4.6a4.591,4.591,0,0,0-2.44.916V15.145a9.084,9.084,0,0,1,5.05-8.17l.182-.091.774-.967a9.227,9.227,0,0,1,7.24-3.479h1.588A14.851,14.851,0,0,1,38.345,17.271v4.66a4.591,4.591,0,0,0-1.854-.857v-3.8h-.927a4.262,4.262,0,0,1-3.553-1.9l-.587-.88H30.383a31.4,31.4,0,0,0-18.093,5.7Zm1.268,6.455V22.39l.967-.677a29.549,29.549,0,0,1,17.03-5.369l.085.055a6.113,6.113,0,0,0,4.168,2.657v8.413a11.125,11.125,0,1,1-22.25,0ZM28.147,39.578V40.3l-.052.155a4.546,4.546,0,0,1-4.584,2.776,4.538,4.538,0,0,1-4.583-2.773l-.053-.158v-.721a12.777,12.777,0,0,0,9.271,0ZM11.582,56.209l.8-6.375-1.839-.23-.826,6.6H2.522l2.3-7.373a9.647,9.647,0,0,1,7.691-6.614l1-.155-1.386,3.465,3.643,1.821L14,50.912l6.81,5.3H11.582Zm4.754-5.829,1.929-3.858-3.774-1.887,1.159-2.9,1.667-.257,4.347,13.041Zm3.9-6.006a7.922,7.922,0,0,0,6.553,0l-3.276,9.831Zm5.98,11.833,1.863-1.449L26.939,53.3l-1.58,1.229,4.347-13.041,2.566.395a12.943,12.943,0,0,0-.412,3.093l-3.1,1.552,1.929,3.858L28.223,52.3l1.139,1.464,3.662-2.849-1.779-3.559.763-.382a12.982,12.982,0,0,0,6.175,9.238H26.215Zm18.62,0A11.125,11.125,0,1,1,55.959,45.084,11.138,11.138,0,0,1,44.834,56.209Z" transform="translate(0 -0.584)"/>
          <path id="Path_4216" data-name="Path 4216" d="M140.386,142.284l-3.477-5.011-1.523,1.057,4.293,6.188h1.766l6.266-14.622-1.7-.731Z" transform="translate(-96.67 -92.395)" fill="#1492e6"/>
          <path id="Path_4217" data-name="Path 4217" d="M57.674,77.466a2.318,2.318,0,1,0-2.318,2.318A2.32,2.32,0,0,0,57.674,77.466Zm-2.781,0a.464.464,0,1,1,.464.464A.464.464,0,0,1,54.892,77.466Z" transform="translate(-37.871 -53.825)"/>
          <path id="Path_4218" data-name="Path 4218" d="M97.5,79.784a2.318,2.318,0,1,0-2.318-2.318A2.32,2.32,0,0,0,97.5,79.784ZM97.5,77a.464.464,0,1,1-.464.464A.464.464,0,0,1,97.5,77Z" transform="translate(-67.964 -53.825)"/>
          <path id="Path_4219" data-name="Path 4219" d="M72.5,104.325H70.647a4.635,4.635,0,1,1-9.271,0H59.522a6.49,6.49,0,0,0,12.979,0Z" transform="translate(-42.5 -74.658)"/>
        </g>
      </g>
    </g>
  </g>
</svg>
