<svg xmlns="http://www.w3.org/2000/svg" width="9.9" height="9.099" viewBox="0 0 9.9 9.099">
  <g id="download_blue" transform="translate(-18.065 -4.02)">
    <g id="Group_7430" data-name="Group 7430" transform="translate(18.067 6.1)">
      <g id="Group_7429" data-name="Group 7429">
        <path id="Path_3081" data-name="Path 3081" d="M26.732,153.6H25.075a.412.412,0,1,0,0,.823h1.657a.412.412,0,0,1,.412.412v4.549a.412.412,0,0,1-.412.412H19.3a.412.412,0,0,1-.412-.412v-4.549a.412.412,0,0,1,.412-.412h1.657a.412.412,0,1,0,0-.823H19.3a1.235,1.235,0,0,0-1.235,1.235v4.549a1.235,1.235,0,0,0,1.235,1.235h7.43a1.235,1.235,0,0,0,1.235-1.235v-4.549a1.235,1.235,0,0,0-1.233-1.235Z" transform="translate(-18.067 -153.6)" fill="#1492e6"/>
      </g>
    </g>
    <g id="Group_7432" data-name="Group 7432" transform="translate(20.552 4)">
      <g id="Group_7431" data-name="Group 7431">
        <path id="Path_3082" data-name="Path 3082" d="M141.546,8.279a.412.412,0,0,0-.572,0l-1.356,1.355V4.412a.412.412,0,0,0-.823,0V9.634L137.44,8.279a.412.412,0,0,0-.582.582l2.058,2.058a.412.412,0,0,0,.582,0h0l2.058-2.058a.412.412,0,0,0-.01-.582Z" transform="translate(-136.742 -4)" fill="#1492e6"/>
      </g>
    </g>
  </g>
</svg>
