<?xml version="1.0" encoding="utf-8"?>
<!-- Generator: Adobe Illustrator 25.0.1, SVG Export Plug-In . SVG Version: 6.00 Build 0)  -->
<svg version="1.0" xmlns="http://www.w3.org/2000/svg" xmlns:xlink="http://www.w3.org/1999/xlink" x="0px" y="0px"
	 viewBox="0 0 2858.3 2913.9" style="enable-background:new 0 0 2858.3 2913.9;" xml:space="preserve">
<style type="text/css">
	.st0{fill:#C5E8FC;}
	.st1{fill:#77C6F2;}
	.st2{opacity:0.5;fill:#FFFFFF;}
	.st3{fill:#9FD8FF;}
	.st4{fill:url(#SVGID_1_);}
	.st5{fill:#2A7CC6;}
	.st6{fill:#1492E6;}
	.st7{fill:#CEE8EF;}
	.st8{opacity:0.58;fill:#FFFFFF;}
	.st9{fill:url(#SVGID_2_);}
	.st10{fill:url(#SVGID_3_);}
	.st11{fill:url(#SVGID_4_);}
	.st12{fill:url(#SVGID_5_);}
	.st13{fill:url(#SVGID_6_);}
	.st14{fill:url(#SVGID_7_);}
	.st15{fill:url(#SVGID_8_);}
	.st16{fill:url(#SVGID_9_);}
	.st17{fill:url(#SVGID_10_);}
	.st18{fill:url(#SVGID_11_);}
	.st19{fill:#666694;}
	.st20{fill:url(#SVGID_12_);}
	.st21{fill:url(#SVGID_13_);}
	.st22{fill:url(#SVGID_14_);}
	.st23{fill:url(#SVGID_15_);}
	.st24{fill:url(#SVGID_16_);}
	.st25{fill:url(#SVGID_17_);}
	.st26{fill:url(#SVGID_18_);}
	.st27{fill:url(#SVGID_19_);}
	.st28{fill:url(#SVGID_20_);}
	.st29{opacity:0.3;}
	.st30{fill:#7D97F4;}
	.st31{fill:#3E99DD;}
	.st32{fill:url(#SVGID_21_);}
</style>
<g id="Background">
</g>
<g id="Illustration">
	<g>
		<path class="st0" d="M2475.8,2446c-56.9,59.9-110.7,98.5-153.2,129c-499.7,358.6-1091,254-1216.7,228.5
			c-185.6-37.7-544.3-110.5-803.6-415.5C-90.1,1926.5-29,1199.6,275.3,719.7C331,632,625,144.8,1222.7,66.7
			c361.7-47.3,783.3,48.1,1088.7,303.9C2952.3,907.5,2906.7,1992.3,2475.8,2446z"/>
		<g>
			<path class="st1" d="M0.9,865.9c-3.1-5,2.7-10.8,7.6-7.6c79.5,50.8,359.2,254.3,448.3,650.1c81.5,362.1,79.4,629.6,74.6,729
				c-1,19.7-22.7,31-39.4,20.6c-98.8-62-366.5-250.2-399.9-487.2C52.3,1487.6,149.9,1105.5,0.9,865.9z"/>
			<path class="st2" d="M175.1,1134.4c0,0,222.2,239.1,333.1,1094.7C508.2,2229.1,351.3,1375.1,175.1,1134.4z"/>
		</g>
		<g>
			<path class="st3" d="M419.8,62.1c-81.6,202.2-508.3,1398.1,542,2000.1c0,0,483.6-715-510.3-2004.5
				C442.8,46.4,425.1,48.9,419.8,62.1z"/>
			<path class="st2" d="M480.6,279.2c-2.1,73.1-1.2,146.5,1.1,219.7c2.4,73.2,6.6,146.4,12.6,219.4c12.1,146,31.1,291.5,59.5,435.2
				c28.6,143.5,66.5,285.5,119.4,421.9c13.1,34.1,27.5,67.7,42.8,100.9c15.2,33.2,31.7,65.8,49.4,97.8c35.1,64,75.8,124.9,122,181.2
				l0,0c2.4,2.9,2,7.3-0.9,9.7c-2.9,2.4-7.3,2-9.7-0.9l0,0c-46.6-57.3-87.4-119.1-122.6-183.8c-17.7-32.3-34.2-65.3-49.3-98.8
				c-15.2-33.5-29.6-67.4-42.6-101.8c-52.6-137.4-90-280.1-118-424.2c-27.9-144.2-46.3-290.1-57.7-436.4
				c-5.7-73.2-9.6-146.5-11.7-219.8c-2-73.4-2.6-146.7-0.1-220.2c0.1-1.6,1.4-2.9,3-2.8C479.4,276.2,480.7,277.6,480.6,279.2
				L480.6,279.2z"/>
		</g>
		<g>
			<linearGradient id="SVGID_1_" gradientUnits="userSpaceOnUse" x1="2437.6877" y1="135.0565" x2="495.7488" y2="2931.0459">
				<stop  offset="0" style="stop-color:#1D7FE1"/>
				<stop  offset="1" style="stop-color:#3ED7F2"/>
			</linearGradient>
			<path class="st4" d="M472.8,548.2c0-95.5,77.4-172.9,172.9-172.9h1470.4c81.1,0,148,63.6,152.1,144.6l108.5,2131.8
				c3.2,63.4-46.7,116.9-110.1,118l-1685.2,30.6c-59.6,1.1-108.6-47-108.6-106.6V548.2z"/>
			<path class="st5" d="M827.7,2764.1C827.7,2764.1,827.6,2764.1,827.7,2764.1l-188.6-2.4c-63.1-0.8-114.3-52.8-114.3-115.8v-284.7
				c0-2.2,1.8-4,4-4c2.2,0,4,1.8,4,4v284.7c0,58.7,47.7,107,106.4,107.8l188.6,2.4c2.2,0,4,1.9,4,4.1
				C831.7,2762.3,829.9,2764.1,827.7,2764.1z"/>
			<path class="st5" d="M528.7,2277c-2.2,0-4-1.8-4-4v-46.1c0-2.2,1.8-4,4-4c2.2,0,4,1.8,4,4v46.1
				C532.7,2275.2,530.9,2277,528.7,2277z"/>
			<g>
				<path class="st6" d="M593.3,408.2c-0.2-30.6,26.7-54.2,57-50.1c200.8,27.2,891.3,111.4,1462.1,67.6c26-2,48.6,17.7,50,43.8
					l113.8,2141.3c1.6,29.4-20.9,54.5-50.2,56.2c-240.1,14.2-1228.9,69.1-1581.6,32.2c-21.5-2.2-37.8-20.3-37.9-41.9L593.3,408.2z"
					/>
				<path class="st7" d="M616.9,461.8c-0.2-29.4,25.7-52.2,54.8-48.2c193.2,26.2,857.7,107.2,1407.1,65.1
					c25.1-1.9,46.8,17.1,48.1,42.2l109.5,2060.6c1.5,28.3-20.1,52.4-48.3,54.1c-231.1,13.7-1182.6,66.5-1522,31
					c-20.7-2.2-36.3-19.6-36.5-40.3L616.9,461.8z"/>
				<path class="st8" d="M2061.4,757.5H745.6c-5.8,0-10.4-4.7-10.4-10.4v-88.3c0-5.8,4.7-10.4,10.4-10.4h1315.8
					c5.8,0,10.4,4.7,10.4,10.4V747C2071.8,752.8,2067.1,757.5,2061.4,757.5z"/>
				<path class="st8" d="M1673.4,1402H747.1c-5.8,0-10.4-4.7-10.4-10.4V864.3c0-5.8,4.7-10.4,10.4-10.4h926.3
					c5.8,0,10.4,4.7,10.4,10.4v527.3C1683.8,1397.4,1679.2,1402,1673.4,1402z"/>
				<path class="st8" d="M2066.1,1708.6H741c-3.2,0-5.9-2.6-5.9-5.9v-57c0-3.2,2.6-5.9,5.9-5.9h1325.1c3.2,0,5.9,2.6,5.9,5.9v57
					C2072,1705.9,2069.4,1708.6,2066.1,1708.6z"/>
				<path class="st8" d="M1228.2,1580.7H744.8c-3.2,0-5.9-2.6-5.9-5.9v-54.3c0-3.2,2.6-5.9,5.9-5.9h483.4c3.2,0,5.9,2.6,5.9,5.9
					v54.3C1234,1578.1,1231.4,1580.7,1228.2,1580.7z"/>
				<path class="st8" d="M2067.7,1837.6H739.4c-2.4,0-4.3-1.9-4.3-4.3v-59.6c0-2.4,1.9-4.3,4.3-4.3h1328.3c2.4,0,4.3,1.9,4.3,4.3
					v59.6C2072,1835.7,2070.1,1837.6,2067.7,1837.6z"/>
				<path class="st8" d="M2067.7,1960.7H739.4c-2.4,0-4.3-1.9-4.3-4.3v-54.7c0-2.4,1.9-4.3,4.3-4.3h1328.3c2.4,0,4.3,1.9,4.3,4.3
					v54.7C2072,1958.8,2070.1,1960.7,2067.7,1960.7z"/>
				<path class="st8" d="M2075.9,2284.2H750.7c-3.2,0-5.9-2.6-5.9-5.9v-57c0-3.2,2.6-5.9,5.9-5.9h1325.1c3.2,0,5.9,2.6,5.9,5.9v57
					C2081.7,2281.6,2079.1,2284.2,2075.9,2284.2z"/>
				<path class="st8" d="M1237.9,2156.3H754.5c-3.2,0-5.9-2.6-5.9-5.9v-54.3c0-3.2,2.6-5.9,5.9-5.9h483.4c3.2,0,5.9,2.6,5.9,5.9
					v54.3C1243.8,2153.7,1241.1,2156.3,1237.9,2156.3z"/>
				<path class="st8" d="M2077.4,2413.2H749.1c-2.4,0-4.3-1.9-4.3-4.3v-59.6c0-2.4,1.9-4.3,4.3-4.3h1328.3c2.4,0,4.3,1.9,4.3,4.3
					v59.6C2081.7,2411.3,2079.8,2413.2,2077.4,2413.2z"/>
				<path class="st8" d="M2077.4,2536.4H749.1c-2.4,0-4.3-1.9-4.3-4.3v-54.7c0-2.4,1.9-4.3,4.3-4.3h1328.3c2.4,0,4.3,1.9,4.3,4.3
					v54.7C2081.7,2534.5,2079.8,2536.4,2077.4,2536.4z"/>
			</g>
			<linearGradient id="SVGID_2_" gradientUnits="userSpaceOnUse" x1="1636.1349" y1="-134.7897" x2="959.8149" y2="754.8933">
				<stop  offset="0" style="stop-color:#1D7FE1"/>
				<stop  offset="1" style="stop-color:#3ED7F2"/>
			</linearGradient>
			<path class="st9" d="M1472.1,84.7c-53.1-36.9-99.3-36.2-131.8-26.6c-29.7,8.8-48.9,37.4-46.1,68.2l14,153l166.8,14.8
				C1475.1,294.1,1576.2,157.2,1472.1,84.7z M1398.7,208.1c-23,0-41.6-18.6-41.6-41.6c0-23,18.6-41.6,41.6-41.6
				c23,0,41.6,18.6,41.6,41.6C1440.3,189.5,1421.7,208.1,1398.7,208.1z"/>
			<path class="st5" d="M1324.9,214.9c-2.1,0-3.8-1.6-4-3.7l-2.2-24.4c-0.2-2.2,1.4-4.2,3.6-4.4c2.3-0.2,4.2,1.4,4.4,3.6l2.2,24.4
				c0.2,2.2-1.4,4.2-3.6,4.4C1325.2,214.9,1325,214.9,1324.9,214.9z M1320.5,167.1c-2.1,0-3.8-1.6-4-3.7l-1.7-18.5
				c-2.7-29.3,15.8-56.6,43.9-64.9c19.9-5.9,40.4-6.7,61-2.5c2.2,0.4,3.6,2.6,3.1,4.8c-0.4,2.2-2.6,3.6-4.8,3.1
				c-19.2-3.9-38.4-3.2-57.1,2.3c-24.4,7.2-40.5,31-38.1,56.5l1.7,18.5c0.2,2.2-1.4,4.2-3.6,4.4
				C1320.8,167.1,1320.7,167.1,1320.5,167.1z"/>
			<linearGradient id="SVGID_3_" gradientUnits="userSpaceOnUse" x1="1710.3219" y1="-78.3959" x2="1034.0013" y2="811.2879">
				<stop  offset="0" style="stop-color:#1D7FE1"/>
				<stop  offset="1" style="stop-color:#3ED7F2"/>
			</linearGradient>
			<path class="st10" d="M1080.6,378.2v-76.9c0-26.6,22-47.8,48.6-46.9l530.5,18.2c23.5,0.8,42.6,19.4,44,42.9l4.4,73.9
				L1080.6,378.2z"/>
			<path class="st5" d="M1278.3,283.3h-22.8c-2.2,0-4-1.8-4-4c0-2.2,1.8-4,4-4h22.8c2.2,0,4,1.8,4,4
				C1282.4,281.5,1280.6,283.3,1278.3,283.3z"/>
			<path class="st5" d="M1109.3,354c-2.2,0-4-1.8-4-4v-31.1c0-24,19.6-43.6,43.6-43.6h83.9c2.2,0,4,1.8,4,4c0,2.2-1.8,4-4,4h-83.9
				c-19.6,0-35.6,16-35.6,35.6V350C1113.3,352.2,1111.5,354,1109.3,354z"/>
			<linearGradient id="SVGID_4_" gradientUnits="userSpaceOnUse" x1="1625.0938" y1="-23.9751" x2="1158.1089" y2="833.5042">
				<stop  offset="0" style="stop-color:#1D7FE1"/>
				<stop  offset="1" style="stop-color:#3ED7F2"/>
			</linearGradient>
			<path class="st11" d="M864.4,397.6c1.3-26.6,23.3-47.6,49.9-47.6l927.6,0c33.4,0,61.9,24,67.6,56.9l0.8,4.5
				c6.2,36-21.5,68.9-58,68.9H900.6c-21.9,0-39.3-18.3-38.2-40.1L864.4,397.6z"/>
		</g>
		<g>
			<g>
				<g>
					<linearGradient id="SVGID_5_" gradientUnits="userSpaceOnUse" x1="2779.0283" y1="-424.9983" x2="2392.7097" y2="218.8647">
						<stop  offset="0" style="stop-color:#FF928E"/>
						<stop  offset="1" style="stop-color:#FE7062"/>
					</linearGradient>
					<path class="st12" d="M2059.2,1690.8h-743.7c-30,0-54.4-24.3-54.4-54.4v-484.2c0-28.8,22.5-52.7,51.3-54.3l772.4-43
						c32.3-1.8,59.1,24.9,57.3,57.2l-28.7,527.3C2112,1668.3,2088.1,1690.8,2059.2,1690.8z"/>
					<g>
						<linearGradient id="SVGID_6_" gradientUnits="userSpaceOnUse" x1="1977.3789" y1="684.6764" x2="1148.7324" y2="1862.6544">
							<stop  offset="0" style="stop-color:#FF928E"/>
							<stop  offset="1" style="stop-color:#FE7062"/>
						</linearGradient>
						<path class="st13" d="M1704.8,1398.6l406.5-338.6c-7.9-3.8-16.9-5.7-26.4-5.2l-772.4,43c-13.3,0.7-25.2,6.2-34.2,14.7
							l304.2,282.9C1615.6,1426.3,1669.9,1427.7,1704.8,1398.6z"/>
					</g>
				</g>
				<path class="st2" d="M1648.3,1381.9c-20.2,0-40.3-7.2-56.5-21.5l-114.6-101.2c-3.4-3-3.7-8.1-0.7-11.5c3-3.4,8.1-3.7,11.5-0.7
					l114.6,101.2c24.4,21.5,59.8,23.3,86.2,4.3l59.4-42.7c3.7-2.6,8.7-1.8,11.3,1.9c2.6,3.6,1.8,8.7-1.9,11.3l-59.4,42.7
					C1683.1,1376.5,1665.7,1381.9,1648.3,1381.9z"/>
				<path class="st2" d="M1439.9,1223.5c-1.9,0-3.8-0.7-5.4-2l-15.4-13.6c-3.4-3-3.7-8.1-0.7-11.5c3-3.4,8.1-3.7,11.5-0.7l15.4,13.6
					c3.4,3,3.7,8.1,0.7,11.5C1444.4,1222.6,1442.1,1223.5,1439.9,1223.5z"/>
			</g>
			<g>
				<g>
					
						<linearGradient id="SVGID_7_" gradientUnits="userSpaceOnUse" x1="5108.0938" y1="2816.751" x2="5218.9922" y2="2816.751" gradientTransform="matrix(-1 0 0 1 7904.311 0)">
						<stop  offset="0" style="stop-color:#09005D"/>
						<stop  offset="1" style="stop-color:#1A0F91"/>
					</linearGradient>
					<path class="st14" d="M2780.8,2777.7c0,0,12.3,19.4,15.4,73.8c0.3,5.1-3.7,9.4-8.8,9.4H2691c-3.9,0-6.6-3.8-5.4-7.5
						c5.6-16.7,22.7-57.5,60.8-80.8L2780.8,2777.7z"/>
					
						<linearGradient id="SVGID_8_" gradientUnits="userSpaceOnUse" x1="5119.3433" y1="2765.2173" x2="5164.3203" y2="2765.2173" gradientTransform="matrix(-1 0 0 1 7904.311 0)">
						<stop  offset="0" style="stop-color:#FEBBBA"/>
						<stop  offset="1" style="stop-color:#FF928E"/>
					</linearGradient>
					<path class="st15" d="M2785,2740.8l-5.5,45.7c-0.5,3.9-3.6,7.1-7.5,7.6c-5.3,0.6-12.9,1-20.4-0.2c-6.8-1.1-11.6-7.1-11.6-14
						v-44.1L2785,2740.8z"/>
					
						<linearGradient id="SVGID_9_" gradientUnits="userSpaceOnUse" x1="5343.9331" y1="2814.9775" x2="5517.938" y2="2814.9775" gradientTransform="matrix(-1 0 0 1 7904.311 0)">
						<stop  offset="0" style="stop-color:#09005D"/>
						<stop  offset="1" style="stop-color:#1A0F91"/>
					</linearGradient>
					<path class="st16" d="M2542.3,2772.6c0,0,18.4,28.7,18.1,68c-0.1,9.3-7.9,16.7-17.1,16.7h-149.7c-7,0-9.9-9-4.1-13
						c28.3-19.9,84-57,124.3-71.7H2542.3z"/>
					
						<linearGradient id="SVGID_10_" gradientUnits="userSpaceOnUse" x1="5346.5762" y1="2745.2458" x2="5391.3057" y2="2745.2458" gradientTransform="matrix(-1 0 0 1 7904.311 0)">
						<stop  offset="0" style="stop-color:#FEBBBA"/>
						<stop  offset="1" style="stop-color:#FF928E"/>
					</linearGradient>
					<path class="st17" d="M2557.7,2723.3l-11.6,56.5c-1.3,6.3-7.5,10.6-13.8,9.2c-3.8-0.9-8.3-2.5-13.2-5.5
						c-4.6-2.9-6.9-8.3-6-13.6l12-68.4L2557.7,2723.3z"/>
					
						<linearGradient id="SVGID_11_" gradientUnits="userSpaceOnUse" x1="5091.397" y1="2348.4875" x2="5396.3306" y2="2348.4875" gradientTransform="matrix(-1 0 0 1 7904.311 0)">
						<stop  offset="0" style="stop-color:#29ABE2"/>
						<stop  offset="1" style="stop-color:#2E3192"/>
					</linearGradient>
					<path class="st18" d="M2763.6,1938.4c0,0,40.4,35.6,48,78.5s-21.6,739.9-21.6,739.9s-40.4,6.7-61.3-5.9
						c0,0-24.7-452.3-43.5-556.9c0,0-98.5,468.6-125.8,553.2c0,0-38.9,4.7-51.5-2.7c0,0,25.8-607.4,58.2-715.4L2763.6,1938.4z"/>
					<path class="st19" d="M2686.5,2177.5c-0.2,0-0.4,0-0.6-0.1c-1.4-0.4-2.2-1.7-1.8-3.1l17.2-65.9c0.2-0.6,0.5-1.2,1.1-1.5
						l37.1-23.8c1.2-0.8,2.8-0.4,3.5,0.8c0.8,1.2,0.4,2.8-0.8,3.5l-36.3,23.3l-16.9,64.9C2688.7,2176.7,2687.6,2177.5,2686.5,2177.5
						z"/>
					<linearGradient id="SVGID_12_" gradientUnits="userSpaceOnUse" x1="2530.677" y1="1224.3409" x2="2151.1367" y2="2200.302">
						<stop  offset="0" style="stop-color:#FBB03B"/>
						<stop  offset="1" style="stop-color:#F87972"/>
					</linearGradient>
					<path class="st20" d="M2364.6,1535.7c170.2-14.1,214.7,21.1,214.7,21.1l-81.8,129.1c0,0-167.2-3.3-287.1-95.7
						c22.4-24.2,38-50.8,48-71.6C2289.4,1531.4,2324.9,1539,2364.6,1535.7z"/>
					
						<linearGradient id="SVGID_13_" gradientUnits="userSpaceOnUse" x1="5645.8428" y1="1435.5262" x2="5812.0776" y2="1435.5262" gradientTransform="matrix(-1 0 0 1 7904.311 0)">
						<stop  offset="0" style="stop-color:#FEBBBA"/>
						<stop  offset="1" style="stop-color:#FF928E"/>
					</linearGradient>
					<path class="st21" d="M2098.1,1285.8c0.2-5.5,7.6-6.9,9.9-2l21.7,46.3c4.2,9,5.5,19,3.9,28.7l-7.6,27
						c-2.3,13.2,1.2,26.6,9.5,37.1c20,24.9,62.5,70.5,123,95.6c-10,20.8-25.6,47.5-48,71.6c-44-33.9-81.6-79.7-102.2-141.9
						c-9.9-3-16.5-12.3-16.1-22.6L2098.1,1285.8z"/>
					<linearGradient id="SVGID_14_" gradientUnits="userSpaceOnUse" x1="3094.6453" y1="884.208" x2="2864.2097" y2="1243.4156">
						<stop  offset="0" style="stop-color:#FBB03B"/>
						<stop  offset="1" style="stop-color:#F87972"/>
					</linearGradient>
					<path class="st22" d="M2308.6,1610.5c59.9-64.6,174-93.7,240.1-105.7c28.9-5.2,57.5,10.9,67.7,38.4
						c29.7,79.9,110.6,287.9,126.3,323.6c12.9,29.3,26.3,58,34.8,75.9c5.1,10.7,0.6,23.5-10,28.6c-55.6,26.8-155.6,57.1-196.2,68.9
						c-8.9,2.6-17.8-4.1-17.8-13.4c0-7.9-2.1-15.6-6.2-22.4l-153.6-255.9c-95.7,106.1-179.6,115.8-244,92.6
						c10.8-33.5,17.9-67,21.3-100.6C2266.3,1724.3,2308.6,1610.5,2308.6,1610.5z"/>
					
						<linearGradient id="SVGID_15_" gradientUnits="userSpaceOnUse" x1="6022.2539" y1="1471.7689" x2="5663.0669" y2="1918.6318" gradientTransform="matrix(-1 0 0 1 7904.311 0)">
						<stop  offset="0" style="stop-color:#FEBBBA"/>
						<stop  offset="1" style="stop-color:#FF928E"/>
					</linearGradient>
					<path class="st23" d="M2013.9,1722.8l17.2-22.9c55.6,38.2,102,47.2,140.1,40.7c-3.4,33.6-10.5,67.1-21.3,100.6
						C2065,1810.6,2013.9,1722.8,2013.9,1722.8z"/>
					
						<linearGradient id="SVGID_16_" gradientUnits="userSpaceOnUse" x1="6090.3545" y1="1526.5066" x2="5731.1665" y2="1973.371" gradientTransform="matrix(-1 0 0 1 7904.311 0)">
						<stop  offset="0" style="stop-color:#FEBBBA"/>
						<stop  offset="1" style="stop-color:#FF928E"/>
					</linearGradient>
					<path class="st24" d="M2026,1723.2l-96.7,3.8l-89.1-49.7c12.8-8,85.1,8.4,85.1,8.4s75.6-11.4,96-11.5c17,0,14.6,24.4,13.3,32.7
						c-0.3,1.7-0.5,2.7-0.5,2.7L2026,1723.2z"/>
					
						<linearGradient id="SVGID_17_" gradientUnits="userSpaceOnUse" x1="5618.1655" y1="1201.7072" x2="5270.291" y2="1840.8925" gradientTransform="matrix(-1 0 0 1 7904.311 0)">
						<stop  offset="0" style="stop-color:#FEBBBA"/>
						<stop  offset="1" style="stop-color:#FF928E"/>
					</linearGradient>
					<path class="st25" d="M2457.9,1386.2l51,124.5c0,0-58.6,40.6-105.8,36.7l-25.5-112L2457.9,1386.2z"/>
					<g>
						
							<linearGradient id="SVGID_18_" gradientUnits="userSpaceOnUse" x1="4238.9316" y1="6768.3848" x2="4085.1912" y2="6971.771" gradientTransform="matrix(-0.817 -0.5767 -0.5767 0.817 9762.3164 -1765.7096)">
							<stop  offset="0" style="stop-color:#FEBBBA"/>
							<stop  offset="1" style="stop-color:#FF928E"/>
						</linearGradient>
						<path class="st26" d="M2371.6,1301.3c-1.2,1.7-36.9,130.8-36.9,130.8l74.2,18.8l52.1-117.4
							C2461,1333.6,2391.2,1273.6,2371.6,1301.3z"/>
						<linearGradient id="SVGID_19_" gradientUnits="userSpaceOnUse" x1="2362.8203" y1="1304.1483" x2="2549.7026" y2="1651.2147">
							<stop  offset="0" style="stop-color:#09005D"/>
							<stop  offset="1" style="stop-color:#1A0F91"/>
						</linearGradient>
						<path class="st27" d="M2433,1351.5l-22.6,63.9c-0.3,0.8-0.7,1.6-1.2,2.3c-3.1,4.4-14.7,18.6-28.5,5.8
							c-12.5-11.6-24.1-22-34.8-23.9c-4.8-0.8-9.5,2.1-10.8,6.8c-3.2,11.7-10.1,38.3-12.5,62.3c-0.5,4.9,2.9,9.3,7.7,10.2
							c14.5,2.8,45.2,7.7,70.9,5.9c3.5-0.2,6.5-2.3,8-5.5c7.1-15.4,28.7-62.3,36.8-74.4c7.6-11.4,26.1-11.1,33.9-10.4
							c2.5,0.2,5.1-0.6,7-2.3c6.8-6,19.7-21.2,1.5-39.4c-3.8-3.8-3.7-10,0.2-13.7c7.8-7.4,16.2-20.4,3.2-36.6
							c-13.2-16.4-30.7-13.8-41.4-9.9c-4.3,1.6-9.1-0.2-11.4-4.2c-1.3-2.3-3.7-4-7.7-3.6c-5.5,0.5-10.1-4.1-10-9.6
							c0.2-10.5-3.6-23.8-21.8-29.5c-32.4-10.1-52.6,21.2-54.6,44.6c-2,23.4,33.8,32.3,54.8,30.7c16-1.2,27.9,14.6,32.6,22.3
							C2433.7,1345.8,2434,1348.8,2433,1351.5z"/>
						
							<linearGradient id="SVGID_20_" gradientUnits="userSpaceOnUse" x1="4013.761" y1="6929.4512" x2="4137.0742" y2="6802.9351" gradientTransform="matrix(-0.817 -0.5767 -0.5767 0.817 9762.3164 -1765.7096)">
							<stop  offset="0" style="stop-color:#FEBBBA"/>
							<stop  offset="1" style="stop-color:#FF928E"/>
						</linearGradient>
						<path class="st28" d="M2437.5,1428c0,0,5.2-40.6,22.1-42.5c16.9-2,33.3,11.9,16.5,34.6C2455.3,1448.4,2437.5,1428,2437.5,1428
							z"/>
					</g>
				</g>
			</g>
		</g>
		<g>
			<g>
				<g class="st29">
					<path class="st30" d="M1920,555.9c5.3,1.6,8.3,7.1,6.8,12.4c-3,10.3-5.6,20.9-7.8,31.5c-1.1,5.4-6.3,8.8-11.6,7.9
						c-0.1,0-0.1,0-0.2,0c-5.4-1.1-8.9-6.4-7.8-11.8c2.3-11.1,5-22.3,8.2-33.1c1.5-5,6.4-7.9,11.4-7
						C1919.4,555.8,1919.7,555.8,1920,555.9z M1912.2,652.1c-0.7,10.8-0.9,21.7-0.7,32.4c0.1,5.5-4.3,10.1-9.8,10.2
						c-5.5,0.1-10.1-4.3-10.2-9.8c-0.3-11.3,0-22.8,0.7-34.1c0.3-5.5,5.1-9.7,10.6-9.4c0.4,0,0.8,0.1,1.2,0.1
						C1908.9,642.5,1912.5,646.9,1912.2,652.1z M1916.3,736.9c1.7,10.6,3.9,21.3,6.6,31.7c1.4,5.4-1.9,10.8-7.3,12.2
						c-5.4,1.3-10.8-1.9-12.2-7.3c-2.8-11-5.1-22.2-6.9-33.4c-0.9-5.5,2.8-10.6,8.3-11.5c1.2-0.2,2.3-0.2,3.4,0
						C1912.3,729.4,1915.6,732.6,1916.3,736.9z M1939.4,818.7c4.1,10,8.6,19.9,13.5,29.5c2.5,4.9,0.6,11-4.4,13.5
						c-4.9,2.5-10.9,0.6-13.5-4.4c-5.2-10.1-9.9-20.5-14.2-31c-2.1-5.1,0.4-11,5.5-13c1.8-0.7,3.8-0.9,5.6-0.6
						C1935.1,813.2,1938,815.4,1939.4,818.7z M1980,893.3c6.2,8.8,12.8,17.5,19.7,25.8c3.5,4.2,3,10.6-1.3,14.1
						c-4.2,3.5-10.6,3-14.1-1.3c-7.3-8.7-14.2-17.8-20.7-27.1c-3.2-4.5-2.1-10.8,2.5-13.9c2.3-1.6,5-2.1,7.5-1.6
						C1976.1,889.6,1978.5,891,1980,893.3z M2036.2,957c8,7.2,16.4,14.2,24.9,20.7c4.4,3.4,5.2,9.6,1.9,14c-3.4,4.4-9.6,5.2-14,1.9
						c-9-6.9-17.8-14.2-26.2-21.8c-4.1-3.7-4.4-10-0.7-14.1c2.4-2.7,5.9-3.7,9.2-3.1C2033.1,954.9,2034.8,955.7,2036.2,957z
						 M2395.7,1051.3c1.3,5.4-1.9,10.8-7.3,12.1c-11,2.8-22.2,5.1-33.4,6.9c-5.5,0.9-10.6-2.8-11.5-8.3c-0.9-5.5,2.8-10.6,8.3-11.5
						c10.6-1.7,21.3-3.9,31.8-6.5c1.4-0.4,2.9-0.4,4.2-0.1C2391.5,1044.6,2394.7,1047.4,2395.7,1051.3z M2105.1,1006.7
						c9.4,5.3,19.1,10.2,28.9,14.7c5,2.3,7.3,8.2,5,13.3c-2.3,5-8.2,7.2-13.3,5c-10.3-4.7-20.5-9.9-30.4-15.4
						c-4.8-2.7-6.5-8.8-3.8-13.6c2.1-3.8,6.4-5.7,10.5-4.9C2103,1005.7,2104.1,1006.1,2105.1,1006.7z M2309.6,1065.1
						c0.1,5.5-4.3,10.1-9.8,10.2c-11.3,0.2-22.8,0-34.1-0.8c-5.5-0.3-9.7-5.1-9.3-10.6c0.4-5.5,5.1-9.7,10.6-9.3
						c10.8,0.7,21.7,0.9,32.4,0.7c0.7,0,1.4,0,2,0.2C2306,1056.3,2309.5,1060.2,2309.6,1065.1z M2183.3,1039.7
						c10.3,3,20.9,5.7,31.5,7.8c5.4,1.1,8.9,6.4,7.8,11.8c-1.1,5.3-6.3,8.8-11.6,7.8c-0.1,0-0.1,0-0.2,0c-11.1-2.3-22.3-5-33.1-8.2
						c-5.3-1.6-8.3-7.1-6.8-12.4c1.5-5,6.4-7.9,11.4-7C2182.6,1039.5,2182.9,1039.6,2183.3,1039.7z"/>
					<path class="st30" d="M2454.1,1020.7c-1.9-0.4-4-0.1-5.9,0.7c-4.7,2.1-9.5,4.2-14.3,6.2c-5.1,2.1-7.6,7.9-5.5,13
						c2.1,5.1,7.9,7.6,13,5.5c5.1-2.1,10.1-4.2,15.1-6.5c5-2.3,7.3-8.2,5-13.3C2460,1023.3,2457.3,1021.2,2454.1,1020.7z"/>
				</g>
				<g class="st29">
					<path class="st30" d="M2660.5,795.8c-4.8-0.9-9.6,1.8-11.2,6.5c-1.7,4.9-3.6,9.8-5.5,14.6c-2.1,5.1,0.4,11,5.6,13
						c5.2,2.1,11-0.4,13-5.6c2-5.1,4-10.2,5.8-15.4c1.8-5.2-0.9-10.9-6.1-12.8C2661.5,796.1,2661,795.9,2660.5,795.8z"/>
					<path class="st30" d="M2382.7,286.4c5.4,1.3,8.7,6.6,7.5,12c-1.3,5.4-6.6,8.7-12,7.5c-10.2-2.4-20.8-4.4-31.4-6
						c-5.4-0.8-9.2-5.9-8.4-11.4s5.9-9.2,11.4-8.4c4.6,0.7,9.2,1.4,13.7,2.3C2369.8,283.5,2376.3,284.9,2382.7,286.4z M2305.2,285.9
						c-0.1,5.5-4.6,10-10.1,9.9c-10.6-0.1-21.3,0.2-31.9,1c-5.5,0.4-10.3-3.7-10.7-9.3c-0.4-5.5,3.7-10.3,9.3-10.7
						c11.1-0.8,22.4-1.2,33.6-1c0.6,0,1.1,0.1,1.7,0.2C2301.7,276.8,2305.3,281,2305.2,285.9z M2434.8,302.4
						c10.4,4,20.8,8.5,30.8,13.4c5,2.4,7.1,8.4,4.6,13.4c-2.4,5-8.4,7-13.4,4.6c-9.5-4.6-19.4-8.9-29.3-12.7
						c-5.2-2-7.7-7.8-5.8-12.9c1.8-4.6,6.5-7.1,11.1-6.3C2433.6,302,2434.2,302.2,2434.8,302.4z M2219.6,292.2
						c1.2,5.4-2.3,10.7-7.7,11.9c-10.4,2.2-20.8,4.9-30.9,8c-5.3,1.6-10.9-1.4-12.5-6.7c-1.6-5.3,1.4-10.9,6.7-12.5
						c10.7-3.2,21.6-6.1,32.5-8.4c1.3-0.3,2.6-0.3,3.9-0.1C2215.5,285.2,2218.7,288.1,2219.6,292.2z M2512.9,342.8
						c9.3,6.2,18.4,12.8,27.1,19.8c4.3,3.4,5,9.7,1.6,14.1c-3.4,4.3-9.7,5-14.1,1.6c-8.3-6.6-17-12.9-25.8-18.8
						c-4.6-3.1-5.8-9.3-2.8-13.9c2.3-3.4,6.3-5,10.1-4.3C2510.5,341.6,2511.7,342.1,2512.9,342.8z M2580.3,399.4
						c7.7,8.1,15.2,16.6,22.1,25.2c3.5,4.3,2.8,10.6-1.5,14.1c-4.3,3.5-10.6,2.8-14.1-1.5c-6.6-8.2-13.7-16.3-21-24
						c-3.8-4-3.7-10.3,0.3-14.2c2.4-2.3,5.7-3.2,8.7-2.6C2576.8,396.9,2578.7,397.8,2580.3,399.4z M2633.7,469.3
						c5.8,9.6,11.2,19.5,16.1,29.5c2.4,5,0.4,11-4.5,13.4c-5,2.5-11,0.4-13.4-4.5c-4.7-9.5-9.8-18.9-15.3-28
						c-2.9-4.7-1.3-10.9,3.4-13.7c2.2-1.3,4.6-1.7,7-1.3C2629.6,465.2,2632.1,466.8,2633.7,469.3z M2670.6,549.3
						c3.5,10.6,6.7,21.5,9.3,32.3c1.3,5.4-2,10.8-7.4,12.1c-5.4,1.3-10.8-2-12.1-7.4c-2.5-10.3-5.5-20.6-8.8-30.7
						c-1.7-5.2,1.1-10.9,6.3-12.7c1.7-0.6,3.4-0.6,5-0.4C2666.3,543.2,2669.4,545.7,2670.6,549.3z M2689,635.4
						c1.1,11.1,1.8,22.4,1.9,33.5c0.1,5.5-4.3,10.1-9.9,10.2c-5.5,0.1-10.1-4.3-10.2-9.9c-0.2-10.6-0.8-21.3-1.8-31.8
						c-0.6-5.5,3.5-10.4,9-11c1-0.1,1.9-0.1,2.8,0.1C2685.1,627.3,2688.6,630.8,2689,635.4z M2688.1,723.3c-1,8.1-2.2,16.4-3.7,24.4
						c-0.5,2.9-1.1,5.8-1.7,8.7c-1.1,5.4-6.4,9-11.8,7.8c-5.4-1.1-8.9-6.4-7.8-11.8c0.6-2.7,1.1-5.5,1.6-8.3
						c1.4-7.7,2.6-15.5,3.5-23.2c0.7-5.5,5.6-9.4,11.1-8.7c0.2,0,0.4,0.1,0.6,0.1C2685.1,713.2,2688.7,718,2688.1,723.3z"/>
					<path class="st30" d="M2130,311.7c-2-0.4-4-0.1-6,0.8c-4.9,2.3-9.9,4.7-14.8,7.2c-4.9,2.5-6.9,8.6-4.3,13.5
						c2.5,4.9,8.5,6.9,13.5,4.3c4.6-2.4,9.3-4.7,14-6.8c5-2.3,7.2-8.3,4.9-13.3C2135.8,314.2,2133,312.2,2130,311.7z"/>
				</g>
				<g>
					<path class="st1" d="M2070.4,472.6c-1.5,1.3-2,3.4-1.3,5.3l20.8,53c-15.8,21.4-28.2,45.5-36.6,71.5l-55.1,14.2
						c-1.9,0.5-3.3,2.2-3.5,4.2l-5.4,68.1c-0.2,2,1,3.9,2.8,4.7l52.1,22.8c4.1,27.1,12.6,52.8,24.8,76.4l-28.9,49
						c-1,1.7-0.8,3.9,0.5,5.4l44.3,52c1.3,1.5,3.4,2,5.3,1.3l53-20.8c21.4,15.8,45.5,28.2,71.5,36.6l14.2,55.1
						c0.5,1.9,2.2,3.3,4.2,3.5l68.1,5.4c2,0.2,3.9-1,4.7-2.8l22.8-52.1c27.1-4.1,52.8-12.6,76.4-24.8l49,28.9c1.7,1,3.9,0.8,5.4-0.5
						l52-44.3c1.5-1.3,2-3.4,1.3-5.3l-20.8-53c15.8-21.4,28.2-45.5,36.6-71.5l55.1-14.2c1.9-0.5,3.3-2.2,3.5-4.2l5.4-68.1
						c0.2-2-1-3.9-2.8-4.7l-52.1-22.8c-4.1-27.1-12.6-52.8-24.8-76.4l28.9-49c1-1.7,0.8-3.9-0.5-5.4l-44.3-52
						c-1.3-1.5-3.4-2-5.3-1.3l-53,20.8c-21.4-15.8-45.5-28.2-71.5-36.6l-14.2-55.1c-0.5-1.9-2.2-3.3-4.2-3.5l-68.1-5.4
						c-2-0.2-3.9,1-4.7,2.8l-22.8,52.1c-27.1,4.1-52.8,12.6-76.4,24.8l-49-28.9c-1.7-1-3.9-0.8-5.4,0.5L2070.4,472.6z"/>
					<path class="st31" d="M2312.9,613.6c35.8,12.2,55.1,51.2,43,87.1c-5.9,17.4-18.2,31.4-34.6,39.5c-16.4,8.1-35.1,9.3-52.4,3.5
						c-35.8-12.2-55.1-51.2-43-87.1c11.1-32.6,44.4-51.5,77.3-45.5C2306.4,611.7,2309.7,612.5,2312.9,613.6z M2314.2,725.8
						c12.6-6.2,22-17,26.6-30.3c9.3-27.5-5.5-57.4-32.9-66.7c-27.5-9.3-57.4,5.5-66.7,32.9c-9.3,27.5,5.5,57.4,32.9,66.7
						c2.5,0.8,5,1.5,7.6,2C2292.6,732.5,2303.9,730.9,2314.2,725.8z"/>
					<path class="st31" d="M2322.4,513.8c-5.7-1-11.4-1.8-17.2-2.2l0,0c-1.8-0.1-3.7-0.3-5.5-0.4c-9-0.4-18.1-0.1-27,0.9
						c-0.1,0-0.2,0-0.4,0c-0.3,0-0.7,0.1-1,0.1c-0.7,0.1-1.3,0.2-2,0.3c-1.8,0.2-3.1,1.6-3.4,3.2c-0.1,0.4-0.1,0.8,0,1.3
						c0.3,2.2,2.3,3.7,4.5,3.4c11.3-1.5,22.8-1.8,34.2-0.9c56.8,4.5,104.4,38.2,129.3,85.1c13.9,26.1,20.7,56.3,18.2,87.9
						c-0.4,5.5-1.2,11-2.1,16.4c-6.6,36.3-25.4,68.9-53.8,93.2c-32.7,27.9-74.3,41.3-117.1,37.9c-88.4-7.1-154.5-84.7-147.5-173.1
						c0.4-5.4,1.1-10.9,2.1-16.2c4.2-23.1,13.5-45.1,27.2-64.3c0.4-0.5,0.6-1,0.7-1.6c0.3-1.5-0.3-3-1.6-4c-1.8-1.3-4.3-0.9-5.6,0.9
						c-14.4,20.1-24.1,43.2-28.5,67.5c-1,5.6-1.8,11.3-2.2,17c-7.4,92.8,62.1,174.3,154.8,181.7c44.9,3.6,88.6-10.5,122.9-39.8
						c29.9-25.5,49.6-59.7,56.5-97.8c1-5.7,1.8-11.4,2.3-17.2c3.6-44.9-10.5-88.6-39.8-122.9
						C2394.7,540.5,2360.5,520.8,2322.4,513.8z"/>
				</g>
			</g>
			<g>
				<g class="st29">
					<path class="st30" d="M1630.4,234.9c-2.6-0.5-5.4,0.8-6.6,3.3c-2.4,4.7-4.6,9.5-6.7,14.3c-1.3,3.1,0.1,6.8,3.2,8.1
						c3.1,1.4,6.8-0.1,8.1-3.2c2-4.6,4.1-9.2,6.4-13.7c1.5-3,0.3-6.8-2.7-8.3C1631.5,235.2,1630.9,235,1630.4,234.9z"/>
					<path class="st30" d="M1613.6,279.3c3.3,1,5.2,4.4,4.2,7.7c-2.4,8.3-4.4,16.8-5.9,25.2c-0.3,1.8-0.6,3.6-0.9,5.4
						c-0.5,3.4-3.7,5.7-7.1,5.1c-3.2-0.6-5.7-3.7-5.1-7.1c0.3-1.9,0.6-3.8,1-5.6c1.6-8.9,3.7-17.8,6.2-26.5c0.9-3.1,4-4.9,7-4.4
						C1613.2,279.2,1613.4,279.2,1613.6,279.3z M1607.9,348.8c-0.4,10.4-0.1,21,0.7,31.4c0.3,3.4-2.2,6.4-5.6,6.7
						c-3.4,0.3-6.4-2.2-6.7-5.6c-0.9-10.9-1.2-21.9-0.8-32.9c0.1-3.4,3-6.1,6.4-5.9c0.3,0,0.6,0,0.9,0.1
						C1605.8,343.1,1608,345.7,1607.9,348.8z M1613.2,411.3c2.2,10.2,5,20.4,8.4,30.2c1.1,3.2-0.6,6.7-3.8,7.9
						c-3.2,1.1-6.7-0.6-7.9-3.8c-3.6-10.3-6.6-21-8.8-31.7c-0.7-3.3,1.4-6.6,4.8-7.3c0.8-0.2,1.6-0.2,2.4,0
						C1610.7,406.9,1612.7,408.7,1613.2,411.3z M1633.8,470.5c4.6,9.4,9.9,18.5,15.6,27.2c1.9,2.9,1.1,6.7-1.8,8.6
						c-2.8,1.9-6.7,1.1-8.6-1.8c-6-9.1-11.5-18.7-16.3-28.6c-1.5-3.1-0.2-6.8,2.8-8.3c1.2-0.6,2.6-0.8,3.8-0.5
						C1631.2,467.5,1632.9,468.6,1633.8,470.5z M1668.1,522.9c6.8,8,14.1,15.6,21.7,22.7c2.5,2.3,2.7,6.2,0.4,8.7
						c-2.3,2.5-6.2,2.7-8.7,0.4c-8-7.4-15.7-15.4-22.8-23.7c-2.2-2.6-1.9-6.5,0.7-8.7c1.5-1.2,3.4-1.7,5.1-1.4
						C1665.9,521,1667.2,521.7,1668.1,522.9z M1714.2,565.3c8.5,6.1,17.4,11.7,26.6,16.7c3,1.6,4.1,5.4,2.5,8.4
						c-1.6,3-5.4,4.1-8.4,2.5c-9.6-5.2-19-11.1-27.9-17.5c-2.8-2-3.4-5.9-1.4-8.6c1.4-2,3.9-2.9,6.1-2.5
						C1712.6,564.4,1713.4,564.8,1714.2,565.3z M1769.2,595.2c9.7,3.8,19.7,7,29.9,9.6c3.3,0.8,5.3,4.2,4.5,7.5
						c-0.8,3.3-4.2,5.3-7.5,4.5c-10.6-2.7-21.2-6.1-31.3-10.1c-3.2-1.2-4.7-4.8-3.5-8c1.1-2.8,4-4.3,6.9-3.8
						C1768.4,595,1768.8,595.1,1769.2,595.2z M1867.4,619c0,3.4-2.8,6.2-6.2,6.2c-9.5,0-19.1-0.6-28.5-1.7c-1.4-0.2-2.9-0.3-4.3-0.5
						c-3.4-0.3-5.8-3.5-5.3-6.9c0.4-3.4,3.5-5.8,6.9-5.3c1.3,0.2,2.7,0.3,4.1,0.5c9.1,1,18.2,1.6,27.3,1.6c0.4,0,0.7,0,1.1,0.1
						C1865.2,613.5,1867.4,616,1867.4,619z"/>
				</g>
				<g class="st29">
					<linearGradient id="SVGID_21_" gradientUnits="userSpaceOnUse" x1="1781.3245" y1="191.1519" x2="2118.8933" y2="191.1519">
						<stop  offset="0" style="stop-color:#1D7FE1"/>
						<stop  offset="1" style="stop-color:#3ED7F2"/>
					</linearGradient>
					<path class="st32" d="M1913.9,96.2c10.6,2.1,21.1,4.8,31.3,8.1c3.2,1.1,5,4.5,4,7.8c-1.1,3.3-4.6,5-7.8,4
						c-9.7-3.2-19.8-5.8-29.9-7.8c-3.4-0.7-5.5-3.9-4.9-7.3C1907.3,97.8,1910.5,95.6,1913.9,96.2
						C1913.9,96.2,1913.9,96.2,1913.9,96.2z M1887.5,98.5c-0.3,3.4-3.2,6-6.6,5.7c-10.2-0.8-20.6-0.9-30.9-0.4
						c-3.4,0.1-6.3-2.5-6.5-5.9c-0.2-3.4,2.5-6.3,5.9-6.5c10.7-0.5,21.6-0.4,32.4,0.4c0.2,0,0.4,0,0.7,0.1
						C1885.6,92.5,1887.8,95.3,1887.5,98.5z M1975.4,116.2c9.8,4.6,19.3,9.8,28.4,15.5c2.9,1.8,3.8,5.6,2,8.5
						c-1.8,2.9-5.6,3.8-8.5,2c-8.7-5.4-17.8-10.4-27.1-14.8c-3.1-1.4-4.4-5.1-3-8.2c1.2-2.6,4-4,6.7-3.5
						C1974.4,115.8,1974.9,116,1975.4,116.2z M1824.4,100c0.6,3.4-1.7,6.6-5.1,7.1c-10.1,1.7-20.2,4.1-30.1,7
						c-3.3,1-6.7-0.9-7.7-4.1c-1-3.3,0.9-6.7,4.1-7.7c10.3-3.1,20.9-5.6,31.5-7.4c0.7-0.1,1.5-0.1,2.2,0
						C1821.9,95.4,1824,97.4,1824.4,100z M2030.1,150.5c8.4,6.8,16.4,14.1,23.9,21.8c2.4,2.5,2.3,6.4-0.1,8.7
						c-2.5,2.4-6.4,2.3-8.7-0.1c-7.1-7.4-14.8-14.4-22.8-20.8c-2.7-2.1-3.1-6-0.9-8.7c1.5-1.8,3.8-2.6,5.9-2.2
						C2028.4,149.4,2029.3,149.8,2030.1,150.5z M2075.1,196.9c6.5,8.6,12.6,17.7,18,26.9c1.7,2.9,0.7,6.7-2.2,8.4
						c-2.9,1.7-6.7,0.7-8.5-2.2c-5.2-8.8-10.9-17.5-17.1-25.7c-2.1-2.7-1.5-6.6,1.2-8.7c1.4-1.1,3.2-1.5,4.8-1.2
						C2072.8,194.8,2074.1,195.6,2075.1,196.9z M2107.7,252.7c4.3,9.9,8,20.2,11,30.5c1,3.3-0.9,6.7-4.2,7.7c-3.3,1-6.7-0.9-7.7-4.2
						c-2.9-9.8-6.4-19.6-10.5-29c-1.4-3.1,0.1-6.8,3.2-8.1c1.2-0.5,2.4-0.6,3.6-0.4C2105.1,249.5,2106.8,250.8,2107.7,252.7z"/>
					<path class="st30" d="M1758.7,113.2c-1.2-0.2-2.4-0.1-3.6,0.4c-4.8,2.1-9.6,4.4-14.3,6.8c-3,1.6-4.2,5.3-2.7,8.3
						c1.6,3,5.3,4.2,8.3,2.7c4.4-2.3,9-4.4,13.6-6.5c3.1-1.4,4.5-5,3.2-8.1C1762.4,114.9,1760.6,113.6,1758.7,113.2z"/>
				</g>
				<g>
					<path class="st1" d="M1714.6,222.3c-1,0.9-1.4,2.3-0.9,3.5l13.9,35.5c-10.6,14.3-18.9,30.4-24.5,47.9l-36.9,9.5
						c-1.3,0.3-2.2,1.5-2.3,2.8l-3.6,45.6c-0.1,1.3,0.6,2.6,1.9,3.1l34.9,15.2c2.7,18.1,8.4,35.3,16.6,51.1l-19.4,32.8
						c-0.7,1.2-0.6,2.6,0.3,3.6l29.6,34.8c0.9,1,2.3,1.4,3.5,0.9l35.5-13.9c14.3,10.6,30.4,18.9,47.9,24.5l9.5,36.9
						c0.3,1.3,1.5,2.2,2.8,2.3l45.6,3.6c1.3,0.1,2.6-0.6,3.1-1.9l15.2-34.9c18.1-2.7,35.3-8.4,51.1-16.6l32.8,19.4
						c1.2,0.7,2.6,0.6,3.6-0.3l34.8-29.6c1-0.9,1.4-2.3,0.9-3.5l-13.9-35.5c10.6-14.3,18.9-30.4,24.5-47.9l36.9-9.5
						c1.3-0.3,2.2-1.5,2.3-2.8l3.6-45.6c0.1-1.3-0.6-2.6-1.9-3.1l-34.9-15.2c-2.7-18.1-8.4-35.3-16.6-51.1l19.4-32.8
						c0.7-1.1,0.6-2.6-0.3-3.6l-29.6-34.8c-0.9-1-2.3-1.4-3.5-0.9l-35.5,13.9c-14.3-10.6-30.4-18.9-47.9-24.5l-9.5-36.9
						c-0.3-1.3-1.5-2.2-2.8-2.3l-45.6-3.6c-1.3-0.1-2.6,0.6-3.1,1.9l-15.2,34.9c-18.1,2.7-35.3,8.4-51.1,16.6l-32.8-19.4
						c-1.1-0.7-2.6-0.6-3.6,0.3L1714.6,222.3z"/>
					<g>
						<path class="st31" d="M1877.1,316c11.8,4,21.4,12.4,26.9,23.6c5.5,11.2,6.4,23.9,2.4,35.7c-8.3,24.4-34.8,37.5-59.3,29.3
							c-24.4-8.3-37.5-34.9-29.3-59.3c4-11.8,12.4-21.4,23.6-26.9c9.1-4.5,19.2-5.9,29-4.1C1872.7,314.6,1874.9,315.2,1877.1,316z
							 M1894.7,371.3c3-8.7,2.3-18-1.7-26.3c-4.1-8.2-11.1-14.4-19.8-17.3l0,0c-8.7-2.9-18-2.3-26.3,1.7
							c-8.2,4.1-14.4,11.1-17.3,19.8c-6.1,18,3.6,37.5,21.5,43.6c1.6,0.5,3.3,1,4.9,1.3C1872.5,397.1,1889.2,387.6,1894.7,371.3z"/>
					</g>
					<path class="st31" d="M1883.7,246.5c-3.8-0.7-7.8-1.2-11.7-1.5c-7.9-0.6-15.9-0.5-23.7,0.5c-0.4,0-0.7,0.1-1.1,0.1
						c-2.7,0.4-4.8,2.4-5.3,5c-0.1,0.6-0.1,1.3,0,1.9c0.5,3.4,3.6,5.7,6.9,5.3c7.3-1,14.8-1.2,22.2-0.6l0,0c0.4,0,0.8,0.1,1.2,0.1
						c17.5,1.6,33.9,7.4,48.1,16.9c7.7,5.1,14.8,11.4,21,18.5c0.1,0.1,0.1,0.1,0.2,0.2c0.2,0.2,0.3,0.4,0.5,0.5
						c18,21.2,26.7,48.1,24.5,75.8c-0.3,3.6-0.7,7.1-1.4,10.6c-4.3,23.5-16.4,44.6-34.9,60.3c-21.2,18-48.1,26.7-75.8,24.5
						c-27.7-2.2-52.9-15.1-70.9-36.2c-18-21.2-26.7-48.1-24.5-75.8c0.3-3.5,0.7-7,1.4-10.5c2.7-15,8.7-29.2,17.6-41.6
						c0.5-0.8,0.9-1.6,1-2.5c0.4-2.3-0.5-4.7-2.5-6.1c-2.8-2-6.6-1.3-8.6,1.4c-9.9,13.9-16.6,29.8-19.7,46.6
						c-0.7,3.9-1.2,7.8-1.5,11.7c-2.5,31,7.3,61.1,27.5,84.8c20.2,23.7,48.3,38.1,79.4,40.5c31,2.5,61.1-7.3,84.8-27.5
						c20.6-17.6,34.2-41.2,39-67.5c0.7-3.9,1.2-7.9,1.6-11.9C1983.6,310.3,1941.7,257.1,1883.7,246.5z"/>
				</g>
			</g>
		</g>
	</g>
</g>
</svg>
