<svg width="31" height="29" xmlns="http://www.w3.org/2000/svg" xmlns:xlink="http://www.w3.org/1999/xlink" xmlns:svgjs="http://svgjs.com/svgjs" viewBox="43 151 31 29"><svg width="31" height="15" xmlns="http://www.w3.org/2000/svg" xmlns:xlink="http://www.w3.org/1999/xlink" xmlns:svgjs="http://svgjs.com/svgjs" viewBox="0.013 0 30.975 15" fill="#181c2b" x="43" y="151"><svg xmlns="http://www.w3.org/2000/svg" xmlns:xlink="http://www.w3.org/1999/xlink" width="31" height="15" viewBox="0 0 30.427 14.735"><path paint-order="stroke fill markers" fill-rule="evenodd" d="M29.475 14.734a.948.948 0 0 1-.672-.278L16.978 2.63a2.499 2.499 0 0 0-3.53 0L1.622 14.456A.95.95 0 1 1 .278 13.11L12.104 1.286a4.402 4.402 0 0 1 6.219 0L30.148 13.11a.951.951 0 0 1-.673 1.623z"/></svg></svg><svg width="27" height="19" xmlns="http://www.w3.org/2000/svg" xmlns:xlink="http://www.w3.org/1999/xlink" xmlns:svgjs="http://svgjs.com/svgjs" viewBox="0.001 0 26.998 19" fill="#181c2b" x="45" y="161"><svg xmlns="http://www.w3.org/2000/svg" xmlns:xlink="http://www.w3.org/1999/xlink" width="27" height="19" viewBox="0.377 0.456 25.672 18.067"><path paint-order="stroke fill markers" fill-rule="evenodd" d="M23.315 18.523H3.11a2.737 2.737 0 0 1-2.733-2.734V1.407a.95.95 0 1 1 1.9 0v14.382c0 .46.374.832.833.832h20.205a.833.833 0 0 0 .833-.832V1.407a.951.951 0 0 1 1.901 0v14.382a2.737 2.737 0 0 1-2.734 2.734z"/></svg></svg><svg width="31" height="29" xmlns="http://www.w3.org/2000/svg" xmlns:xlink="http://www.w3.org/1999/xlink" xmlns:svgjs="http://svgjs.com/svgjs" viewBox="43 151 31 29" x="43" y="151"><svg width="27" height="19" xmlns="http://www.w3.org/2000/svg" xmlns:xlink="http://www.w3.org/1999/xlink" xmlns:svgjs="http://svgjs.com/svgjs" viewBox="0.001 0 26.998 19" fill="#181c2b" x="45" y="161"><svg xmlns="http://www.w3.org/2000/svg" xmlns:xlink="http://www.w3.org/1999/xlink" width="27" height="19" viewBox="0.377 0.456 25.672 18.067"><path paint-order="stroke fill markers" fill-rule="evenodd" d="M23.315 18.523H3.11a2.737 2.737 0 0 1-2.733-2.734V1.407a.95.95 0 1 1 1.9 0v14.382c0 .46.374.832.833.832h20.205a.833.833 0 0 0 .833-.832V1.407a.951.951 0 0 1 1.901 0v14.382a2.737 2.737 0 0 1-2.734 2.734z"/></svg></svg><svg width="31" height="15" xmlns="http://www.w3.org/2000/svg" xmlns:xlink="http://www.w3.org/1999/xlink" xmlns:svgjs="http://svgjs.com/svgjs" viewBox="0.013 0 30.975 15" fill="#181c2b" x="43" y="151"><svg xmlns="http://www.w3.org/2000/svg" xmlns:xlink="http://www.w3.org/1999/xlink" width="31" height="15" viewBox="0 0 30.427 14.735"><path paint-order="stroke fill markers" fill-rule="evenodd" d="M29.475 14.734a.948.948 0 0 1-.672-.278L16.978 2.63a2.499 2.499 0 0 0-3.53 0L1.622 14.456A.95.95 0 1 1 .278 13.11L12.104 1.286a4.402 4.402 0 0 1 6.219 0L30.148 13.11a.951.951 0 0 1-.673 1.623z"/></svg></svg><svg width="10" height="13" xmlns="http://www.w3.org/2000/svg" xmlns:xlink="http://www.w3.org/1999/xlink" xmlns:svgjs="http://svgjs.com/svgjs" fill="#181c2b" x="53" y="167"><svg xmlns="http://www.w3.org/2000/svg" width="10" height="13" viewBox="0.459 0.162 9.508 12.361"><path paint-order="stroke fill markers" fill-rule="evenodd" d="M9.016 12.523H1.41a.951.951 0 0 1-.95-.951V3.133A2.975 2.975 0 0 1 3.43.162h3.565a2.975 2.975 0 0 1 2.972 2.971v8.439a.95.95 0 0 1-.95.95zM2.36 10.62h5.705V3.133c0-.59-.48-1.07-1.07-1.07H3.43c-.59 0-1.07.48-1.07 1.07v7.488z"/></svg></svg></svg></svg>