<svg xmlns="http://www.w3.org/2000/svg" width="18" height="18" viewBox="0 0 18 18">
  <path id="info" d="M9,0a9,9,0,1,0,9,9A9.01,9.01,0,0,0,9,0Zm.585,14.34c-.428.071-1.278.249-1.71.285a1.053,1.053,0,0,1-.921-.48,1.125,1.125,0,0,1-.136-1.03l1.7-4.678H6.75A2.114,2.114,0,0,1,8.415,6.471a6.513,6.513,0,0,1,1.71-.283,1.357,1.357,0,0,1,.921.48,1.125,1.125,0,0,1,.136,1.03l-1.7,4.678h1.768A1.991,1.991,0,0,1,9.585,14.34Zm.54-8.715A1.125,1.125,0,1,1,11.25,4.5a1.125,1.125,0,0,1-1.125,1.125Z" fill="#939ea8"/>
</svg>
