<svg width="19" height="20" xmlns="http://www.w3.org/2000/svg" xmlns:xlink="http://www.w3.org/1999/xlink" xmlns:svgjs="http://svgjs.com/svgjs" viewBox="1559 215 19 20"><svg width="19" height="18" xmlns="http://www.w3.org/2000/svg" xmlns:xlink="http://www.w3.org/1999/xlink" xmlns:svgjs="http://svgjs.com/svgjs" viewBox="0.146 0 18.707 18" fill="#fa5a5d" x="1559" y="217"><svg xmlns="http://www.w3.org/2000/svg" xmlns:xlink="http://www.w3.org/1999/xlink" width="19" height="18" viewBox="0.238 0.354 18.295 17.604"><path paint-order="stroke fill markers" fill-rule="evenodd" d="M13.044.424a.831.831 0 1 0-.666 1.525 7.485 7.485 0 1 1-5.987 0A.831.831 0 1 0 5.725.424 9.149 9.149 0 0 0 .238 8.81 9.148 9.148 0 1 0 13.044.425z"/></svg></svg><svg width="3" height="10" xmlns="http://www.w3.org/2000/svg" xmlns:xlink="http://www.w3.org/1999/xlink" xmlns:svgjs="http://svgjs.com/svgjs" viewBox="0.591 0 1.818 10" fill="#fa5a5d" x="1567" y="215"><svg xmlns="http://www.w3.org/2000/svg" width="3" height="10" viewBox="0.554 0 1.663 9.148"><path paint-order="stroke fill markers" fill-rule="evenodd" d="M1.385 9.148c.46 0 .832-.373.832-.832V.83a.832.832 0 0 0-1.663 0v7.485c0 .46.372.832.83.832z"/></svg></svg></svg>