<svg width="22" height="29" xmlns="http://www.w3.org/2000/svg" xmlns:xlink="http://www.w3.org/1999/xlink" xmlns:svgjs="http://svgjs.com/svgjs" viewBox="0 0.059 22 28.882" fill="#181c2b"><svg xmlns="http://www.w3.org/2000/svg" width="22" height="29" viewBox="-0.001 0.174 21.947 28.812"><path paint-order="stroke fill markers" fill-rule="evenodd" d="M21.102 23.359h-.627a16.276 16.276 0 0 1-1.905-7.632v-3.904c0-3.196-1.983-5.937-4.784-7.057V2.988A2.817 2.817 0 0 0 10.973.174 2.817 2.817 0 0 0 8.16 2.988v1.778c-2.8 1.12-4.783 3.861-4.783 7.057v3.904c0 2.66-.657 5.287-1.905 7.632H.843a.844.844 0 1 0 0 1.688h5.423a4.79 4.79 0 0 0 4.707 3.94 4.79 4.79 0 0 0 4.707-3.94h5.422a.844.844 0 1 0 0-1.688zM9.847 2.988c0-.62.505-1.126 1.126-1.126.62 0 1.126.505 1.126 1.126v1.321a7.614 7.614 0 0 0-2.252 0V2.988zm-4.783 8.835a5.916 5.916 0 0 1 5.91-5.91 5.916 5.916 0 0 1 5.908 5.91v3.904c0 1.244.13 2.482.385 3.692H4.679c.255-1.21.385-2.448.385-3.692v-3.904zm-.828 9.285H17.71c.242.768.535 1.52.879 2.251H3.358c.344-.73.637-1.483.878-2.25zm6.737 6.19a3.098 3.098 0 0 1-2.977-2.25h5.954a3.1 3.1 0 0 1-2.977 2.25z"/></svg></svg>