<svg xmlns="http://www.w3.org/2000/svg" width="56" height="64" viewBox="0 0 56 64">
  <g id="pdf_1_" data-name="pdf (1)" transform="translate(-19.329)">
    <path id="Path_4096" data-name="Path 4096" d="M23.329,0H57.315L75.329,17.944V60a4,4,0,0,1-4,4h-48a4,4,0,0,1-4-4V4A4,4,0,0,1,23.329,0Z" transform="translate(0)" fill="#e2574c"/>
    <path id="Path_4097" data-name="Path 4097" d="M220.9,18.153H206.957a4,4,0,0,1-4-4V.193Z" transform="translate(-145.628 -0.153)" fill="#b53629"/>
    <path id="Path_4098" data-name="Path 4098" d="M114.054,137.722a1.163,1.163,0,0,0,0-2.3h-3.816a1.192,1.192,0,0,0-1.162,1.3V146.1c0,.836.476,1.3,1.12,1.3s1.118-.464,1.118-1.3v-2.574h2.308a1.084,1.084,0,0,0,1.074-1.168,1.064,1.064,0,0,0-1.074-1.136h-2.308v-3.5Zm-12.9-2.3H98.364a1.235,1.235,0,0,0-1.3,1.292v9.394a1.23,1.23,0,0,0,1.328,1.258h2.93a5.435,5.435,0,0,0,5.758-5.8C107.082,137.836,104.926,135.42,101.156,135.42Zm.134,9.628h-1.7v-7.312h1.534c2.322,0,3.332,1.558,3.332,3.708C104.454,143.456,103.462,145.048,101.29,145.048ZM91.062,135.42H88.3a1.163,1.163,0,0,0-1.218,1.3V146.1a1.178,1.178,0,1,0,2.344,0V143.36h1.734a3.787,3.787,0,0,0,3.906-3.954A3.831,3.831,0,0,0,91.062,135.42Zm-.046,5.74H89.422v-3.538h1.594a1.777,1.777,0,0,1,0,3.538Z" transform="translate(-53.729 -107.396)" fill="#fff"/>
  </g>
</svg>
