<svg width="23" height="28" xmlns="http://www.w3.org/2000/svg" xmlns:xlink="http://www.w3.org/1999/xlink" xmlns:svgjs="http://svgjs.com/svgjs" viewBox="48 600 23 28"><svg width="15" height="15" xmlns="http://www.w3.org/2000/svg" xmlns:xlink="http://www.w3.org/1999/xlink" xmlns:svgjs="http://svgjs.com/svgjs" viewBox="0 0.035 15 14.93" x="56" y="613"><svg xmlns="http://www.w3.org/2000/svg" xmlns:xlink="http://www.w3.org/1999/xlink" width="15" height="15" viewBox="0.83 0.798 14.041 13.976"><path paint-order="stroke fill markers" fill-rule="evenodd" d="M14.368 6.073l-1.663-.268.995-1.323a.586.586 0 0 0-.05-.764l-1.664-1.686a.583.583 0 0 0-.767-.058l-1.36.956-.264-1.64a.585.585 0 0 0-.577-.492H6.676a.584.584 0 0 0-.579.502l-.274 1.66-1.352-.99a.584.584 0 0 0-.759.058l-1.657 1.65a.586.586 0 0 0-.054.767l.97 1.357-1.64.234a.585.585 0 0 0-.501.58v2.341c0 .292.214.538.502.578l1.664.268L2 11.126a.584.584 0 0 0 .053.766L3.71 13.55c.207.207.534.229.767.053l1.356-.97.234 1.64a.586.586 0 0 0 .58.502h2.341a.584.584 0 0 0 .58-.5l.268-1.664 1.322.995c.235.175.561.153.767-.054l1.656-1.656a.585.585 0 0 0 .054-.766l-.984-1.355 1.703-.2a.585.585 0 0 0 .517-.58V6.652a.586.586 0 0 0-.503-.58zM13.7 8.472l-1.194.139a1.15 1.15 0 0 0-.934.724c-.17.384-.12.832.133 1.174l.69.915-.938.938-.92-.692c-.34-.251-.788-.3-1.134-.144-.411.149-.704.512-.76.941l-.162 1.136H7.154l-.162-1.129c-.057-.435-.347-.799-.723-.933a1.175 1.175 0 0 0-1.175.132l-.915.69-.938-.938.692-.92c.25-.338.3-.786.144-1.134a1.164 1.164 0 0 0-.942-.76l-1.136-.162V7.123l1.13-.163c.435-.057.799-.348.933-.723a1.174 1.174 0 0 0-.131-1.174l-.69-.915.941-.939.947.693c.338.25.785.298 1.133.144.413-.15.704-.515.76-.942l.162-1.137H8.52l.182 1.129c.056.435.346.8.724.935.383.17.831.121 1.172-.131l.914-.684.951.963-.695.924c-.25.337-.3.786-.143 1.134.149.413.514.703.94.76l1.136.161v1.314z"/></svg></svg><svg width="12" height="3" xmlns="http://www.w3.org/2000/svg" xmlns:xlink="http://www.w3.org/1999/xlink" xmlns:svgjs="http://svgjs.com/svgjs" viewBox="0 0.553 12 1.895" x="51" y="609"><svg xmlns="http://www.w3.org/2000/svg" xmlns:xlink="http://www.w3.org/1999/xlink" width="12" height="3" viewBox="0.479 0.825 11.02 1.74"><path paint-order="stroke fill markers" fill-rule="evenodd" d="M10.629.825h-9.28a.87.87 0 1 0 0 1.74h9.28a.87.87 0 1 0 0-1.74z"/></svg></svg><svg width="5" height="3" xmlns="http://www.w3.org/2000/svg" xmlns:xlink="http://www.w3.org/1999/xlink" xmlns:svgjs="http://svgjs.com/svgjs" viewBox="0 0.279 5 2.442" x="51" y="616"><svg xmlns="http://www.w3.org/2000/svg" xmlns:xlink="http://www.w3.org/1999/xlink" width="5" height="3" viewBox="0.479 0.993 3.561 1.74"><path paint-order="stroke fill markers" fill-rule="evenodd" d="M3.17.993H1.35a.87.87 0 1 0 0 1.74H3.17a.87.87 0 1 0 0-1.74z"/></svg></svg><svg width="3" height="3" xmlns="http://www.w3.org/2000/svg" xmlns:xlink="http://www.w3.org/1999/xlink" xmlns:svgjs="http://svgjs.com/svgjs" viewBox="0 0.375 3 2.25" x="51" y="620"><svg xmlns="http://www.w3.org/2000/svg" xmlns:xlink="http://www.w3.org/1999/xlink" width="3" height="3" viewBox="0.479 0.472 2.32 1.74"><path paint-order="stroke fill markers" fill-rule="evenodd" d="M1.929.472h-.58a.87.87 0 1 0 0 1.74h.58a.87.87 0 1 0 0-1.74z"/></svg></svg><svg width="6" height="4" xmlns="http://www.w3.org/2000/svg" xmlns:xlink="http://www.w3.org/1999/xlink" xmlns:svgjs="http://svgjs.com/svgjs" viewBox="0.475 0 5.049 4" x="51" y="604"><svg xmlns="http://www.w3.org/2000/svg" xmlns:xlink="http://www.w3.org/1999/xlink" width="6" height="4" viewBox="0.788 0.058 4.3 3.406"><path paint-order="stroke fill markers" fill-rule="evenodd" d="M4.25 3.464H1.626a.84.84 0 0 1-.839-.839V.897a.84.84 0 0 1 .84-.84h2.621c.464 0 .839.376.839.84v1.728c0 .463-.375.84-.839.84z"/></svg></svg><svg width="20" height="28" xmlns="http://www.w3.org/2000/svg" xmlns:xlink="http://www.w3.org/1999/xlink" xmlns:svgjs="http://svgjs.com/svgjs" viewBox="0.375 0 19.25 28" x="48" y="600"><svg xmlns="http://www.w3.org/2000/svg" xmlns:xlink="http://www.w3.org/1999/xlink" width="20" height="28" viewBox="0 0 19.139 27.838"><path paint-order="stroke fill markers" fill-rule="evenodd" d="M7.25 26.098H3.168c-.79 0-1.43-.64-1.43-1.43V2.996c0-.693.562-1.255 1.256-1.255h9.183v3.483c0 .959.779 1.736 1.737 1.736H17.4v5.128a.87.87 0 0 0 1.74 0V6.089a.88.88 0 0 0-.256-.615L13.664.254A.873.873 0 0 0 13.05 0H2.125A2.125 2.125 0 0 0 0 2.125V25.54c0 1.27 1.029 2.3 2.299 2.3h4.95a.87.87 0 1 0 0-1.74zM13.918 2.97l2.25 2.25h-1.383a.867.867 0 0 1-.867-.867V2.97z"/></svg></svg><svg width="7" height="3" xmlns="http://www.w3.org/2000/svg" xmlns:xlink="http://www.w3.org/1999/xlink" xmlns:svgjs="http://svgjs.com/svgjs" viewBox="0 0.465 7 2.071" x="51" y="613"><svg xmlns="http://www.w3.org/2000/svg" width="7" height="3" viewBox="0.479 0.513 5.881 1.74"><path paint-order="stroke fill markers" fill-rule="evenodd" d="M5.49.513H1.35a.87.87 0 1 0 0 1.74H5.49a.87.87 0 1 0 0-1.74z"/></svg></svg></svg>