<svg xmlns="http://www.w3.org/2000/svg" width="20" height="20" viewBox="0 0 20 20"><defs><style>.a{fill:#fff;}</style></defs><path class="a" d="M10,0A10,10,0,1,0,20,10,10,10,0,0,0,10,0Zm0,18.571A8.571,8.571,0,1,1,18.571,10,8.571,8.571,0,0,1,10,18.571Z"/><g transform="translate(4.277 5.723)"><path class="a" d="M113.4,136.943a.714.714,0,0,0-.992,0h0l-6.638,6.638-2.352-2.352a.714.714,0,1,0-1.028.992l.018.018,2.857,2.857a.714.714,0,0,0,1.01,0l7.143-7.143A.714.714,0,0,0,113.4,136.943Z" transform="translate(-102.19 -136.743)"/></g></svg>