<svg width="30" height="21" xmlns="http://www.w3.org/2000/svg" xmlns:xlink="http://www.w3.org/1999/xlink" xmlns:svgjs="http://svgjs.com/svgjs" viewBox="45 529 30 21"><svg width="7" height="2" xmlns="http://www.w3.org/2000/svg" xmlns:xlink="http://www.w3.org/1999/xlink" xmlns:svgjs="http://svgjs.com/svgjs" viewBox="0 0.304 7 1.392" x="59" y="539"><svg xmlns="http://www.w3.org/2000/svg" xmlns:xlink="http://www.w3.org/1999/xlink" width="7" height="2" viewBox="0.45 0.463 6.041 1.202"><path paint-order="stroke fill markers" fill-rule="evenodd" d="M5.89 1.665H1.05a.601.601 0 0 1 0-1.202h4.84a.6.6 0 0 1 0 1.202z"/></svg></svg><svg width="4" height="7" xmlns="http://www.w3.org/2000/svg" xmlns:xlink="http://www.w3.org/1999/xlink" xmlns:svgjs="http://svgjs.com/svgjs" viewBox="0 0.167 4 6.666" x="66" y="540"><svg xmlns="http://www.w3.org/2000/svg" xmlns:xlink="http://www.w3.org/1999/xlink" width="4" height="7" viewBox="0.225 0.734 3.604 6.006"><path paint-order="stroke fill markers" fill-rule="evenodd" d="M.826 6.74a.602.602 0 0 1-.425-1.025l1.978-1.978L.401 1.759a.602.602 0 0 1 .85-.85l2.403 2.404a.602.602 0 0 1 0 .85L1.25 6.564a.601.601 0 0 1-.424.175z"/></svg></svg><svg width="4" height="4" xmlns="http://www.w3.org/2000/svg" xmlns:xlink="http://www.w3.org/1999/xlink" xmlns:svgjs="http://svgjs.com/svgjs" x="49" y="541"><svg xmlns="http://www.w3.org/2000/svg" xmlns:xlink="http://www.w3.org/1999/xlink" width="4" height="4" viewBox="0.622 0.944 2.774 2.774"><path paint-order="stroke fill markers" fill-rule="evenodd" d="M2.471 3.718h-.924a.925.925 0 0 1-.925-.925v-.925c0-.51.414-.924.925-.924h.924c.511 0 .925.414.925.924v.925c0 .51-.414.925-.925.925z"/></svg></svg><svg width="30" height="21" xmlns="http://www.w3.org/2000/svg" xmlns:xlink="http://www.w3.org/1999/xlink" xmlns:svgjs="http://svgjs.com/svgjs" viewBox="0 0.187 30 20.625" x="45" y="529"><svg xmlns="http://www.w3.org/2000/svg" xmlns:xlink="http://www.w3.org/1999/xlink" width="30" height="21" viewBox="-0.001 0 29.586 20.341"><path paint-order="stroke fill markers" fill-rule="evenodd" d="M26.35 0H3.236A3.24 3.24 0 0 0-.001 3.236v13.868a3.24 3.24 0 0 0 3.237 3.236H26.35a3.24 3.24 0 0 0 3.235-3.236V3.236A3.24 3.24 0 0 0 26.35 0zM3.236 1.849H26.35c.765 0 1.386.622 1.386 1.387v1.849H1.85v-1.85c0-.764.622-1.386 1.387-1.386zM26.35 18.49H3.236a1.388 1.388 0 0 1-1.387-1.387V6.934h25.887v10.17c0 .765-.621 1.387-1.386 1.387z"/></svg></svg><svg width="4" height="7" xmlns="http://www.w3.org/2000/svg" xmlns:xlink="http://www.w3.org/1999/xlink" xmlns:svgjs="http://svgjs.com/svgjs" viewBox="0 0.167 4 6.667" x="59" y="537"><svg xmlns="http://www.w3.org/2000/svg" xmlns:xlink="http://www.w3.org/1999/xlink" width="4" height="7" viewBox="0.15 0.061 3.604 6.007"><path paint-order="stroke fill markers" fill-rule="evenodd" d="M3.154 6.068a.602.602 0 0 1-.425-.176L.325 3.49a.602.602 0 0 1 0-.85L2.73.238a.6.6 0 0 1 .85.85l-1.98 1.977 1.98 1.978a.602.602 0 0 1-.425 1.026z"/></svg></svg><svg width="11" height="10" xmlns="http://www.w3.org/2000/svg" xmlns:xlink="http://www.w3.org/1999/xlink" xmlns:svgjs="http://svgjs.com/svgjs" viewBox="59 537 11 10" x="59" y="537"><svg width="4" height="7" xmlns="http://www.w3.org/2000/svg" xmlns:xlink="http://www.w3.org/1999/xlink" xmlns:svgjs="http://svgjs.com/svgjs" viewBox="0 0.167 4 6.667" x="59" y="537"><svg xmlns="http://www.w3.org/2000/svg" xmlns:xlink="http://www.w3.org/1999/xlink" width="4" height="7" viewBox="0.15 0.061 3.604 6.007"><path paint-order="stroke fill markers" fill-rule="evenodd" d="M3.154 6.068a.602.602 0 0 1-.425-.176L.325 3.49a.602.602 0 0 1 0-.85L2.73.238a.6.6 0 0 1 .85.85l-1.98 1.977 1.98 1.978a.602.602 0 0 1-.425 1.026z"/></svg></svg><svg width="7" height="2" xmlns="http://www.w3.org/2000/svg" xmlns:xlink="http://www.w3.org/1999/xlink" xmlns:svgjs="http://svgjs.com/svgjs" viewBox="0 0.304 7 1.392" x="59" y="539"><svg xmlns="http://www.w3.org/2000/svg" xmlns:xlink="http://www.w3.org/1999/xlink" width="7" height="2" viewBox="0.45 0.463 6.041 1.202"><path paint-order="stroke fill markers" fill-rule="evenodd" d="M5.89 1.665H1.05a.601.601 0 0 1 0-1.202h4.84a.6.6 0 0 1 0 1.202z"/></svg></svg><svg width="4" height="7" xmlns="http://www.w3.org/2000/svg" xmlns:xlink="http://www.w3.org/1999/xlink" xmlns:svgjs="http://svgjs.com/svgjs" viewBox="0 0.167 4 6.666" x="66" y="540"><svg xmlns="http://www.w3.org/2000/svg" xmlns:xlink="http://www.w3.org/1999/xlink" width="4" height="7" viewBox="0.225 0.734 3.604 6.006"><path paint-order="stroke fill markers" fill-rule="evenodd" d="M.826 6.74a.602.602 0 0 1-.425-1.025l1.978-1.978L.401 1.759a.602.602 0 0 1 .85-.85l2.403 2.404a.602.602 0 0 1 0 .85L1.25 6.564a.601.601 0 0 1-.424.175z"/></svg></svg><svg width="7" height="2" xmlns="http://www.w3.org/2000/svg" xmlns:xlink="http://www.w3.org/1999/xlink" xmlns:svgjs="http://svgjs.com/svgjs" viewBox="0 0.263 7 1.474" x="63" y="543"><svg xmlns="http://www.w3.org/2000/svg" width="7" height="2" viewBox="0.823 0.135 5.707 1.202"><path paint-order="stroke fill markers" fill-rule="evenodd" d="M5.93 1.336H1.423a.6.6 0 1 1 0-1.201h4.505a.601.601 0 0 1 0 1.201z"/></svg></svg></svg></svg>