<svg xmlns="http://www.w3.org/2000/svg" width="16.802" height="18.33" viewBox="0 0 16.802 18.33"><defs><style>.a{fill:#fa5a5d;}</style></defs><g transform="translate(-21.334)"><g transform="translate(21.334)"><g transform="translate(0)"><path class="a" d="M37.373,3.055H33.554V.764A.763.763,0,0,0,32.79,0H26.68a.764.764,0,0,0-.764.764V3.055H22.1a.764.764,0,0,0,0,1.527h.764V16.039a2.294,2.294,0,0,0,2.291,2.291h9.165a2.294,2.294,0,0,0,2.291-2.291V4.582h.764a.764.764,0,0,0,0-1.527ZM27.444,1.527h4.582V3.055H27.444Zm7.637,14.511a.764.764,0,0,1-.764.764H25.153a.765.765,0,0,1-.764-.764V4.582H35.081V16.039Z" transform="translate(-21.334)"/></g></g><g transform="translate(26.68 6.11)"><g transform="translate(0)"><path class="a" d="M171.431,170.667a.764.764,0,0,0-.764.764V178.3a.764.764,0,0,0,1.527,0v-6.874A.764.764,0,0,0,171.431,170.667Z" transform="translate(-170.667 -170.667)"/></g></g><g transform="translate(31.263 6.11)"><path class="a" d="M299.431,170.667a.764.764,0,0,0-.764.764V178.3a.764.764,0,0,0,1.527,0v-6.874A.764.764,0,0,0,299.431,170.667Z" transform="translate(-298.667 -170.667)"/></g></g></svg>