<?xml version="1.0" encoding="utf-8"?>
<!-- Generator: Adobe Illustrator 19.0.0, SVG Export Plug-In . SVG Version: 6.00 Build 0)  -->
<svg version="1.1" id="Layer_1" xmlns="http://www.w3.org/2000/svg" xmlns:xlink="http://www.w3.org/1999/xlink" x="0px" y="0px"
	 viewBox="177 -245 384 512" style="enable-background:new 177 -245 384 512;" xml:space="preserve">
<style type="text/css">
	.st0{fill:#4B4E56;}
</style>
<path class="st0" d="M527.8-77.1c0.5-2.6,1.2-5.2,1.2-7.9v-80c0-26.5-21.5-48-48-48h-16c-6.3,0-12.3,1.3-17.9,3.5
	c-5.5-20.4-24-35.5-46.1-35.5h-16c-22.1,0-40.6,15.1-46.1,35.5c-5.5-2.2-11.5-3.5-17.9-3.5h-16c-22.1,0-40.6,15.1-46.1,35.5
	c-5.5-2.2-11.5-3.5-17.9-3.5h-16c-26.5,0-48,21.5-48,48V54c0,38.2,15.2,74.8,42.1,101.8l21.9,21.9V259c0,4.4,3.6,8,8,8h16
	c4.4,0,8-3.6,8-8v-94.6l-31.2-31.2c-21-21-32.8-49.5-32.8-79.2V8.1c5,1.8,10.4,3,16,3h16c12.3,0,23.5-4.8,32-12.5
	c8.5,7.7,19.7,12.5,32,12.5h16c13.2,0,25.1-5.3,33.8-13.9c0.2,0.3,9.3,14.6,30.6,23.7c-19.7,15.8-33.9,35.7-57.3,70.8
	c-2.5,3.7-1.5,8.6,2.2,11.1c0,0,0,0,0,0l13.3,8.9c3.7,2.5,8.6,1.5,11.1-2.2c0,0,0,0,0,0l6.3-9.5c31.9-47.9,51.6-70.3,96.1-72.6
	c4.3-0.2,7.8-3.7,7.8-7.9V3c0-4.4-3.6-8-8-8h-40.7C390.2-5,369-26.2,369-52.4v-0.7c0-8.8,7.1-15.9,15.9-15.9H465
	c35.4,0,64,28.6,64,64v88.3c0,25.4-10.1,49.8-28.1,67.7L465,187v72c0,4.4,3.6,8,8,8h16c4.4,0,8-3.6,8-8v-58.8l26.5-26.5
	c24-24,37.5-56.6,37.5-90.5V-5C561-33.9,548-59.5,527.8-77.1z M257-37c0,8.8-7.2,16-16,16h-16c-8.8,0-16-7.2-16-16v-96
	c0-8.8,7.2-16,16-16h16c8.8,0,16,7.2,16,16V-37z M337-37c0,8.8-7.2,16-16,16h-16c-8.8,0-16-7.2-16-16v-128c0-8.8,7.2-16,16-16h16
	c8.8,0,16,7.2,16,16V-37z M417-101h-32c-5.6,0-10.9,1.1-16,2.9V-197c0-8.8,7.2-16,16-16h16c8.8,0,16,7.2,16,16V-101z M497-95.1
	c-10-3.6-20.7-5.9-32-5.9h-16v-64c0-8.8,7.2-16,16-16h16c8.8,0,16,7.2,16,16V-95.1z"/>
</svg>
