<svg version="1" xmlns="http://www.w3.org/2000/svg" width="568" height="568" viewBox="0 0 426.000000 426.000000"><path d="M97 1.4c-7.5 1.6-16 6-20.6 10.7-2.1 2.2-3.3 3.9-2.7 3.9.6 0 4.5-1.6 8.7-3.6 14-6.6 28.1-5.8 45.4 2.7 8.8 4.3 19.1 13 24.3 20.5 7.7 11.2 13 25.7 12.8 35-.2 8.5-.8 9.5-6.7 11-6.6 1.7-12.2 4.6-16.7 8.5-4.1 3.6-2 4.7-19.9-10.7C108.1 67.7 97.1 60.9 85 56.6c-7.7-2.8-9.7-3.1-20.5-3.1-13 0-17.6 1.1-28.8 6.7C28.8 63.6 17 74.6 11.1 83c-2.3 3.3-3.9 6-3.6 6 .4 0 3.4-2.5 6.7-5.4 7-6.4 18.7-12.8 27.4-15 23.1-6 49.6 4 75.8 28.5 4.8 4.5 7.6 7.9 7.6 9.2 0 1.2-1.8 5.7-3.9 10.2-12.5 25.5-16.4 55.9-11.2 85.9 2.3 13.1 3.7 15.6 8.5 15.6 5.2 0 20.3-2.9 34.1-6.5 37.9-9.9 61.4-26 73-50 5.9-12.2 7.9-22.4 7.3-37.6-.5-10.3-.8-12.4-3.5-18.2-4-8.3-15.5-20.7-22.7-24.1-6.2-3.1-15.7-5.6-20.7-5.6-3.7 0-3.8-.1-5.4-5.8-6.5-23.4-11.8-35.4-20.2-45.4C144.9 6.5 118.6-3.3 97 1.4zm78.6 106.5c7.9 3.6 12 12 11.2 23-.9 12.2-9.2 24.8-21.3 32.1-7.6 4.5-24.4 10.4-25 8.7-1.2-3.5-3.5-20-3.5-25.4 0-7.6 1.6-15.5 4.2-20.7 2.6-5.2 10.5-12.9 15.9-15.7 8.6-4.3 12.4-4.8 18.5-2zM326.5 151.1c-29.9 4-59.4 14.2-84.2 29-19 11.3-33.6 23.3-53.8 44-15.6 15.9-17.7 19.6-18.3 31.6-.3 4.6-.2 8.3.2 8.3s7.1-4.2 14.9-9.4c33.7-22.2 78.5-44.1 106.2-51.9 20.2-5.7 29.1-7.1 45.5-7.1 24.8.1 27.5 1.7 27.5 16.9 0 6.4-.5 8.9-2.3 12.3-6.6 12.4-24.4 24.3-50.7 34-11.6 4.2-33.4 10.7-34 10.1-.2-.2.3-3.3 1.1-6.8s1.4-6.5 1.2-6.6c-.5-.5-26.4 6.2-35.1 9.1-18.3 6-49.2 21.3-66.7 33-11.5 7.7-10.8 6.7-12 17.9-.5 5.5-1.3 11.9-1.6 14.2l-.5 4.2 18.3-8.8c43.2-21 69.7-28.4 101.8-28.5 14.4-.1 17.4.2 23.5 2.1 17.3 5.4 29.1 18.3 25.6 27.6-1.5 3.9-10.4 13.1-17.8 18.3-12.9 9.3-27.3 14.1-44.6 15.1-10.5.5-28.4-1-29.9-2.5-.6-.6.9-3.9 3.6-8.3 2.4-4.1 4.4-7.4 4.3-7.5-.7-.7-25 4.3-34.7 7.1-15.9 4.6-39.6 14.1-49 19.6l-7.4 4.5-6.3 25.9c-3.4 14.3-6.2 26.3-6.3 26.7-.1 2.9 19.5-2.3 31.7-8.2 9.3-4.6 20.5-12.6 31.1-22.3 3.9-3.7 7.8-6.7 8.5-6.8.6-.1 8 0 16.2.1 31.6.4 66.7-6.7 95.9-19.4 18.8-8.2 28.7-14.6 38.3-25 7.9-8.4 10.8-14.3 10.7-22.1-.1-13.1-8.4-23.8-27.3-35-5.5-3.3-10.1-6.3-10.1-6.6 0-.3 5.7-4.4 12.8-9.2 16.4-11.1 24.5-17.6 36.1-29 25.7-25.2 35.9-49.6 27.9-66.8-5.3-11.4-15.6-17.4-37.8-22.4-8.9-2-41.8-2.9-52.5-1.4z"/></svg>