<svg xmlns="http://www.w3.org/2000/svg" width="19.447" height="18.27" viewBox="0 0 19.447 18.27">
  <g id="booking" transform="translate(0 -15.5)">
    <path id="Path_4110" data-name="Path 4110" d="M15.448,15.5H4a4,4,0,1,0,0,8H6.911v3.231l-.142-.119a1.851,1.851,0,0,0-2.451.107,1.6,1.6,0,0,0,.1,2.381l2.49,2.089V33.2a.57.57,0,0,0,.57.57h6.837a.57.57,0,0,0,.57-.57V26.8a1.712,1.712,0,0,0-1.5-1.7l-3.06-.381V23.5h5.119a4,4,0,1,0,0-8Zm-7.4,17.13V31.491h5.7V32.63Zm5.2-6.4a.571.571,0,0,1,.5.565v3.554H7.688L5.154,28.225a.461.461,0,0,1-.031-.7.708.708,0,0,1,.913-.04l1.078.9a.57.57,0,0,0,.936-.436V20.666a.57.57,0,1,1,1.14,0v4.558a.57.57,0,0,0,.5.565Zm2.2-3.874H10.33V20.666a1.709,1.709,0,0,0-3.419,0v1.693H4a2.86,2.86,0,0,1,0-5.719H15.448a2.86,2.86,0,0,1,0,5.719Z" transform="translate(0)" fill="#fff"/>
    <path id="Path_4111" data-name="Path 4111" d="M304.485,75.667l-1.876,1.876-.737-.737a.57.57,0,1,0-.806.806l1.139,1.139a.57.57,0,0,0,.806,0l2.279-2.279a.57.57,0,1,0-.806-.806Z" transform="translate(-289.47 -57.721)" fill="#fff"/>
  </g>
</svg>
