<svg width="27" height="27" xmlns="http://www.w3.org/2000/svg" xmlns:xlink="http://www.w3.org/1999/xlink" xmlns:svgjs="http://svgjs.com/svgjs" viewBox="44 452 27 27"><svg width="7" height="7" xmlns="http://www.w3.org/2000/svg" xmlns:xlink="http://www.w3.org/1999/xlink" xmlns:svgjs="http://svgjs.com/svgjs" x="58" y="466"><svg xmlns="http://www.w3.org/2000/svg" xmlns:xlink="http://www.w3.org/1999/xlink" width="7" height="7" viewBox="0.243 0.141 6.483 6.483"><path paint-order="stroke fill markers" fill-rule="evenodd" d="M.243 4.582c0 1.126.916 2.042 2.042 2.042h2.399a2.044 2.044 0 0 0 2.042-2.042v-2.4A2.044 2.044 0 0 0 4.684.141h-2.4A2.044 2.044 0 0 0 .244 2.182v2.4zm2.042-2.4h2.399v2.4h-2.4v-2.4z"/></svg></svg><svg width="3" height="3" xmlns="http://www.w3.org/2000/svg" xmlns:xlink="http://www.w3.org/1999/xlink" xmlns:svgjs="http://svgjs.com/svgjs" x="49" y="470"><svg xmlns="http://www.w3.org/2000/svg" xmlns:xlink="http://www.w3.org/1999/xlink" width="3" height="3" viewBox="0.169 0.384 2.068 2.067"><path paint-order="stroke fill markers" fill-rule="evenodd" d="M1.202 2.451a1.033 1.033 0 1 1 0-2.067 1.033 1.033 0 1 1 0 2.067z"/></svg></svg><svg width="3" height="3" xmlns="http://www.w3.org/2000/svg" xmlns:xlink="http://www.w3.org/1999/xlink" xmlns:svgjs="http://svgjs.com/svgjs" x="53" y="466"><svg xmlns="http://www.w3.org/2000/svg" xmlns:xlink="http://www.w3.org/1999/xlink" width="3" height="3" viewBox="0.821 0.249 2.068 2.067"><path paint-order="stroke fill markers" fill-rule="evenodd" d="M1.854 2.316A1.032 1.032 0 0 1 .821 1.282a1.033 1.033 0 1 1 1.033 1.033z"/></svg></svg><svg width="3" height="3" xmlns="http://www.w3.org/2000/svg" xmlns:xlink="http://www.w3.org/1999/xlink" xmlns:svgjs="http://svgjs.com/svgjs" x="62" y="461"><svg xmlns="http://www.w3.org/2000/svg" xmlns:xlink="http://www.w3.org/1999/xlink" width="3" height="3" viewBox="0.608 0.596 2.068 2.067"><path paint-order="stroke fill markers" fill-rule="evenodd" d="M1.641 2.664A1.032 1.032 0 0 1 .608 1.63a1.033 1.033 0 1 1 1.033 1.033z"/></svg></svg><svg width="3" height="3" xmlns="http://www.w3.org/2000/svg" xmlns:xlink="http://www.w3.org/1999/xlink" xmlns:svgjs="http://svgjs.com/svgjs" x="58" y="461"><svg xmlns="http://www.w3.org/2000/svg" xmlns:xlink="http://www.w3.org/1999/xlink" width="3" height="3" viewBox="0.473 0.596 2.068 2.067"><path paint-order="stroke fill markers" fill-rule="evenodd" d="M1.506 2.664A1.032 1.032 0 0 1 .473 1.63a1.033 1.033 0 1 1 1.033 1.033z"/></svg></svg><svg width="3" height="3" xmlns="http://www.w3.org/2000/svg" xmlns:xlink="http://www.w3.org/1999/xlink" xmlns:svgjs="http://svgjs.com/svgjs" x="49" y="461"><svg xmlns="http://www.w3.org/2000/svg" xmlns:xlink="http://www.w3.org/1999/xlink" width="3" height="3" viewBox="0.169 0.596 2.068 2.067"><path paint-order="stroke fill markers" fill-rule="evenodd" d="M1.202 2.664A1.032 1.032 0 0 1 .17 1.63a1.033 1.033 0 1 1 1.033 1.033z"/></svg></svg><svg width="27" height="27" xmlns="http://www.w3.org/2000/svg" xmlns:xlink="http://www.w3.org/1999/xlink" xmlns:svgjs="http://svgjs.com/svgjs" x="44" y="452"><svg xmlns="http://www.w3.org/2000/svg" xmlns:xlink="http://www.w3.org/1999/xlink" width="27" height="27" viewBox="0 0 26.138 26.138"><path paint-order="stroke fill markers" fill-rule="evenodd" d="M25.116 17.969a1.02 1.02 0 0 0 1.021-1.02V6.125a4.089 4.089 0 0 0-4.084-4.084h-1.327V1.02a1.021 1.021 0 0 0-2.042 0v1.02h-4.646v-1.02a1.021 1.021 0 1 0-2.042 0v1.02H7.402v-1.02a1.021 1.021 0 0 0-2.042 0v1.02H4.084A4.088 4.088 0 0 0 0 6.127v15.927a4.088 4.088 0 0 0 4.084 4.084h17.97a4.089 4.089 0 0 0 4.083-4.084 1.02 1.02 0 1 0-2.042 0 2.044 2.044 0 0 1-2.042 2.042H4.083a2.044 2.044 0 0 1-2.041-2.042V6.126c0-1.126.915-2.042 2.042-2.042H5.36v1.02a1.02 1.02 0 1 0 2.042 0v-1.02h4.594v1.02a1.02 1.02 0 1 0 2.042 0v-1.02h4.646v1.02a1.02 1.02 0 1 0 2.042 0v-1.02h1.327c1.126 0 2.042.916 2.042 2.042v10.822c0 .564.457 1.021 1.02 1.021z"/></svg></svg><svg width="3" height="3" xmlns="http://www.w3.org/2000/svg" xmlns:xlink="http://www.w3.org/1999/xlink" xmlns:svgjs="http://svgjs.com/svgjs" x="53" y="461"><svg xmlns="http://www.w3.org/2000/svg" xmlns:xlink="http://www.w3.org/1999/xlink" width="3" height="3" viewBox="0.821 0.596 2.068 2.067"><path paint-order="stroke fill markers" fill-rule="evenodd" d="M1.854 2.664A1.032 1.032 0 0 1 .821 1.63a1.033 1.033 0 1 1 1.033 1.033z"/></svg></svg><svg width="3" height="3" xmlns="http://www.w3.org/2000/svg" xmlns:xlink="http://www.w3.org/1999/xlink" xmlns:svgjs="http://svgjs.com/svgjs" x="49" y="466"><svg xmlns="http://www.w3.org/2000/svg" xmlns:xlink="http://www.w3.org/1999/xlink" width="3" height="3" viewBox="0.169 0.249 2.068 2.067"><path paint-order="stroke fill markers" fill-rule="evenodd" d="M1.202 2.316A1.032 1.032 0 0 1 .17 1.282a1.033 1.033 0 1 1 1.033 1.033z"/></svg></svg><svg width="3" height="3" xmlns="http://www.w3.org/2000/svg" xmlns:xlink="http://www.w3.org/1999/xlink" xmlns:svgjs="http://svgjs.com/svgjs" x="53" y="470"><svg xmlns="http://www.w3.org/2000/svg" width="3" height="3" viewBox="0.821 0.384 2.068 2.067"><path paint-order="stroke fill markers" fill-rule="evenodd" d="M1.854 2.451a1.033 1.033 0 1 1 0-2.067 1.033 1.033 0 1 1 0 2.067z"/></svg></svg></svg>