<svg xmlns="http://www.w3.org/2000/svg" width="21.354" height="21.353" viewBox="0 0 21.354 21.353">
  <g id="Group_7308" data-name="Group 7308" transform="translate(-3798 -3482)">
    <path id="Path_3002" data-name="Path 3002" d="M59.136,3.674a.757.757,0,0,0-.757-.757H50.758a.757.757,0,0,0-.619,1.193l2.687,3.4.013,3.728a1.466,1.466,0,0,0,2.279,1.216l.955-.707a1.281,1.281,0,0,0,.674-1.125L56.73,7.535,59,4.114A.757.757,0,0,0,59.136,3.674Zm-3.922,3.38.018,3.571-.88.515-.014-4.114L52.216,4.432h4.693Z" transform="translate(3760.219 3490.635)" fill="#939ea8"/>
    <circle id="Ellipse_203" data-name="Ellipse 203" cx="1.5" cy="1.5" r="1.5" transform="translate(3813.208 3488.353)" fill="#939ea8"/>
    <path id="Path_3003" data-name="Path 3003" d="M18.016,1.668H16.932V.834a.834.834,0,0,0-1.668,0v.834h-3.8V.834A.834.834,0,1,0,9.8.834v.834H6.047V.834a.834.834,0,0,0-1.668,0v.834H3.336A3.34,3.34,0,0,0,0,5V18.016a3.34,3.34,0,0,0,3.336,3.336h7.495a.834.834,0,1,0,0-1.668H3.336a1.67,1.67,0,0,1-1.668-1.668V5A1.67,1.67,0,0,1,3.336,3.336H4.379V4.17a.834.834,0,0,0,1.668,0V3.336H9.8V4.17a.834.834,0,1,0,1.668,0V3.336h3.8V4.17a.834.834,0,0,0,1.668,0V3.336h1.084A1.67,1.67,0,0,1,19.685,5v3.67a.834.834,0,1,0,1.668,0V5A3.34,3.34,0,0,0,18.016,1.668Z" transform="translate(3798 3482)" fill="#939ea8"/>
    <circle id="Ellipse_204" data-name="Ellipse 204" cx="1.5" cy="1.5" r="1.5" transform="translate(3809.208 3488.353)" fill="#939ea8"/>
    <circle id="Ellipse_205" data-name="Ellipse 205" cx="1.5" cy="1.5" r="1.5" transform="translate(3805.208 3492.353)" fill="#939ea8"/>
    <circle id="Ellipse_206" data-name="Ellipse 206" cx="1.5" cy="1.5" r="1.5" transform="translate(3801.208 3488.353)" fill="#939ea8"/>
    <circle id="Ellipse_207" data-name="Ellipse 207" cx="1.5" cy="1.5" r="1.5" transform="translate(3801.208 3492.353)" fill="#939ea8"/>
    <circle id="Ellipse_208" data-name="Ellipse 208" cx="1.5" cy="1.5" r="1.5" transform="translate(3801.208 3496.353)" fill="#939ea8"/>
    <circle id="Ellipse_209" data-name="Ellipse 209" cx="1.5" cy="1.5" r="1.5" transform="translate(3805.208 3496.353)" fill="#939ea8"/>
    <circle id="Ellipse_210" data-name="Ellipse 210" cx="1.5" cy="1.5" r="1.5" transform="translate(3805.208 3488.353)" fill="#939ea8"/>
  </g>
</svg>
