<svg width="26" height="24" xmlns="http://www.w3.org/2000/svg" xmlns:xlink="http://www.w3.org/1999/xlink" xmlns:svgjs="http://svgjs.com/svgjs" viewBox="479 561 26 24"><svg width="26" height="24" xmlns="http://www.w3.org/2000/svg" xmlns:xlink="http://www.w3.org/1999/xlink" xmlns:svgjs="http://svgjs.com/svgjs" viewBox="0 0.733 26 22.533" fill="#fff" x="479" y="561"><svg xmlns="http://www.w3.org/2000/svg" xmlns:xlink="http://www.w3.org/1999/xlink" width="26" height="24" viewBox="-0.001 0.583 25.865 22.417"><path paint-order="stroke fill markers" fill-rule="evenodd" d="M24.855 5.042a3.324 3.324 0 0 0-2.438-1.01H19.4l-.687-1.833c-.17-.44-.483-.82-.936-1.138-.454-.319-.919-.478-1.395-.478H9.484c-.476 0-.941.159-1.395.478-.453.319-.765.699-.936 1.138l-.687 1.832H3.448c-.952 0-1.764.338-2.438 1.011A3.321 3.321 0 0 0 0 7.48v12.071c0 .952.336 1.765 1.01 2.438A3.323 3.323 0 0 0 3.448 23h18.968c.952 0 1.765-.336 2.44-1.01a3.325 3.325 0 0 0 1.009-2.438V7.481c0-.953-.337-1.765-1.01-2.439zm-7.66 12.737c-1.18 1.182-2.601 1.772-4.262 1.772-1.662 0-3.083-.59-4.265-1.772-1.18-1.18-1.77-2.602-1.77-4.263 0-1.662.59-3.083 1.77-4.264C9.85 8.071 11.271 7.48 12.933 7.48c1.661 0 3.082.591 4.263 1.772 1.182 1.18 1.772 2.602 1.772 4.264 0 1.661-.59 3.083-1.772 4.263z"/></svg></svg><svg width="8" height="9" xmlns="http://www.w3.org/2000/svg" xmlns:xlink="http://www.w3.org/1999/xlink" xmlns:svgjs="http://svgjs.com/svgjs" viewBox="0 0.5 8 8" fill="#fff" x="488" y="570"><svg xmlns="http://www.w3.org/2000/svg" width="8" height="9" viewBox="0.052 0.636 7.76 7.76"><path paint-order="stroke fill markers" fill-rule="evenodd" d="M3.933.636c-1.07 0-1.983.379-2.743 1.138C.432 2.534.052 3.447.052 4.516s.38 1.982 1.138 2.741c.76.759 1.674 1.139 2.743 1.139 1.068 0 1.982-.38 2.74-1.139.76-.759 1.14-1.672 1.14-2.741 0-1.07-.38-1.983-1.14-2.742C5.916 1.015 5.002.636 3.934.636z"/></svg></svg></svg>