<svg xmlns="http://www.w3.org/2000/svg" width="14" height="14" viewBox="0 0 14 14">
  <g id="chain" transform="translate(0 0.001)">
    <path id="Path_2995" data-name="Path 2995" d="M9.548,184.589a3.17,3.17,0,0,0-.01-.682,3.071,3.071,0,0,0-.2-.785q-.019-.047-.039-.093a3.088,3.088,0,0,0-.639-.926l-.012-.012a3.115,3.115,0,0,0-.587-.456l-.97.96a.619.619,0,0,0-.173.314,1.456,1.456,0,0,1,.576.349l.006.006a1.456,1.456,0,0,1-.006,2.062L4.181,188.6a1.524,1.524,0,0,1-2.11,0l-.006-.006a1.456,1.456,0,0,1,.006-2.062l1.892-1.872a3.906,3.906,0,0,1-.345-1.613q0-.186.017-.37L.917,185.366a3.1,3.1,0,0,0-.012,4.388l.012.012a3.152,3.152,0,0,0,4.418,0l3.309-3.274a3.068,3.068,0,0,0,.9-1.885Z" transform="translate(0 -176.67)" fill="#686f74"/>
    <path id="Path_2996" data-name="Path 2996" d="M163.238,8.576a3.116,3.116,0,0,0,.587.456l.97-.96a.618.618,0,0,0,.173-.314,1.455,1.455,0,0,1-.576-.349l-.006-.006a1.456,1.456,0,0,1,.006-2.062L167.7,2.069a1.524,1.524,0,0,1,2.11,0l0,0a1.456,1.456,0,0,1,0,2.063l-1.892,1.872a3.907,3.907,0,0,1,.345,1.613q0,.186-.017.37L170.965,5.3a3.1,3.1,0,0,0,.012-4.388L170.965.9a3.151,3.151,0,0,0-4.418,0l-3.309,3.274a3.1,3.1,0,0,0-.012,4.388l.012.012Z" transform="translate(-157.883 0)" fill="#686f74"/>
  </g>
</svg>
