<svg xmlns="http://www.w3.org/2000/svg" width="20.379" height="22.805" viewBox="0 0 20.379 22.805">
  <g id="Group_8462" data-name="Group 8462" transform="translate(-7599 -9577)">
    <circle id="Ellipse_13" data-name="Ellipse 13" cx="1" cy="1" r="1" transform="translate(7599 9595.78)" fill="#1492e6"/>
    <g id="Group_7215" data-name="Group 7215" transform="translate(7599 9577)">
      <g id="Vector_Smart_Object" data-name="Vector Smart Object" transform="translate(0 0)">
        <g id="Vector_Smart_Object-2" data-name="Vector Smart Object" transform="translate(0 0)">
          <path id="Path_2954" data-name="Path 2954" d="M10.7,8.69a3.951,3.951,0,0,0-.088-.832,3.987,3.987,0,0,0,.7.061,5.317,5.317,0,0,1,4.238,2.1l.955-1.06a6.76,6.76,0,0,0-2.661-1.955A3.966,3.966,0,1,0,7.423,4.792a3.973,3.973,0,0,0-4.667,3.9A3.949,3.949,0,0,0,4.2,11.739,6.718,6.718,0,0,0,0,17.953H1.409a5.317,5.317,0,0,1,5.318-5.3A3.97,3.97,0,0,0,10.7,8.69ZM11.305,1.4A2.555,2.555,0,1,1,8.743,3.96,2.561,2.561,0,0,1,11.305,1.4Zm-4.578,9.84A2.555,2.555,0,1,1,9.289,8.69,2.561,2.561,0,0,1,6.727,11.245Z" transform="translate(0 0)" fill="#1492e6"/>
        </g>
        <path id="Color_Overlay" data-name="Color Overlay" d="M0,17.9a6.7,6.7,0,0,1,4.139-6.2,3.953,3.953,0,0,1,2.5-6.988,3.887,3.887,0,0,1,.687.061,3.916,3.916,0,1,1,6.327,2.21,6.673,6.673,0,0,1,2.625,1.95l-.942,1.057a5.226,5.226,0,0,0-4.18-2.1,3.877,3.877,0,0,1-.687-.061,3.992,3.992,0,0,1,.087.83,3.938,3.938,0,0,1-3.917,3.948A5.273,5.273,0,0,0,1.39,17.9ZM4.109,8.666A2.527,2.527,0,1,0,6.636,6.118,2.54,2.54,0,0,0,4.109,8.666ZM8.625,3.949A2.528,2.528,0,1,0,11.153,1.4,2.54,2.54,0,0,0,8.625,3.949Z" fill="#1492e6"/>
      </g>
      <path id="Shape_6" data-name="Shape 6" d="M806.7,356.815l6.454,4.8,9.7-11.16L821.4,349l-8.249,9.219-4.852-3.4Z" transform="translate(-802.478 -338.81)" fill="#1492e6"/>
    </g>
  </g>
</svg>
