<svg xmlns="http://www.w3.org/2000/svg" width="23.85" height="21.969" viewBox="0 0 23.85 21.969">
  <g id="download" transform="translate(-18.067 -4)" opacity="0.66">
    <g id="Group_7430" data-name="Group 7430" transform="translate(18.067 9.06)">
      <g id="Group_7429" data-name="Group 7429" transform="translate(0)">
        <path id="Path_3081" data-name="Path 3081" d="M38.942,153.6H34.95a.992.992,0,1,0,0,1.983h3.992a.992.992,0,0,1,.992.992v10.959a.992.992,0,0,1-.992.992h-17.9a.992.992,0,0,1-.992-.992V156.575a.992.992,0,0,1,.992-.992h3.992a.992.992,0,1,0,0-1.983H21.042a2.975,2.975,0,0,0-2.975,2.975v10.959a2.975,2.975,0,0,0,2.975,2.975h17.9a2.975,2.975,0,0,0,2.975-2.975V156.575A2.975,2.975,0,0,0,38.942,153.6Z" transform="translate(-18.067 -153.6)" fill="#dce0e3"/>
      </g>
    </g>
    <g id="Group_7432" data-name="Group 7432" transform="translate(24.054 4)">
      <g id="Group_7431" data-name="Group 7431">
        <path id="Path_3082" data-name="Path 3082" d="M148.317,14.309a.992.992,0,0,0-1.378,0l-3.267,3.265V4.992a.992.992,0,0,0-1.983,0V17.574l-3.265-3.265a.992.992,0,0,0-1.4,1.4l4.958,4.958a.992.992,0,0,0,1.4,0l0,0,4.958-4.958A.992.992,0,0,0,148.317,14.309Z" transform="translate(-136.742 -4)" fill="#dce0e3"/>
      </g>
    </g>
  </g>
</svg>
