<svg xmlns="http://www.w3.org/2000/svg" width="45.874" height="43.009" viewBox="0 0 45.874 43.009">
  <g id="excel" transform="translate(0 -15.99)">
    <path id="Path_4085" data-name="Path 4085" d="M277.5,111.549h-20.07A1.434,1.434,0,0,1,256,110.116V81.445a1.434,1.434,0,0,1,1.434-1.434H277.5a1.434,1.434,0,0,1,1.434,1.434v28.671A1.434,1.434,0,0,1,277.5,111.549Z" transform="translate(-233.063 -58.285)" fill="#e7edf2"/>
    <g id="Group_8369" data-name="Group 8369" transform="translate(22.937 27.46)">
      <path id="Path_4086" data-name="Path 4086" d="M263.168,146.878h-5.734a1.434,1.434,0,1,1,0-2.867h5.734a1.434,1.434,0,0,1,0,2.867Z" transform="translate(-256 -144.011)" fill="#388e3c"/>
      <path id="Path_4087" data-name="Path 4087" d="M263.168,210.878h-5.734a1.434,1.434,0,1,1,0-2.867h5.734a1.434,1.434,0,0,1,0,2.867Z" transform="translate(-256 -202.277)" fill="#388e3c"/>
      <path id="Path_4088" data-name="Path 4088" d="M263.168,274.878h-5.734a1.434,1.434,0,1,1,0-2.867h5.734a1.434,1.434,0,0,1,0,2.867Z" transform="translate(-256 -260.542)" fill="#388e3c"/>
      <path id="Path_4089" data-name="Path 4089" d="M263.168,338.878h-5.734a1.434,1.434,0,1,1,0-2.867h5.734a1.434,1.434,0,1,1,0,2.867Z" transform="translate(-256 -318.808)" fill="#388e3c"/>
      <path id="Path_4090" data-name="Path 4090" d="M388.3,146.878h-2.867a1.434,1.434,0,1,1,0-2.867H388.3a1.434,1.434,0,0,1,0,2.867Z" transform="translate(-372.531 -144.011)" fill="#388e3c"/>
      <path id="Path_4091" data-name="Path 4091" d="M388.3,210.878h-2.867a1.434,1.434,0,1,1,0-2.867H388.3a1.434,1.434,0,0,1,0,2.867Z" transform="translate(-372.531 -202.277)" fill="#388e3c"/>
      <path id="Path_4092" data-name="Path 4092" d="M388.3,274.878h-2.867a1.434,1.434,0,1,1,0-2.867H388.3a1.434,1.434,0,0,1,0,2.867Z" transform="translate(-372.531 -260.542)" fill="#388e3c"/>
      <path id="Path_4093" data-name="Path 4093" d="M388.3,338.878h-2.867a1.434,1.434,0,1,1,0-2.867H388.3a1.434,1.434,0,0,1,0,2.867Z" transform="translate(-372.531 -318.808)" fill="#388e3c"/>
    </g>
    <path id="Path_4094" data-name="Path 4094" d="M25.285,16.321a1.409,1.409,0,0,0-1.178-.3L1.17,20.318A1.43,1.43,0,0,0,0,21.726V53.264a1.432,1.432,0,0,0,1.17,1.408l22.937,4.3a1.349,1.349,0,0,0,.264.026A1.434,1.434,0,0,0,25.8,57.565V17.425A1.43,1.43,0,0,0,25.285,16.321Z" fill="#2e7d32"/>
    <path id="Path_4095" data-name="Path 4095" d="M92.532,173.418,88,168.237l4.585-5.895a1.434,1.434,0,1,0-2.262-1.763l-4.246,5.459L82.5,161.949a1.432,1.432,0,0,0-2.156,1.887l3.942,4.507-4,5.138a1.434,1.434,0,0,0,2.265,1.76l3.656-4.7,4.169,4.762a1.432,1.432,0,1,0,2.156-1.884Z" transform="translate(-72.817 -131.132)" fill="#fafafa"/>
  </g>
</svg>
