<svg xmlns="http://www.w3.org/2000/svg" width="13.78" height="13.78" viewBox="0 0 13.78 13.78">
  <g id="export" transform="translate(-131 -101)">
    <g id="Group_8500" data-name="Group 8500" transform="translate(131 101)">
      <g id="Group_8499" data-name="Group 8499" transform="translate(0 0)">
        <path id="Path_4151" data-name="Path 4151" d="M144.042,108.89a.738.738,0,0,0-.738.738V113.3H132.476V102.476h3.675a.738.738,0,1,0,0-1.476h-4.413a.738.738,0,0,0-.738.738v12.3a.738.738,0,0,0,.738.738h12.3a.738.738,0,0,0,.738-.738v-4.413A.738.738,0,0,0,144.042,108.89Z" transform="translate(-131 -101)" fill="#1492e6"/>
      </g>
    </g>
    <g id="Group_8502" data-name="Group 8502" transform="translate(134.452 101)">
      <g id="Group_8501" data-name="Group 8501" transform="translate(0 0)">
        <path id="Path_4152" data-name="Path 4152" d="M210.737,101H206.8a.738.738,0,0,0,0,1.476h2.155l-7.591,7.591a.738.738,0,0,0,1.044,1.044L210,103.52v2.155a.738.738,0,1,0,1.476,0v-3.937A.74.74,0,0,0,210.737,101Z" transform="translate(-201.147 -101)" fill="#1492e6"/>
      </g>
    </g>
  </g>
</svg>
