<svg xmlns="http://www.w3.org/2000/svg" width="24.397" height="22.353" viewBox="0 0 24.397 22.353">
  <g id="filter" transform="translate(-3.64 -4.55)">
    <path id="Path_2756" data-name="Path 2756" d="M87.71,82.378H73.175a3,3,0,0,0-5.684,0H65.221a.954.954,0,0,0,0,1.909H67.49a3,3,0,0,0,5.684,0H87.71a.954.954,0,1,0,0-1.909ZM70.332,84.423a1.09,1.09,0,1,1,1.09-1.09A1.091,1.091,0,0,1,70.332,84.423Z" transform="translate(-60.627 -75.784)" fill="#939ea8"/>
    <path id="Path_2757" data-name="Path 2757" d="M87.71,210.911H85.441a3,3,0,0,0-5.684,0H65.221a.954.954,0,0,0,0,1.909H79.757a3,3,0,0,0,5.684,0H87.71a.954.954,0,1,0,0-1.909ZM82.6,212.956a1.09,1.09,0,1,1,1.09-1.09A1.091,1.091,0,0,1,82.6,212.956Z" transform="translate(-60.627 -196.139)" fill="#939ea8"/>
    <path id="Path_2758" data-name="Path 2758" d="M87.71,339.444H77.263a3,3,0,0,0-5.684,0H65.221a.954.954,0,1,0,0,1.909h6.358a3,3,0,0,0,5.684,0H87.71a.954.954,0,1,0,0-1.909Zm-13.289,2.044a1.09,1.09,0,1,1,1.09-1.09A1.091,1.091,0,0,1,74.421,341.489Z" transform="translate(-60.627 -316.495)" fill="#939ea8"/>
  </g>
</svg>
