<svg xmlns="http://www.w3.org/2000/svg" width="17.367" height="17.13" viewBox="0 0 17.367 17.13">
  <g id="giftGreen" transform="translate(-309.328 -139.538)">
    <g id="Group_8422" data-name="Group 8422" transform="translate(309.327 139.538)">
      <path id="Path_4125" data-name="Path 4125" d="M43.02,21.8H39.937a5.233,5.233,0,0,0,.752-.6c1.086-1.092,1.086-2,0-3.092a1.887,1.887,0,0,0-3.08,0c-.583.586-1.965,2.1-1.751,3.694h-.1c.213-1.593-1.21-3.108-1.793-3.694a1.887,1.887,0,0,0-3.08,0c-1.086,1.092-1.086,2,0,3.092a5.33,5.33,0,0,0,.753.6H28.347A1.349,1.349,0,0,0,27,23.151v3.367a.674.674,0,0,0,.673.673h.673V33.1a1.349,1.349,0,0,0,1.347,1.347H41.673A1.349,1.349,0,0,0,43.02,33.1V27.192h.673a.674.674,0,0,0,.673-.673V23.151A1.349,1.349,0,0,0,43.02,21.8ZM31.844,19.06c.273-.275.326-.363.711-.363s.265-.07.539.205c.908.913,1.731,2.533,1.417,2.858a.444.444,0,0,1-.249.044c-.931,0-1.836-.967-2.417-1.552A.846.846,0,0,1,31.844,19.06ZM35.136,33.1H29.694V27.192h5.443Zm0-7.252H28.347V23.151h6.789Zm3.428-6.785c.547-.548.624-.547,1.17,0,.564.568.564.624,0,1.193-.58.585-1.486,1.552-2.417,1.552a.442.442,0,0,1-.251-.044C36.754,21.435,37.656,19.973,38.564,19.06ZM41.673,33.1h-5.19V27.192h5.19Zm1.347-7.252H36.483V23.151H43.02Z" transform="translate(-27 -17.314)" fill="#1dcb7f"/>
    </g>
  </g>
</svg>
