<svg xmlns="http://www.w3.org/2000/svg" width="22.36" height="22.055" viewBox="0 0 22.36 22.055">
  <g id="gift" transform="translate(-309.328 -139.538)">
    <g id="Group_8422" data-name="Group 8422" transform="translate(309.327 139.538)">
      <path id="Path_4125" data-name="Path 4125" d="M47.626,23.1H43.657a6.737,6.737,0,0,0,.968-.775c1.4-1.406,1.4-2.574,0-3.981-1.358-1.366-2.605-1.368-3.965,0-.751.754-2.53,2.7-2.254,4.756H38.28c.274-2.051-1.558-4-2.308-4.756-1.36-1.368-2.607-1.366-3.965,0-1.4,1.406-1.4,2.574,0,3.981a6.862,6.862,0,0,0,.969.775h-4.24A1.737,1.737,0,0,0,27,24.829v4.335a.867.867,0,0,0,.867.867h.867v7.6a1.737,1.737,0,0,0,1.734,1.734H45.892a1.737,1.737,0,0,0,1.734-1.734v-7.6h.867a.867.867,0,0,0,.867-.867V24.829A1.737,1.737,0,0,0,47.626,23.1Zm-14.39-3.533c.352-.354.419-.467.915-.467s.341-.09.693.264c1.169,1.176,2.228,3.261,1.824,3.679a.572.572,0,0,1-.321.057c-1.2,0-2.364-1.245-3.112-2A1.09,1.09,0,0,1,33.236,19.562Zm4.239,18.073H30.468v-7.6h7.007Zm0-9.338H28.734V24.829h8.741Zm4.413-8.735c.7-.706.8-.7,1.506,0,.727.732.727.8,0,1.536-.747.753-1.914,2-3.112,2a.57.57,0,0,1-.323-.057C39.558,22.62,40.72,20.738,41.889,19.562Zm4,18.073H39.21v-7.6h6.682ZM47.626,28.3H39.21V24.829h8.416Z" transform="translate(-27 -17.314)" fill="#1492e6"/>
    </g>
  </g>
</svg>
