<svg width="24" height="24" xmlns="http://www.w3.org/2000/svg" xmlns:xlink="http://www.w3.org/1999/xlink" xmlns:svgjs="http://svgjs.com/svgjs"><svg xmlns="http://www.w3.org/2000/svg" width="24" height="24" viewBox="0 0 23.844 23.844"><path paint-order="stroke fill markers" fill-rule="evenodd" d="M22.913 19.187a.932.932 0 0 0-.932.931 1.865 1.865 0 0 1-1.863 1.863H3.725a1.865 1.865 0 0 1-1.863-1.863v-8.4l.05.039c.02.015.04.029.061.042l3.615 2.306v1.216a.932.932 0 0 0 1.862 0v-1.358l.714-.403.01-.006a7.616 7.616 0 0 1 7.542-.044l.676.397v1.414a.932.932 0 0 0 1.863 0v-1.216l3.615-2.306.06-.042.05-.039v3.698a.932.932 0 0 0 1.864 0V7.451a3.73 3.73 0 0 0-3.726-3.726h-4.009v-.931A2.797 2.797 0 0 0 13.315 0h-2.787a2.797 2.797 0 0 0-2.794 2.794v.931H3.725A3.73 3.73 0 0 0 0 7.451v12.667a3.73 3.73 0 0 0 3.725 3.726h16.393a3.73 3.73 0 0 0 3.726-3.726.932.932 0 0 0-.931-.931zM9.596 2.794c0-.513.418-.931.932-.931h2.787c.514 0 .932.418.932.93v.932h-4.65v-.931zM1.862 7.45c0-1.027.836-1.863 1.863-1.863h16.393c1.028 0 1.863.836 1.863 1.863v1.077c0 .456 0 .85-1.145 1.72l-3.352 2.14-.83-.488-.014-.007a9.46 9.46 0 0 0-4.657-1.228h-.05a9.463 9.463 0 0 0-4.69 1.276l-.84.474-3.396-2.166c-1.145-.871-1.145-1.265-1.145-1.721V7.45z"/></svg></svg>