<svg xmlns="http://www.w3.org/2000/svg" xmlns:xlink="http://www.w3.org/1999/xlink" width="40.999" height="40.999" viewBox="0 0 40.999 40.999">
  <defs>
    <linearGradient id="linear-gradient" x1="0.5" x2="0.5" y2="1" gradientUnits="objectBoundingBox">
      <stop offset="0" stop-color="#40dbf3"/>
      <stop offset="1" stop-color="#1c7ee1"/>
    </linearGradient>
  </defs>
  <g id="Group_7213" data-name="Group 7213" transform="translate(-1082 -334.001)">
    <path id="Ellipse_15" data-name="Ellipse 15" d="M1009,345c.28,0-.178.067-.178.067L1009,350l4.108,2.851s-.238.322-.371.471a5,5,0,1,1-4.479-8.267A5.052,5.052,0,0,1,1009,345Z" transform="translate(93 5)" fill="#333"/>
    <g id="Group_7212" data-name="Group 7212">
      <path id="Forma_1" data-name="Forma 1" d="M1006.45,366.706a16.927,16.927,0,0,1-4.227-1.353c-.016-.008-.03-.018-.047-.025-.316-.15-.631-.31-.937-.478l0,0a17.369,17.369,0,0,1-5.8-25.173,17.19,17.19,0,0,1,4.227-4.236l.059-.042a17.125,17.125,0,0,1,19.309-.156l-1.288,1.874c-.358.522-.138.9.489.845l5.593-.5a.927.927,0,0,0,.834-1.214l-1.5-5.451c-.168-.611-.6-.684-.957-.163l-1.291,1.879A20.236,20.236,0,0,0,1006,329.31q-.791.138-1.561.336l-.01,0-.059.017a20.316,20.316,0,0,0-11.27,7.608c-.024.028-.048.056-.07.087-.094.127-.186.257-.277.387-.149.213-.3.431-.435.649-.018.026-.031.053-.046.079a20.582,20.582,0,0,0-3.248,12.073c0,.014,0,.028,0,.043.018.417.051.839.1,1.254,0,.027.008.052.013.079.046.418.1.837.176,1.256a20.54,20.54,0,0,0,5.736,11.111l.021.022.008.007a20.8,20.8,0,0,0,2.626,2.21,20.24,20.24,0,0,0,8.172,3.445,1.66,1.66,0,0,0,.582-3.268Z" transform="translate(93 5)" fill="#232122"/>
      <path id="Forma_1_copy" data-name="Forma 1 copy" d="M1011.967,369.68a1.664,1.664,0,0,1,.649-2.99c.342-.063.687-.139,1.024-.224a1.66,1.66,0,0,1,.8,3.222c-.4.1-.814.191-1.22.267a1.633,1.633,0,0,1-1.249-.275Zm6.009-2.233a1.668,1.668,0,0,1,.127-2.8c.3-.175.6-.362.893-.555a1.639,1.639,0,0,1,2.283.47,1.667,1.667,0,0,1-.466,2.3c-.347.23-.7.453-1.063.661a1.638,1.638,0,0,1-1.774-.081Zm4.928-4.127a1.426,1.426,0,0,1-.121-.094,1.669,1.669,0,0,1-.186-2.34c.225-.267.445-.544.655-.825a1.639,1.639,0,0,1,2.308-.332,1.669,1.669,0,0,1,.329,2.325c-.25.335-.513.667-.782.986a1.64,1.64,0,0,1-2.2.281Zm3.622-5.364a1.657,1.657,0,0,1-.953-2.142c.125-.329.24-.665.345-1a1.649,1.649,0,1,1,3.145.994c-.124.4-.261.8-.409,1.188a1.64,1.64,0,0,1-2.127.959Zm-7.222-.666-12.15-6.327V337.581a1.333,1.333,0,1,1,2.667,0v11.747l10.708,5.576a1.348,1.348,0,0,1,.572,1.81,1.333,1.333,0,0,1-1.186.726A1.313,1.313,0,0,1,1019.3,357.29Zm9.006-5.557a1.64,1.64,0,0,1-.913-.3,1.663,1.663,0,0,1-.7-1.394c.008-.35,0-.706-.009-1.056a1.648,1.648,0,1,1,3.294-.131c.016.418.02.842.01,1.259a1.654,1.654,0,0,1-1.647,1.624Zm-1.867-6.685a1.656,1.656,0,0,1-.614-.834c-.11-.334-.23-.668-.36-.994a1.664,1.664,0,0,1,.918-2.158,1.644,1.644,0,0,1,2.142.926c.154.387.3.785.429,1.182a1.663,1.663,0,0,1-1.047,2.1,1.636,1.636,0,0,1-1.469-.22Z" transform="translate(93 5)" fill="url(#linear-gradient)"/>
    </g>
  </g>
</svg>
