<svg width="25" height="21" xmlns="http://www.w3.org/2000/svg" xmlns:xlink="http://www.w3.org/1999/xlink" xmlns:svgjs="http://svgjs.com/svgjs" viewBox="0.498 0 24.005 21" fill="#343638"><svg xmlns="http://www.w3.org/2000/svg" width="25" height="21" viewBox="0.001 0 24.001 20.997"><path paint-order="stroke fill markers" fill-rule="evenodd" d="M1.365 20.996A1.364 1.364 0 0 1 0 19.632v-.272c0-.753.61-1.363 1.364-1.363h17.727c.754 0 1.364.61 1.364 1.363v.272c0 .753-.61 1.364-1.364 1.364H1.365zm.136-8.998a1.5 1.5 0 1 1 0-3h12a1.5 1.5 0 0 1 0 3h-12zm0-9a1.5 1.5 0 1 1 0-2.998h21a1.5 1.5 0 1 1 0 2.999h-21z"/></svg></svg>