<svg width="29" height="22" xmlns="http://www.w3.org/2000/svg" xmlns:xlink="http://www.w3.org/1999/xlink" xmlns:svgjs="http://svgjs.com/svgjs" viewBox="0 0.125 29 21.75" fill="#181c2b"><svg xmlns="http://www.w3.org/2000/svg" width="29" height="22" viewBox="0.693 0.917 27.394 20.546"><path paint-order="stroke fill markers" fill-rule="evenodd" d="M25.519.917H3.26A2.571 2.571 0 0 0 .693 3.486v15.41a2.571 2.571 0 0 0 2.568 2.567h22.258a2.57 2.57 0 0 0 2.568-2.568V3.485A2.57 2.57 0 0 0 25.519.918zm0 1.713c.116 0 .227.023.328.066l-11.457 9.93-11.457-9.93a.85.85 0 0 1 .328-.066h22.258zm0 17.121H3.26a.856.856 0 0 1-.856-.856V4.505l11.424 9.9a.855.855 0 0 0 1.122 0l11.424-9.9v14.39a.857.857 0 0 1-.856.856z"/></svg></svg>