<svg width="31" height="23" xmlns="http://www.w3.org/2000/svg" xmlns:xlink="http://www.w3.org/1999/xlink" xmlns:svgjs="http://svgjs.com/svgjs" viewBox="43 304 31 23"><svg width="23" height="13" xmlns="http://www.w3.org/2000/svg" xmlns:xlink="http://www.w3.org/1999/xlink" xmlns:svgjs="http://svgjs.com/svgjs" viewBox="0.133 0 22.733 13" x="47" y="308"><svg xmlns="http://www.w3.org/2000/svg" xmlns:xlink="http://www.w3.org/1999/xlink" width="23" height="13" viewBox="0.821 0.375 21.404 12.24"><path paint-order="stroke fill markers" fill-rule="evenodd" d="M21.996 11.04l-5.278-6.206 4.689-2.675A.956.956 0 0 0 20.46.5c-.393.224-8.502 4.517-8.939 4.766C11.084 5.016 2.972.722 2.585.5a.955.955 0 1 0-.947 1.66l4.69 2.674-5.28 6.207a.955.955 0 1 0 1.455 1.237l5.512-6.48L11.05 7.97a.957.957 0 0 0 .947 0l3.034-2.174 5.512 6.481a.955.955 0 0 0 1.454-1.237z"/></svg></svg><svg width="31" height="23" xmlns="http://www.w3.org/2000/svg" xmlns:xlink="http://www.w3.org/1999/xlink" xmlns:svgjs="http://svgjs.com/svgjs" viewBox="0 0.09 31 22.821" x="43" y="304"><svg xmlns="http://www.w3.org/2000/svg" width="31" height="23" viewBox="0 0 30.27 22.283"><path paint-order="stroke fill markers" fill-rule="evenodd" d="M27.405 0H2.865A2.868 2.868 0 0 0 0 2.865v16.553a2.868 2.868 0 0 0 2.864 2.865h24.54a2.868 2.868 0 0 0 2.866-2.865V2.865A2.868 2.868 0 0 0 27.405 0zm.955 19.418a.956.956 0 0 1-.955.955H2.865a.955.955 0 0 1-.955-.955V2.865c0-.527.428-.955.954-.955h24.54c.527 0 .956.428.956.955v16.553z"/></svg></svg></svg>