<svg id="money_1_" data-name="money (1)" xmlns="http://www.w3.org/2000/svg" width="18" height="18" viewBox="0 0 18 18">
  <path id="Path_3011" data-name="Path 3011" d="M16.907,272.168a1.589,1.589,0,0,0-1.8.547l-1.964,2.568c0-.014,0-.028,0-.042a1.76,1.76,0,0,0-1.758-1.758H7.9a3.584,3.584,0,0,0-3.965-.452v-.076a.527.527,0,0,0-.527-.527H.527a.527.527,0,0,0-.527.527v7.031a.527.527,0,0,0,.527.527H3.41a.527.527,0,0,0,.527-.527v-.527h8.644a3.676,3.676,0,0,0,3.105-1.7l2.058-3.2a1.607,1.607,0,0,0,.256-.871,1.589,1.589,0,0,0-1.094-1.525ZM2.883,279.46H1.055v-5.977H2.883Zm13.974-5.467-2.058,3.2a2.626,2.626,0,0,1-2.218,1.211H3.938v-4.123l.176-.126a2.528,2.528,0,0,1,3.22.235.527.527,0,0,0,.365.147h3.691a.7.7,0,0,1,0,1.406H7.629a.527.527,0,1,0,0,1.055H11.86a2.652,2.652,0,0,0,2.094-1.035l1.995-2.608a.555.555,0,0,1,1,.337.554.554,0,0,1-.088.3Z" transform="translate(0 -262.514)" fill="#939ea8"/>
  <path id="Path_3012" data-name="Path 3012" d="M257.688,49.736a1.7,1.7,0,0,0,.853.319v.218a.352.352,0,1,0,.7,0v-.252a1.43,1.43,0,0,0,1.041-1.139,1.258,1.258,0,0,0-.855-1.424l-.186-.067V46.256a.482.482,0,0,1,.171.1.352.352,0,0,0,.528-.464,1.221,1.221,0,0,0-.7-.361v-.18a.352.352,0,1,0-.7,0v.219l-.066.018a1.184,1.184,0,0,0-.812.928,1.052,1.052,0,0,0,.348,1.036,2.593,2.593,0,0,0,.53.31v1.485a1.065,1.065,0,0,1-.468-.2.352.352,0,0,0-.385.588Zm1.556-1.6a.544.544,0,0,1,.348.625.726.726,0,0,1-.348.5Zm-.8-1.141a.364.364,0,0,1-.091-.353.524.524,0,0,1,.187-.315v.735C258.506,47.046,258.473,47.023,258.444,47Z" transform="translate(-248.475 -43.418)" fill="#939ea8"/>
  <path id="Path_3013" data-name="Path 3013" d="M176.395,8.789A4.395,4.395,0,1,0,172,4.395,4.4,4.4,0,0,0,176.395,8.789Zm0-7.734a3.34,3.34,0,1,1-3.34,3.34A3.344,3.344,0,0,1,176.395,1.055Z" transform="translate(-165.953)" fill="#939ea8"/>
</svg>
