<svg id="money_hand" xmlns="http://www.w3.org/2000/svg" width="20.506" height="20.506" viewBox="0 0 20.506 20.506">
  <path id="Path_3011" data-name="Path 3011" d="M19.26,272.18a1.81,1.81,0,0,0-2.045.623l-2.237,2.926c0-.016,0-.032,0-.048a2,2,0,0,0-2-2H9a4.083,4.083,0,0,0-4.517-.515v-.086a.6.6,0,0,0-.6-.6H.6a.6.6,0,0,0-.6.6v8.01a.6.6,0,0,0,.6.6H3.885a.6.6,0,0,0,.6-.6v-.6h9.847a4.188,4.188,0,0,0,3.537-1.931l2.345-3.647a1.83,1.83,0,0,0,.291-.992,1.81,1.81,0,0,0-1.246-1.737ZM3.284,280.487H1.2v-6.809H3.284Zm15.92-6.228-2.345,3.647a2.991,2.991,0,0,1-2.527,1.379H4.486v-4.7l.2-.144a2.88,2.88,0,0,1,3.668.267.6.6,0,0,0,.416.168h4.205a.8.8,0,0,1,0,1.6H8.691a.6.6,0,1,0,0,1.2h4.82A3.021,3.021,0,0,0,15.9,276.5l2.272-2.972a.632.632,0,0,1,1.135.384.631.631,0,0,1-.1.342Z" transform="translate(0 -261.183)" fill="#939ea8"/>
  <path id="Path_3012" data-name="Path 3012" d="M257.71,50.4a1.94,1.94,0,0,0,.971.364v.248a.4.4,0,1,0,.8,0v-.287a1.629,1.629,0,0,0,1.186-1.3,1.433,1.433,0,0,0-.974-1.622l-.212-.077V46.431a.55.55,0,0,1,.2.116.4.4,0,0,0,.6-.529,1.391,1.391,0,0,0-.8-.412V45.4a.4.4,0,1,0-.8,0v.249l-.075.021a1.349,1.349,0,0,0-.925,1.058,1.2,1.2,0,0,0,.4,1.18,2.955,2.955,0,0,0,.6.353v1.691a1.213,1.213,0,0,1-.533-.228.4.4,0,0,0-.439.67Zm1.772-1.817a.62.62,0,0,1,.4.712.828.828,0,0,1-.4.574Zm-.911-1.3a.415.415,0,0,1-.1-.4.6.6,0,0,1,.213-.359v.838C258.642,47.33,258.6,47.3,258.572,47.279Z" transform="translate(-247.214 -43.198)" fill="#939ea8"/>
  <path id="Path_3013" data-name="Path 3013" d="M177.006,10.013A5.006,5.006,0,1,0,172,5.006,5.012,5.012,0,0,0,177.006,10.013Zm0-8.811a3.8,3.8,0,1,1-3.8,3.8A3.809,3.809,0,0,1,177.006,1.2Z" transform="translate(-165.111)" fill="#939ea8"/>
</svg>
