<svg xmlns="http://www.w3.org/2000/svg" width="27.769" height="29" viewBox="0 0 27.769 29"><defs><style>.a{fill:#03a9f4;}.b{fill:#283593;}</style></defs><path class="a" d="M153.233,116.347a.75.75,0,0,0-.648-.019.61.61,0,0,0-.369.475,6,6,0,0,1-.11.6c-1.327,5.369-3.992,7.98-8.15,7.98h-6.1a.664.664,0,0,0-.663.483l-2.034,8.5-.363,2.163a1.836,1.836,0,0,0,1.62,2.118,2.277,2.277,0,0,0,.369.032h4.081a1.994,1.994,0,0,0,1.973-1.376l1.648-5.874h3.537c4.174,0,7.059-2.966,8.123-8.353h0A6.006,6.006,0,0,0,153.233,116.347Z" transform="translate(-128.58 -109.679)"/><path class="b" d="M60.887,2.154A7.531,7.531,0,0,0,55.6,0H44.375a3.276,3.276,0,0,0-3.354,2.569L37.536,23.293a1.855,1.855,0,0,0,1.709,2.062,2.279,2.279,0,0,0,.3.02h5.206a.663.663,0,0,0,.663-.483l1.918-7.975h5.558c4.823,0,8.011-3.005,9.475-8.942a6.409,6.409,0,0,0,.136-.717A5.777,5.777,0,0,0,60.887,2.154Z" transform="translate(-37.513 0)"/></svg>