<svg xmlns="http://www.w3.org/2000/svg" width="10.989" height="12.559" viewBox="0 0 10.989 12.559">
  <g id="pdf_1_" data-name="pdf (1)" transform="translate(-19.329)">
    <path id="Path_4096" data-name="Path 4096" d="M20.114,0h6.669l3.535,3.521v8.253a.785.785,0,0,1-.785.785H20.114a.785.785,0,0,1-.785-.785V.785A.785.785,0,0,1,20.114,0Z" fill="#e2574c"/>
    <path id="Path_4097" data-name="Path 4097" d="M206.478,3.717h-2.736a.785.785,0,0,1-.785-.785V.193Z" transform="translate(-176.171 -0.185)" fill="#b53629"/>
    <path id="Path_4098" data-name="Path 4098" d="M92.372,135.872a.228.228,0,0,0,0-.452h-.749a.234.234,0,0,0-.228.255v1.84c0,.164.093.255.22.255s.219-.091.219-.255v-.505h.453a.213.213,0,0,0,.211-.229.209.209,0,0,0-.211-.223h-.453v-.686Zm-2.531-.452h-.548a.242.242,0,0,0-.254.254v1.843a.241.241,0,0,0,.261.247h.575A1.066,1.066,0,0,0,91,136.625,1.094,1.094,0,0,0,89.841,135.42Zm.026,1.889h-.334v-1.435h.3c.456,0,.654.306.654.728C90.488,137,90.293,137.309,89.867,137.309ZM87.86,135.42h-.543a.228.228,0,0,0-.239.255v1.84a.231.231,0,1,0,.46,0v-.537h.34a.743.743,0,0,0,.767-.776A.752.752,0,0,0,87.86,135.42Zm-.009,1.126h-.313v-.694h.313a.349.349,0,0,1,0,.694Z" transform="translate(-64.998 -129.921)" fill="#fff"/>
  </g>
</svg>
