<svg width="25" height="25" xmlns="http://www.w3.org/2000/svg" xmlns:xlink="http://www.w3.org/1999/xlink" xmlns:svgjs="http://svgjs.com/svgjs" viewBox="0 0 24.999 25" fill="#c0cbd5"><svg xmlns="http://www.w3.org/2000/svg" width="25" height="25" viewBox="0 0 24 24"><path paint-order="stroke fill markers" fill-rule="evenodd" d="M23.853 22.44l-6.972-6.972A9.455 9.455 0 0 0 19 9.5C19 4.262 14.737 0 9.5 0 4.26 0 0 4.262 0 9.5S4.26 19 9.5 19a9.45 9.45 0 0 0 5.968-2.119l6.971 6.972a.5.5 0 0 0 .707 0l.707-.707a.5.5 0 0 0 0-.707zM9.5 17C5.364 17 2 13.636 2 9.5S5.363 2 9.5 2C13.635 2 17 5.364 17 9.5S13.635 17 9.5 17z"/></svg></svg>