<svg width="31" height="31" xmlns="http://www.w3.org/2000/svg" xmlns:xlink="http://www.w3.org/1999/xlink" xmlns:svgjs="http://svgjs.com/svgjs" viewBox="43 225 31 31"><svg width="15" height="14" xmlns="http://www.w3.org/2000/svg" xmlns:xlink="http://www.w3.org/1999/xlink" xmlns:svgjs="http://svgjs.com/svgjs" viewBox="0 0.604 15 12.793" fill="#181c2b" x="48" y="230"><svg xmlns="http://www.w3.org/2000/svg" xmlns:xlink="http://www.w3.org/1999/xlink" width="15" height="14" viewBox="0.029 0.856 14.554 12.412"><path paint-order="stroke fill markers" fill-rule="evenodd" d="M13.763 9.385c-.452 0-.819.152-.819.605 0 .904-.736 1.639-1.639 1.639H3.093c-.904 0-1.425-.735-1.425-1.639V7.74c.015.01-.563-.155 2.207.386v.428a.82.82 0 0 0 1.64 0V8l.626-.186c1.014-.094 1.001-.085 2.436-.002l.032.002.703.137v.602a.82.82 0 0 0 1.64 0v-.428c2.769-.541 1.976-.375 1.992-.387v1.969a.82.82 0 0 0 1.639 0V6.34a3.281 3.281 0 0 0-3.278-3.277h-.315v.251A2.461 2.461 0 0 0 8.532.856H6.08A2.461 2.461 0 0 0 3.62 3.314v-.25h-.314A3.281 3.281 0 0 0 .03 6.34v3.65c0 1.808 1.256 3.278 3.064 3.278h8.212a3.281 3.281 0 0 0 3.278-3.278c0-.453-.367-.605-.82-.605zM5.26 3.315a.82.82 0 0 1 .82-.82h2.452a.82.82 0 0 1 .82.82v-.252H5.26v.251zM1.668 6.34c0-.903.735-1.638 1.64-1.638h7.997c.903 0 1.639.735 1.639 1.638v-.337c0 .401.438.098-2.672.612l-1.026-.1c-.004-.001-2.237-.408-3.885 0l-.782.1c-3.392-.498-2.911-.21-2.911-.612v.337z"/></svg></svg><svg width="31" height="31" xmlns="http://www.w3.org/2000/svg" xmlns:xlink="http://www.w3.org/1999/xlink" xmlns:svgjs="http://svgjs.com/svgjs" fill="#181c2b" x="43" y="225"><svg xmlns="http://www.w3.org/2000/svg" width="31" height="31" viewBox="-0.001 0 30.427 30.427"><path paint-order="stroke fill markers" fill-rule="evenodd" d="M30.079 28.327l-8.066-8.065c4.338-5.305 3.554-13.122-1.751-17.46C14.957-1.535 7.139-.75 2.802 4.554-1.536 9.859-.75 17.676 4.554 22.014a12.408 12.408 0 0 0 15.708 0l8.065 8.065a1.238 1.238 0 0 0 1.752-1.752zm-17.651-5.989c-5.472-.006-9.904-4.44-9.91-9.91 0-5.474 4.437-9.91 9.91-9.91s9.91 4.436 9.91 9.91c0 5.473-4.437 9.91-9.91 9.91z"/></svg></svg></svg>