<svg id="send" xmlns="http://www.w3.org/2000/svg" width="22.654" height="21.71" viewBox="0 0 22.654 21.71">
  <path id="Path_3000" data-name="Path 3000" d="M8.75,17.612V21.99a.708.708,0,0,0,1.278.419l2.561-3.485Z" transform="translate(-0.491 -0.988)" fill="#fff"/>
  <path id="Path_3001" data-name="Path 3001" d="M22.357.131A.708.708,0,0,0,21.618.08L.38,11.171a.708.708,0,0,0,.1,1.3l5.9,2.018L18.957,3.736,9.227,15.459l9.9,3.382a.724.724,0,0,0,.228.038.707.707,0,0,0,.7-.6L22.646.813a.709.709,0,0,0-.29-.682Z" transform="translate(0 0)" fill="#fff"/>
</svg>
