<svg xmlns="http://www.w3.org/2000/svg" width="18.065" height="19.53" viewBox="0 0 18.065 19.53">
  <g id="share_1_" data-name="share (1)" transform="translate(0 -4)">
    <path id="Path_4117" data-name="Path 4117" d="M312.995,7.325a3.663,3.663,0,1,1,3.663-3.663A3.667,3.667,0,0,1,312.995,7.325Zm0-5.86a2.2,2.2,0,1,0,2.2,2.2A2.2,2.2,0,0,0,312.995,1.465Zm0,0" transform="translate(-298.592 4)" fill="#939ea8"/>
    <path id="Path_4118" data-name="Path 4118" d="M312.995,359.325a3.663,3.663,0,1,1,3.663-3.663A3.667,3.667,0,0,1,312.995,359.325Zm0-5.86a2.2,2.2,0,1,0,2.2,2.2A2.2,2.2,0,0,0,312.995,353.465Zm0,0" transform="translate(-298.592 -335.795)" fill="#939ea8"/>
    <path id="Path_4119" data-name="Path 4119" d="M3.663,183.325a3.663,3.663,0,1,1,3.663-3.663A3.667,3.667,0,0,1,3.663,183.325Zm0-5.86a2.2,2.2,0,1,0,2.2,2.2A2.2,2.2,0,0,0,3.663,177.465Zm0,0" transform="translate(0 -165.898)" fill="#939ea8"/>
    <path id="Path_4120" data-name="Path 4120" d="M120.422,104.331a.732.732,0,0,1-.363-1.368l5.507-3.121a.732.732,0,0,1,.725,1.273l-5.507,3.121a.734.734,0,0,1-.361.1Zm0,0" transform="translate(-114.21 -91.279)" fill="#939ea8"/>
    <path id="Path_4121" data-name="Path 4121" d="M125.828,276.164a.726.726,0,0,1-.361-.1l-5.386-3.15a.732.732,0,0,1,.725-1.273l5.386,3.15a.733.733,0,0,1-.363,1.369Zm0,0" transform="translate(-114.23 -257.071)" fill="#939ea8"/>
  </g>
</svg>
