<svg id="student" xmlns="http://www.w3.org/2000/svg" width="14.448" height="17.613" viewBox="0 0 14.448 17.613">
  <path id="Path_239" data-name="Path 239" d="M46.516,6.227a.516.516,0,0,0,.516-.516V2.15l2.064.318V4.493c-1.158,1.385-2.064,2.675-2.064,6.377v3.051a3.619,3.619,0,0,0-.571,1.235l-.446,1.817a.516.516,0,0,0,.5.639H59.932a.516.516,0,0,0,.5-.639l-.446-1.82a3.613,3.613,0,0,0-.571-1.234v-3.18c0-3.686-.906-4.993-2.064-6.377v-1.9l2.659-.409a.516.516,0,0,0,0-1.02L53.3.006a.517.517,0,0,0-.157,0L46.438,1.038a.518.518,0,0,0-.438.51V5.711a.516.516,0,0,0,.516.516Zm1.548,4.644A8.292,8.292,0,0,1,49.1,6.179V8.086a4.415,4.415,0,0,0,2.064,3.753v.58H49.965a3.613,3.613,0,0,0-1.9.54ZM53.22,5.718a13.211,13.211,0,0,0,3.1-.369V8.233a5.176,5.176,0,0,1-1.071-.409,3.913,3.913,0,0,0-4.05,0,5.19,5.19,0,0,1-1.068.409c0-.048,0-.1,0-.146V5.351A13.2,13.2,0,0,0,53.22,5.718ZM50.128,4.287V2.626l3.018.464a.516.516,0,0,0,.157,0l3.018-.464V4.285A12.171,12.171,0,0,1,50.128,4.287Zm2.929,7.1A3.149,3.149,0,0,1,50.33,9.245a6.032,6.032,0,0,0,1.307-.487,2.929,2.929,0,0,1,3.174,0,5.873,5.873,0,0,0,1.357.5A3.1,3.1,0,0,1,53.057,11.382Zm1.2.908v.645a1.032,1.032,0,1,1-2.064,0v-.651a3.9,3.9,0,0,0,.811.129A4.165,4.165,0,0,0,54.256,12.29Zm-7.082,4.291.288-1.176a2.578,2.578,0,0,1,1.772-1.849l.75,3.025Zm8.227,0H51.048l-.776-3.13h.954a2.064,2.064,0,0,0,4,0h.954Zm3.874,0H56.464l.75-3.025A2.574,2.574,0,0,1,58.985,15.4ZM57.352,6.05a8.291,8.291,0,0,1,1.032,4.691v2.217a3.614,3.614,0,0,0-1.9-.54H55.288v-.551a4.119,4.119,0,0,0,2.064-3.577ZM53.224,1.038l3.315.51-3.315.51-3.315-.51Z" transform="translate(-46 0)" fill="#181c2b"/>
</svg>
