<svg xmlns="http://www.w3.org/2000/svg" width="28.096" height="24.694" viewBox="0 0 28.096 24.694">
  <path id="student_1_" data-name="student (1)" d="M26.45,49.32V37.948l1.111-.415a.823.823,0,0,0,0-1.542L14.336,31.052a.823.823,0,0,0-.576,0L.535,35.991a.823.823,0,0,0,0,1.542l5.48,2.047a15.572,15.572,0,0,0-1.022,6.237.823.823,0,0,0,1.129.764,11.918,11.918,0,0,1,3.81-.764,7.058,7.058,0,0,1,3.6,1.466.823.823,0,0,0,1.028,0,6.89,6.89,0,0,1,3.6-1.466,12,12,0,0,1,3.81.764.823.823,0,0,0,1.129-.764,15.685,15.685,0,0,0-1.022-6.237L24.8,38.563V49.32a2.694,2.694,0,0,0-1.077,1.209,6.162,6.162,0,0,0-.569,2.7v1.646a.823.823,0,0,0,.823.823h3.293a.823.823,0,0,0,.823-.823V53.225a6.162,6.162,0,0,0-.569-2.7A2.694,2.694,0,0,0,26.45,49.32ZM14.048,32.7l10.872,4.06-10.872,4.06L3.176,36.762Zm7.4,11.974a12.437,12.437,0,0,0-3.286-.506,8.015,8.015,0,0,0-4.116,1.457A8.015,8.015,0,0,0,9.932,44.17a12.437,12.437,0,0,0-3.286.506,13.644,13.644,0,0,1,.911-4.521l6.2,2.316a.823.823,0,0,0,.576,0l6.2-2.316A13.647,13.647,0,0,1,21.45,44.676Zm5,9.371H24.8v-.823a4.569,4.569,0,0,1,.4-1.96c.21-.421.4-.509.428-.509s.217.089.428.509a4.569,4.569,0,0,1,.4,1.96Z" transform="translate(0 -31)"/>
</svg>
