<svg xmlns="http://www.w3.org/2000/svg" width="26" height="26" viewBox="0 0 26 26"><defs><style>.a{fill:#25cf2a;}</style></defs><path class="a" d="M13,0A13,13,0,1,0,26,13,13,13,0,0,0,13,0Zm0,24.143A11.143,11.143,0,1,1,24.143,13,11.143,11.143,0,0,1,13,24.143Z"/><g transform="translate(5.56 7.44)"><path class="a" d="M116.764,137a.928.928,0,0,0-1.29,0h0l-8.629,8.629-3.058-3.058a.929.929,0,1,0-1.336,1.29l.023.023,3.714,3.714a.928.928,0,0,0,1.313,0l9.286-9.286A.928.928,0,0,0,116.764,137Z" transform="translate(-102.19 -136.743)"/></g></svg>