<svg id="successBlue" xmlns="http://www.w3.org/2000/svg" width="18" height="18" viewBox="0 0 18 18">
  <g id="Group_17" data-name="Group 17">
    <g id="Group_16" data-name="Group 16">
      <path id="Path_134" data-name="Path 134" d="M9,0a9,9,0,1,0,9,9A9,9,0,0,0,9,0ZM9,16.714A7.714,7.714,0,1,1,16.714,9,7.714,7.714,0,0,1,9,16.714Z" fill="#22aeed"/>
    </g>
  </g>
  <g id="Group_19" data-name="Group 19" transform="translate(3.849 5.151)">
    <g id="Group_18" data-name="Group 18">
      <path id="Path_135" data-name="Path 135" d="M112.279,136.923a.643.643,0,0,0-.893,0h0l-5.974,5.974-2.117-2.117a.643.643,0,1,0-.925.893l.016.016,2.571,2.571a.643.643,0,0,0,.909,0l6.429-6.429A.643.643,0,0,0,112.279,136.923Z" transform="translate(-102.19 -136.743)" fill="#22aeed"/>
    </g>
  </g>
</svg>
