<svg xmlns="http://www.w3.org/2000/svg" width="29.793" height="29.793" viewBox="0 0 29.793 29.793">
  <path id="twitter" d="M14.9,0a14.9,14.9,0,1,0,14.9,14.9A14.9,14.9,0,0,0,14.9,0Zm6.8,11.615q.01.22.01.442a9.662,9.662,0,0,1-9.728,9.728h0a9.678,9.678,0,0,1-5.241-1.536,6.954,6.954,0,0,0,.816.047A6.861,6.861,0,0,0,11.8,18.833a3.423,3.423,0,0,1-3.194-2.375,3.408,3.408,0,0,0,1.544-.059,3.42,3.42,0,0,1-2.743-3.352c0-.015,0-.029,0-.044a3.4,3.4,0,0,0,1.549.428A3.422,3.422,0,0,1,7.9,8.867a9.707,9.707,0,0,0,7.048,3.573,3.421,3.421,0,0,1,5.826-3.118,6.858,6.858,0,0,0,2.171-.83,3.433,3.433,0,0,1-1.5,1.891A6.819,6.819,0,0,0,23.4,9.844,6.949,6.949,0,0,1,21.7,11.615Zm0,0" fill="#686f74"/>
</svg>
