<svg xmlns="http://www.w3.org/2000/svg" width="18.479" height="19.9" viewBox="0 0 18.479 19.9">
  <g id="upload_blue" transform="translate(-17.065 0)">
    <g id="Group_7198" data-name="Group 7198" transform="translate(17.065 6.396)">
      <g id="Group_7197" data-name="Group 7197" transform="translate(0)">
        <path id="Path_2933" data-name="Path 2933" d="M33.412,153.6H29.858a.711.711,0,0,0,0,1.421h3.554a.711.711,0,0,1,.711.711v9.239a.711.711,0,0,1-.711.711H19.2a.711.711,0,0,1-.711-.711v-9.239a.711.711,0,0,1,.711-.711h3.554a.711.711,0,0,0,0-1.421H19.2a2.132,2.132,0,0,0-2.132,2.132v9.239A2.132,2.132,0,0,0,19.2,167.1H33.412a2.132,2.132,0,0,0,2.132-2.132v-9.239A2.132,2.132,0,0,0,33.412,153.6Z" transform="translate(-17.065 -153.595)" fill="#1492e6"/>
      </g>
    </g>
    <g id="Group_7200" data-name="Group 7200" transform="translate(22.049 0)">
      <g id="Group_7199" data-name="Group 7199" transform="translate(0 0)">
        <path id="Path_2934" data-name="Path 2934" d="M145.053,3.761,141.5.208a.711.711,0,0,0-1,0l-3.554,3.554a.711.711,0,0,0,1,1l2.34-2.34V14.214a.711.711,0,0,0,1.421,0V2.426l2.34,2.34a.711.711,0,0,0,1-1Z" transform="translate(-136.741 0)" fill="#1492e6"/>
      </g>
    </g>
  </g>
</svg>
