<?xml version="1.0" encoding="utf-8"?>
<!-- Generator: Adobe Illustrator 24.1.1, SVG Export Plug-In . SVG Version: 6.00 Build 0)  -->
<svg version="1.1" id="Layer_1" xmlns="http://www.w3.org/2000/svg" xmlns:xlink="http://www.w3.org/1999/xlink" x="0px" y="0px"
	 viewBox="0 0 15 18" style="enable-background:new 0 0 15 18;" xml:space="preserve">
<style type="text/css">
	.st0{fill:#1C1D21;}
</style>
<g transform="translate(9 6)">
	<g transform="matrix(1, 0, 0, 1, -9, -6)">
		<path class="st0" d="M7.4,8.6c1.2,0,2.3-0.4,3.1-1.3c0.8-0.8,1.3-1.9,1.3-3.1c0-1.2-0.4-2.3-1.3-3.1C8.8-0.5,6-0.5,4.3,1.2
			c0,0,0,0,0,0C3.5,2,3,3.2,3.1,4.3c0,1.2,0.4,2.3,1.3,3.1C5.1,8.2,6.3,8.7,7.4,8.6z M5.1,2c1.3-1.3,3.4-1.3,4.6,0c0,0,0,0,0,0
			c0.6,0.6,1,1.4,1,2.3c0,0.9-0.3,1.7-1,2.3c-1.3,1.3-3.4,1.3-4.6,0c0,0,0,0,0,0c-0.6-0.6-1-1.4-1-2.3C4.1,3.4,4.5,2.6,5.1,2z"/>
	</g>
	<g transform="matrix(1, 0, 0, 1, -9, -6)">
		<path class="st0" d="M15,13.8c0-0.4-0.1-0.8-0.1-1.1c-0.1-0.4-0.2-0.8-0.3-1.1c-0.1-0.4-0.3-0.7-0.5-1.1c-0.2-0.3-0.4-0.7-0.7-0.9
			c-0.3-0.3-0.6-0.5-1-0.6c-0.4-0.2-0.9-0.2-1.3-0.2c-0.3,0-0.5,0.1-0.7,0.3c-0.2,0.1-0.5,0.3-0.7,0.5C9.3,9.6,9,9.8,8.7,9.9
			c-0.8,0.3-1.6,0.3-2.3,0C6,9.8,5.7,9.6,5.4,9.4C5.1,9.3,4.9,9.1,4.7,9C4.5,8.8,4.2,8.7,4,8.7c-0.4,0-0.9,0.1-1.3,0.2
			c-0.4,0.1-0.7,0.4-1,0.6c-0.3,0.3-0.5,0.6-0.7,0.9c-0.2,0.3-0.4,0.7-0.5,1.1c-0.1,0.4-0.2,0.8-0.3,1.1c-0.1,0.4-0.1,0.8-0.1,1.1
			c0,0.3,0,0.7,0,1.1c0,0.8,0.3,1.7,0.9,2.3C1.5,17.7,2.3,18,3.2,18h8.7c0.8,0,1.7-0.3,2.3-0.8c0.6-0.6,0.9-1.4,0.9-2.3
			C15,14.5,15,14.2,15,13.8L15,13.8z M13.4,16.4c-0.4,0.4-1,0.6-1.6,0.5H3.2c-0.6,0-1.1-0.2-1.6-0.5C1.2,16,1,15.4,1.1,14.9
			c0-0.3,0-0.7,0-1c0-0.3,0.1-0.7,0.1-1c0.1-0.3,0.1-0.7,0.2-1c0.1-0.3,0.2-0.6,0.4-0.9c0.1-0.3,0.3-0.5,0.5-0.7
			C2.6,10.1,2.8,10,3,9.9c0.3-0.1,0.5-0.2,0.8-0.2c0,0,0.1,0.1,0.2,0.1c0.2,0.1,0.5,0.3,0.7,0.5c0.4,0.2,0.8,0.4,1.2,0.5
			c1,0.3,2,0.3,3,0c0.4-0.1,0.8-0.3,1.2-0.5c0.3-0.2,0.5-0.3,0.7-0.5c0.1-0.1,0.2-0.1,0.2-0.1c0.3,0,0.6,0.1,0.8,0.2
			c0.3,0.1,0.5,0.2,0.7,0.4c0.2,0.2,0.4,0.4,0.5,0.7c0.2,0.3,0.3,0.6,0.4,0.9c0.1,0.3,0.2,0.7,0.2,1c0.1,0.3,0.1,0.7,0.1,1l0,0
			c0,0.3,0,0.6,0,1C14,15.4,13.8,16,13.4,16.4L13.4,16.4z"/>
	</g>
</g>
</svg>
