<svg xmlns="http://www.w3.org/2000/svg" xmlns:xlink="http://www.w3.org/1999/xlink" width="30.808" height="33.352" viewBox="0 0 30.808 33.352">
  <defs>
    <filter id="Path_2" x="2.609" y="0" width="25.396" height="25.395" filterUnits="userSpaceOnUse">
      <feOffset dy="3" input="SourceAlpha"/>
      <feGaussianBlur stdDeviation="3" result="blur"/>
      <feFlood flood-opacity="0.161"/>
      <feComposite operator="in" in2="blur"/>
      <feComposite in="SourceGraphic"/>
    </filter>
    <filter id="Path_3" x="0" y="7.416" width="30.808" height="25.937" filterUnits="userSpaceOnUse">
      <feOffset dy="3" input="SourceAlpha"/>
      <feGaussianBlur stdDeviation="3" result="blur-2"/>
      <feFlood flood-opacity="0.161"/>
      <feComposite operator="in" in2="blur-2"/>
      <feComposite in="SourceGraphic"/>
    </filter>
  </defs>
  <g id="userRed" transform="translate(9 6)">
    <g transform="matrix(1, 0, 0, 1, -9, -6)" filter="url(#Path_2)">
      <path id="Path_2-2" data-name="Path 2" d="M90.729,7.4a3.578,3.578,0,0,0,2.615-1.083A3.578,3.578,0,0,0,94.427,3.7a3.578,3.578,0,0,0-1.083-2.614,3.7,3.7,0,0,0-5.229,0A3.578,3.578,0,0,0,87.032,3.7a3.578,3.578,0,0,0,1.083,2.615A3.579,3.579,0,0,0,90.729,7.4ZM88.751,1.72a2.8,2.8,0,0,1,3.957,0,2.673,2.673,0,0,1,.82,1.978,2.673,2.673,0,0,1-.82,1.978,2.8,2.8,0,0,1-3.957,0,2.673,2.673,0,0,1-.82-1.978A2.673,2.673,0,0,1,88.751,1.72Zm0,0" transform="translate(-75.42 6)" fill="#f26143"/>
    </g>
    <g transform="matrix(1, 0, 0, 1, -9, -6)" filter="url(#Path_3)">
      <path id="Path_3-2" data-name="Path 3" d="M12.777,251.706a9.134,9.134,0,0,0-.124-.97,7.643,7.643,0,0,0-.239-.975,4.818,4.818,0,0,0-.4-.91,3.428,3.428,0,0,0-.6-.788,2.666,2.666,0,0,0-.869-.546,3,3,0,0,0-1.109-.2,1.125,1.125,0,0,0-.6.255c-.18.117-.391.253-.626.4a3.589,3.589,0,0,1-.81.357,3.145,3.145,0,0,1-1.982,0,3.577,3.577,0,0,1-.809-.357c-.233-.149-.444-.285-.627-.4a1.124,1.124,0,0,0-.6-.255,3,3,0,0,0-1.109.2,2.664,2.664,0,0,0-.869.546,3.43,3.43,0,0,0-.6.788,4.827,4.827,0,0,0-.4.91,7.661,7.661,0,0,0-.238.975,9.072,9.072,0,0,0-.124.97c-.02.293-.031.6-.031.907a2.549,2.549,0,0,0,.757,1.929,2.725,2.725,0,0,0,1.951.712H10.1a2.726,2.726,0,0,0,1.951-.712,2.548,2.548,0,0,0,.757-1.929c0-.309-.011-.614-.031-.907Zm-1.347,2.184a1.835,1.835,0,0,1-1.331.464H2.708a1.835,1.835,0,0,1-1.331-.464A1.665,1.665,0,0,1,.9,252.613c0-.288.009-.572.028-.844a8.182,8.182,0,0,1,.112-.874,6.756,6.756,0,0,1,.21-.86,3.93,3.93,0,0,1,.326-.74,2.542,2.542,0,0,1,.444-.582,1.769,1.769,0,0,1,.578-.359,2.071,2.071,0,0,1,.709-.137c.032.017.088.049.179.108.185.121.4.258.634.409a4.459,4.459,0,0,0,1.017.454,4.044,4.044,0,0,0,2.535,0,4.462,4.462,0,0,0,1.017-.455c.241-.154.448-.288.633-.408.091-.059.147-.091.179-.108a2.072,2.072,0,0,1,.709.137,1.771,1.771,0,0,1,.578.359,2.536,2.536,0,0,1,.444.582,3.917,3.917,0,0,1,.326.739,6.741,6.741,0,0,1,.21.86,8.252,8.252,0,0,1,.112.874h0c.019.272.029.556.029.844a1.665,1.665,0,0,1-.478,1.277Zm0,0" transform="translate(9 -233.9)" fill="#f26143"/>
    </g>
  </g>
</svg>
