<svg xmlns="http://www.w3.org/2000/svg" width="75.231" height="22.808" viewBox="0 0 75.231 22.808"><defs><style>.a{fill:#3c58bf;}.b{fill:#293688;}.c{fill:#ffbc00;}.d{fill:#f7981d;}.e{fill:#ed7c00;}.f{fill:#051244;}</style></defs><g transform="translate(0 -175.6)"><path class="a" d="M184.8,201.894l3.821-21.494h5.971l-3.7,21.494Z" transform="translate(-157.215 -4.084)"/><path class="b" d="M184.8,201.894l4.9-21.494h4.9l-3.7,21.494Z" transform="translate(-157.215 -4.084)"/><path class="a" d="M266.27,176.555a15.146,15.146,0,0,0-5.493-.955c-5.971,0-10.27,2.985-10.27,7.284,0,3.224,2.985,4.9,5.374,5.971s3.1,1.791,3.1,2.747c0,1.433-1.911,2.149-3.582,2.149a12.979,12.979,0,0,1-5.732-1.194l-.836-.358-.836,4.9a19.363,19.363,0,0,0,6.807,1.194c6.329,0,10.508-2.985,10.508-7.523,0-2.508-1.552-4.418-5.135-5.971-2.149-1.075-3.463-1.672-3.463-2.747,0-.955,1.075-1.911,3.463-1.911a10.952,10.952,0,0,1,4.538.836l.6.239.955-4.657Z" transform="translate(-210.982)"/><path class="b" d="M266.27,176.555a15.146,15.146,0,0,0-5.493-.955c-5.971,0-9.195,2.985-9.195,7.284,0,3.224,1.911,4.9,4.3,5.971s3.1,1.791,3.1,2.747c0,1.433-1.911,2.149-3.582,2.149a12.979,12.979,0,0,1-5.732-1.194l-.836-.358-.836,4.9a19.363,19.363,0,0,0,6.807,1.194c6.329,0,10.508-2.985,10.508-7.523,0-2.508-1.552-4.418-5.135-5.971-2.149-1.075-3.463-1.672-3.463-2.747,0-.955,1.075-1.911,3.463-1.911a10.952,10.952,0,0,1,4.538.836l.6.239.955-4.657Z" transform="translate(-210.982)"/><path class="a" d="M370.461,180.4c-1.433,0-2.508.119-3.1,1.552L358.4,201.894h6.448l1.194-3.582h7.642l.716,3.582h5.732L375.118,180.4Zm-2.747,14.33c.358-1.075,2.388-6.329,2.388-6.329s.478-1.314.836-2.149l.358,2.03s1.194,5.374,1.433,6.568h-5.015Z" transform="translate(-304.903 -4.084)"/><path class="b" d="M371.894,180.4c-1.433,0-2.508.119-3.1,1.552L358.4,201.894h6.448l1.194-3.582h7.642l.716,3.582h5.732L375.118,180.4Zm-4.179,14.33c.478-1.194,2.388-6.329,2.388-6.329s.478-1.314.836-2.149l.358,2.03s1.194,5.374,1.433,6.568h-5.015Z" transform="translate(-304.903 -4.084)"/><path class="a" d="M60.156,196.127l-.6-3.1c-1.075-3.582-4.538-7.523-8.359-9.434l5.374,19.106h6.448L72.694,181.2H66.246Z" transform="translate(-43.558 -4.764)"/><path class="b" d="M60.156,196.127l-.6-3.1c-1.075-3.582-4.538-7.523-8.359-9.434l5.374,19.106h6.448L72.694,181.2H67.44Z" transform="translate(-43.558 -4.764)"/><path class="c" d="M0,180.4l1.075.239c7.642,1.791,12.9,6.329,14.927,11.7l-2.149-10.15c-.358-1.433-1.433-1.791-2.747-1.791Z" transform="translate(0 -4.084)"/><path class="d" d="M0,180.4H0c7.642,1.791,13.971,6.448,16,11.822l-2.03-8.478a2.915,2.915,0,0,0-2.866-2.269Z" transform="translate(0 -4.084)"/><path class="e" d="M0,180.4H0c7.642,1.791,13.971,6.448,16,11.822l-1.433-4.657c-.358-1.433-.836-2.866-2.508-3.463Z" transform="translate(0 -4.084)"/><g transform="translate(7.762 178.705)"><path class="f" d="M66.807,208.341l-4.06-4.06-1.911,4.538-.478-2.985c-1.075-3.582-4.538-7.523-8.359-9.434l5.374,19.106h6.448Z" transform="translate(-52 -196.4)"/><path class="f" d="M190.89,294.454l-5.135-5.254-.955,5.254Z" transform="translate(-164.977 -275.348)"/><path class="f" d="M258.389,274.8h0c.478.478.716.836.6,1.314,0,1.433-1.911,2.149-3.582,2.149a12.979,12.979,0,0,1-5.732-1.194l-.836-.358-.836,4.9a19.363,19.363,0,0,0,6.807,1.194c3.821,0,6.926-1.075,8.717-2.985Z" transform="translate(-218.744 -263.097)"/><path class="f" d="M364,235.243h5.612l1.194-3.582h7.642l.716,3.582H384.9l-2.03-8.717L375.7,219.6l.358,1.911s1.194,5.374,1.433,6.568h-5.015c.478-1.194,2.388-6.329,2.388-6.329s.478-1.314.836-2.149" transform="translate(-317.429 -216.137)"/></g></g></svg>