<svg xmlns="http://www.w3.org/2000/svg" width="25.535" height="25.535" viewBox="0 0 25.535 25.535">
  <path id="www" d="M21.794,3.741a12.765,12.765,0,1,0,0,18.052A12.758,12.758,0,0,0,21.794,3.741ZM21.26,19.974a12.8,12.8,0,0,0-1.907-1.412,20.644,20.644,0,0,0,.77-4.981h3.753a11.037,11.037,0,0,1-2.616,6.393Zm-19.6-6.393H5.412a20.644,20.644,0,0,0,.77,4.981,12.8,12.8,0,0,0-1.907,1.412A11.037,11.037,0,0,1,1.659,13.581Zm2.616-8.02A12.8,12.8,0,0,0,6.182,6.973a20.644,20.644,0,0,0-.77,4.981H1.659A11.037,11.037,0,0,1,4.275,5.561Zm7.679,1.58A11.051,11.051,0,0,1,8.163,6.18c.69-1.776,1.961-3.906,3.792-4.434Zm0,1.63v3.183H7.04a19.166,19.166,0,0,1,.617-4.217A12.679,12.679,0,0,0,11.954,8.771Zm0,4.81v3.183a12.679,12.679,0,0,0-4.3,1.034,19.166,19.166,0,0,1-.617-4.217Zm0,4.813v5.395c-1.83-.528-3.1-2.658-3.792-4.434A11.051,11.051,0,0,1,11.954,18.393Zm1.627,0a11.051,11.051,0,0,1,3.792.961c-.69,1.776-1.961,3.906-3.792,4.434Zm0-1.63V13.581H18.5a19.166,19.166,0,0,1-.617,4.217,12.679,12.679,0,0,0-4.3-1.034Zm0-4.81V8.771a12.679,12.679,0,0,0,4.3-1.034,19.166,19.166,0,0,1,.617,4.217Zm0-4.813V1.746c1.831.528,3.1,2.658,3.792,4.434A11.052,11.052,0,0,1,13.581,7.141Zm3.654-4.582A11.089,11.089,0,0,1,20.118,4.4a11.18,11.18,0,0,1-1.309.993A12.247,12.247,0,0,0,17.235,2.558ZM6.726,5.393A11.185,11.185,0,0,1,5.417,4.4,11.089,11.089,0,0,1,8.3,2.558,12.251,12.251,0,0,0,6.726,5.393Zm0,14.748A12.248,12.248,0,0,0,8.3,22.976a11.089,11.089,0,0,1-2.884-1.841A11.181,11.181,0,0,1,6.726,20.141Zm12.084,0a11.186,11.186,0,0,1,1.309.993,11.089,11.089,0,0,1-2.884,1.841A12.246,12.246,0,0,0,18.81,20.141Zm1.314-8.188a20.644,20.644,0,0,0-.77-4.981A12.8,12.8,0,0,0,21.26,5.561a11.037,11.037,0,0,1,2.616,6.393Z" transform="translate(0 0)" fill="#939ea8"/>
</svg>
