<?xml version="1.0" encoding="utf-8"?>
<!-- Generator: Adobe Illustrator 19.0.0, SVG Export Plug-In . SVG Version: 6.00 Build 0)  -->
<svg version="1.1" id="Layer_1" xmlns="http://www.w3.org/2000/svg" xmlns:xlink="http://www.w3.org/1999/xlink" x="0px" y="0px"
	 viewBox="209 -245 448 512" style="enable-background:new 209 -245 448 512;" xml:space="preserve">
<style type="text/css">
	.st0{fill:#484B54;}
</style>
<path class="st0" d="M609-64.7V-157c0-30.9-25.1-56-56-56h-24c-4.4,0-8.6,0.6-12.8,1.6c-8.7-19.7-28.4-33.6-51.3-33.6h-24
	c-22.9,0-42.6,13.9-51.3,33.6c-4.1-1-8.4-1.6-12.8-1.6h-24c-22.9,0-42.6,13.9-51.3,33.6c-4.1-1-8.4-1.6-12.8-1.6h-24
	c-30.9,0-56,25.1-56,56V86c0,40.3,16,78.9,44.5,107.4l19.5,19.5V251c0,8.8,7.2,16,16,16h16c8.8,0,16-7.2,16-16v-57.9l-33.5-33.5
	C268.1,140.2,257,113.3,257,86V26.2c2.6,0.4,5.3,0.8,8,0.8h24c11.9,0,22.9-3.8,32-10.2c9.1,6.4,20.1,10.2,32,10.2h24
	c11.8,0,22.7-3.7,31.7-9.9c4.7,11.1,11.4,21.3,20.2,30c3.9,3.9,8,7.2,12.4,10.3C423,73,407.8,93.5,391.8,117.6
	c-5.9,8.9-3.5,20.9,5.4,26.9l7.7,5.1c8.9,5.9,20.9,3.5,26.9-5.4c29.3-43.9,46.7-64.6,83.3-68.5c8-0.9,14-7.8,14-15.9V43
	c0-8.8-7.2-16-16-16h-16.7C470.2,27,449,5.8,449-20.4v-0.7c0-8.8,7.1-15.9,15.9-15.9H545c35.3,0,64,28.6,64,64v48
	c0,25.5-10.1,49.9-28.1,67.9L529,194.8V251c0,8.8,7.2,16,16,16h16c8.8,0,16-7.2,16-16v-36.4l37.8-37.8c27-27,42.2-63.6,42.2-101.8
	V27C657-10.9,637.9-44.4,609-64.7z M289-21h-24c-4.4,0-8-3.6-8-8v-96c0-4.4,3.6-8,8-8h24c4.4,0,8,3.6,8,8v96
	C297-24.6,293.4-21,289-21z M385-29c0,4.4-3.6,8-8,8h-24c-4.4,0-8-3.6-8-8v-128c0-4.4,3.6-8,8-8h24c4.4,0,8,3.6,8,8V-29z M433-76.1
	V-189c0-4.4,3.6-8,8-8h24c4.4,0,8,3.6,8,8v104h-8C453.3-85,442.4-81.6,433-76.1z M521-85v-72c0-4.4,3.6-8,8-8h24c4.4,0,8,3.6,8,8
	v73.6c-5.3-0.8-10.5-1.6-16-1.6H521z"/>
</svg>
